<?xml version="1.0" encoding="utf-8"?>
<svg xmlns="http://www.w3.org/2000/svg" xmlns:xlink="http://www.w3.org/1999/xlink" width="600" height="400" viewBox="0 0 2400 1600">
<defs>
  <clipPath id="clip940">
    <rect x="0" y="0" width="2400" height="1600"/>
  </clipPath>
</defs>
<path clip-path="url(#clip940)" d="
M0 1600 L2400 1600 L2400 0 L0 0  Z
  " fill="#ffffff" fill-rule="evenodd" fill-opacity="1"/>
<defs>
  <clipPath id="clip941">
    <rect x="480" y="0" width="1681" height="1600"/>
  </clipPath>
</defs>
<path clip-path="url(#clip940)" d="
M86.9921 1521.01 L2352.76 1521.01 L2352.76 47.2441 L86.9921 47.2441  Z
  " fill="#ffffff" fill-rule="evenodd" fill-opacity="1"/>
<defs>
  <clipPath id="clip942">
    <rect x="86" y="47" width="2267" height="1475"/>
  </clipPath>
</defs>
<polyline clip-path="url(#clip942)" style="stroke:#000000; stroke-width:2; stroke-opacity:0.1; fill:none" points="
  151.118,1521.01 151.118,47.2441 
  "/>
<polyline clip-path="url(#clip942)" style="stroke:#000000; stroke-width:2; stroke-opacity:0.1; fill:none" points="
  685.496,1521.01 685.496,47.2441 
  "/>
<polyline clip-path="url(#clip942)" style="stroke:#000000; stroke-width:2; stroke-opacity:0.1; fill:none" points="
  1219.87,1521.01 1219.87,47.2441 
  "/>
<polyline clip-path="url(#clip942)" style="stroke:#000000; stroke-width:2; stroke-opacity:0.1; fill:none" points="
  1754.25,1521.01 1754.25,47.2441 
  "/>
<polyline clip-path="url(#clip942)" style="stroke:#000000; stroke-width:2; stroke-opacity:0.1; fill:none" points="
  2288.63,1521.01 2288.63,47.2441 
  "/>
<polyline clip-path="url(#clip940)" style="stroke:#000000; stroke-width:4; stroke-opacity:1; fill:none" points="
  86.9921,1521.01 2352.76,1521.01 
  "/>
<polyline clip-path="url(#clip940)" style="stroke:#000000; stroke-width:4; stroke-opacity:1; fill:none" points="
  151.118,1521.01 151.118,1503.32 
  "/>
<polyline clip-path="url(#clip940)" style="stroke:#000000; stroke-width:4; stroke-opacity:1; fill:none" points="
  685.496,1521.01 685.496,1503.32 
  "/>
<polyline clip-path="url(#clip940)" style="stroke:#000000; stroke-width:4; stroke-opacity:1; fill:none" points="
  1219.87,1521.01 1219.87,1503.32 
  "/>
<polyline clip-path="url(#clip940)" style="stroke:#000000; stroke-width:4; stroke-opacity:1; fill:none" points="
  1754.25,1521.01 1754.25,1503.32 
  "/>
<polyline clip-path="url(#clip940)" style="stroke:#000000; stroke-width:4; stroke-opacity:1; fill:none" points="
  2288.63,1521.01 2288.63,1503.32 
  "/>
<path clip-path="url(#clip940)" d="M 0 0 M119.22 1550.2 Q115.608 1550.2 113.78 1553.76 Q111.974 1557.31 111.974 1564.43 Q111.974 1571.54 113.78 1575.11 Q115.608 1578.65 119.22 1578.65 Q122.854 1578.65 124.659 1575.11 Q126.488 1571.54 126.488 1564.43 Q126.488 1557.31 124.659 1553.76 Q122.854 1550.2 119.22 1550.2 M119.22 1546.49 Q125.03 1546.49 128.085 1551.1 Q131.164 1555.68 131.164 1564.43 Q131.164 1573.16 128.085 1577.77 Q125.03 1582.35 119.22 1582.35 Q113.409 1582.35 110.331 1577.77 Q107.275 1573.16 107.275 1564.43 Q107.275 1555.68 110.331 1551.1 Q113.409 1546.49 119.22 1546.49 Z" fill="#000000" fill-rule="evenodd" fill-opacity="1" /><path clip-path="url(#clip940)" d="M 0 0 M136.233 1575.8 L141.118 1575.8 L141.118 1581.68 L136.233 1581.68 L136.233 1575.8 Z" fill="#000000" fill-rule="evenodd" fill-opacity="1" /><path clip-path="url(#clip940)" d="M 0 0 M146.326 1580.96 L146.326 1576.7 Q148.085 1577.54 149.891 1577.98 Q151.696 1578.42 153.432 1578.42 Q158.062 1578.42 160.492 1575.31 Q162.946 1572.19 163.293 1565.85 Q161.951 1567.84 159.891 1568.9 Q157.83 1569.97 155.33 1569.97 Q150.145 1569.97 147.113 1566.84 Q144.104 1563.69 144.104 1558.25 Q144.104 1552.93 147.252 1549.71 Q150.4 1546.49 155.631 1546.49 Q161.627 1546.49 164.775 1551.1 Q167.946 1555.68 167.946 1564.43 Q167.946 1572.61 164.057 1577.49 Q160.192 1582.35 153.641 1582.35 Q151.881 1582.35 150.076 1582 Q148.27 1581.66 146.326 1580.96 M155.631 1566.31 Q158.78 1566.31 160.608 1564.16 Q162.46 1562 162.46 1558.25 Q162.46 1554.53 160.608 1552.37 Q158.78 1550.2 155.631 1550.2 Q152.483 1550.2 150.631 1552.37 Q148.803 1554.53 148.803 1558.25 Q148.803 1562 150.631 1564.16 Q152.483 1566.31 155.631 1566.31 Z" fill="#000000" fill-rule="evenodd" fill-opacity="1" /><path clip-path="url(#clip940)" d="M 0 0 M183.015 1550.2 Q179.404 1550.2 177.576 1553.76 Q175.77 1557.31 175.77 1564.43 Q175.77 1571.54 177.576 1575.11 Q179.404 1578.65 183.015 1578.65 Q186.65 1578.65 188.455 1575.11 Q190.284 1571.54 190.284 1564.43 Q190.284 1557.31 188.455 1553.76 Q186.65 1550.2 183.015 1550.2 M183.015 1546.49 Q188.826 1546.49 191.881 1551.1 Q194.96 1555.68 194.96 1564.43 Q194.96 1573.16 191.881 1577.77 Q188.826 1582.35 183.015 1582.35 Q177.205 1582.35 174.127 1577.77 Q171.071 1573.16 171.071 1564.43 Q171.071 1555.68 174.127 1551.1 Q177.205 1546.49 183.015 1546.49 Z" fill="#000000" fill-rule="evenodd" fill-opacity="1" /><path clip-path="url(#clip940)" d="M 0 0 M654.095 1550.2 Q650.484 1550.2 648.656 1553.76 Q646.85 1557.31 646.85 1564.43 Q646.85 1571.54 648.656 1575.11 Q650.484 1578.65 654.095 1578.65 Q657.73 1578.65 659.535 1575.11 Q661.364 1571.54 661.364 1564.43 Q661.364 1557.31 659.535 1553.76 Q657.73 1550.2 654.095 1550.2 M654.095 1546.49 Q659.906 1546.49 662.961 1551.1 Q666.04 1555.68 666.04 1564.43 Q666.04 1573.16 662.961 1577.77 Q659.906 1582.35 654.095 1582.35 Q648.285 1582.35 645.207 1577.77 Q642.151 1573.16 642.151 1564.43 Q642.151 1555.68 645.207 1551.1 Q648.285 1546.49 654.095 1546.49 Z" fill="#000000" fill-rule="evenodd" fill-opacity="1" /><path clip-path="url(#clip940)" d="M 0 0 M671.109 1575.8 L675.994 1575.8 L675.994 1581.68 L671.109 1581.68 L671.109 1575.8 Z" fill="#000000" fill-rule="evenodd" fill-opacity="1" /><path clip-path="url(#clip940)" d="M 0 0 M681.202 1580.96 L681.202 1576.7 Q682.961 1577.54 684.767 1577.98 Q686.572 1578.42 688.308 1578.42 Q692.938 1578.42 695.368 1575.31 Q697.822 1572.19 698.169 1565.85 Q696.827 1567.84 694.767 1568.9 Q692.706 1569.97 690.206 1569.97 Q685.021 1569.97 681.989 1566.84 Q678.98 1563.69 678.98 1558.25 Q678.98 1552.93 682.128 1549.71 Q685.276 1546.49 690.507 1546.49 Q696.503 1546.49 699.651 1551.1 Q702.822 1555.68 702.822 1564.43 Q702.822 1572.61 698.933 1577.49 Q695.067 1582.35 688.517 1582.35 Q686.757 1582.35 684.952 1582 Q683.146 1581.66 681.202 1580.96 M690.507 1566.31 Q693.655 1566.31 695.484 1564.16 Q697.336 1562 697.336 1558.25 Q697.336 1554.53 695.484 1552.37 Q693.655 1550.2 690.507 1550.2 Q687.359 1550.2 685.507 1552.37 Q683.679 1554.53 683.679 1558.25 Q683.679 1562 685.507 1564.16 Q687.359 1566.31 690.507 1566.31 Z" fill="#000000" fill-rule="evenodd" fill-opacity="1" /><path clip-path="url(#clip940)" d="M 0 0 M707.938 1547.12 L726.294 1547.12 L726.294 1551.06 L712.22 1551.06 L712.22 1559.53 Q713.239 1559.18 714.257 1559.02 Q715.276 1558.83 716.294 1558.83 Q722.081 1558.83 725.461 1562 Q728.84 1565.18 728.84 1570.59 Q728.84 1576.17 725.368 1579.27 Q721.896 1582.35 715.577 1582.35 Q713.401 1582.35 711.132 1581.98 Q708.887 1581.61 706.479 1580.87 L706.479 1576.17 Q708.563 1577.3 710.785 1577.86 Q713.007 1578.42 715.484 1578.42 Q719.489 1578.42 721.827 1576.31 Q724.165 1574.2 724.165 1570.59 Q724.165 1566.98 721.827 1564.87 Q719.489 1562.77 715.484 1562.77 Q713.609 1562.77 711.734 1563.18 Q709.882 1563.6 707.938 1564.48 L707.938 1547.12 Z" fill="#000000" fill-rule="evenodd" fill-opacity="1" /><path clip-path="url(#clip940)" d="M 0 0 M1178.27 1577.74 L1185.9 1577.74 L1185.9 1551.38 L1177.59 1553.05 L1177.59 1548.79 L1185.86 1547.12 L1190.53 1547.12 L1190.53 1577.74 L1198.17 1577.74 L1198.17 1581.68 L1178.27 1581.68 L1178.27 1577.74 Z" fill="#000000" fill-rule="evenodd" fill-opacity="1" /><path clip-path="url(#clip940)" d="M 0 0 M1203.24 1575.8 L1208.13 1575.8 L1208.13 1581.68 L1203.24 1581.68 L1203.24 1575.8 Z" fill="#000000" fill-rule="evenodd" fill-opacity="1" /><path clip-path="url(#clip940)" d="M 0 0 M1223.2 1550.2 Q1219.58 1550.2 1217.76 1553.76 Q1215.95 1557.31 1215.95 1564.43 Q1215.95 1571.54 1217.76 1575.11 Q1219.58 1578.65 1223.2 1578.65 Q1226.83 1578.65 1228.64 1575.11 Q1230.46 1571.54 1230.46 1564.43 Q1230.46 1557.31 1228.64 1553.76 Q1226.83 1550.2 1223.2 1550.2 M1223.2 1546.49 Q1229.01 1546.49 1232.06 1551.1 Q1235.14 1555.68 1235.14 1564.43 Q1235.14 1573.16 1232.06 1577.77 Q1229.01 1582.35 1223.2 1582.35 Q1217.39 1582.35 1214.31 1577.77 Q1211.25 1573.16 1211.25 1564.43 Q1211.25 1555.68 1214.31 1551.1 Q1217.39 1546.49 1223.2 1546.49 Z" fill="#000000" fill-rule="evenodd" fill-opacity="1" /><path clip-path="url(#clip940)" d="M 0 0 M1250.21 1550.2 Q1246.6 1550.2 1244.77 1553.76 Q1242.96 1557.31 1242.96 1564.43 Q1242.96 1571.54 1244.77 1575.11 Q1246.6 1578.65 1250.21 1578.65 Q1253.84 1578.65 1255.65 1575.11 Q1257.48 1571.54 1257.48 1564.43 Q1257.48 1557.31 1255.65 1553.76 Q1253.84 1550.2 1250.21 1550.2 M1250.21 1546.49 Q1256.02 1546.49 1259.08 1551.1 Q1262.15 1555.68 1262.15 1564.43 Q1262.15 1573.16 1259.08 1577.77 Q1256.02 1582.35 1250.21 1582.35 Q1244.4 1582.35 1241.32 1577.77 Q1238.27 1573.16 1238.27 1564.43 Q1238.27 1555.68 1241.32 1551.1 Q1244.4 1546.49 1250.21 1546.49 Z" fill="#000000" fill-rule="evenodd" fill-opacity="1" /><path clip-path="url(#clip940)" d="M 0 0 M1713.14 1577.74 L1720.78 1577.74 L1720.78 1551.38 L1712.47 1553.05 L1712.47 1548.79 L1720.73 1547.12 L1725.41 1547.12 L1725.41 1577.74 L1733.05 1577.74 L1733.05 1581.68 L1713.14 1581.68 L1713.14 1577.74 Z" fill="#000000" fill-rule="evenodd" fill-opacity="1" /><path clip-path="url(#clip940)" d="M 0 0 M1738.12 1575.8 L1743 1575.8 L1743 1581.68 L1738.12 1581.68 L1738.12 1575.8 Z" fill="#000000" fill-rule="evenodd" fill-opacity="1" /><path clip-path="url(#clip940)" d="M 0 0 M1758.07 1550.2 Q1754.46 1550.2 1752.63 1553.76 Q1750.83 1557.31 1750.83 1564.43 Q1750.83 1571.54 1752.63 1575.11 Q1754.46 1578.65 1758.07 1578.65 Q1761.71 1578.65 1763.51 1575.11 Q1765.34 1571.54 1765.34 1564.43 Q1765.34 1557.31 1763.51 1553.76 Q1761.71 1550.2 1758.07 1550.2 M1758.07 1546.49 Q1763.88 1546.49 1766.94 1551.1 Q1770.02 1555.68 1770.02 1564.43 Q1770.02 1573.16 1766.94 1577.77 Q1763.88 1582.35 1758.07 1582.35 Q1752.26 1582.35 1749.18 1577.77 Q1746.13 1573.16 1746.13 1564.43 Q1746.13 1555.68 1749.18 1551.1 Q1752.26 1546.49 1758.07 1546.49 Z" fill="#000000" fill-rule="evenodd" fill-opacity="1" /><path clip-path="url(#clip940)" d="M 0 0 M1775.13 1547.12 L1793.49 1547.12 L1793.49 1551.06 L1779.41 1551.06 L1779.41 1559.53 Q1780.43 1559.18 1781.45 1559.02 Q1782.47 1558.83 1783.49 1558.83 Q1789.28 1558.83 1792.65 1562 Q1796.03 1565.18 1796.03 1570.59 Q1796.03 1576.17 1792.56 1579.27 Q1789.09 1582.35 1782.77 1582.35 Q1780.59 1582.35 1778.33 1581.98 Q1776.08 1581.61 1773.67 1580.87 L1773.67 1576.17 Q1775.76 1577.3 1777.98 1577.86 Q1780.2 1578.42 1782.68 1578.42 Q1786.68 1578.42 1789.02 1576.31 Q1791.36 1574.2 1791.36 1570.59 Q1791.36 1566.98 1789.02 1564.87 Q1786.68 1562.77 1782.68 1562.77 Q1780.8 1562.77 1778.93 1563.18 Q1777.08 1563.6 1775.13 1564.48 L1775.13 1547.12 Z" fill="#000000" fill-rule="evenodd" fill-opacity="1" /><path clip-path="url(#clip940)" d="M 0 0 M2247.64 1577.74 L2255.27 1577.74 L2255.27 1551.38 L2246.96 1553.05 L2246.96 1548.79 L2255.23 1547.12 L2259.9 1547.12 L2259.9 1577.74 L2267.54 1577.74 L2267.54 1581.68 L2247.64 1581.68 L2247.64 1577.74 Z" fill="#000000" fill-rule="evenodd" fill-opacity="1" /><path clip-path="url(#clip940)" d="M 0 0 M2272.61 1575.8 L2277.5 1575.8 L2277.5 1581.68 L2272.61 1581.68 L2272.61 1575.8 Z" fill="#000000" fill-rule="evenodd" fill-opacity="1" /><path clip-path="url(#clip940)" d="M 0 0 M2283.38 1577.74 L2291.01 1577.74 L2291.01 1551.38 L2282.7 1553.05 L2282.7 1548.79 L2290.97 1547.12 L2295.64 1547.12 L2295.64 1577.74 L2303.28 1577.74 L2303.28 1581.68 L2283.38 1581.68 L2283.38 1577.74 Z" fill="#000000" fill-rule="evenodd" fill-opacity="1" /><path clip-path="url(#clip940)" d="M 0 0 M2318.35 1550.2 Q2314.74 1550.2 2312.91 1553.76 Q2311.11 1557.31 2311.11 1564.43 Q2311.11 1571.54 2312.91 1575.11 Q2314.74 1578.65 2318.35 1578.65 Q2321.99 1578.65 2323.79 1575.11 Q2325.62 1571.54 2325.62 1564.43 Q2325.62 1557.31 2323.79 1553.76 Q2321.99 1550.2 2318.35 1550.2 M2318.35 1546.49 Q2324.16 1546.49 2327.22 1551.1 Q2330.3 1555.68 2330.3 1564.43 Q2330.3 1573.16 2327.22 1577.77 Q2324.16 1582.35 2318.35 1582.35 Q2312.54 1582.35 2309.46 1577.77 Q2306.41 1573.16 2306.41 1564.43 Q2306.41 1555.68 2309.46 1551.1 Q2312.54 1546.49 2318.35 1546.49 Z" fill="#000000" fill-rule="evenodd" fill-opacity="1" /><polyline clip-path="url(#clip942)" style="stroke:#000000; stroke-width:2; stroke-opacity:0.1; fill:none" points="
  86.9921,1256.77 2352.76,1256.77 
  "/>
<polyline clip-path="url(#clip942)" style="stroke:#000000; stroke-width:2; stroke-opacity:0.1; fill:none" points="
  86.9921,964.815 2352.76,964.815 
  "/>
<polyline clip-path="url(#clip942)" style="stroke:#000000; stroke-width:2; stroke-opacity:0.1; fill:none" points="
  86.9921,672.862 2352.76,672.862 
  "/>
<polyline clip-path="url(#clip942)" style="stroke:#000000; stroke-width:2; stroke-opacity:0.1; fill:none" points="
  86.9921,380.908 2352.76,380.908 
  "/>
<polyline clip-path="url(#clip942)" style="stroke:#000000; stroke-width:2; stroke-opacity:0.1; fill:none" points="
  86.9921,88.9544 2352.76,88.9544 
  "/>
<polyline clip-path="url(#clip940)" style="stroke:#000000; stroke-width:4; stroke-opacity:1; fill:none" points="
  86.9921,1521.01 86.9921,47.2441 
  "/>
<polyline clip-path="url(#clip940)" style="stroke:#000000; stroke-width:4; stroke-opacity:1; fill:none" points="
  86.9921,1256.77 114.181,1256.77 
  "/>
<polyline clip-path="url(#clip940)" style="stroke:#000000; stroke-width:4; stroke-opacity:1; fill:none" points="
  86.9921,964.815 114.181,964.815 
  "/>
<polyline clip-path="url(#clip940)" style="stroke:#000000; stroke-width:4; stroke-opacity:1; fill:none" points="
  86.9921,672.862 114.181,672.862 
  "/>
<polyline clip-path="url(#clip940)" style="stroke:#000000; stroke-width:4; stroke-opacity:1; fill:none" points="
  86.9921,380.908 114.181,380.908 
  "/>
<polyline clip-path="url(#clip940)" style="stroke:#000000; stroke-width:4; stroke-opacity:1; fill:none" points="
  86.9921,88.9544 114.181,88.9544 
  "/>
<path clip-path="url(#clip940)" d="M 0 0 M-78.9609 1242.57 Q-82.572 1242.57 -84.4007 1246.13 Q-86.2062 1249.67 -86.2062 1256.8 Q-86.2062 1263.91 -84.4007 1267.47 Q-82.572 1271.02 -78.9609 1271.02 Q-75.3266 1271.02 -73.5211 1267.47 Q-71.6924 1263.91 -71.6924 1256.8 Q-71.6924 1249.67 -73.5211 1246.13 Q-75.3266 1242.57 -78.9609 1242.57 M-78.9609 1238.86 Q-73.1507 1238.86 -70.0952 1243.47 Q-67.0165 1248.05 -67.0165 1256.8 Q-67.0165 1265.53 -70.0952 1270.14 Q-73.1507 1274.72 -78.9609 1274.72 Q-84.771 1274.72 -87.8497 1270.14 Q-90.9053 1265.53 -90.9053 1256.8 Q-90.9053 1248.05 -87.8497 1243.47 Q-84.771 1238.86 -78.9609 1238.86 Z" fill="#000000" fill-rule="evenodd" fill-opacity="1" /><path clip-path="url(#clip940)" d="M 0 0 M-61.9471 1268.17 L-57.0629 1268.17 L-57.0629 1274.05 L-61.9471 1274.05 L-61.9471 1268.17 Z" fill="#000000" fill-rule="evenodd" fill-opacity="1" /><path clip-path="url(#clip940)" d="M 0 0 M-41.9935 1242.57 Q-45.6046 1242.57 -47.4333 1246.13 Q-49.2388 1249.67 -49.2388 1256.8 Q-49.2388 1263.91 -47.4333 1267.47 Q-45.6046 1271.02 -41.9935 1271.02 Q-38.3592 1271.02 -36.5537 1267.47 Q-34.725 1263.91 -34.725 1256.8 Q-34.725 1249.67 -36.5537 1246.13 Q-38.3592 1242.57 -41.9935 1242.57 M-41.9935 1238.86 Q-36.1833 1238.86 -33.1278 1243.47 Q-30.0491 1248.05 -30.0491 1256.8 Q-30.0491 1265.53 -33.1278 1270.14 Q-36.1833 1274.72 -41.9935 1274.72 Q-47.8036 1274.72 -50.8823 1270.14 Q-53.9379 1265.53 -53.9379 1256.8 Q-53.9379 1248.05 -50.8823 1243.47 Q-47.8036 1238.86 -41.9935 1238.86 Z" fill="#000000" fill-rule="evenodd" fill-opacity="1" /><path clip-path="url(#clip940)" d="M 0 0 M-14.9797 1242.57 Q-18.5908 1242.57 -20.4195 1246.13 Q-22.2251 1249.67 -22.2251 1256.8 Q-22.2251 1263.91 -20.4195 1267.47 Q-18.5908 1271.02 -14.9797 1271.02 Q-11.3455 1271.02 -9.53996 1267.47 Q-7.71126 1263.91 -7.71126 1256.8 Q-7.71126 1249.67 -9.53996 1246.13 Q-11.3455 1242.57 -14.9797 1242.57 M-14.9797 1238.86 Q-9.16959 1238.86 -6.11405 1243.47 Q-3.03536 1248.05 -3.03536 1256.8 Q-3.03536 1265.53 -6.11405 1270.14 Q-9.16959 1274.72 -14.9797 1274.72 Q-20.7899 1274.72 -23.8686 1270.14 Q-26.9241 1265.53 -26.9241 1256.8 Q-26.9241 1248.05 -23.8686 1243.47 Q-20.7899 1238.86 -14.9797 1238.86 Z" fill="#000000" fill-rule="evenodd" fill-opacity="1" /><path clip-path="url(#clip940)" d="M 0 0 M12.034 1242.57 Q8.42291 1242.57 6.59422 1246.13 Q4.78867 1249.67 4.78867 1256.8 Q4.78867 1263.91 6.59422 1267.47 Q8.42291 1271.02 12.034 1271.02 Q15.6682 1271.02 17.4738 1267.47 Q19.3025 1263.91 19.3025 1256.8 Q19.3025 1249.67 17.4738 1246.13 Q15.6682 1242.57 12.034 1242.57 M12.034 1238.86 Q17.8442 1238.86 20.8997 1243.47 Q23.9784 1248.05 23.9784 1256.8 Q23.9784 1265.53 20.8997 1270.14 Q17.8442 1274.72 12.034 1274.72 Q6.22385 1274.72 3.14516 1270.14 Q0.089621 1265.53 0.089621 1256.8 Q0.089621 1248.05 3.14516 1243.47 Q6.22385 1238.86 12.034 1238.86 Z" fill="#000000" fill-rule="evenodd" fill-opacity="1" /><path clip-path="url(#clip940)" d="M 0 0 M39.0477 1242.57 Q35.4367 1242.57 33.608 1246.13 Q31.8024 1249.67 31.8024 1256.8 Q31.8024 1263.91 33.608 1267.47 Q35.4367 1271.02 39.0477 1271.02 Q42.682 1271.02 44.4875 1267.47 Q46.3162 1263.91 46.3162 1256.8 Q46.3162 1249.67 44.4875 1246.13 Q42.682 1242.57 39.0477 1242.57 M39.0477 1238.86 Q44.8579 1238.86 47.9134 1243.47 Q50.9921 1248.05 50.9921 1256.8 Q50.9921 1265.53 47.9134 1270.14 Q44.8579 1274.72 39.0477 1274.72 Q33.2376 1274.72 30.1589 1270.14 Q27.1034 1265.53 27.1034 1256.8 Q27.1034 1248.05 30.1589 1243.47 Q33.2376 1238.86 39.0477 1238.86 Z" fill="#000000" fill-rule="evenodd" fill-opacity="1" /><path clip-path="url(#clip940)" d="M 0 0 M-76.3683 950.614 Q-79.9794 950.614 -81.8081 954.179 Q-83.6136 957.72 -83.6136 964.85 Q-83.6136 971.956 -81.8081 975.521 Q-79.9794 979.063 -76.3683 979.063 Q-72.7341 979.063 -70.9285 975.521 Q-69.0998 971.956 -69.0998 964.85 Q-69.0998 957.72 -70.9285 954.179 Q-72.7341 950.614 -76.3683 950.614 M-76.3683 946.91 Q-70.5581 946.91 -67.5026 951.517 Q-64.4239 956.1 -64.4239 964.85 Q-64.4239 973.577 -67.5026 978.183 Q-70.5581 982.766 -76.3683 982.766 Q-82.1785 982.766 -85.2571 978.183 Q-88.3127 973.577 -88.3127 964.85 Q-88.3127 956.1 -85.2571 951.517 Q-82.1785 946.91 -76.3683 946.91 Z" fill="#000000" fill-rule="evenodd" fill-opacity="1" /><path clip-path="url(#clip940)" d="M 0 0 M-59.3545 976.216 L-54.4703 976.216 L-54.4703 982.095 L-59.3545 982.095 L-59.3545 976.216 Z" fill="#000000" fill-rule="evenodd" fill-opacity="1" /><path clip-path="url(#clip940)" d="M 0 0 M-39.4009 950.614 Q-43.012 950.614 -44.8407 954.179 Q-46.6462 957.72 -46.6462 964.85 Q-46.6462 971.956 -44.8407 975.521 Q-43.012 979.063 -39.4009 979.063 Q-35.7667 979.063 -33.9611 975.521 Q-32.1324 971.956 -32.1324 964.85 Q-32.1324 957.72 -33.9611 954.179 Q-35.7667 950.614 -39.4009 950.614 M-39.4009 946.91 Q-33.5908 946.91 -30.5352 951.517 Q-27.4565 956.1 -27.4565 964.85 Q-27.4565 973.577 -30.5352 978.183 Q-33.5908 982.766 -39.4009 982.766 Q-45.2111 982.766 -48.2897 978.183 Q-51.3453 973.577 -51.3453 964.85 Q-51.3453 956.1 -48.2897 951.517 Q-45.2111 946.91 -39.4009 946.91 Z" fill="#000000" fill-rule="evenodd" fill-opacity="1" /><path clip-path="url(#clip940)" d="M 0 0 M-12.3872 950.614 Q-15.9983 950.614 -17.8269 954.179 Q-19.6325 957.72 -19.6325 964.85 Q-19.6325 971.956 -17.8269 975.521 Q-15.9983 979.063 -12.3872 979.063 Q-8.75292 979.063 -6.94738 975.521 Q-5.11868 971.956 -5.11868 964.85 Q-5.11868 957.72 -6.94738 954.179 Q-8.75292 950.614 -12.3872 950.614 M-12.3872 946.91 Q-6.57701 946.91 -3.52147 951.517 Q-0.442784 956.1 -0.442784 964.85 Q-0.442784 973.577 -3.52147 978.183 Q-6.57701 982.766 -12.3872 982.766 Q-18.1973 982.766 -21.276 978.183 Q-24.3315 973.577 -24.3315 964.85 Q-24.3315 956.1 -21.276 951.517 Q-18.1973 946.91 -12.3872 946.91 Z" fill="#000000" fill-rule="evenodd" fill-opacity="1" /><path clip-path="url(#clip940)" d="M 0 0 M8.65439 978.16 L24.9737 978.16 L24.9737 982.095 L3.02942 982.095 L3.02942 978.16 Q5.69144 975.405 10.2748 970.776 Q14.8812 966.123 16.0618 964.78 Q18.3071 962.257 19.1867 960.521 Q20.0895 958.762 20.0895 957.072 Q20.0895 954.318 18.1451 952.581 Q16.2238 950.845 13.122 950.845 Q10.9229 950.845 8.46921 951.609 Q6.03866 952.373 3.2609 953.924 L3.2609 949.202 Q6.08496 948.068 8.53865 947.489 Q10.9923 946.91 13.0294 946.91 Q18.3997 946.91 21.5941 949.595 Q24.7886 952.281 24.7886 956.771 Q24.7886 958.901 23.9784 960.822 Q23.1913 962.72 21.0849 965.313 Q20.5062 965.984 17.4043 969.202 Q14.3025 972.396 8.65439 978.16 Z" fill="#000000" fill-rule="evenodd" fill-opacity="1" /><path clip-path="url(#clip940)" d="M 0 0 M30.0895 947.535 L48.4458 947.535 L48.4458 951.47 L34.3718 951.47 L34.3718 959.943 Q35.3904 959.595 36.4089 959.433 Q37.4274 959.248 38.4459 959.248 Q44.2329 959.248 47.6125 962.419 Q50.9921 965.591 50.9921 971.007 Q50.9921 976.586 47.5199 979.688 Q44.0477 982.766 37.7283 982.766 Q35.5524 982.766 33.2839 982.396 Q31.0385 982.026 28.6311 981.285 L28.6311 976.586 Q30.7145 977.72 32.9367 978.276 Q35.1589 978.831 37.6357 978.831 Q41.6403 978.831 43.9783 976.725 Q46.3162 974.618 46.3162 971.007 Q46.3162 967.396 43.9783 965.29 Q41.6403 963.183 37.6357 963.183 Q35.7607 963.183 33.8857 963.6 Q32.0339 964.017 30.0895 964.896 L30.0895 947.535 Z" fill="#000000" fill-rule="evenodd" fill-opacity="1" /><path clip-path="url(#clip940)" d="M 0 0 M-77.9655 658.66 Q-81.5766 658.66 -83.4053 662.225 Q-85.2108 665.767 -85.2108 672.896 Q-85.2108 680.003 -83.4053 683.568 Q-81.5766 687.109 -77.9655 687.109 Q-74.3313 687.109 -72.5257 683.568 Q-70.697 680.003 -70.697 672.896 Q-70.697 665.767 -72.5257 662.225 Q-74.3313 658.66 -77.9655 658.66 M-77.9655 654.957 Q-72.1554 654.957 -69.0998 659.563 Q-66.0211 664.146 -66.0211 672.896 Q-66.0211 681.623 -69.0998 686.23 Q-72.1554 690.813 -77.9655 690.813 Q-83.7757 690.813 -86.8544 686.23 Q-89.9099 681.623 -89.9099 672.896 Q-89.9099 664.146 -86.8544 659.563 Q-83.7757 654.957 -77.9655 654.957 Z" fill="#000000" fill-rule="evenodd" fill-opacity="1" /><path clip-path="url(#clip940)" d="M 0 0 M-60.9517 684.262 L-56.0675 684.262 L-56.0675 690.142 L-60.9517 690.142 L-60.9517 684.262 Z" fill="#000000" fill-rule="evenodd" fill-opacity="1" /><path clip-path="url(#clip940)" d="M 0 0 M-40.9981 658.66 Q-44.6092 658.66 -46.4379 662.225 Q-48.2435 665.767 -48.2435 672.896 Q-48.2435 680.003 -46.4379 683.568 Q-44.6092 687.109 -40.9981 687.109 Q-37.3639 687.109 -35.5583 683.568 Q-33.7296 680.003 -33.7296 672.896 Q-33.7296 665.767 -35.5583 662.225 Q-37.3639 658.66 -40.9981 658.66 M-40.9981 654.957 Q-35.188 654.957 -32.1324 659.563 Q-29.0537 664.146 -29.0537 672.896 Q-29.0537 681.623 -32.1324 686.23 Q-35.188 690.813 -40.9981 690.813 Q-46.8083 690.813 -49.887 686.23 Q-52.9425 681.623 -52.9425 672.896 Q-52.9425 664.146 -49.887 659.563 Q-46.8083 654.957 -40.9981 654.957 Z" fill="#000000" fill-rule="evenodd" fill-opacity="1" /><path clip-path="url(#clip940)" d="M 0 0 M-13.9844 658.66 Q-17.5955 658.66 -19.4242 662.225 Q-21.2297 665.767 -21.2297 672.896 Q-21.2297 680.003 -19.4242 683.568 Q-17.5955 687.109 -13.9844 687.109 Q-10.3501 687.109 -8.54459 683.568 Q-6.7159 680.003 -6.7159 672.896 Q-6.7159 665.767 -8.54459 662.225 Q-10.3501 658.66 -13.9844 658.66 M-13.9844 654.957 Q-8.17422 654.957 -5.11868 659.563 Q-2.04 664.146 -2.04 672.896 Q-2.04 681.623 -5.11868 686.23 Q-8.17422 690.813 -13.9844 690.813 Q-19.7945 690.813 -22.8732 686.23 Q-25.9288 681.623 -25.9288 672.896 Q-25.9288 664.146 -22.8732 659.563 Q-19.7945 654.957 -13.9844 654.957 Z" fill="#000000" fill-rule="evenodd" fill-opacity="1" /><path clip-path="url(#clip940)" d="M 0 0 M3.07572 655.582 L21.4321 655.582 L21.4321 659.517 L7.3581 659.517 L7.3581 667.989 Q8.37661 667.642 9.39513 667.48 Q10.4136 667.294 11.4322 667.294 Q17.2192 667.294 20.5988 670.466 Q23.9784 673.637 23.9784 679.054 Q23.9784 684.632 20.5062 687.734 Q17.034 690.813 10.7146 690.813 Q8.53865 690.813 6.27014 690.443 Q4.02479 690.072 1.61739 689.331 L1.61739 684.632 Q3.70071 685.767 5.92292 686.322 Q8.14513 686.878 10.622 686.878 Q14.6266 686.878 16.9645 684.771 Q19.3025 682.665 19.3025 679.054 Q19.3025 675.443 16.9645 673.336 Q14.6266 671.23 10.622 671.23 Q8.74698 671.23 6.87199 671.646 Q5.02015 672.063 3.07572 672.943 L3.07572 655.582 Z" fill="#000000" fill-rule="evenodd" fill-opacity="1" /><path clip-path="url(#clip940)" d="M 0 0 M39.0477 658.66 Q35.4367 658.66 33.608 662.225 Q31.8024 665.767 31.8024 672.896 Q31.8024 680.003 33.608 683.568 Q35.4367 687.109 39.0477 687.109 Q42.682 687.109 44.4875 683.568 Q46.3162 680.003 46.3162 672.896 Q46.3162 665.767 44.4875 662.225 Q42.682 658.66 39.0477 658.66 M39.0477 654.957 Q44.8579 654.957 47.9134 659.563 Q50.9921 664.146 50.9921 672.896 Q50.9921 681.623 47.9134 686.23 Q44.8579 690.813 39.0477 690.813 Q33.2376 690.813 30.1589 686.23 Q27.1034 681.623 27.1034 672.896 Q27.1034 664.146 30.1589 659.563 Q33.2376 654.957 39.0477 654.957 Z" fill="#000000" fill-rule="evenodd" fill-opacity="1" /><path clip-path="url(#clip940)" d="M 0 0 M-77.0627 366.707 Q-80.6738 366.707 -82.5025 370.271 Q-84.3081 373.813 -84.3081 380.943 Q-84.3081 388.049 -82.5025 391.614 Q-80.6738 395.156 -77.0627 395.156 Q-73.4285 395.156 -71.623 391.614 Q-69.7943 388.049 -69.7943 380.943 Q-69.7943 373.813 -71.623 370.271 Q-73.4285 366.707 -77.0627 366.707 M-77.0627 363.003 Q-71.2526 363.003 -68.1971 367.609 Q-65.1184 372.193 -65.1184 380.943 Q-65.1184 389.67 -68.1971 394.276 Q-71.2526 398.859 -77.0627 398.859 Q-82.8729 398.859 -85.9516 394.276 Q-89.0071 389.67 -89.0071 380.943 Q-89.0071 372.193 -85.9516 367.609 Q-82.8729 363.003 -77.0627 363.003 Z" fill="#000000" fill-rule="evenodd" fill-opacity="1" /><path clip-path="url(#clip940)" d="M 0 0 M-60.0489 392.308 L-55.1647 392.308 L-55.1647 398.188 L-60.0489 398.188 L-60.0489 392.308 Z" fill="#000000" fill-rule="evenodd" fill-opacity="1" /><path clip-path="url(#clip940)" d="M 0 0 M-40.0953 366.707 Q-43.7064 366.707 -45.5351 370.271 Q-47.3407 373.813 -47.3407 380.943 Q-47.3407 388.049 -45.5351 391.614 Q-43.7064 395.156 -40.0953 395.156 Q-36.4611 395.156 -34.6556 391.614 Q-32.8269 388.049 -32.8269 380.943 Q-32.8269 373.813 -34.6556 370.271 Q-36.4611 366.707 -40.0953 366.707 M-40.0953 363.003 Q-34.2852 363.003 -31.2297 367.609 Q-28.151 372.193 -28.151 380.943 Q-28.151 389.67 -31.2297 394.276 Q-34.2852 398.859 -40.0953 398.859 Q-45.9055 398.859 -48.9842 394.276 Q-52.0397 389.67 -52.0397 380.943 Q-52.0397 372.193 -48.9842 367.609 Q-45.9055 363.003 -40.0953 363.003 Z" fill="#000000" fill-rule="evenodd" fill-opacity="1" /><path clip-path="url(#clip940)" d="M 0 0 M-13.0816 366.707 Q-16.6927 366.707 -18.5214 370.271 Q-20.3269 373.813 -20.3269 380.943 Q-20.3269 388.049 -18.5214 391.614 Q-16.6927 395.156 -13.0816 395.156 Q-9.44736 395.156 -7.64182 391.614 Q-5.81313 388.049 -5.81313 380.943 Q-5.81313 373.813 -7.64182 370.271 Q-9.44736 366.707 -13.0816 366.707 M-13.0816 363.003 Q-7.27145 363.003 -4.21591 367.609 Q-1.13722 372.193 -1.13722 380.943 Q-1.13722 389.67 -4.21591 394.276 Q-7.27145 398.859 -13.0816 398.859 Q-18.8918 398.859 -21.9704 394.276 Q-25.026 389.67 -25.026 380.943 Q-25.026 372.193 -21.9704 367.609 Q-18.8918 363.003 -13.0816 363.003 Z" fill="#000000" fill-rule="evenodd" fill-opacity="1" /><path clip-path="url(#clip940)" d="M 0 0 M2.75164 363.628 L24.9737 363.628 L24.9737 365.619 L12.4275 398.188 L7.54328 398.188 L19.3488 367.563 L2.75164 367.563 L2.75164 363.628 Z" fill="#000000" fill-rule="evenodd" fill-opacity="1" /><path clip-path="url(#clip940)" d="M 0 0 M30.0895 363.628 L48.4458 363.628 L48.4458 367.563 L34.3718 367.563 L34.3718 376.035 Q35.3904 375.688 36.4089 375.526 Q37.4274 375.341 38.4459 375.341 Q44.2329 375.341 47.6125 378.512 Q50.9921 381.683 50.9921 387.1 Q50.9921 392.679 47.5199 395.781 Q44.0477 398.859 37.7283 398.859 Q35.5524 398.859 33.2839 398.489 Q31.0385 398.119 28.6311 397.378 L28.6311 392.679 Q30.7145 393.813 32.9367 394.369 Q35.1589 394.924 37.6357 394.924 Q41.6403 394.924 43.9783 392.818 Q46.3162 390.711 46.3162 387.1 Q46.3162 383.489 43.9783 381.383 Q41.6403 379.276 37.6357 379.276 Q35.7607 379.276 33.8857 379.693 Q32.0339 380.109 30.0895 380.989 L30.0895 363.628 Z" fill="#000000" fill-rule="evenodd" fill-opacity="1" /><path clip-path="url(#clip940)" d="M 0 0 M-77.734 74.7531 Q-81.3451 74.7531 -83.1738 78.3179 Q-84.9794 81.8595 -84.9794 88.9891 Q-84.9794 96.0956 -83.1738 99.6604 Q-81.3451 103.202 -77.734 103.202 Q-74.0998 103.202 -72.2943 99.6604 Q-70.4656 96.0956 -70.4656 88.9891 Q-70.4656 81.8595 -72.2943 78.3179 Q-74.0998 74.7531 -77.734 74.7531 M-77.734 71.0494 Q-71.9239 71.0494 -68.8683 75.6559 Q-65.7897 80.2392 -65.7897 88.9891 Q-65.7897 97.7159 -68.8683 102.322 Q-71.9239 106.906 -77.734 106.906 Q-83.5442 106.906 -86.6229 102.322 Q-89.6784 97.7159 -89.6784 88.9891 Q-89.6784 80.2392 -86.6229 75.6559 Q-83.5442 71.0494 -77.734 71.0494 Z" fill="#000000" fill-rule="evenodd" fill-opacity="1" /><path clip-path="url(#clip940)" d="M 0 0 M-60.7202 100.355 L-55.836 100.355 L-55.836 106.234 L-60.7202 106.234 L-60.7202 100.355 Z" fill="#000000" fill-rule="evenodd" fill-opacity="1" /><path clip-path="url(#clip940)" d="M 0 0 M-40.7666 74.7531 Q-44.3777 74.7531 -46.2064 78.3179 Q-48.012 81.8595 -48.012 88.9891 Q-48.012 96.0956 -46.2064 99.6604 Q-44.3777 103.202 -40.7666 103.202 Q-37.1324 103.202 -35.3269 99.6604 Q-33.4982 96.0956 -33.4982 88.9891 Q-33.4982 81.8595 -35.3269 78.3179 Q-37.1324 74.7531 -40.7666 74.7531 M-40.7666 71.0494 Q-34.9565 71.0494 -31.9009 75.6559 Q-28.8223 80.2392 -28.8223 88.9891 Q-28.8223 97.7159 -31.9009 102.322 Q-34.9565 106.906 -40.7666 106.906 Q-46.5768 106.906 -49.6555 102.322 Q-52.711 97.7159 -52.711 88.9891 Q-52.711 80.2392 -49.6555 75.6559 Q-46.5768 71.0494 -40.7666 71.0494 Z" fill="#000000" fill-rule="evenodd" fill-opacity="1" /><path clip-path="url(#clip940)" d="M 0 0 M-22.9427 102.299 L-15.3038 102.299 L-15.3038 75.9336 L-23.614 77.6003 L-23.614 73.341 L-15.3501 71.6744 L-10.6742 71.6744 L-10.6742 102.299 L-3.03536 102.299 L-3.03536 106.234 L-22.9427 106.234 L-22.9427 102.299 Z" fill="#000000" fill-rule="evenodd" fill-opacity="1" /><path clip-path="url(#clip940)" d="M 0 0 M12.034 74.7531 Q8.42291 74.7531 6.59422 78.3179 Q4.78867 81.8595 4.78867 88.9891 Q4.78867 96.0956 6.59422 99.6604 Q8.42291 103.202 12.034 103.202 Q15.6682 103.202 17.4738 99.6604 Q19.3025 96.0956 19.3025 88.9891 Q19.3025 81.8595 17.4738 78.3179 Q15.6682 74.7531 12.034 74.7531 M12.034 71.0494 Q17.8442 71.0494 20.8997 75.6559 Q23.9784 80.2392 23.9784 88.9891 Q23.9784 97.7159 20.8997 102.322 Q17.8442 106.906 12.034 106.906 Q6.22385 106.906 3.14516 102.322 Q0.089621 97.7159 0.089621 88.9891 Q0.089621 80.2392 3.14516 75.6559 Q6.22385 71.0494 12.034 71.0494 Z" fill="#000000" fill-rule="evenodd" fill-opacity="1" /><path clip-path="url(#clip940)" d="M 0 0 M39.0477 74.7531 Q35.4367 74.7531 33.608 78.3179 Q31.8024 81.8595 31.8024 88.9891 Q31.8024 96.0956 33.608 99.6604 Q35.4367 103.202 39.0477 103.202 Q42.682 103.202 44.4875 99.6604 Q46.3162 96.0956 46.3162 88.9891 Q46.3162 81.8595 44.4875 78.3179 Q42.682 74.7531 39.0477 74.7531 M39.0477 71.0494 Q44.8579 71.0494 47.9134 75.6559 Q50.9921 80.2392 50.9921 88.9891 Q50.9921 97.7159 47.9134 102.322 Q44.8579 106.906 39.0477 106.906 Q33.2376 106.906 30.1589 102.322 Q27.1034 97.7159 27.1034 88.9891 Q27.1034 80.2392 30.1589 75.6559 Q33.2376 71.0494 39.0477 71.0494 Z" fill="#000000" fill-rule="evenodd" fill-opacity="1" /><polyline clip-path="url(#clip942)" style="stroke:#009af9; stroke-width:8; stroke-opacity:1; fill:none" points="
  151.118,88.9544 161.555,111.652 171.992,134.128 268.5,331.391 365.008,509.61 423.005,607.551 481.002,698.614 530.038,770.24 579.074,836.95 632.34,903.844 
  685.607,964.937 734.714,1016.12 783.821,1062.37 836.469,1106.48 889.117,1144.92 950.115,1182.37 1011.11,1212.21 1065.32,1232.35 1119.53,1246.47 1167.06,1253.92 
  1214.6,1256.74 1266.43,1254.55 1318.25,1246.87 1370.39,1233.61 1422.52,1214.78 1480.16,1187.5 1537.8,1153.43 1592.65,1114.7 1647.49,1069.82 1704.52,1016.63 
  1761.54,956.797 1809.54,901.273 1857.55,841.038 1916.15,761.11 1974.76,674.158 2029.85,586.017 2084.94,491.67 2173.2,327.583 2261.46,147.568 2275.05,118.45 
  2288.63,88.9544 
  "/>
<path clip-path="url(#clip942)" d="
M1205.84 1479.3 L1216.03 1479.3 L1216.03 1034.02 L1205.84 1034.02 L1205.84 1479.3  Z
  " fill="#e26f46" fill-rule="evenodd" fill-opacity="0.5"/>
<polyline clip-path="url(#clip942)" style="stroke:#000000; stroke-width:4; stroke-opacity:0.5; fill:none" points="
  1205.84,1479.3 1216.03,1479.3 1216.03,1034.02 1205.84,1034.02 1205.84,1479.3 
  "/>
<path clip-path="url(#clip942)" d="
M1245.98 1478.8 L1256.17 1478.8 L1256.17 1032.69 L1245.98 1032.69 L1245.98 1478.8  Z
  " fill="#e26f46" fill-rule="evenodd" fill-opacity="0.5"/>
<polyline clip-path="url(#clip942)" style="stroke:#000000; stroke-width:4; stroke-opacity:0.5; fill:none" points="
  1245.98,1478.8 1256.17,1478.8 1256.17,1032.69 1245.98,1032.69 1245.98,1478.8 
  "/>
<path clip-path="url(#clip942)" d="
M1286.59 1478.46 L1296.94 1478.46 L1296.94 1024.46 L1286.59 1024.46 L1286.59 1478.46  Z
  " fill="#e26f46" fill-rule="evenodd" fill-opacity="0.5"/>
<polyline clip-path="url(#clip942)" style="stroke:#000000; stroke-width:4; stroke-opacity:0.5; fill:none" points="
  1286.59,1478.46 1296.94,1478.46 1296.94,1024.46 1286.59,1024.46 1286.59,1478.46 
  "/>
<path clip-path="url(#clip942)" d="
M1266.2 1477.3 L1276.39 1477.3 L1276.39 1030.77 L1266.2 1030.77 L1266.2 1477.3  Z
  " fill="#e26f46" fill-rule="evenodd" fill-opacity="0.5"/>
<polyline clip-path="url(#clip942)" style="stroke:#000000; stroke-width:4; stroke-opacity:0.5; fill:none" points="
  1266.2,1477.3 1276.39,1477.3 1276.39,1030.77 1266.2,1030.77 1266.2,1477.3 
  "/>
<path clip-path="url(#clip942)" d="
M1276.39 1476.23 L1286.59 1476.23 L1286.59 1029.49 L1276.39 1029.49 L1276.39 1476.23  Z
  " fill="#e26f46" fill-rule="evenodd" fill-opacity="0.5"/>
<polyline clip-path="url(#clip942)" style="stroke:#000000; stroke-width:4; stroke-opacity:0.5; fill:none" points="
  1276.39,1476.23 1286.59,1476.23 1286.59,1029.49 1276.39,1029.49 1276.39,1476.23 
  "/>
<path clip-path="url(#clip942)" d="
M1185.77 1474.86 L1195.81 1474.86 L1195.81 1036.9 L1185.77 1036.9 L1185.77 1474.86  Z
  " fill="#e26f46" fill-rule="evenodd" fill-opacity="0.5"/>
<polyline clip-path="url(#clip942)" style="stroke:#000000; stroke-width:4; stroke-opacity:0.5; fill:none" points="
  1185.77,1474.86 1195.81,1474.86 1195.81,1036.9 1185.77,1036.9 1185.77,1474.86 
  "/>
<path clip-path="url(#clip942)" d="
M1195.81 1475.45 L1205.84 1475.45 L1205.84 1037.29 L1195.81 1037.29 L1195.81 1475.45  Z
  " fill="#e26f46" fill-rule="evenodd" fill-opacity="0.5"/>
<polyline clip-path="url(#clip942)" style="stroke:#000000; stroke-width:4; stroke-opacity:0.5; fill:none" points="
  1195.81,1475.45 1205.84,1475.45 1205.84,1037.29 1195.81,1037.29 1195.81,1475.45 
  "/>
<path clip-path="url(#clip942)" d="
M1256.17 1474.7 L1266.2 1474.7 L1266.2 1035.3 L1256.17 1035.3 L1256.17 1474.7  Z
  " fill="#e26f46" fill-rule="evenodd" fill-opacity="0.5"/>
<polyline clip-path="url(#clip942)" style="stroke:#000000; stroke-width:4; stroke-opacity:0.5; fill:none" points="
  1256.17,1474.7 1266.2,1474.7 1266.2,1035.3 1256.17,1035.3 1256.17,1474.7 
  "/>
<path clip-path="url(#clip942)" d="
M1165.86 1473.06 L1175.89 1473.06 L1175.89 1035.51 L1165.86 1035.51 L1165.86 1473.06  Z
  " fill="#e26f46" fill-rule="evenodd" fill-opacity="0.5"/>
<polyline clip-path="url(#clip942)" style="stroke:#000000; stroke-width:4; stroke-opacity:0.5; fill:none" points="
  1165.86,1473.06 1175.89,1473.06 1175.89,1035.51 1165.86,1035.51 1165.86,1473.06 
  "/>
<path clip-path="url(#clip942)" d="
M1216.03 1472.63 L1225.91 1472.63 L1225.91 1040.85 L1216.03 1040.85 L1216.03 1472.63  Z
  " fill="#e26f46" fill-rule="evenodd" fill-opacity="0.5"/>
<polyline clip-path="url(#clip942)" style="stroke:#000000; stroke-width:4; stroke-opacity:0.5; fill:none" points="
  1216.03,1472.63 1225.91,1472.63 1225.91,1040.85 1216.03,1040.85 1216.03,1472.63 
  "/>
<path clip-path="url(#clip942)" d="
M1175.89 1470.67 L1185.77 1470.67 L1185.77 1039.7 L1175.89 1039.7 L1175.89 1470.67  Z
  " fill="#e26f46" fill-rule="evenodd" fill-opacity="0.5"/>
<polyline clip-path="url(#clip942)" style="stroke:#000000; stroke-width:4; stroke-opacity:0.5; fill:none" points="
  1175.89,1470.67 1185.77,1470.67 1185.77,1039.7 1175.89,1039.7 1175.89,1470.67 
  "/>
<path clip-path="url(#clip942)" d="
M1155.98 1468.47 L1165.86 1468.47 L1165.86 1037.91 L1155.98 1037.91 L1155.98 1468.47  Z
  " fill="#e26f46" fill-rule="evenodd" fill-opacity="0.5"/>
<polyline clip-path="url(#clip942)" style="stroke:#000000; stroke-width:4; stroke-opacity:0.5; fill:none" points="
  1155.98,1468.47 1165.86,1468.47 1165.86,1037.91 1155.98,1037.91 1155.98,1468.47 
  "/>
<path clip-path="url(#clip942)" d="
M1306.82 1468.32 L1316.85 1468.32 L1316.85 1027.88 L1306.82 1027.88 L1306.82 1468.32  Z
  " fill="#e26f46" fill-rule="evenodd" fill-opacity="0.5"/>
<polyline clip-path="url(#clip942)" style="stroke:#000000; stroke-width:4; stroke-opacity:0.5; fill:none" points="
  1306.82,1468.32 1316.85,1468.32 1316.85,1027.88 1306.82,1027.88 1306.82,1468.32 
  "/>
<path clip-path="url(#clip942)" d="
M1326.88 1467.79 L1337.08 1467.79 L1337.08 1019.99 L1326.88 1019.99 L1326.88 1467.79  Z
  " fill="#e26f46" fill-rule="evenodd" fill-opacity="0.5"/>
<polyline clip-path="url(#clip942)" style="stroke:#000000; stroke-width:4; stroke-opacity:0.5; fill:none" points="
  1326.88,1467.79 1337.08,1467.79 1337.08,1019.99 1326.88,1019.99 1326.88,1467.79 
  "/>
<path clip-path="url(#clip942)" d="
M1146.1 1467.08 L1155.98 1467.08 L1155.98 1036.72 L1146.1 1036.72 L1146.1 1467.08  Z
  " fill="#e26f46" fill-rule="evenodd" fill-opacity="0.5"/>
<polyline clip-path="url(#clip942)" style="stroke:#000000; stroke-width:4; stroke-opacity:0.5; fill:none" points="
  1146.1,1467.08 1155.98,1467.08 1155.98,1036.72 1146.1,1036.72 1146.1,1467.08 
  "/>
<path clip-path="url(#clip942)" d="
M1296.94 1466.57 L1306.82 1466.57 L1306.82 1033.16 L1296.94 1033.16 L1296.94 1466.57  Z
  " fill="#e26f46" fill-rule="evenodd" fill-opacity="0.5"/>
<polyline clip-path="url(#clip942)" style="stroke:#000000; stroke-width:4; stroke-opacity:0.5; fill:none" points="
  1296.94,1466.57 1306.82,1466.57 1306.82,1033.16 1296.94,1033.16 1296.94,1466.57 
  "/>
<path clip-path="url(#clip942)" d="
M1225.91 1476.01 L1235.94 1476.01 L1235.94 1037.23 L1225.91 1037.23 L1225.91 1476.01  Z
  " fill="#e26f46" fill-rule="evenodd" fill-opacity="0.5"/>
<polyline clip-path="url(#clip942)" style="stroke:#000000; stroke-width:4; stroke-opacity:0.5; fill:none" points="
  1225.91,1476.01 1235.94,1476.01 1235.94,1037.23 1225.91,1037.23 1225.91,1476.01 
  "/>
<path clip-path="url(#clip942)" d="
M1347.11 1462.95 L1357.3 1462.95 L1357.3 1014.73 L1347.11 1014.73 L1347.11 1462.95  Z
  " fill="#e26f46" fill-rule="evenodd" fill-opacity="0.5"/>
<polyline clip-path="url(#clip942)" style="stroke:#000000; stroke-width:4; stroke-opacity:0.5; fill:none" points="
  1347.11,1462.95 1357.3,1462.95 1357.3,1014.73 1347.11,1014.73 1347.11,1462.95 
  "/>
<path clip-path="url(#clip942)" d="
M1136.38 1462.17 L1146.1 1462.17 L1146.1 1038.67 L1136.38 1038.67 L1136.38 1462.17  Z
  " fill="#e26f46" fill-rule="evenodd" fill-opacity="0.5"/>
<polyline clip-path="url(#clip942)" style="stroke:#000000; stroke-width:4; stroke-opacity:0.5; fill:none" points="
  1136.38,1462.17 1146.1,1462.17 1146.1,1038.67 1136.38,1038.67 1136.38,1462.17 
  "/>
<path clip-path="url(#clip942)" d="
M1337.08 1462 L1347.11 1462 L1347.11 1020.94 L1337.08 1020.94 L1337.08 1462  Z
  " fill="#e26f46" fill-rule="evenodd" fill-opacity="0.5"/>
<polyline clip-path="url(#clip942)" style="stroke:#000000; stroke-width:4; stroke-opacity:0.5; fill:none" points="
  1337.08,1462 1347.11,1462 1347.11,1020.94 1337.08,1020.94 1337.08,1462 
  "/>
<path clip-path="url(#clip942)" d="
M1367.49 1460.73 L1377.85 1460.73 L1377.85 1005.02 L1367.49 1005.02 L1367.49 1460.73  Z
  " fill="#e26f46" fill-rule="evenodd" fill-opacity="0.5"/>
<polyline clip-path="url(#clip942)" style="stroke:#000000; stroke-width:4; stroke-opacity:0.5; fill:none" points="
  1367.49,1460.73 1377.85,1460.73 1377.85,1005.02 1367.49,1005.02 1367.49,1460.73 
  "/>
<path clip-path="url(#clip942)" d="
M1048.9 1460.3 L1059.58 1460.3 L1059.58 997.079 L1048.9 997.079 L1048.9 1460.3  Z
  " fill="#e26f46" fill-rule="evenodd" fill-opacity="0.5"/>
<polyline clip-path="url(#clip942)" style="stroke:#000000; stroke-width:4; stroke-opacity:0.5; fill:none" points="
  1048.9,1460.3 1059.58,1460.3 1059.58,997.079 1048.9,997.079 1048.9,1460.3 
  "/>
<path clip-path="url(#clip942)" d="
M1357.3 1460.19 L1367.49 1460.19 L1367.49 1011.76 L1357.3 1011.76 L1357.3 1460.19  Z
  " fill="#e26f46" fill-rule="evenodd" fill-opacity="0.5"/>
<polyline clip-path="url(#clip942)" style="stroke:#000000; stroke-width:4; stroke-opacity:0.5; fill:none" points="
  1357.3,1460.19 1367.49,1460.19 1367.49,1011.76 1357.3,1011.76 1357.3,1460.19 
  "/>
<path clip-path="url(#clip942)" d="
M1387.88 1450.64 L1398.07 1450.64 L1398.07 1001.57 L1387.88 1001.57 L1387.88 1450.64  Z
  " fill="#e26f46" fill-rule="evenodd" fill-opacity="0.5"/>
<polyline clip-path="url(#clip942)" style="stroke:#000000; stroke-width:4; stroke-opacity:0.5; fill:none" points="
  1387.88,1450.64 1398.07,1450.64 1398.07,1001.57 1387.88,1001.57 1387.88,1450.64 
  "/>
<path clip-path="url(#clip942)" d="
M1377.85 1450.53 L1387.88 1450.53 L1387.88 1008.63 L1377.85 1008.63 L1377.85 1450.53  Z
  " fill="#e26f46" fill-rule="evenodd" fill-opacity="0.5"/>
<polyline clip-path="url(#clip942)" style="stroke:#000000; stroke-width:4; stroke-opacity:0.5; fill:none" points="
  1377.85,1450.53 1387.88,1450.53 1387.88,1008.63 1377.85,1008.63 1377.85,1450.53 
  "/>
<path clip-path="url(#clip942)" d="
M1398.07 1447.03 L1408.26 1447.03 L1408.26 997.753 L1398.07 997.753 L1398.07 1447.03  Z
  " fill="#e26f46" fill-rule="evenodd" fill-opacity="0.5"/>
<polyline clip-path="url(#clip942)" style="stroke:#000000; stroke-width:4; stroke-opacity:0.5; fill:none" points="
  1398.07,1447.03 1408.26,1447.03 1408.26,997.753 1398.07,997.753 1398.07,1447.03 
  "/>
<path clip-path="url(#clip942)" d="
M1408.26 1446.72 L1418.62 1446.72 L1418.62 990.148 L1408.26 990.148 L1408.26 1446.72  Z
  " fill="#e26f46" fill-rule="evenodd" fill-opacity="0.5"/>
<polyline clip-path="url(#clip942)" style="stroke:#000000; stroke-width:4; stroke-opacity:0.5; fill:none" points="
  1408.26,1446.72 1418.62,1446.72 1418.62,990.148 1408.26,990.148 1408.26,1446.72 
  "/>
<path clip-path="url(#clip942)" d="
M1005.5 1443.2 L1016.18 1443.2 L1016.18 980.928 L1005.5 980.928 L1005.5 1443.2  Z
  " fill="#e26f46" fill-rule="evenodd" fill-opacity="0.5"/>
<polyline clip-path="url(#clip942)" style="stroke:#000000; stroke-width:4; stroke-opacity:0.5; fill:none" points="
  1005.5,1443.2 1016.18,1443.2 1016.18,980.928 1005.5,980.928 1005.5,1443.2 
  "/>
<path clip-path="url(#clip942)" d="
M1418.62 1439.12 L1428.81 1439.12 L1428.81 989.408 L1418.62 989.408 L1418.62 1439.12  Z
  " fill="#e26f46" fill-rule="evenodd" fill-opacity="0.5"/>
<polyline clip-path="url(#clip942)" style="stroke:#000000; stroke-width:4; stroke-opacity:0.5; fill:none" points="
  1418.62,1439.12 1428.81,1439.12 1428.81,989.408 1418.62,989.408 1418.62,1439.12 
  "/>
<path clip-path="url(#clip942)" d="
M1428.81 1438.38 L1439.16 1438.38 L1439.16 981.368 L1428.81 981.368 L1428.81 1438.38  Z
  " fill="#e26f46" fill-rule="evenodd" fill-opacity="0.5"/>
<polyline clip-path="url(#clip942)" style="stroke:#000000; stroke-width:4; stroke-opacity:0.5; fill:none" points="
  1428.81,1438.38 1439.16,1438.38 1439.16,981.368 1428.81,981.368 1428.81,1438.38 
  "/>
<path clip-path="url(#clip942)" d="
M1439.16 1433.84 L1449.51 1433.84 L1449.51 976.616 L1439.16 976.616 L1439.16 1433.84  Z
  " fill="#e26f46" fill-rule="evenodd" fill-opacity="0.5"/>
<polyline clip-path="url(#clip942)" style="stroke:#000000; stroke-width:4; stroke-opacity:0.5; fill:none" points="
  1439.16,1433.84 1449.51,1433.84 1449.51,976.616 1439.16,976.616 1439.16,1433.84 
  "/>
<path clip-path="url(#clip942)" d="
M983.965 1433.29 L994.646 1433.29 L994.646 971.486 L983.965 971.486 L983.965 1433.29  Z
  " fill="#e26f46" fill-rule="evenodd" fill-opacity="0.5"/>
<polyline clip-path="url(#clip942)" style="stroke:#000000; stroke-width:4; stroke-opacity:0.5; fill:none" points="
  983.965,1433.29 994.646,1433.29 994.646,971.486 983.965,971.486 983.965,1433.29 
  "/>
<path clip-path="url(#clip942)" d="
M1449.51 1432.65 L1460.03 1432.65 L1460.03 968.003 L1449.51 968.003 L1449.51 1432.65  Z
  " fill="#e26f46" fill-rule="evenodd" fill-opacity="0.5"/>
<polyline clip-path="url(#clip942)" style="stroke:#000000; stroke-width:4; stroke-opacity:0.5; fill:none" points="
  1449.51,1432.65 1460.03,1432.65 1460.03,968.003 1449.51,968.003 1449.51,1432.65 
  "/>
<path clip-path="url(#clip942)" d="
M973.284 1428.02 L983.965 1428.02 L983.965 966.45 L973.284 966.45 L973.284 1428.02  Z
  " fill="#e26f46" fill-rule="evenodd" fill-opacity="0.5"/>
<polyline clip-path="url(#clip942)" style="stroke:#000000; stroke-width:4; stroke-opacity:0.5; fill:none" points="
  973.284,1428.02 983.965,1428.02 983.965,966.45 973.284,966.45 973.284,1428.02 
  "/>
<path clip-path="url(#clip942)" d="
M1316.85 1466.43 L1326.88 1466.43 L1326.88 1025.78 L1316.85 1025.78 L1316.85 1466.43  Z
  " fill="#e26f46" fill-rule="evenodd" fill-opacity="0.5"/>
<polyline clip-path="url(#clip942)" style="stroke:#000000; stroke-width:4; stroke-opacity:0.5; fill:none" points="
  1316.85,1466.43 1326.88,1466.43 1326.88,1025.78 1316.85,1025.78 1316.85,1466.43 
  "/>
<path clip-path="url(#clip942)" d="
M962.769 1418.99 L973.284 1418.99 L973.284 964.8 L962.769 964.8 L962.769 1418.99  Z
  " fill="#e26f46" fill-rule="evenodd" fill-opacity="0.5"/>
<polyline clip-path="url(#clip942)" style="stroke:#000000; stroke-width:4; stroke-opacity:0.5; fill:none" points="
  962.769,1418.99 973.284,1418.99 973.284,964.8 962.769,964.8 962.769,1418.99 
  "/>
<path clip-path="url(#clip942)" d="
M1460.03 1413.68 L1469.91 1413.68 L1469.91 976.975 L1460.03 976.975 L1460.03 1413.68  Z
  " fill="#e26f46" fill-rule="evenodd" fill-opacity="0.5"/>
<polyline clip-path="url(#clip942)" style="stroke:#000000; stroke-width:4; stroke-opacity:0.5; fill:none" points="
  1460.03,1413.68 1469.91,1413.68 1469.91,976.975 1460.03,976.975 1460.03,1413.68 
  "/>
<path clip-path="url(#clip942)" d="
M1469.91 1412.13 L1479.94 1412.13 L1479.94 968.343 L1469.91 968.343 L1469.91 1412.13  Z
  " fill="#e26f46" fill-rule="evenodd" fill-opacity="0.5"/>
<polyline clip-path="url(#clip942)" style="stroke:#000000; stroke-width:4; stroke-opacity:0.5; fill:none" points="
  1469.91,1412.13 1479.94,1412.13 1479.94,968.343 1469.91,968.343 1469.91,1412.13 
  "/>
<path clip-path="url(#clip942)" d="
M1479.94 1406.9 L1489.97 1406.9 L1489.97 962.904 L1479.94 962.904 L1479.94 1406.9  Z
  " fill="#e26f46" fill-rule="evenodd" fill-opacity="0.5"/>
<polyline clip-path="url(#clip942)" style="stroke:#000000; stroke-width:4; stroke-opacity:0.5; fill:none" points="
  1479.94,1406.9 1489.97,1406.9 1489.97,962.904 1479.94,962.904 1479.94,1406.9 
  "/>
<path clip-path="url(#clip942)" d="
M1489.97 1404.91 L1500.17 1404.91 L1500.17 953.716 L1489.97 953.716 L1489.97 1404.91  Z
  " fill="#e26f46" fill-rule="evenodd" fill-opacity="0.5"/>
<polyline clip-path="url(#clip942)" style="stroke:#000000; stroke-width:4; stroke-opacity:0.5; fill:none" points="
  1489.97,1404.91 1500.17,1404.91 1500.17,953.716 1489.97,953.716 1489.97,1404.91 
  "/>
<path clip-path="url(#clip942)" d="
M919.369 1397.86 L930.05 1397.86 L930.05 937.471 L919.369 937.471 L919.369 1397.86  Z
  " fill="#e26f46" fill-rule="evenodd" fill-opacity="0.5"/>
<polyline clip-path="url(#clip942)" style="stroke:#000000; stroke-width:4; stroke-opacity:0.5; fill:none" points="
  919.369,1397.86 930.05,1397.86 930.05,937.471 919.369,937.471 919.369,1397.86 
  "/>
<path clip-path="url(#clip942)" d="
M1500.17 1395.72 L1510.2 1395.72 L1510.2 951.315 L1500.17 951.315 L1500.17 1395.72  Z
  " fill="#e26f46" fill-rule="evenodd" fill-opacity="0.5"/>
<polyline clip-path="url(#clip942)" style="stroke:#000000; stroke-width:4; stroke-opacity:0.5; fill:none" points="
  1500.17,1395.72 1510.2,1395.72 1510.2,951.315 1500.17,951.315 1500.17,1395.72 
  "/>
<path clip-path="url(#clip942)" d="
M1510.2 1393.32 L1520.39 1393.32 L1520.39 941.705 L1510.2 941.705 L1510.2 1393.32  Z
  " fill="#e26f46" fill-rule="evenodd" fill-opacity="0.5"/>
<polyline clip-path="url(#clip942)" style="stroke:#000000; stroke-width:4; stroke-opacity:0.5; fill:none" points="
  1510.2,1393.32 1520.39,1393.32 1520.39,941.705 1510.2,941.705 1510.2,1393.32 
  "/>
<path clip-path="url(#clip942)" d="
M1520.39 1387.17 L1530.58 1387.17 L1530.58 935.336 L1520.39 935.336 L1520.39 1387.17  Z
  " fill="#e26f46" fill-rule="evenodd" fill-opacity="0.5"/>
<polyline clip-path="url(#clip942)" style="stroke:#000000; stroke-width:4; stroke-opacity:0.5; fill:none" points="
  1520.39,1387.17 1530.58,1387.17 1530.58,935.336 1520.39,935.336 1520.39,1387.17 
  "/>
<path clip-path="url(#clip942)" d="
M1530.58 1384.3 L1540.94 1384.3 L1540.94 925.142 L1530.58 925.142 L1530.58 1384.3  Z
  " fill="#e26f46" fill-rule="evenodd" fill-opacity="0.5"/>
<polyline clip-path="url(#clip942)" style="stroke:#000000; stroke-width:4; stroke-opacity:0.5; fill:none" points="
  1530.58,1384.3 1540.94,1384.3 1540.94,925.142 1530.58,925.142 1530.58,1384.3 
  "/>
<path clip-path="url(#clip942)" d="
M897.839 1384.16 L908.52 1384.16 L908.52 924.238 L897.839 924.238 L897.839 1384.16  Z
  " fill="#e26f46" fill-rule="evenodd" fill-opacity="0.5"/>
<polyline clip-path="url(#clip942)" style="stroke:#000000; stroke-width:4; stroke-opacity:0.5; fill:none" points="
  897.839,1384.16 908.52,1384.16 908.52,924.238 897.839,924.238 897.839,1384.16 
  "/>
<path clip-path="url(#clip942)" d="
M1235.94 1475.78 L1245.98 1475.78 L1245.98 1036.8 L1235.94 1036.8 L1235.94 1475.78  Z
  " fill="#e26f46" fill-rule="evenodd" fill-opacity="0.5"/>
<polyline clip-path="url(#clip942)" style="stroke:#000000; stroke-width:4; stroke-opacity:0.5; fill:none" points="
  1235.94,1475.78 1245.98,1475.78 1245.98,1036.8 1235.94,1036.8 1235.94,1475.78 
  "/>
<path clip-path="url(#clip942)" d="
M887.158 1377.01 L897.839 1377.01 L897.839 917.321 L887.158 917.321 L887.158 1377.01  Z
  " fill="#e26f46" fill-rule="evenodd" fill-opacity="0.5"/>
<polyline clip-path="url(#clip942)" style="stroke:#000000; stroke-width:4; stroke-opacity:0.5; fill:none" points="
  887.158,1377.01 897.839,1377.01 897.839,917.321 887.158,917.321 887.158,1377.01 
  "/>
<path clip-path="url(#clip942)" d="
M1130.74 1371.91 L1136.38 1371.91 L1136.38 1126.37 L1130.74 1126.37 L1130.74 1371.91  Z
  " fill="#e26f46" fill-rule="evenodd" fill-opacity="0.5"/>
<polyline clip-path="url(#clip942)" style="stroke:#000000; stroke-width:4; stroke-opacity:0.5; fill:none" points="
  1130.74,1371.91 1136.38,1371.91 1136.38,1126.37 1130.74,1126.37 1130.74,1371.91 
  "/>
<path clip-path="url(#clip942)" d="
M1540.94 1370.66 L1550.97 1370.66 L1550.97 925.413 L1540.94 925.413 L1540.94 1370.66  Z
  " fill="#e26f46" fill-rule="evenodd" fill-opacity="0.5"/>
<polyline clip-path="url(#clip942)" style="stroke:#000000; stroke-width:4; stroke-opacity:0.5; fill:none" points="
  1540.94,1370.66 1550.97,1370.66 1550.97,925.413 1540.94,925.413 1540.94,1370.66 
  "/>
<path clip-path="url(#clip942)" d="
M1119.63 1367.85 L1125.18 1367.85 L1125.18 1126.25 L1119.63 1126.25 L1119.63 1367.85  Z
  " fill="#e26f46" fill-rule="evenodd" fill-opacity="0.5"/>
<polyline clip-path="url(#clip942)" style="stroke:#000000; stroke-width:4; stroke-opacity:0.5; fill:none" points="
  1119.63,1367.85 1125.18,1367.85 1125.18,1126.25 1119.63,1126.25 1119.63,1367.85 
  "/>
<path clip-path="url(#clip942)" d="
M876.643 1366.12 L887.158 1366.12 L887.158 913.79 L876.643 913.79 L876.643 1366.12  Z
  " fill="#e26f46" fill-rule="evenodd" fill-opacity="0.5"/>
<polyline clip-path="url(#clip942)" style="stroke:#000000; stroke-width:4; stroke-opacity:0.5; fill:none" points="
  876.643,1366.12 887.158,1366.12 887.158,913.79 876.643,913.79 876.643,1366.12 
  "/>
<path clip-path="url(#clip942)" d="
M1108.61 1365.47 L1114.16 1365.47 L1114.16 1123.99 L1108.61 1123.99 L1108.61 1365.47  Z
  " fill="#e26f46" fill-rule="evenodd" fill-opacity="0.5"/>
<polyline clip-path="url(#clip942)" style="stroke:#000000; stroke-width:4; stroke-opacity:0.5; fill:none" points="
  1108.61,1365.47 1114.16,1365.47 1114.16,1123.99 1108.61,1123.99 1108.61,1365.47 
  "/>
<path clip-path="url(#clip942)" d="
M1114.16 1364.82 L1119.63 1364.82 L1119.63 1127.02 L1114.16 1127.02 L1114.16 1364.82  Z
  " fill="#e26f46" fill-rule="evenodd" fill-opacity="0.5"/>
<polyline clip-path="url(#clip942)" style="stroke:#000000; stroke-width:4; stroke-opacity:0.5; fill:none" points="
  1114.16,1364.82 1119.63,1364.82 1119.63,1127.02 1114.16,1127.02 1114.16,1364.82 
  "/>
<path clip-path="url(#clip942)" d="
M1103.14 1362.31 L1108.61 1362.31 L1108.61 1124.64 L1103.14 1124.64 L1103.14 1362.31  Z
  " fill="#e26f46" fill-rule="evenodd" fill-opacity="0.5"/>
<polyline clip-path="url(#clip942)" style="stroke:#000000; stroke-width:4; stroke-opacity:0.5; fill:none" points="
  1103.14,1362.31 1108.61,1362.31 1108.61,1124.64 1103.14,1124.64 1103.14,1362.31 
  "/>
<path clip-path="url(#clip942)" d="
M1097.68 1360.98 L1103.14 1360.98 L1103.14 1123.36 L1097.68 1123.36 L1097.68 1360.98  Z
  " fill="#e26f46" fill-rule="evenodd" fill-opacity="0.5"/>
<polyline clip-path="url(#clip942)" style="stroke:#000000; stroke-width:4; stroke-opacity:0.5; fill:none" points="
  1097.68,1360.98 1103.14,1360.98 1103.14,1123.36 1097.68,1123.36 1097.68,1360.98 
  "/>
<path clip-path="url(#clip942)" d="
M1561.16 1360.41 L1571.35 1360.41 L1571.35 907.734 L1561.16 907.734 L1561.16 1360.41  Z
  " fill="#e26f46" fill-rule="evenodd" fill-opacity="0.5"/>
<polyline clip-path="url(#clip942)" style="stroke:#000000; stroke-width:4; stroke-opacity:0.5; fill:none" points="
  1561.16,1360.41 1571.35,1360.41 1571.35,907.734 1561.16,907.734 1561.16,1360.41 
  "/>
<path clip-path="url(#clip942)" d="
M1550.97 1367.42 L1561.16 1367.42 L1561.16 914.953 L1550.97 914.953 L1550.97 1367.42  Z
  " fill="#e26f46" fill-rule="evenodd" fill-opacity="0.5"/>
<polyline clip-path="url(#clip942)" style="stroke:#000000; stroke-width:4; stroke-opacity:0.5; fill:none" points="
  1550.97,1367.42 1561.16,1367.42 1561.16,914.953 1550.97,914.953 1550.97,1367.42 
  "/>
<path clip-path="url(#clip942)" d="
M1086.74 1360 L1092.29 1360 L1092.29 1118.77 L1086.74 1118.77 L1086.74 1360  Z
  " fill="#e26f46" fill-rule="evenodd" fill-opacity="0.5"/>
<polyline clip-path="url(#clip942)" style="stroke:#000000; stroke-width:4; stroke-opacity:0.5; fill:none" points="
  1086.74,1360 1092.29,1360 1092.29,1118.77 1086.74,1118.77 1086.74,1360 
  "/>
<path clip-path="url(#clip942)" d="
M1092.29 1357.75 L1097.68 1357.75 L1097.68 1123.88 L1092.29 1123.88 L1092.29 1357.75  Z
  " fill="#e26f46" fill-rule="evenodd" fill-opacity="0.5"/>
<polyline clip-path="url(#clip942)" style="stroke:#000000; stroke-width:4; stroke-opacity:0.5; fill:none" points="
  1092.29,1357.75 1097.68,1357.75 1097.68,1123.88 1092.29,1123.88 1092.29,1357.75 
  "/>
<path clip-path="url(#clip942)" d="
M1125.18 1368.96 L1130.74 1368.96 L1130.74 1127.29 L1125.18 1127.29 L1125.18 1368.96  Z
  " fill="#e26f46" fill-rule="evenodd" fill-opacity="0.5"/>
<polyline clip-path="url(#clip942)" style="stroke:#000000; stroke-width:4; stroke-opacity:0.5; fill:none" points="
  1125.18,1368.96 1130.74,1368.96 1130.74,1127.29 1125.18,1127.29 1125.18,1368.96 
  "/>
<path clip-path="url(#clip942)" d="
M1571.35 1356.7 L1581.71 1356.7 L1581.71 896.677 L1571.35 896.677 L1571.35 1356.7  Z
  " fill="#e26f46" fill-rule="evenodd" fill-opacity="0.5"/>
<polyline clip-path="url(#clip942)" style="stroke:#000000; stroke-width:4; stroke-opacity:0.5; fill:none" points="
  1571.35,1356.7 1581.71,1356.7 1581.71,896.677 1571.35,896.677 1571.35,1356.7 
  "/>
<path clip-path="url(#clip942)" d="
M1081.27 1356.6 L1086.74 1356.6 L1086.74 1119.17 L1081.27 1119.17 L1081.27 1356.6  Z
  " fill="#e26f46" fill-rule="evenodd" fill-opacity="0.5"/>
<polyline clip-path="url(#clip942)" style="stroke:#000000; stroke-width:4; stroke-opacity:0.5; fill:none" points="
  1081.27,1356.6 1086.74,1356.6 1086.74,1119.17 1081.27,1119.17 1081.27,1356.6 
  "/>
<path clip-path="url(#clip942)" d="
M1075.81 1355.02 L1081.27 1355.02 L1081.27 1117.66 L1075.81 1117.66 L1075.81 1355.02  Z
  " fill="#e26f46" fill-rule="evenodd" fill-opacity="0.5"/>
<polyline clip-path="url(#clip942)" style="stroke:#000000; stroke-width:4; stroke-opacity:0.5; fill:none" points="
  1075.81,1355.02 1081.27,1355.02 1081.27,1117.66 1075.81,1117.66 1075.81,1355.02 
  "/>
<path clip-path="url(#clip942)" d="
M855.113 1354.16 L865.794 1354.16 L865.794 895.169 L855.113 895.169 L855.113 1354.16  Z
  " fill="#e26f46" fill-rule="evenodd" fill-opacity="0.5"/>
<polyline clip-path="url(#clip942)" style="stroke:#000000; stroke-width:4; stroke-opacity:0.5; fill:none" points="
  855.113,1354.16 865.794,1354.16 865.794,895.169 855.113,895.169 855.113,1354.16 
  "/>
<path clip-path="url(#clip942)" d="
M1070.43 1351.56 L1075.81 1351.56 L1075.81 1117.93 L1070.43 1117.93 L1070.43 1351.56  Z
  " fill="#e26f46" fill-rule="evenodd" fill-opacity="0.5"/>
<polyline clip-path="url(#clip942)" style="stroke:#000000; stroke-width:4; stroke-opacity:0.5; fill:none" points="
  1070.43,1351.56 1075.81,1351.56 1075.81,1117.93 1070.43,1117.93 1070.43,1351.56 
  "/>
<path clip-path="url(#clip942)" d="
M1059.58 1348.12 L1064.96 1348.12 L1064.96 1114.61 L1059.58 1114.61 L1059.58 1348.12  Z
  " fill="#e26f46" fill-rule="evenodd" fill-opacity="0.5"/>
<polyline clip-path="url(#clip942)" style="stroke:#000000; stroke-width:4; stroke-opacity:0.5; fill:none" points="
  1059.58,1348.12 1064.96,1348.12 1064.96,1114.61 1059.58,1114.61 1059.58,1348.12 
  "/>
<path clip-path="url(#clip942)" d="
M1064.96 1351.71 L1070.43 1351.71 L1070.43 1114.46 L1064.96 1114.46 L1064.96 1351.71  Z
  " fill="#e26f46" fill-rule="evenodd" fill-opacity="0.5"/>
<polyline clip-path="url(#clip942)" style="stroke:#000000; stroke-width:4; stroke-opacity:0.5; fill:none" points="
  1064.96,1351.71 1070.43,1351.71 1070.43,1114.46 1064.96,1114.46 1064.96,1351.71 
  "/>
<path clip-path="url(#clip942)" d="
M1043.34 1346.26 L1048.9 1346.26 L1048.9 1105.53 L1043.34 1105.53 L1043.34 1346.26  Z
  " fill="#e26f46" fill-rule="evenodd" fill-opacity="0.5"/>
<polyline clip-path="url(#clip942)" style="stroke:#000000; stroke-width:4; stroke-opacity:0.5; fill:none" points="
  1043.34,1346.26 1048.9,1346.26 1048.9,1105.53 1043.34,1105.53 1043.34,1346.26 
  "/>
<path clip-path="url(#clip942)" d="
M844.432 1346.08 L855.113 1346.08 L855.113 887.32 L844.432 887.32 L844.432 1346.08  Z
  " fill="#e26f46" fill-rule="evenodd" fill-opacity="0.5"/>
<polyline clip-path="url(#clip942)" style="stroke:#000000; stroke-width:4; stroke-opacity:0.5; fill:none" points="
  844.432,1346.08 855.113,1346.08 855.113,887.32 844.432,887.32 844.432,1346.08 
  "/>
<path clip-path="url(#clip942)" d="
M1581.71 1345.64 L1591.9 1345.64 L1591.9 892.538 L1581.71 892.538 L1581.71 1345.64  Z
  " fill="#e26f46" fill-rule="evenodd" fill-opacity="0.5"/>
<polyline clip-path="url(#clip942)" style="stroke:#000000; stroke-width:4; stroke-opacity:0.5; fill:none" points="
  1581.71,1345.64 1591.9,1345.64 1591.9,892.538 1581.71,892.538 1581.71,1345.64 
  "/>
<path clip-path="url(#clip942)" d="
M1037.87 1342.38 L1043.34 1342.38 L1043.34 1105.43 L1037.87 1105.43 L1037.87 1342.38  Z
  " fill="#e26f46" fill-rule="evenodd" fill-opacity="0.5"/>
<polyline clip-path="url(#clip942)" style="stroke:#000000; stroke-width:4; stroke-opacity:0.5; fill:none" points="
  1037.87,1342.38 1043.34,1342.38 1043.34,1105.43 1037.87,1105.43 1037.87,1342.38 
  "/>
<path clip-path="url(#clip942)" d="
M1591.9 1341.51 L1602.25 1341.51 L1602.25 881.045 L1591.9 881.045 L1591.9 1341.51  Z
  " fill="#e26f46" fill-rule="evenodd" fill-opacity="0.5"/>
<polyline clip-path="url(#clip942)" style="stroke:#000000; stroke-width:4; stroke-opacity:0.5; fill:none" points="
  1591.9,1341.51 1602.25,1341.51 1602.25,881.045 1591.9,881.045 1591.9,1341.51 
  "/>
<path clip-path="url(#clip942)" d="
M1032.41 1340.31 L1037.87 1340.31 L1037.87 1103.43 L1032.41 1103.43 L1032.41 1340.31  Z
  " fill="#e26f46" fill-rule="evenodd" fill-opacity="0.5"/>
<polyline clip-path="url(#clip942)" style="stroke:#000000; stroke-width:4; stroke-opacity:0.5; fill:none" points="
  1032.41,1340.31 1037.87,1340.31 1037.87,1103.43 1032.41,1103.43 1032.41,1340.31 
  "/>
<path clip-path="url(#clip942)" d="
M1027.03 1336.37 L1032.41 1336.37 L1032.41 1103.22 L1027.03 1103.22 L1027.03 1336.37  Z
  " fill="#e26f46" fill-rule="evenodd" fill-opacity="0.5"/>
<polyline clip-path="url(#clip942)" style="stroke:#000000; stroke-width:4; stroke-opacity:0.5; fill:none" points="
  1027.03,1336.37 1032.41,1336.37 1032.41,1103.22 1027.03,1103.22 1027.03,1336.37 
  "/>
<path clip-path="url(#clip942)" d="
M1021.56 1336.03 L1027.03 1336.03 L1027.03 1099.27 L1021.56 1099.27 L1021.56 1336.03  Z
  " fill="#e26f46" fill-rule="evenodd" fill-opacity="0.5"/>
<polyline clip-path="url(#clip942)" style="stroke:#000000; stroke-width:4; stroke-opacity:0.5; fill:none" points="
  1021.56,1336.03 1027.03,1336.03 1027.03,1099.27 1021.56,1099.27 1021.56,1336.03 
  "/>
<path clip-path="url(#clip942)" d="
M833.916 1334.27 L844.432 1334.27 L844.432 882.855 L833.916 882.855 L833.916 1334.27  Z
  " fill="#e26f46" fill-rule="evenodd" fill-opacity="0.5"/>
<polyline clip-path="url(#clip942)" style="stroke:#000000; stroke-width:4; stroke-opacity:0.5; fill:none" points="
  833.916,1334.27 844.432,1334.27 844.432,882.855 833.916,882.855 833.916,1334.27 
  "/>
<path clip-path="url(#clip942)" d="
M1602.25 1333.52 L1612.6 1333.52 L1612.6 872.842 L1602.25 872.842 L1602.25 1333.52  Z
  " fill="#e26f46" fill-rule="evenodd" fill-opacity="0.5"/>
<polyline clip-path="url(#clip942)" style="stroke:#000000; stroke-width:4; stroke-opacity:0.5; fill:none" points="
  1602.25,1333.52 1612.6,1333.52 1612.6,872.842 1602.25,872.842 1602.25,1333.52 
  "/>
<path clip-path="url(#clip942)" d="
M1016.18 1331.97 L1021.56 1331.97 L1021.56 1098.94 L1016.18 1098.94 L1016.18 1331.97  Z
  " fill="#e26f46" fill-rule="evenodd" fill-opacity="0.5"/>
<polyline clip-path="url(#clip942)" style="stroke:#000000; stroke-width:4; stroke-opacity:0.5; fill:none" points="
  1016.18,1331.97 1021.56,1331.97 1021.56,1098.94 1016.18,1098.94 1016.18,1331.97 
  "/>
<path clip-path="url(#clip942)" d="
M823.235 1329.34 L833.916 1329.34 L833.916 871.051 L823.235 871.051 L823.235 1329.34  Z
  " fill="#e26f46" fill-rule="evenodd" fill-opacity="0.5"/>
<polyline clip-path="url(#clip942)" style="stroke:#000000; stroke-width:4; stroke-opacity:0.5; fill:none" points="
  823.235,1329.34 833.916,1329.34 833.916,871.051 823.235,871.051 823.235,1329.34 
  "/>
<path clip-path="url(#clip942)" d="
M1612.6 1328.88 L1623.12 1328.88 L1623.12 860.721 L1612.6 860.721 L1612.6 1328.88  Z
  " fill="#e26f46" fill-rule="evenodd" fill-opacity="0.5"/>
<polyline clip-path="url(#clip942)" style="stroke:#000000; stroke-width:4; stroke-opacity:0.5; fill:none" points="
  1612.6,1328.88 1623.12,1328.88 1623.12,860.721 1612.6,860.721 1612.6,1328.88 
  "/>
<path clip-path="url(#clip942)" d="
M1000.03 1326.83 L1005.5 1326.83 L1005.5 1090.31 L1000.03 1090.31 L1000.03 1326.83  Z
  " fill="#e26f46" fill-rule="evenodd" fill-opacity="0.5"/>
<polyline clip-path="url(#clip942)" style="stroke:#000000; stroke-width:4; stroke-opacity:0.5; fill:none" points="
  1000.03,1326.83 1005.5,1326.83 1005.5,1090.31 1000.03,1090.31 1000.03,1326.83 
  "/>
<path clip-path="url(#clip942)" d="
M994.646 1322.53 L1000.03 1322.53 L1000.03 1089.73 L994.646 1089.73 L994.646 1322.53  Z
  " fill="#e26f46" fill-rule="evenodd" fill-opacity="0.5"/>
<polyline clip-path="url(#clip942)" style="stroke:#000000; stroke-width:4; stroke-opacity:0.5; fill:none" points="
  994.646,1322.53 1000.03,1322.53 1000.03,1089.73 994.646,1089.73 994.646,1322.53 
  "/>
<path clip-path="url(#clip942)" d="
M812.72 1317.08 L823.235 1317.08 L823.235 866.124 L812.72 866.124 L812.72 1317.08  Z
  " fill="#e26f46" fill-rule="evenodd" fill-opacity="0.5"/>
<polyline clip-path="url(#clip942)" style="stroke:#000000; stroke-width:4; stroke-opacity:0.5; fill:none" points="
  812.72,1317.08 823.235,1317.08 823.235,866.124 812.72,866.124 812.72,1317.08 
  "/>
<path clip-path="url(#clip942)" d="
M1623.12 1309.8 L1633.15 1309.8 L1633.15 862.869 L1623.12 862.869 L1623.12 1309.8  Z
  " fill="#e26f46" fill-rule="evenodd" fill-opacity="0.5"/>
<polyline clip-path="url(#clip942)" style="stroke:#000000; stroke-width:4; stroke-opacity:0.5; fill:none" points="
  1623.12,1309.8 1633.15,1309.8 1633.15,862.869 1623.12,862.869 1623.12,1309.8 
  "/>
<path clip-path="url(#clip942)" d="
M802.204 1308.22 L812.72 1308.22 L812.72 857.482 L802.204 857.482 L802.204 1308.22  Z
  " fill="#e26f46" fill-rule="evenodd" fill-opacity="0.5"/>
<polyline clip-path="url(#clip942)" style="stroke:#000000; stroke-width:4; stroke-opacity:0.5; fill:none" points="
  802.204,1308.22 812.72,1308.22 812.72,857.482 802.204,857.482 802.204,1308.22 
  "/>
<path clip-path="url(#clip942)" d="
M957.216 1307.59 L962.769 1307.59 L962.769 1067.83 L957.216 1067.83 L957.216 1307.59  Z
  " fill="#e26f46" fill-rule="evenodd" fill-opacity="0.5"/>
<polyline clip-path="url(#clip942)" style="stroke:#000000; stroke-width:4; stroke-opacity:0.5; fill:none" points="
  957.216,1307.59 962.769,1307.59 962.769,1067.83 957.216,1067.83 957.216,1307.59 
  "/>
<path clip-path="url(#clip942)" d="
M1633.15 1304.88 L1643.34 1304.88 L1643.34 850.697 L1633.15 850.697 L1633.15 1304.88  Z
  " fill="#e26f46" fill-rule="evenodd" fill-opacity="0.5"/>
<polyline clip-path="url(#clip942)" style="stroke:#000000; stroke-width:4; stroke-opacity:0.5; fill:none" points="
  1633.15,1304.88 1643.34,1304.88 1643.34,850.697 1633.15,850.697 1633.15,1304.88 
  "/>
<path clip-path="url(#clip942)" d="
M951.749 1302.74 L957.216 1302.74 L957.216 1066.76 L951.749 1066.76 L951.749 1302.74  Z
  " fill="#e26f46" fill-rule="evenodd" fill-opacity="0.5"/>
<polyline clip-path="url(#clip942)" style="stroke:#000000; stroke-width:4; stroke-opacity:0.5; fill:none" points="
  951.749,1302.74 957.216,1302.74 957.216,1066.76 951.749,1066.76 951.749,1302.74 
  "/>
<path clip-path="url(#clip942)" d="
M946.282 1299.71 L951.749 1299.71 L951.749 1063.79 L946.282 1063.79 L946.282 1299.71  Z
  " fill="#e26f46" fill-rule="evenodd" fill-opacity="0.5"/>
<polyline clip-path="url(#clip942)" style="stroke:#000000; stroke-width:4; stroke-opacity:0.5; fill:none" points="
  946.282,1299.71 951.749,1299.71 951.749,1063.79 946.282,1063.79 946.282,1299.71 
  "/>
<path clip-path="url(#clip942)" d="
M1643.34 1296.16 L1653.54 1296.16 L1653.54 841.765 L1643.34 841.765 L1643.34 1296.16  Z
  " fill="#e26f46" fill-rule="evenodd" fill-opacity="0.5"/>
<polyline clip-path="url(#clip942)" style="stroke:#000000; stroke-width:4; stroke-opacity:0.5; fill:none" points="
  1643.34,1296.16 1653.54,1296.16 1653.54,841.765 1643.34,841.765 1643.34,1296.16 
  "/>
<path clip-path="url(#clip942)" d="
M791.852 1295.7 L802.204 1295.7 L802.204 852.177 L791.852 852.177 L791.852 1295.7  Z
  " fill="#e26f46" fill-rule="evenodd" fill-opacity="0.5"/>
<polyline clip-path="url(#clip942)" style="stroke:#000000; stroke-width:4; stroke-opacity:0.5; fill:none" points="
  791.852,1295.7 802.204,1295.7 802.204,852.177 791.852,852.177 791.852,1295.7 
  "/>
<path clip-path="url(#clip942)" d="
M940.9 1294.82 L946.282 1294.82 L946.282 1062.62 L940.9 1062.62 L940.9 1294.82  Z
  " fill="#e26f46" fill-rule="evenodd" fill-opacity="0.5"/>
<polyline clip-path="url(#clip942)" style="stroke:#000000; stroke-width:4; stroke-opacity:0.5; fill:none" points="
  940.9,1294.82 946.282,1294.82 946.282,1062.62 940.9,1062.62 940.9,1294.82 
  "/>
<path clip-path="url(#clip942)" d="
M935.433 1293.52 L940.9 1293.52 L940.9 1057.73 L935.433 1057.73 L935.433 1293.52  Z
  " fill="#e26f46" fill-rule="evenodd" fill-opacity="0.5"/>
<polyline clip-path="url(#clip942)" style="stroke:#000000; stroke-width:4; stroke-opacity:0.5; fill:none" points="
  935.433,1293.52 940.9,1293.52 940.9,1057.73 935.433,1057.73 935.433,1293.52 
  "/>
<path clip-path="url(#clip942)" d="
M1653.54 1290.73 L1663.89 1290.73 L1663.89 828.968 L1653.54 828.968 L1653.54 1290.73  Z
  " fill="#e26f46" fill-rule="evenodd" fill-opacity="0.5"/>
<polyline clip-path="url(#clip942)" style="stroke:#000000; stroke-width:4; stroke-opacity:0.5; fill:none" points="
  1653.54,1290.73 1663.89,1290.73 1663.89,828.968 1653.54,828.968 1653.54,1290.73 
  "/>
<path clip-path="url(#clip942)" d="
M930.05 1288.51 L935.433 1288.51 L935.433 1056.43 L930.05 1056.43 L930.05 1288.51  Z
  " fill="#e26f46" fill-rule="evenodd" fill-opacity="0.5"/>
<polyline clip-path="url(#clip942)" style="stroke:#000000; stroke-width:4; stroke-opacity:0.5; fill:none" points="
  930.05,1288.51 935.433,1288.51 935.433,1056.43 930.05,1056.43 930.05,1288.51 
  "/>
<path clip-path="url(#clip942)" d="
M1663.89 1277.94 L1674.08 1277.94 L1674.08 823.116 L1663.89 823.116 L1663.89 1277.94  Z
  " fill="#e26f46" fill-rule="evenodd" fill-opacity="0.5"/>
<polyline clip-path="url(#clip942)" style="stroke:#000000; stroke-width:4; stroke-opacity:0.5; fill:none" points="
  1663.89,1277.94 1674.08,1277.94 1674.08,823.116 1663.89,823.116 1663.89,1277.94 
  "/>
<path clip-path="url(#clip942)" d="
M913.902 1280.53 L919.369 1280.53 L919.369 1044.97 L913.902 1044.97 L913.902 1280.53  Z
  " fill="#e26f46" fill-rule="evenodd" fill-opacity="0.5"/>
<polyline clip-path="url(#clip942)" style="stroke:#000000; stroke-width:4; stroke-opacity:0.5; fill:none" points="
  913.902,1280.53 919.369,1280.53 919.369,1044.97 913.902,1044.97 913.902,1280.53 
  "/>
<path clip-path="url(#clip942)" d="
M908.52 1275.28 L913.902 1275.28 L913.902 1043.43 L908.52 1043.43 L908.52 1275.28  Z
  " fill="#e26f46" fill-rule="evenodd" fill-opacity="0.5"/>
<polyline clip-path="url(#clip942)" style="stroke:#000000; stroke-width:4; stroke-opacity:0.5; fill:none" points="
  908.52,1275.28 913.902,1275.28 913.902,1043.43 908.52,1043.43 908.52,1275.28 
  "/>
<path clip-path="url(#clip942)" d="
M1674.08 1272.08 L1684.43 1272.08 L1684.43 809.884 L1674.08 809.884 L1674.08 1272.08  Z
  " fill="#e26f46" fill-rule="evenodd" fill-opacity="0.5"/>
<polyline clip-path="url(#clip942)" style="stroke:#000000; stroke-width:4; stroke-opacity:0.5; fill:none" points="
  1674.08,1272.08 1684.43,1272.08 1684.43,809.884 1674.08,809.884 1674.08,1272.08 
  "/>
<path clip-path="url(#clip942)" d="
M748.453 1262.97 L759.134 1262.97 L759.134 806.315 L748.453 806.315 L748.453 1262.97  Z
  " fill="#e26f46" fill-rule="evenodd" fill-opacity="0.5"/>
<polyline clip-path="url(#clip942)" style="stroke:#000000; stroke-width:4; stroke-opacity:0.5; fill:none" points="
  748.453,1262.97 759.134,1262.97 759.134,806.315 748.453,806.315 748.453,1262.97 
  "/>
<path clip-path="url(#clip942)" d="
M1684.43 1262.36 L1694.79 1262.36 L1694.79 799.941 L1684.43 799.941 L1684.43 1262.36  Z
  " fill="#e26f46" fill-rule="evenodd" fill-opacity="0.5"/>
<polyline clip-path="url(#clip942)" style="stroke:#000000; stroke-width:4; stroke-opacity:0.5; fill:none" points="
  1684.43,1262.36 1694.79,1262.36 1694.79,799.941 1684.43,799.941 1684.43,1262.36 
  "/>
</svg>
