<?xml version="1.0" encoding="UTF-8"?>
<svg xmlns="http://www.w3.org/2000/svg" xmlns:xlink="http://www.w3.org/1999/xlink" width="500pt" height="500pt" viewBox="0 0 500 500" version="1.1">
<g id="surface9">
<path style="fill:none;stroke-width:18;stroke-linecap:butt;stroke-linejoin:miter;stroke:rgb(22%,59.6%,14.9%);stroke-opacity:1;stroke-miterlimit:10;" d="M 143.75 462.5 L 37.5 462.5 L 37.5 37.5 L 143.75 37.5 "/>
<path style="fill:none;stroke-width:18;stroke-linecap:butt;stroke-linejoin:miter;stroke:rgb(22%,59.6%,14.9%);stroke-opacity:1;stroke-miterlimit:10;" d="M 356.25 462.5 L 462.5 462.5 L 462.5 37.5 L 356.25 37.5 "/>
<path style="fill:none;stroke-width:18;stroke-linecap:butt;stroke-linejoin:miter;stroke:rgb(79.6%,23.5%,20%);stroke-opacity:1;stroke-miterlimit:10;" d="M 168.75 412.5 L 87.5 412.5 L 87.5 87.5 L 168.75 87.5 "/>
<path style="fill:none;stroke-width:18;stroke-linecap:butt;stroke-linejoin:miter;stroke:rgb(79.6%,23.5%,20%);stroke-opacity:1;stroke-miterlimit:10;" d="M 331.25 412.5 L 412.5 412.5 L 412.5 87.5 L 331.25 87.5 "/>
<path style="fill:none;stroke-width:18;stroke-linecap:butt;stroke-linejoin:miter;stroke:rgb(58.4%,34.5%,69.8%);stroke-opacity:1;stroke-miterlimit:10;" d="M 193.75 362.5 L 137.5 362.5 L 137.5 137.5 L 193.75 137.5 "/>
<path style="fill:none;stroke-width:18;stroke-linecap:butt;stroke-linejoin:miter;stroke:rgb(58.4%,34.5%,69.8%);stroke-opacity:1;stroke-miterlimit:10;" d="M 306.25 362.5 L 362.5 362.5 L 362.5 137.5 L 306.25 137.5 "/>
<path style=" stroke:none;fill-rule:nonzero;fill:rgb(79.6%,23.5%,20%);fill-opacity:1;" d="M 245.359375 270 C 245.359375 286.570313 231.925781 300 215.359375 300 C 198.789063 300 185.359375 286.570313 185.359375 270 C 185.359375 253.429688 198.789063 240 215.359375 240 C 231.925781 240 245.359375 253.429688 245.359375 270 "/>
<path style=" stroke:none;fill-rule:nonzero;fill:rgb(22%,59.6%,14.9%);fill-opacity:1;" d="M 280 210 C 280 226.570313 266.570313 240 250 240 C 233.429688 240 220 226.570313 220 210 C 220 193.429688 233.429688 180 250 180 C 266.570313 180 280 193.429688 280 210 "/>
<path style=" stroke:none;fill-rule:nonzero;fill:rgb(58.4%,34.5%,69.8%);fill-opacity:1;" d="M 314.640625 270 C 314.640625 286.570313 301.210938 300 284.640625 300 C 268.074219 300 254.640625 286.570313 254.640625 270 C 254.640625 253.429688 268.074219 240 284.640625 240 C 301.210938 240 314.640625 253.429688 314.640625 270 "/>
</g>
</svg>
