<?xml version="1.0" encoding="utf-8"?>
<svg xmlns="http://www.w3.org/2000/svg" xmlns:xlink="http://www.w3.org/1999/xlink" width="576" height="384" viewBox="0 0 2304 1536">
<defs>
  <clipPath id="clip050">
    <rect x="0" y="0" width="2304" height="1536"/>
  </clipPath>
</defs>
<path clip-path="url(#clip050)" d="
M0 1536 L2304 1536 L2304 0 L0 0  Z
  " fill="#ffffff" fill-rule="evenodd" fill-opacity="1"/>
<defs>
  <clipPath id="clip051">
    <rect x="460" y="0" width="1614" height="1536"/>
  </clipPath>
</defs>
<path clip-path="url(#clip050)" d="
M146.888 1423.09 L2256.76 1423.09 L2256.76 47.2441 L146.888 47.2441  Z
  " fill="#ffffff" fill-rule="evenodd" fill-opacity="1"/>
<defs>
  <clipPath id="clip052">
    <rect x="146" y="47" width="2111" height="1377"/>
  </clipPath>
</defs>
<polyline clip-path="url(#clip052)" style="stroke:#000000; stroke-width:2; stroke-opacity:0.1; fill:none" points="
  348.776,1423.09 348.776,47.2441 
  "/>
<polyline clip-path="url(#clip052)" style="stroke:#000000; stroke-width:2; stroke-opacity:0.1; fill:none" points="
  917.473,1423.09 917.473,47.2441 
  "/>
<polyline clip-path="url(#clip052)" style="stroke:#000000; stroke-width:2; stroke-opacity:0.1; fill:none" points="
  1486.17,1423.09 1486.17,47.2441 
  "/>
<polyline clip-path="url(#clip052)" style="stroke:#000000; stroke-width:2; stroke-opacity:0.1; fill:none" points="
  2054.87,1423.09 2054.87,47.2441 
  "/>
<polyline clip-path="url(#clip052)" style="stroke:#000000; stroke-width:2; stroke-opacity:0.1; fill:none" points="
  146.888,1384.15 2256.76,1384.15 
  "/>
<polyline clip-path="url(#clip052)" style="stroke:#000000; stroke-width:2; stroke-opacity:0.1; fill:none" points="
  146.888,1059.66 2256.76,1059.66 
  "/>
<polyline clip-path="url(#clip052)" style="stroke:#000000; stroke-width:2; stroke-opacity:0.1; fill:none" points="
  146.888,735.166 2256.76,735.166 
  "/>
<polyline clip-path="url(#clip052)" style="stroke:#000000; stroke-width:2; stroke-opacity:0.1; fill:none" points="
  146.888,410.675 2256.76,410.675 
  "/>
<polyline clip-path="url(#clip052)" style="stroke:#000000; stroke-width:2; stroke-opacity:0.1; fill:none" points="
  146.888,86.1831 2256.76,86.1831 
  "/>
<polyline clip-path="url(#clip052)" style="stroke:#000000; stroke-width:8; stroke-opacity:1; fill:none" points="
  206.602,276.266 207.17,277.71 207.739,279.158 208.308,280.611 208.876,282.069 209.445,283.53 210.014,284.997 210.582,286.468 211.151,287.943 211.72,289.423 
  212.288,290.907 212.857,292.395 213.426,293.888 213.995,295.385 214.563,296.887 215.132,298.392 215.701,299.903 216.269,301.417 216.838,302.936 217.407,304.459 
  217.975,305.986 218.544,307.517 219.113,309.053 219.682,310.593 220.25,312.137 220.819,313.685 221.388,315.238 221.956,316.794 222.525,318.355 223.094,319.92 
  223.662,321.489 224.231,323.062 224.8,324.639 225.369,326.22 225.937,327.805 226.506,329.394 227.075,330.987 227.643,332.585 228.212,334.186 228.781,335.791 
  229.349,337.4 229.918,339.013 230.487,340.63 231.056,342.25 231.624,343.875 232.193,345.504 232.762,347.136 233.33,348.772 233.899,350.412 234.468,352.056 
  235.036,353.703 235.605,355.355 236.174,357.01 236.742,358.669 237.311,360.331 237.88,361.997 238.449,363.667 239.017,365.341 239.586,367.018 240.155,368.699 
  240.723,370.383 241.292,372.072 241.861,373.763 242.429,375.458 242.998,377.157 243.567,378.86 244.136,380.565 244.704,382.275 245.273,383.988 245.842,385.704 
  246.41,387.424 246.979,389.147 247.548,390.873 248.116,392.603 248.685,394.337 249.254,396.073 249.823,397.813 250.391,399.557 250.96,401.304 251.529,403.054 
  252.097,404.807 252.666,406.563 253.235,408.323 253.803,410.086 254.372,411.852 254.941,413.622 255.509,415.394 256.078,417.17 256.647,418.949 257.216,420.731 
  257.784,422.516 258.353,424.304 258.922,426.096 259.49,427.89 260.059,429.687 260.628,431.488 261.196,433.291 261.765,435.097 262.334,436.907 262.903,438.719 
  263.471,440.534 264.04,442.352 264.609,444.173 265.177,445.997 265.746,447.823 266.315,449.653 266.883,451.485 267.452,453.32 268.021,455.158 268.59,456.999 
  269.158,458.842 269.727,460.689 270.296,462.538 270.864,464.389 271.433,466.243 272.002,468.1 272.57,469.96 273.139,471.822 273.708,473.687 274.277,475.554 
  274.845,477.424 275.414,479.296 275.983,481.171 276.551,483.049 277.12,484.929 277.689,486.811 278.257,488.696 278.826,490.583 279.395,492.473 279.963,494.365 
  280.532,496.259 281.101,498.156 281.67,500.055 282.238,501.957 282.807,503.861 283.376,505.767 283.944,507.675 284.513,509.586 285.082,511.499 285.65,513.414 
  286.219,515.331 286.788,517.25 287.357,519.172 287.925,521.095 288.494,523.021 289.063,524.949 289.631,526.879 290.2,528.811 290.769,530.745 291.337,532.681 
  291.906,534.619 292.475,536.559 293.044,538.501 293.612,540.445 294.181,542.391 294.75,544.339 295.318,546.288 295.887,548.24 296.456,550.193 297.024,552.149 
  297.593,554.106 298.162,556.064 298.731,558.025 299.299,559.987 299.868,561.951 300.437,563.917 301.005,565.884 301.574,567.853 302.143,569.824 302.711,571.797 
  303.28,573.77 303.849,575.746 304.417,577.723 304.986,579.702 305.555,581.682 306.124,583.664 306.692,585.647 307.261,587.632 307.83,589.618 308.398,591.606 
  308.967,593.595 309.536,595.585 310.104,597.577 310.673,599.57 311.242,601.565 311.811,603.56 312.379,605.558 312.948,607.556 313.517,609.556 314.085,611.557 
  314.654,613.559 315.223,615.562 315.791,617.567 316.36,619.572 316.929,621.579 317.498,623.587 318.066,625.596 318.635,627.606 319.204,629.617 319.772,631.629 
  320.341,633.643 320.91,635.657 321.478,637.672 322.047,639.688 322.616,641.705 323.184,643.723 323.753,645.742 324.322,647.762 324.891,649.783 325.459,651.804 
  326.028,653.827 326.597,655.85 327.165,657.874 327.734,659.899 328.303,661.924 328.871,663.95 329.44,665.977 330.009,668.005 330.578,670.033 331.146,672.062 
  331.715,674.091 332.284,676.121 332.852,678.152 333.421,680.183 333.99,682.215 334.558,684.247 335.127,686.28 335.696,688.313 336.265,690.347 336.833,692.381 
  337.402,694.416 337.971,696.451 338.539,698.486 339.108,700.522 339.677,702.558 340.245,704.595 340.814,706.631 341.383,708.668 341.952,710.706 342.52,712.743 
  343.089,714.781 343.658,716.819 344.226,718.857 344.795,720.895 345.364,722.934 345.932,724.972 346.501,727.011 347.07,729.05 347.638,731.088 348.207,733.127 
  348.776,735.166 349.345,737.205 349.913,739.244 350.482,741.282 351.051,743.321 351.619,745.36 352.188,747.398 352.757,749.437 353.325,751.475 353.894,753.513 
  354.463,755.551 355.032,757.589 355.6,759.626 356.169,761.664 356.738,763.701 357.306,765.737 357.875,767.774 358.444,769.81 359.012,771.846 359.581,773.881 
  360.15,775.916 360.719,777.951 361.287,779.985 361.856,782.019 362.425,784.052 362.993,786.085 363.562,788.117 364.131,790.149 364.699,792.18 365.268,794.211 
  365.837,796.241 366.406,798.27 366.974,800.299 367.543,802.327 368.112,804.355 368.68,806.382 369.249,808.408 369.818,810.433 370.386,812.458 370.955,814.482 
  371.524,816.505 372.092,818.527 372.661,820.549 373.23,822.57 373.799,824.59 374.367,826.608 374.936,828.627 375.505,830.644 376.073,832.66 376.642,834.675 
  377.211,836.689 377.779,838.703 378.348,840.715 378.917,842.726 379.486,844.736 380.054,846.745 380.623,848.753 381.192,850.76 381.76,852.765 382.329,854.77 
  382.898,856.773 383.466,858.775 384.035,860.776 384.604,862.776 385.173,864.774 385.741,866.771 386.31,868.767 386.879,870.762 387.447,872.755 388.016,874.747 
  388.585,876.737 389.153,878.726 389.722,880.714 390.291,882.7 390.859,884.685 391.428,886.668 391.997,888.65 392.566,890.63 393.134,892.609 393.703,894.586 
  394.272,896.561 394.84,898.535 395.409,900.508 395.978,902.479 396.546,904.448 397.115,906.415 397.684,908.381 398.253,910.345 398.821,912.307 399.39,914.268 
  399.959,916.226 400.527,918.183 401.096,920.139 401.665,922.092 402.233,924.043 402.802,925.993 403.371,927.941 403.94,929.887 404.508,931.831 405.077,933.773 
  405.646,935.713 406.214,937.651 406.783,939.587 407.352,941.521 407.92,943.453 408.489,945.383 409.058,947.311 409.627,949.237 410.195,951.16 410.764,953.082 
  411.333,955.001 411.901,956.918 412.47,958.833 413.039,960.746 413.607,962.657 414.176,964.565 414.745,966.471 415.313,968.375 415.882,970.277 416.451,972.176 
  417.02,974.073 417.588,975.967 418.157,977.859 418.726,979.749 419.294,981.636 419.863,983.521 420.432,985.403 421,987.283 421.569,989.161 422.138,991.036 
  422.707,992.908 423.275,994.778 423.844,996.645 424.413,998.51 424.981,1000.37 425.55,1002.23 426.119,1004.09 426.687,1005.94 427.256,1007.79 427.825,1009.64 
  428.394,1011.49 428.962,1013.33 429.531,1015.17 430.1,1017.01 430.668,1018.85 431.237,1020.68 431.806,1022.51 432.374,1024.34 432.943,1026.16 433.512,1027.98 
  434.081,1029.8 434.649,1031.61 435.218,1033.43 435.787,1035.23 436.355,1037.04 436.924,1038.84 437.493,1040.64 438.061,1042.44 438.63,1044.24 439.199,1046.03 
  439.767,1047.82 440.336,1049.6 440.905,1051.38 441.474,1053.16 442.042,1054.94 442.611,1056.71 443.18,1058.48 443.748,1060.25 444.317,1062.01 444.886,1063.77 
  445.454,1065.53 446.023,1067.28 446.592,1069.03 447.161,1070.78 447.729,1072.52 448.298,1074.26 448.867,1076 449.435,1077.73 450.004,1079.46 450.573,1081.19 
  451.141,1082.91 451.71,1084.63 452.279,1086.34 452.848,1088.06 453.416,1089.77 453.985,1091.47 454.554,1093.17 455.122,1094.87 455.691,1096.57 456.26,1098.26 
  456.828,1099.95 457.397,1101.63 457.966,1103.31 458.534,1104.99 459.103,1106.66 459.672,1108.33 460.241,1110 460.809,1111.66 461.378,1113.32 461.947,1114.98 
  462.515,1116.63 463.084,1118.28 463.653,1119.92 464.221,1121.56 464.79,1123.2 465.359,1124.83 465.928,1126.46 466.496,1128.08 467.065,1129.7 467.634,1131.32 
  468.202,1132.93 468.771,1134.54 469.34,1136.15 469.908,1137.75 470.477,1139.34 471.046,1140.94 471.615,1142.53 472.183,1144.11 472.752,1145.69 473.321,1147.27 
  473.889,1148.84 474.458,1150.41 475.027,1151.98 475.595,1153.54 476.164,1155.09 476.733,1156.65 477.302,1158.19 477.87,1159.74 478.439,1161.28 479.008,1162.81 
  479.576,1164.35 480.145,1165.87 480.714,1167.4 481.282,1168.92 481.851,1170.43 482.42,1171.94 482.988,1173.45 483.557,1174.95 484.126,1176.44 484.695,1177.94 
  485.263,1179.43 485.832,1180.91 486.401,1182.39 486.969,1183.86 487.538,1185.34 488.107,1186.8 488.675,1188.26 489.244,1189.72 489.813,1191.17 490.382,1192.62 
  490.95,1194.07 491.519,1195.51 492.088,1196.94 492.656,1198.37 493.225,1199.8 493.794,1201.22 494.362,1202.63 494.931,1204.05 495.5,1205.45 496.069,1206.86 
  496.637,1208.25 497.206,1209.65 497.775,1211.04 498.343,1212.42 498.912,1213.8 499.481,1215.17 500.049,1216.54 500.618,1217.91 501.187,1219.27 501.756,1220.62 
  502.324,1221.98 502.893,1223.32 503.462,1224.66 504.03,1226 504.599,1227.33 505.168,1228.66 505.736,1229.98 506.305,1231.29 506.874,1232.61 507.442,1233.91 
  508.011,1235.22 508.58,1236.51 509.149,1237.81 509.717,1239.09 510.286,1240.37 510.855,1241.65 511.423,1242.92 511.992,1244.19 512.561,1245.45 513.129,1246.71 
  513.698,1247.96 514.267,1249.21 514.836,1250.45 515.404,1251.69 515.973,1252.92 516.542,1254.15 517.11,1255.37 517.679,1256.59 518.248,1257.8 518.816,1259 
  519.385,1260.2 519.954,1261.4 520.523,1262.59 521.091,1263.78 521.66,1264.96 522.229,1266.13 522.797,1267.3 523.366,1268.47 523.935,1269.62 524.503,1270.78 
  525.072,1271.93 525.641,1273.07 526.209,1274.21 526.778,1275.34 527.347,1276.47 527.916,1277.59 528.484,1278.71 529.053,1279.82 529.622,1280.92 530.19,1282.03 
  530.759,1283.12 531.328,1284.21 531.896,1285.29 532.465,1286.37 533.034,1287.45 533.603,1288.51 534.171,1289.58 534.74,1290.63 535.309,1291.69 535.877,1292.73 
  536.446,1293.77 537.015,1294.81 537.583,1295.84 538.152,1296.86 538.721,1297.88 539.29,1298.89 539.858,1299.9 540.427,1300.9 540.996,1301.9 541.564,1302.89 
  542.133,1303.87 542.702,1304.85 543.27,1305.83 543.839,1306.8 544.408,1307.76 544.977,1308.71 545.545,1309.67 546.114,1310.61 546.683,1311.55 547.251,1312.49 
  547.82,1313.41 548.389,1314.34 548.957,1315.25 549.526,1316.17 550.095,1317.07 550.663,1317.97 551.232,1318.86 551.801,1319.75 552.37,1320.64 552.938,1321.51 
  553.507,1322.38 554.076,1323.25 554.644,1324.11 555.213,1324.96 555.782,1325.81 556.35,1326.65 556.919,1327.49 557.488,1328.32 558.057,1329.14 558.625,1329.96 
  559.194,1330.77 559.763,1331.58 560.331,1332.38 560.9,1333.18 561.469,1333.96 562.037,1334.75 562.606,1335.53 563.175,1336.3 563.744,1337.06 564.312,1337.82 
  564.881,1338.58 565.45,1339.32 566.018,1340.06 566.587,1340.8 567.156,1341.53 567.724,1342.25 568.293,1342.97 568.862,1343.68 569.431,1344.39 569.999,1345.09 
  570.568,1345.78 571.137,1346.47 571.705,1347.15 572.274,1347.83 572.843,1348.5 573.411,1349.16 573.98,1349.82 574.549,1350.47 575.117,1351.11 575.686,1351.75 
  576.255,1352.39 576.824,1353.01 577.392,1353.63 577.961,1354.25 578.53,1354.86 579.098,1355.46 579.667,1356.06 580.236,1356.65 580.804,1357.23 581.373,1357.81 
  581.942,1358.38 582.511,1358.95 583.079,1359.51 583.648,1360.06 584.217,1360.61 584.785,1361.15 585.354,1361.68 585.923,1362.21 586.491,1362.73 587.06,1363.25 
  587.629,1363.76 588.198,1364.26 588.766,1364.76 589.335,1365.25 589.904,1365.74 590.472,1366.22 591.041,1366.69 591.61,1367.16 592.178,1367.62 592.747,1368.07 
  593.316,1368.52 593.884,1368.96 594.453,1369.4 595.022,1369.83 595.591,1370.25 596.159,1370.66 596.728,1371.08 597.297,1371.48 597.865,1371.88 598.434,1372.27 
  599.003,1372.65 599.571,1373.03 600.14,1373.41 600.709,1373.77 601.278,1374.13 601.846,1374.49 602.415,1374.83 602.984,1375.17 603.552,1375.51 604.121,1375.84 
  604.69,1376.16 605.258,1376.47 605.827,1376.78 606.396,1377.09 606.965,1377.38 607.533,1377.67 608.102,1377.96 608.671,1378.24 609.239,1378.51 609.808,1378.77 
  610.377,1379.03 610.945,1379.28 611.514,1379.53 612.083,1379.77 612.652,1380 613.22,1380.23 613.789,1380.45 614.358,1380.66 614.926,1380.87 615.495,1381.07 
  616.064,1381.27 616.632,1381.46 617.201,1381.64 617.77,1381.82 618.338,1381.99 618.907,1382.15 619.476,1382.31 620.045,1382.46 620.613,1382.6 621.182,1382.74 
  621.751,1382.87 622.319,1382.99 622.888,1383.11 623.457,1383.22 624.025,1383.33 624.594,1383.43 625.163,1383.52 625.732,1383.61 626.3,1383.69 626.869,1383.76 
  627.438,1383.83 628.006,1383.89 628.575,1383.94 629.144,1383.99 629.712,1384.03 630.281,1384.07 630.85,1384.1 631.419,1384.12 631.987,1384.14 632.556,1384.15 
  633.125,1384.15 633.693,1384.15 634.262,1384.14 634.831,1384.12 635.399,1384.1 635.968,1384.07 636.537,1384.03 637.106,1383.99 637.674,1383.94 638.243,1383.89 
  638.812,1383.83 639.38,1383.76 639.949,1383.69 640.518,1383.61 641.086,1383.52 641.655,1383.43 642.224,1383.33 642.792,1383.22 643.361,1383.11 643.93,1382.99 
  644.499,1382.87 645.067,1382.74 645.636,1382.6 646.205,1382.46 646.773,1382.31 647.342,1382.15 647.911,1381.99 648.479,1381.82 649.048,1381.64 649.617,1381.46 
  650.186,1381.27 650.754,1381.07 651.323,1380.87 651.892,1380.66 652.46,1380.45 653.029,1380.23 653.598,1380 654.166,1379.77 654.735,1379.53 655.304,1379.28 
  655.873,1379.03 656.441,1378.77 657.01,1378.51 657.579,1378.24 658.147,1377.96 658.716,1377.67 659.285,1377.38 659.853,1377.09 660.422,1376.78 660.991,1376.47 
  661.559,1376.16 662.128,1375.84 662.697,1375.51 663.266,1375.17 663.834,1374.83 664.403,1374.49 664.972,1374.13 665.54,1373.77 666.109,1373.41 666.678,1373.03 
  667.246,1372.65 667.815,1372.27 668.384,1371.88 668.953,1371.48 669.521,1371.08 670.09,1370.66 670.659,1370.25 671.227,1369.83 671.796,1369.4 672.365,1368.96 
  672.933,1368.52 673.502,1368.07 674.071,1367.62 674.64,1367.16 675.208,1366.69 675.777,1366.22 676.346,1365.74 676.914,1365.25 677.483,1364.76 678.052,1364.26 
  678.62,1363.76 679.189,1363.25 679.758,1362.73 680.327,1362.21 680.895,1361.68 681.464,1361.15 682.033,1360.61 682.601,1360.06 683.17,1359.51 683.739,1358.95 
  684.307,1358.38 684.876,1357.81 685.445,1357.23 686.013,1356.65 686.582,1356.06 687.151,1355.46 687.72,1354.86 688.288,1354.25 688.857,1353.63 689.426,1353.01 
  689.994,1352.39 690.563,1351.75 691.132,1351.11 691.7,1350.47 692.269,1349.82 692.838,1349.16 693.407,1348.5 693.975,1347.83 694.544,1347.15 695.113,1346.47 
  695.681,1345.78 696.25,1345.09 696.819,1344.39 697.387,1343.68 697.956,1342.97 698.525,1342.25 699.094,1341.53 699.662,1340.8 700.231,1340.06 700.8,1339.32 
  701.368,1338.58 701.937,1337.82 702.506,1337.06 703.074,1336.3 703.643,1335.53 704.212,1334.75 704.781,1333.96 705.349,1333.18 705.918,1332.38 706.487,1331.58 
  707.055,1330.77 707.624,1329.96 708.193,1329.14 708.761,1328.32 709.33,1327.49 709.899,1326.65 710.467,1325.81 711.036,1324.96 711.605,1324.11 712.174,1323.25 
  712.742,1322.38 713.311,1321.51 713.88,1320.64 714.448,1319.75 715.017,1318.86 715.586,1317.97 716.154,1317.07 716.723,1316.17 717.292,1315.25 717.861,1314.34 
  718.429,1313.41 718.998,1312.49 719.567,1311.55 720.135,1310.61 720.704,1309.67 721.273,1308.71 721.841,1307.76 722.41,1306.8 722.979,1305.83 723.548,1304.85 
  724.116,1303.87 724.685,1302.89 725.254,1301.9 725.822,1300.9 726.391,1299.9 726.96,1298.89 727.528,1297.88 728.097,1296.86 728.666,1295.84 729.234,1294.81 
  729.803,1293.77 730.372,1292.73 730.941,1291.69 731.509,1290.63 732.078,1289.58 732.647,1288.51 733.215,1287.45 733.784,1286.37 734.353,1285.29 734.921,1284.21 
  735.49,1283.12 736.059,1282.03 736.628,1280.92 737.196,1279.82 737.765,1278.71 738.334,1277.59 738.902,1276.47 739.471,1275.34 740.04,1274.21 740.608,1273.07 
  741.177,1271.93 741.746,1270.78 742.315,1269.62 742.883,1268.47 743.452,1267.3 744.021,1266.13 744.589,1264.96 745.158,1263.78 745.727,1262.59 746.295,1261.4 
  746.864,1260.2 747.433,1259 748.002,1257.8 748.57,1256.59 749.139,1255.37 749.708,1254.15 750.276,1252.92 750.845,1251.69 751.414,1250.45 751.982,1249.21 
  752.551,1247.96 753.12,1246.71 753.688,1245.45 754.257,1244.19 754.826,1242.92 755.395,1241.65 755.963,1240.37 756.532,1239.09 757.101,1237.81 757.669,1236.51 
  758.238,1235.22 758.807,1233.91 759.375,1232.61 759.944,1231.29 760.513,1229.98 761.082,1228.66 761.65,1227.33 762.219,1226 762.788,1224.66 763.356,1223.32 
  763.925,1221.98 764.494,1220.62 765.062,1219.27 765.631,1217.91 766.2,1216.54 766.769,1215.17 767.337,1213.8 767.906,1212.42 768.475,1211.04 769.043,1209.65 
  769.612,1208.25 770.181,1206.86 770.749,1205.45 771.318,1204.05 771.887,1202.63 772.456,1201.22 773.024,1199.8 773.593,1198.37 774.162,1196.94 774.73,1195.51 
  775.299,1194.07 775.868,1192.62 776.436,1191.17 777.005,1189.72 777.574,1188.26 778.142,1186.8 778.711,1185.34 779.28,1183.86 779.849,1182.39 780.417,1180.91 
  780.986,1179.43 781.555,1177.94 782.123,1176.44 782.692,1174.95 783.261,1173.45 783.829,1171.94 784.398,1170.43 784.967,1168.92 785.536,1167.4 786.104,1165.87 
  786.673,1164.35 787.242,1162.81 787.81,1161.28 788.379,1159.74 788.948,1158.19 789.516,1156.65 790.085,1155.09 790.654,1153.54 791.223,1151.98 791.791,1150.41 
  792.36,1148.84 792.929,1147.27 793.497,1145.69 794.066,1144.11 794.635,1142.53 795.203,1140.94 795.772,1139.34 796.341,1137.75 796.909,1136.15 797.478,1134.54 
  798.047,1132.93 798.616,1131.32 799.184,1129.7 799.753,1128.08 800.322,1126.46 800.89,1124.83 801.459,1123.2 802.028,1121.56 802.596,1119.92 803.165,1118.28 
  803.734,1116.63 804.303,1114.98 804.871,1113.32 805.44,1111.66 806.009,1110 806.577,1108.33 807.146,1106.66 807.715,1104.99 808.283,1103.31 808.852,1101.63 
  809.421,1099.95 809.99,1098.26 810.558,1096.57 811.127,1094.87 811.696,1093.17 812.264,1091.47 812.833,1089.77 813.402,1088.06 813.97,1086.34 814.539,1084.63 
  815.108,1082.91 815.677,1081.19 816.245,1079.46 816.814,1077.73 817.383,1076 817.951,1074.26 818.52,1072.52 819.089,1070.78 819.657,1069.03 820.226,1067.28 
  820.795,1065.53 821.363,1063.77 821.932,1062.01 822.501,1060.25 823.07,1058.48 823.638,1056.71 824.207,1054.94 824.776,1053.16 825.344,1051.38 825.913,1049.6 
  826.482,1047.82 827.05,1046.03 827.619,1044.24 828.188,1042.44 828.757,1040.64 829.325,1038.84 829.894,1037.04 830.463,1035.23 831.031,1033.43 831.6,1031.61 
  832.169,1029.8 832.737,1027.98 833.306,1026.16 833.875,1024.34 834.444,1022.51 835.012,1020.68 835.581,1018.85 836.15,1017.01 836.718,1015.17 837.287,1013.33 
  837.856,1011.49 838.424,1009.64 838.993,1007.79 839.562,1005.94 840.131,1004.09 840.699,1002.23 841.268,1000.37 841.837,998.51 842.405,996.645 842.974,994.778 
  843.543,992.908 844.111,991.036 844.68,989.161 845.249,987.283 845.817,985.403 846.386,983.521 846.955,981.636 847.524,979.749 848.092,977.859 848.661,975.967 
  849.23,974.073 849.798,972.176 850.367,970.277 850.936,968.375 851.504,966.471 852.073,964.565 852.642,962.657 853.211,960.746 853.779,958.833 854.348,956.918 
  854.917,955.001 855.485,953.082 856.054,951.16 856.623,949.237 857.191,947.311 857.76,945.383 858.329,943.453 858.898,941.521 859.466,939.587 860.035,937.651 
  860.604,935.713 861.172,933.773 861.741,931.831 862.31,929.887 862.878,927.941 863.447,925.993 864.016,924.043 864.584,922.092 865.153,920.139 865.722,918.183 
  866.291,916.226 866.859,914.268 867.428,912.307 867.997,910.345 868.565,908.381 869.134,906.415 869.703,904.448 870.271,902.479 870.84,900.508 871.409,898.535 
  871.978,896.561 872.546,894.586 873.115,892.609 873.684,890.63 874.252,888.65 874.821,886.668 875.39,884.685 875.958,882.7 876.527,880.714 877.096,878.726 
  877.665,876.737 878.233,874.747 878.802,872.755 879.371,870.762 879.939,868.767 880.508,866.771 881.077,864.774 881.645,862.776 882.214,860.776 882.783,858.775 
  883.352,856.773 883.92,854.77 884.489,852.765 885.058,850.76 885.626,848.753 886.195,846.745 886.764,844.736 887.332,842.726 887.901,840.715 888.47,838.703 
  889.038,836.689 889.607,834.675 890.176,832.66 890.745,830.644 891.313,828.627 891.882,826.608 892.451,824.59 893.019,822.57 893.588,820.549 894.157,818.527 
  894.725,816.505 895.294,814.482 895.863,812.458 896.432,810.433 897,808.408 897.569,806.382 898.138,804.355 898.706,802.327 899.275,800.299 899.844,798.27 
  900.412,796.241 900.981,794.211 901.55,792.18 902.119,790.149 902.687,788.117 903.256,786.085 903.825,784.052 904.393,782.019 904.962,779.985 905.531,777.951 
  906.099,775.916 906.668,773.881 907.237,771.846 907.805,769.81 908.374,767.774 908.943,765.737 909.512,763.701 910.08,761.664 910.649,759.626 911.218,757.589 
  911.786,755.551 912.355,753.513 912.924,751.475 913.492,749.437 914.061,747.398 914.63,745.36 915.199,743.321 915.767,741.282 916.336,739.244 916.905,737.205 
  917.473,735.166 918.042,733.127 918.611,731.088 919.179,729.05 919.748,727.011 920.317,724.972 920.886,722.934 921.454,720.895 922.023,718.857 922.592,716.819 
  923.16,714.781 923.729,712.743 924.298,710.706 924.866,708.668 925.435,706.631 926.004,704.595 926.573,702.558 927.141,700.522 927.71,698.486 928.279,696.451 
  928.847,694.416 929.416,692.381 929.985,690.347 930.553,688.313 931.122,686.28 931.691,684.247 932.259,682.215 932.828,680.183 933.397,678.152 933.966,676.121 
  934.534,674.091 935.103,672.062 935.672,670.033 936.24,668.005 936.809,665.977 937.378,663.95 937.946,661.924 938.515,659.899 939.084,657.874 939.653,655.85 
  940.221,653.827 940.79,651.804 941.359,649.783 941.927,647.762 942.496,645.742 943.065,643.723 943.633,641.705 944.202,639.688 944.771,637.672 945.34,635.657 
  945.908,633.643 946.477,631.629 947.046,629.617 947.614,627.606 948.183,625.596 948.752,623.587 949.32,621.579 949.889,619.572 950.458,617.567 951.027,615.562 
  951.595,613.559 952.164,611.557 952.733,609.556 953.301,607.556 953.87,605.558 954.439,603.56 955.007,601.565 955.576,599.57 956.145,597.577 956.713,595.585 
  957.282,593.595 957.851,591.606 958.42,589.618 958.988,587.632 959.557,585.647 960.126,583.664 960.694,581.682 961.263,579.702 961.832,577.723 962.4,575.746 
  962.969,573.77 963.538,571.797 964.107,569.824 964.675,567.853 965.244,565.884 965.813,563.917 966.381,561.951 966.95,559.987 967.519,558.025 968.087,556.064 
  968.656,554.106 969.225,552.149 969.794,550.193 970.362,548.24 970.931,546.288 971.5,544.339 972.068,542.391 972.637,540.445 973.206,538.501 973.774,536.559 
  974.343,534.619 974.912,532.681 975.48,530.745 976.049,528.811 976.618,526.879 977.187,524.949 977.755,523.021 978.324,521.095 978.893,519.172 979.461,517.25 
  980.03,515.331 980.599,513.414 981.167,511.499 981.736,509.586 982.305,507.675 982.874,505.767 983.442,503.861 984.011,501.957 984.58,500.055 985.148,498.156 
  985.717,496.259 986.286,494.365 986.854,492.473 987.423,490.583 987.992,488.696 988.561,486.811 989.129,484.929 989.698,483.049 990.267,481.171 990.835,479.296 
  991.404,477.424 991.973,475.554 992.541,473.687 993.11,471.822 993.679,469.96 994.248,468.1 994.816,466.243 995.385,464.389 995.954,462.538 996.522,460.689 
  997.091,458.842 997.66,456.999 998.228,455.158 998.797,453.32 999.366,451.485 999.934,449.653 1000.5,447.823 1001.07,445.997 1001.64,444.173 1002.21,442.352 
  1002.78,440.534 1003.35,438.719 1003.92,436.907 1004.48,435.097 1005.05,433.291 1005.62,431.488 1006.19,429.687 1006.76,427.89 1007.33,426.096 1007.9,424.304 
  1008.46,422.516 1009.03,420.731 1009.6,418.949 1010.17,417.17 1010.74,415.394 1011.31,413.622 1011.88,411.852 1012.45,410.086 1013.01,408.323 1013.58,406.563 
  1014.15,404.807 1014.72,403.054 1015.29,401.304 1015.86,399.557 1016.43,397.813 1017,396.073 1017.56,394.337 1018.13,392.603 1018.7,390.873 1019.27,389.147 
  1019.84,387.424 1020.41,385.704 1020.98,383.988 1021.54,382.275 1022.11,380.565 1022.68,378.86 1023.25,377.157 1023.82,375.458 1024.39,373.763 1024.96,372.072 
  1025.53,370.383 1026.09,368.699 1026.66,367.018 1027.23,365.341 1027.8,363.667 1028.37,361.997 1028.94,360.331 1029.51,358.669 1030.08,357.01 1030.64,355.355 
  1031.21,353.703 1031.78,352.056 1032.35,350.412 1032.92,348.772 1033.49,347.136 1034.06,345.504 1034.63,343.875 1035.19,342.25 1035.76,340.63 1036.33,339.013 
  1036.9,337.4 1037.47,335.791 1038.04,334.186 1038.61,332.585 1039.17,330.987 1039.74,329.394 1040.31,327.805 1040.88,326.22 1041.45,324.639 1042.02,323.062 
  1042.59,321.489 1043.16,319.92 1043.72,318.355 1044.29,316.794 1044.86,315.238 1045.43,313.685 1046,312.137 1046.57,310.593 1047.14,309.053 1047.71,307.517 
  1048.27,305.986 1048.84,304.459 1049.41,302.936 1049.98,301.417 1050.55,299.903 1051.12,298.392 1051.69,296.887 1052.25,295.385 1052.82,293.888 1053.39,292.395 
  1053.96,290.907 1054.53,289.423 1055.1,287.943 1055.67,286.468 1056.24,284.997 1056.8,283.53 1057.37,282.069 1057.94,280.611 1058.51,279.158 1059.08,277.71 
  1059.65,276.266 1060.22,274.826 1060.79,273.391 1061.35,271.961 1061.92,270.535 1062.49,269.114 1063.06,267.698 1063.63,266.286 1064.2,264.878 1064.77,263.476 
  1065.33,262.078 1065.9,260.684 1066.47,259.296 1067.04,257.912 1067.61,256.533 1068.18,255.158 1068.75,253.788 1069.32,252.423 1069.88,251.063 1070.45,249.707 
  1071.02,248.357 1071.59,247.011 1072.16,245.67 1072.73,244.333 1073.3,243.002 1073.87,241.676 1074.43,240.354 1075,239.037 1075.57,237.725 1076.14,236.418 
  1076.71,235.116 1077.28,233.819 1077.85,232.527 1078.41,231.24 1078.98,229.957 1079.55,228.68 1080.12,227.408 1080.69,226.14 1081.26,224.878 1081.83,223.621 
  1082.4,222.369 1082.96,221.122 1083.53,219.88 1084.1,218.643 1084.67,217.411 1085.24,216.184 1085.81,214.963 1086.38,213.746 1086.95,212.535 1087.51,211.329 
  1088.08,210.128 1088.65,208.932 1089.22,207.741 1089.79,206.556 1090.36,205.376 1090.93,204.201 1091.49,203.031 1092.06,201.867 1092.63,200.707 1093.2,199.553 
  1093.77,198.405 1094.34,197.261 1094.91,196.123 1095.48,194.991 1096.04,193.863 1096.61,192.741 1097.18,191.625 1097.75,190.513 1098.32,189.407 1098.89,188.307 
  1099.46,187.212 1100.03,186.122 1100.59,185.037 1101.16,183.959 1101.73,182.885 1102.3,181.817 1102.87,180.755 1103.44,179.697 1104.01,178.646 1104.57,177.6 
  1105.14,176.559 1105.71,175.524 1106.28,174.494 1106.85,173.47 1107.42,172.452 1107.99,171.439 1108.56,170.432 1109.12,169.43 1109.69,168.434 1110.26,167.443 
  1110.83,166.458 1111.4,165.479 1111.97,164.505 1112.54,163.537 1113.11,162.574 1113.67,161.617 1114.24,160.666 1114.81,159.72 1115.38,158.781 1115.95,157.846 
  1116.52,156.918 1117.09,155.995 1117.65,155.078 1118.22,154.167 1118.79,153.261 1119.36,152.361 1119.93,151.467 1120.5,150.579 1121.07,149.696 1121.64,148.82 
  1122.2,147.949 1122.77,147.083 1123.34,146.224 1123.91,145.371 1124.48,144.523 1125.05,143.681 1125.62,142.845 1126.19,142.014 1126.75,141.19 1127.32,140.372 
  1127.89,139.559 1128.46,138.752 1129.03,137.951 1129.6,137.156 1130.17,136.367 1130.73,135.584 1131.3,134.807 1131.87,134.035 1132.44,133.27 1133.01,132.51 
  1133.58,131.757 1134.15,131.009 1134.72,130.268 1135.28,129.532 1135.85,128.802 1136.42,128.079 1136.99,127.361 1137.56,126.649 1138.13,125.944 1138.7,125.244 
  1139.27,124.55 1139.83,123.863 1140.4,123.181 1140.97,122.506 1141.54,121.836 1142.11,121.173 1142.68,120.515 1143.25,119.864 1143.81,119.219 1144.38,118.58 
  1144.95,117.947 1145.52,117.32 1146.09,116.699 1146.66,116.084 1147.23,115.475 1147.8,114.873 1148.36,114.276 1148.93,113.686 1149.5,113.102 1150.07,112.524 
  1150.64,111.952 1151.21,111.386 1151.78,110.826 1152.35,110.273 1152.91,109.726 1153.48,109.185 1154.05,108.65 1154.62,108.121 1155.19,107.599 1155.76,107.082 
  1156.33,106.572 1156.89,106.068 1157.46,105.57 1158.03,105.079 1158.6,104.594 1159.17,104.115 1159.74,103.642 1160.31,103.175 1160.88,102.715 1161.44,102.261 
  1162.01,101.813 1162.58,101.371 1163.15,100.936 1163.72,100.507 1164.29,100.084 1164.86,99.6671 1165.43,99.2568 1165.99,98.8528 1166.56,98.455 1167.13,98.0635 
  1167.7,97.6783 1168.27,97.2994 1168.84,96.9268 1169.41,96.5605 1169.98,96.2006 1170.54,95.8469 1171.11,95.4995 1171.68,95.1584 1172.25,94.8237 1172.82,94.4952 
  1173.39,94.1731 1173.96,93.8573 1174.52,93.5479 1175.09,93.2448 1175.66,92.948 1176.23,92.6575 1176.8,92.3734 1177.37,92.0957 1177.94,91.8243 1178.51,91.5592 
  1179.07,91.3005 1179.64,91.0481 1180.21,90.8021 1180.78,90.5625 1181.35,90.3292 1181.92,90.1023 1182.49,89.8818 1183.06,89.6676 1183.62,89.4598 1184.19,89.2583 
  1184.76,89.0633 1185.33,88.8746 1185.9,88.6923 1186.47,88.5164 1187.04,88.3468 1187.6,88.1837 1188.17,88.0269 1188.74,87.8765 1189.31,87.7325 1189.88,87.5949 
  1190.45,87.4637 1191.02,87.3389 1191.59,87.2204 1192.15,87.1084 1192.72,87.0028 1193.29,86.9035 1193.86,86.8107 1194.43,86.7242 1195,86.6442 1195.57,86.5705 
  1196.14,86.5033 1196.7,86.4425 1197.27,86.388 1197.84,86.34 1198.41,86.2984 1198.98,86.2631 1199.55,86.2343 1200.12,86.2119 1200.68,86.1959 1201.25,86.1863 
  1201.82,86.1831 1202.39,86.1863 1202.96,86.1959 1203.53,86.2119 1204.1,86.2343 1204.67,86.2631 1205.23,86.2984 1205.8,86.34 1206.37,86.388 1206.94,86.4425 
  1207.51,86.5033 1208.08,86.5705 1208.65,86.6442 1209.22,86.7242 1209.78,86.8107 1210.35,86.9035 1210.92,87.0028 1211.49,87.1084 1212.06,87.2204 1212.63,87.3389 
  1213.2,87.4637 1213.76,87.5949 1214.33,87.7325 1214.9,87.8765 1215.47,88.0269 1216.04,88.1837 1216.61,88.3468 1217.18,88.5164 1217.75,88.6923 1218.31,88.8746 
  1218.88,89.0633 1219.45,89.2583 1220.02,89.4598 1220.59,89.6676 1221.16,89.8818 1221.73,90.1023 1222.3,90.3292 1222.86,90.5625 1223.43,90.8021 1224,91.0481 
  1224.57,91.3005 1225.14,91.5592 1225.71,91.8243 1226.28,92.0957 1226.84,92.3734 1227.41,92.6575 1227.98,92.948 1228.55,93.2448 1229.12,93.5479 1229.69,93.8573 
  1230.26,94.1731 1230.83,94.4952 1231.39,94.8237 1231.96,95.1584 1232.53,95.4995 1233.1,95.8469 1233.67,96.2006 1234.24,96.5605 1234.81,96.9268 1235.38,97.2994 
  1235.94,97.6783 1236.51,98.0635 1237.08,98.455 1237.65,98.8528 1238.22,99.2568 1238.79,99.6671 1239.36,100.084 1239.92,100.507 1240.49,100.936 1241.06,101.371 
  1241.63,101.813 1242.2,102.261 1242.77,102.715 1243.34,103.175 1243.91,103.642 1244.47,104.115 1245.04,104.594 1245.61,105.079 1246.18,105.57 1246.75,106.068 
  1247.32,106.572 1247.89,107.082 1248.46,107.599 1249.02,108.121 1249.59,108.65 1250.16,109.185 1250.73,109.726 1251.3,110.273 1251.87,110.826 1252.44,111.386 
  1253,111.952 1253.57,112.524 1254.14,113.102 1254.71,113.686 1255.28,114.276 1255.85,114.873 1256.42,115.475 1256.99,116.084 1257.55,116.699 1258.12,117.32 
  1258.69,117.947 1259.26,118.58 1259.83,119.219 1260.4,119.864 1260.97,120.515 1261.54,121.173 1262.1,121.836 1262.67,122.506 1263.24,123.181 1263.81,123.863 
  1264.38,124.55 1264.95,125.244 1265.52,125.944 1266.08,126.649 1266.65,127.361 1267.22,128.079 1267.79,128.802 1268.36,129.532 1268.93,130.268 1269.5,131.009 
  1270.07,131.757 1270.63,132.51 1271.2,133.27 1271.77,134.035 1272.34,134.807 1272.91,135.584 1273.48,136.367 1274.05,137.156 1274.62,137.951 1275.18,138.752 
  1275.75,139.559 1276.32,140.372 1276.89,141.19 1277.46,142.014 1278.03,142.845 1278.6,143.681 1279.16,144.523 1279.73,145.371 1280.3,146.224 1280.87,147.083 
  1281.44,147.949 1282.01,148.82 1282.58,149.696 1283.15,150.579 1283.71,151.467 1284.28,152.361 1284.85,153.261 1285.42,154.167 1285.99,155.078 1286.56,155.995 
  1287.13,156.918 1287.7,157.846 1288.26,158.781 1288.83,159.72 1289.4,160.666 1289.97,161.617 1290.54,162.574 1291.11,163.537 1291.68,164.505 1292.24,165.479 
  1292.81,166.458 1293.38,167.443 1293.95,168.434 1294.52,169.43 1295.09,170.432 1295.66,171.439 1296.23,172.452 1296.79,173.47 1297.36,174.494 1297.93,175.524 
  1298.5,176.559 1299.07,177.6 1299.64,178.646 1300.21,179.697 1300.78,180.755 1301.34,181.817 1301.91,182.885 1302.48,183.959 1303.05,185.037 1303.62,186.122 
  1304.19,187.212 1304.76,188.307 1305.33,189.407 1305.89,190.513 1306.46,191.625 1307.03,192.741 1307.6,193.863 1308.17,194.991 1308.74,196.123 1309.31,197.261 
  1309.87,198.405 1310.44,199.553 1311.01,200.707 1311.58,201.867 1312.15,203.031 1312.72,204.201 1313.29,205.376 1313.86,206.556 1314.42,207.741 1314.99,208.932 
  1315.56,210.128 1316.13,211.329 1316.7,212.535 1317.27,213.746 1317.84,214.963 1318.41,216.184 1318.97,217.411 1319.54,218.643 1320.11,219.88 1320.68,221.122 
  1321.25,222.369 1321.82,223.621 1322.39,224.878 1322.95,226.14 1323.52,227.408 1324.09,228.68 1324.66,229.957 1325.23,231.24 1325.8,232.527 1326.37,233.819 
  1326.94,235.116 1327.5,236.418 1328.07,237.725 1328.64,239.037 1329.21,240.354 1329.78,241.676 1330.35,243.002 1330.92,244.333 1331.49,245.67 1332.05,247.011 
  1332.62,248.357 1333.19,249.707 1333.76,251.063 1334.33,252.423 1334.9,253.788 1335.47,255.158 1336.03,256.533 1336.6,257.912 1337.17,259.296 1337.74,260.684 
  1338.31,262.078 1338.88,263.476 1339.45,264.878 1340.02,266.286 1340.58,267.698 1341.15,269.114 1341.72,270.535 1342.29,271.961 1342.86,273.391 1343.43,274.826 
  1344,276.266 1344.57,277.71 1345.13,279.158 1345.7,280.611 1346.27,282.069 1346.84,283.53 1347.41,284.997 1347.98,286.468 1348.55,287.943 1349.11,289.423 
  1349.68,290.907 1350.25,292.395 1350.82,293.888 1351.39,295.385 1351.96,296.887 1352.53,298.392 1353.1,299.903 1353.66,301.417 1354.23,302.936 1354.8,304.459 
  1355.37,305.986 1355.94,307.517 1356.51,309.053 1357.08,310.593 1357.65,312.137 1358.21,313.685 1358.78,315.238 1359.35,316.794 1359.92,318.355 1360.49,319.92 
  1361.06,321.489 1361.63,323.062 1362.19,324.639 1362.76,326.22 1363.33,327.805 1363.9,329.394 1364.47,330.987 1365.04,332.585 1365.61,334.186 1366.18,335.791 
  1366.74,337.4 1367.31,339.013 1367.88,340.63 1368.45,342.25 1369.02,343.875 1369.59,345.504 1370.16,347.136 1370.73,348.772 1371.29,350.412 1371.86,352.056 
  1372.43,353.703 1373,355.355 1373.57,357.01 1374.14,358.669 1374.71,360.331 1375.27,361.997 1375.84,363.667 1376.41,365.341 1376.98,367.018 1377.55,368.699 
  1378.12,370.383 1378.69,372.072 1379.26,373.763 1379.82,375.458 1380.39,377.157 1380.96,378.86 1381.53,380.565 1382.1,382.275 1382.67,383.988 1383.24,385.704 
  1383.81,387.424 1384.37,389.147 1384.94,390.873 1385.51,392.603 1386.08,394.337 1386.65,396.073 1387.22,397.813 1387.79,399.557 1388.35,401.304 1388.92,403.054 
  1389.49,404.807 1390.06,406.563 1390.63,408.323 1391.2,410.086 1391.77,411.852 1392.34,413.622 1392.9,415.394 1393.47,417.17 1394.04,418.949 1394.61,420.731 
  1395.18,422.516 1395.75,424.304 1396.32,426.096 1396.89,427.89 1397.45,429.687 1398.02,431.488 1398.59,433.291 1399.16,435.097 1399.73,436.907 1400.3,438.719 
  1400.87,440.534 1401.43,442.352 1402,444.173 1402.57,445.997 1403.14,447.823 1403.71,449.653 1404.28,451.485 1404.85,453.32 1405.42,455.158 1405.98,456.999 
  1406.55,458.842 1407.12,460.689 1407.69,462.538 1408.26,464.389 1408.83,466.243 1409.4,468.1 1409.97,469.96 1410.53,471.822 1411.1,473.687 1411.67,475.554 
  1412.24,477.424 1412.81,479.296 1413.38,481.171 1413.95,483.049 1414.51,484.929 1415.08,486.811 1415.65,488.696 1416.22,490.583 1416.79,492.473 1417.36,494.365 
  1417.93,496.259 1418.5,498.156 1419.06,500.055 1419.63,501.957 1420.2,503.861 1420.77,505.767 1421.34,507.675 1421.91,509.586 1422.48,511.499 1423.05,513.414 
  1423.61,515.331 1424.18,517.25 1424.75,519.172 1425.32,521.095 1425.89,523.021 1426.46,524.949 1427.03,526.879 1427.59,528.811 1428.16,530.745 1428.73,532.681 
  1429.3,534.619 1429.87,536.559 1430.44,538.501 1431.01,540.445 1431.58,542.391 1432.14,544.339 1432.71,546.288 1433.28,548.24 1433.85,550.193 1434.42,552.149 
  1434.99,554.106 1435.56,556.064 1436.13,558.025 1436.69,559.987 1437.26,561.951 1437.83,563.917 1438.4,565.884 1438.97,567.853 1439.54,569.824 1440.11,571.797 
  1440.68,573.77 1441.24,575.746 1441.81,577.723 1442.38,579.702 1442.95,581.682 1443.52,583.664 1444.09,585.647 1444.66,587.632 1445.22,589.618 1445.79,591.606 
  1446.36,593.595 1446.93,595.585 1447.5,597.577 1448.07,599.57 1448.64,601.565 1449.21,603.56 1449.77,605.558 1450.34,607.556 1450.91,609.556 1451.48,611.557 
  1452.05,613.559 1452.62,615.562 1453.19,617.567 1453.76,619.572 1454.32,621.579 1454.89,623.587 1455.46,625.596 1456.03,627.606 1456.6,629.617 1457.17,631.629 
  1457.74,633.643 1458.3,635.657 1458.87,637.672 1459.44,639.688 1460.01,641.705 1460.58,643.723 1461.15,645.742 1461.72,647.762 1462.29,649.783 1462.85,651.804 
  1463.42,653.827 1463.99,655.85 1464.56,657.874 1465.13,659.899 1465.7,661.924 1466.27,663.95 1466.84,665.977 1467.4,668.005 1467.97,670.033 1468.54,672.062 
  1469.11,674.091 1469.68,676.121 1470.25,678.152 1470.82,680.183 1471.38,682.215 1471.95,684.247 1472.52,686.28 1473.09,688.313 1473.66,690.347 1474.23,692.381 
  1474.8,694.416 1475.37,696.451 1475.93,698.486 1476.5,700.522 1477.07,702.558 1477.64,704.595 1478.21,706.631 1478.78,708.668 1479.35,710.706 1479.92,712.743 
  1480.48,714.781 1481.05,716.819 1481.62,718.857 1482.19,720.895 1482.76,722.934 1483.33,724.972 1483.9,727.011 1484.46,729.05 1485.03,731.088 1485.6,733.127 
  1486.17,735.166 1486.74,737.205 1487.31,739.244 1487.88,741.282 1488.45,743.321 1489.01,745.36 1489.58,747.398 1490.15,749.437 1490.72,751.475 1491.29,753.513 
  1491.86,755.551 1492.43,757.589 1493,759.626 1493.56,761.664 1494.13,763.701 1494.7,765.737 1495.27,767.774 1495.84,769.81 1496.41,771.846 1496.98,773.881 
  1497.54,775.916 1498.11,777.951 1498.68,779.985 1499.25,782.019 1499.82,784.052 1500.39,786.085 1500.96,788.117 1501.53,790.149 1502.09,792.18 1502.66,794.211 
  1503.23,796.241 1503.8,798.27 1504.37,800.299 1504.94,802.327 1505.51,804.355 1506.08,806.382 1506.64,808.408 1507.21,810.433 1507.78,812.458 1508.35,814.482 
  1508.92,816.505 1509.49,818.527 1510.06,820.549 1510.62,822.57 1511.19,824.59 1511.76,826.608 1512.33,828.627 1512.9,830.644 1513.47,832.66 1514.04,834.675 
  1514.61,836.689 1515.17,838.703 1515.74,840.715 1516.31,842.726 1516.88,844.736 1517.45,846.745 1518.02,848.753 1518.59,850.76 1519.16,852.765 1519.72,854.77 
  1520.29,856.773 1520.86,858.775 1521.43,860.776 1522,862.776 1522.57,864.774 1523.14,866.771 1523.7,868.767 1524.27,870.762 1524.84,872.755 1525.41,874.747 
  1525.98,876.737 1526.55,878.726 1527.12,880.714 1527.69,882.7 1528.25,884.685 1528.82,886.668 1529.39,888.65 1529.96,890.63 1530.53,892.609 1531.1,894.586 
  1531.67,896.561 1532.24,898.535 1532.8,900.508 1533.37,902.479 1533.94,904.448 1534.51,906.415 1535.08,908.381 1535.65,910.345 1536.22,912.307 1536.78,914.268 
  1537.35,916.226 1537.92,918.183 1538.49,920.139 1539.06,922.092 1539.63,924.043 1540.2,925.993 1540.77,927.941 1541.33,929.887 1541.9,931.831 1542.47,933.773 
  1543.04,935.713 1543.61,937.651 1544.18,939.587 1544.75,941.521 1545.32,943.453 1545.88,945.383 1546.45,947.311 1547.02,949.237 1547.59,951.16 1548.16,953.082 
  1548.73,955.001 1549.3,956.918 1549.86,958.833 1550.43,960.746 1551,962.657 1551.57,964.565 1552.14,966.471 1552.71,968.375 1553.28,970.277 1553.85,972.176 
  1554.41,974.073 1554.98,975.967 1555.55,977.859 1556.12,979.749 1556.69,981.636 1557.26,983.521 1557.83,985.403 1558.4,987.283 1558.96,989.161 1559.53,991.036 
  1560.1,992.908 1560.67,994.778 1561.24,996.645 1561.81,998.51 1562.38,1000.37 1562.94,1002.23 1563.51,1004.09 1564.08,1005.94 1564.65,1007.79 1565.22,1009.64 
  1565.79,1011.49 1566.36,1013.33 1566.93,1015.17 1567.49,1017.01 1568.06,1018.85 1568.63,1020.68 1569.2,1022.51 1569.77,1024.34 1570.34,1026.16 1570.91,1027.98 
  1571.48,1029.8 1572.04,1031.61 1572.61,1033.43 1573.18,1035.23 1573.75,1037.04 1574.32,1038.84 1574.89,1040.64 1575.46,1042.44 1576.03,1044.24 1576.59,1046.03 
  1577.16,1047.82 1577.73,1049.6 1578.3,1051.38 1578.87,1053.16 1579.44,1054.94 1580.01,1056.71 1580.57,1058.48 1581.14,1060.25 1581.71,1062.01 1582.28,1063.77 
  1582.85,1065.53 1583.42,1067.28 1583.99,1069.03 1584.56,1070.78 1585.12,1072.52 1585.69,1074.26 1586.26,1076 1586.83,1077.73 1587.4,1079.46 1587.97,1081.19 
  1588.54,1082.91 1589.11,1084.63 1589.67,1086.34 1590.24,1088.06 1590.81,1089.77 1591.38,1091.47 1591.95,1093.17 1592.52,1094.87 1593.09,1096.57 1593.65,1098.26 
  1594.22,1099.95 1594.79,1101.63 1595.36,1103.31 1595.93,1104.99 1596.5,1106.66 1597.07,1108.33 1597.64,1110 1598.2,1111.66 1598.77,1113.32 1599.34,1114.98 
  1599.91,1116.63 1600.48,1118.28 1601.05,1119.92 1601.62,1121.56 1602.19,1123.2 1602.75,1124.83 1603.32,1126.46 1603.89,1128.08 1604.46,1129.7 1605.03,1131.32 
  1605.6,1132.93 1606.17,1134.54 1606.73,1136.15 1607.3,1137.75 1607.87,1139.34 1608.44,1140.94 1609.01,1142.53 1609.58,1144.11 1610.15,1145.69 1610.72,1147.27 
  1611.28,1148.84 1611.85,1150.41 1612.42,1151.98 1612.99,1153.54 1613.56,1155.09 1614.13,1156.65 1614.7,1158.19 1615.27,1159.74 1615.83,1161.28 1616.4,1162.81 
  1616.97,1164.35 1617.54,1165.87 1618.11,1167.4 1618.68,1168.92 1619.25,1170.43 1619.81,1171.94 1620.38,1173.45 1620.95,1174.95 1621.52,1176.44 1622.09,1177.94 
  1622.66,1179.43 1623.23,1180.91 1623.8,1182.39 1624.36,1183.86 1624.93,1185.34 1625.5,1186.8 1626.07,1188.26 1626.64,1189.72 1627.21,1191.17 1627.78,1192.62 
  1628.35,1194.07 1628.91,1195.51 1629.48,1196.94 1630.05,1198.37 1630.62,1199.8 1631.19,1201.22 1631.76,1202.63 1632.33,1204.05 1632.89,1205.45 1633.46,1206.86 
  1634.03,1208.25 1634.6,1209.65 1635.17,1211.04 1635.74,1212.42 1636.31,1213.8 1636.88,1215.17 1637.44,1216.54 1638.01,1217.91 1638.58,1219.27 1639.15,1220.62 
  1639.72,1221.98 1640.29,1223.32 1640.86,1224.66 1641.43,1226 1641.99,1227.33 1642.56,1228.66 1643.13,1229.98 1643.7,1231.29 1644.27,1232.61 1644.84,1233.91 
  1645.41,1235.22 1645.97,1236.51 1646.54,1237.81 1647.11,1239.09 1647.68,1240.37 1648.25,1241.65 1648.82,1242.92 1649.39,1244.19 1649.96,1245.45 1650.52,1246.71 
  1651.09,1247.96 1651.66,1249.21 1652.23,1250.45 1652.8,1251.69 1653.37,1252.92 1653.94,1254.15 1654.51,1255.37 1655.07,1256.59 1655.64,1257.8 1656.21,1259 
  1656.78,1260.2 1657.35,1261.4 1657.92,1262.59 1658.49,1263.78 1659.05,1264.96 1659.62,1266.13 1660.19,1267.3 1660.76,1268.47 1661.33,1269.62 1661.9,1270.78 
  1662.47,1271.93 1663.04,1273.07 1663.6,1274.21 1664.17,1275.34 1664.74,1276.47 1665.31,1277.59 1665.88,1278.71 1666.45,1279.82 1667.02,1280.92 1667.59,1282.03 
  1668.15,1283.12 1668.72,1284.21 1669.29,1285.29 1669.86,1286.37 1670.43,1287.45 1671,1288.51 1671.57,1289.58 1672.13,1290.63 1672.7,1291.69 1673.27,1292.73 
  1673.84,1293.77 1674.41,1294.81 1674.98,1295.84 1675.55,1296.86 1676.12,1297.88 1676.68,1298.89 1677.25,1299.9 1677.82,1300.9 1678.39,1301.9 1678.96,1302.89 
  1679.53,1303.87 1680.1,1304.85 1680.67,1305.83 1681.23,1306.8 1681.8,1307.76 1682.37,1308.71 1682.94,1309.67 1683.51,1310.61 1684.08,1311.55 1684.65,1312.49 
  1685.21,1313.41 1685.78,1314.34 1686.35,1315.25 1686.92,1316.17 1687.49,1317.07 1688.06,1317.97 1688.63,1318.86 1689.2,1319.75 1689.76,1320.64 1690.33,1321.51 
  1690.9,1322.38 1691.47,1323.25 1692.04,1324.11 1692.61,1324.96 1693.18,1325.81 1693.75,1326.65 1694.31,1327.49 1694.88,1328.32 1695.45,1329.14 1696.02,1329.96 
  1696.59,1330.77 1697.16,1331.58 1697.73,1332.38 1698.29,1333.18 1698.86,1333.96 1699.43,1334.75 1700,1335.53 1700.57,1336.3 1701.14,1337.06 1701.71,1337.82 
  1702.28,1338.58 1702.84,1339.32 1703.41,1340.06 1703.98,1340.8 1704.55,1341.53 1705.12,1342.25 1705.69,1342.97 1706.26,1343.68 1706.83,1344.39 1707.39,1345.09 
  1707.96,1345.78 1708.53,1346.47 1709.1,1347.15 1709.67,1347.83 1710.24,1348.5 1710.81,1349.16 1711.38,1349.82 1711.94,1350.47 1712.51,1351.11 1713.08,1351.75 
  1713.65,1352.39 1714.22,1353.01 1714.79,1353.63 1715.36,1354.25 1715.92,1354.86 1716.49,1355.46 1717.06,1356.06 1717.63,1356.65 1718.2,1357.23 1718.77,1357.81 
  1719.34,1358.38 1719.91,1358.95 1720.47,1359.51 1721.04,1360.06 1721.61,1360.61 1722.18,1361.15 1722.75,1361.68 1723.32,1362.21 1723.89,1362.73 1724.46,1363.25 
  1725.02,1363.76 1725.59,1364.26 1726.16,1364.76 1726.73,1365.25 1727.3,1365.74 1727.87,1366.22 1728.44,1366.69 1729,1367.16 1729.57,1367.62 1730.14,1368.07 
  1730.71,1368.52 1731.28,1368.96 1731.85,1369.4 1732.42,1369.83 1732.99,1370.25 1733.55,1370.66 1734.12,1371.08 1734.69,1371.48 1735.26,1371.88 1735.83,1372.27 
  1736.4,1372.65 1736.97,1373.03 1737.54,1373.41 1738.1,1373.77 1738.67,1374.13 1739.24,1374.49 1739.81,1374.83 1740.38,1375.17 1740.95,1375.51 1741.52,1375.84 
  1742.08,1376.16 1742.65,1376.47 1743.22,1376.78 1743.79,1377.09 1744.36,1377.38 1744.93,1377.67 1745.5,1377.96 1746.07,1378.24 1746.63,1378.51 1747.2,1378.77 
  1747.77,1379.03 1748.34,1379.28 1748.91,1379.53 1749.48,1379.77 1750.05,1380 1750.62,1380.23 1751.18,1380.45 1751.75,1380.66 1752.32,1380.87 1752.89,1381.07 
  1753.46,1381.27 1754.03,1381.46 1754.6,1381.64 1755.16,1381.82 1755.73,1381.99 1756.3,1382.15 1756.87,1382.31 1757.44,1382.46 1758.01,1382.6 1758.58,1382.74 
  1759.15,1382.87 1759.71,1382.99 1760.28,1383.11 1760.85,1383.22 1761.42,1383.33 1761.99,1383.43 1762.56,1383.52 1763.13,1383.61 1763.7,1383.69 1764.26,1383.76 
  1764.83,1383.83 1765.4,1383.89 1765.97,1383.94 1766.54,1383.99 1767.11,1384.03 1767.68,1384.07 1768.24,1384.1 1768.81,1384.12 1769.38,1384.14 1769.95,1384.15 
  1770.52,1384.15 1771.09,1384.15 1771.66,1384.14 1772.23,1384.12 1772.79,1384.1 1773.36,1384.07 1773.93,1384.03 1774.5,1383.99 1775.07,1383.94 1775.64,1383.89 
  1776.21,1383.83 1776.78,1383.76 1777.34,1383.69 1777.91,1383.61 1778.48,1383.52 1779.05,1383.43 1779.62,1383.33 1780.19,1383.22 1780.76,1383.11 1781.32,1382.99 
  1781.89,1382.87 1782.46,1382.74 1783.03,1382.6 1783.6,1382.46 1784.17,1382.31 1784.74,1382.15 1785.31,1381.99 1785.87,1381.82 1786.44,1381.64 1787.01,1381.46 
  1787.58,1381.27 1788.15,1381.07 1788.72,1380.87 1789.29,1380.66 1789.86,1380.45 1790.42,1380.23 1790.99,1380 1791.56,1379.77 1792.13,1379.53 1792.7,1379.28 
  1793.27,1379.03 1793.84,1378.77 1794.4,1378.51 1794.97,1378.24 1795.54,1377.96 1796.11,1377.67 1796.68,1377.38 1797.25,1377.09 1797.82,1376.78 1798.39,1376.47 
  1798.95,1376.16 1799.52,1375.84 1800.09,1375.51 1800.66,1375.17 1801.23,1374.83 1801.8,1374.49 1802.37,1374.13 1802.94,1373.77 1803.5,1373.41 1804.07,1373.03 
  1804.64,1372.65 1805.21,1372.27 1805.78,1371.88 1806.35,1371.48 1806.92,1371.08 1807.48,1370.66 1808.05,1370.25 1808.62,1369.83 1809.19,1369.4 1809.76,1368.96 
  1810.33,1368.52 1810.9,1368.07 1811.47,1367.62 1812.03,1367.16 1812.6,1366.69 1813.17,1366.22 1813.74,1365.74 1814.31,1365.25 1814.88,1364.76 1815.45,1364.26 
  1816.02,1363.76 1816.58,1363.25 1817.15,1362.73 1817.72,1362.21 1818.29,1361.68 1818.86,1361.15 1819.43,1360.61 1820,1360.06 1820.56,1359.51 1821.13,1358.95 
  1821.7,1358.38 1822.27,1357.81 1822.84,1357.23 1823.41,1356.65 1823.98,1356.06 1824.55,1355.46 1825.11,1354.86 1825.68,1354.25 1826.25,1353.63 1826.82,1353.01 
  1827.39,1352.39 1827.96,1351.75 1828.53,1351.11 1829.1,1350.47 1829.66,1349.82 1830.23,1349.16 1830.8,1348.5 1831.37,1347.83 1831.94,1347.15 1832.51,1346.47 
  1833.08,1345.78 1833.64,1345.09 1834.21,1344.39 1834.78,1343.68 1835.35,1342.97 1835.92,1342.25 1836.49,1341.53 1837.06,1340.8 1837.63,1340.06 1838.19,1339.32 
  1838.76,1338.58 1839.33,1337.82 1839.9,1337.06 1840.47,1336.3 1841.04,1335.53 1841.61,1334.75 1842.18,1333.96 1842.74,1333.18 1843.31,1332.38 1843.88,1331.58 
  1844.45,1330.77 1845.02,1329.96 1845.59,1329.14 1846.16,1328.32 1846.73,1327.49 1847.29,1326.65 1847.86,1325.81 1848.43,1324.96 1849,1324.11 1849.57,1323.25 
  1850.14,1322.38 1850.71,1321.51 1851.27,1320.64 1851.84,1319.75 1852.41,1318.86 1852.98,1317.97 1853.55,1317.07 1854.12,1316.17 1854.69,1315.25 1855.26,1314.34 
  1855.82,1313.41 1856.39,1312.49 1856.96,1311.55 1857.53,1310.61 1858.1,1309.67 1858.67,1308.71 1859.24,1307.76 1859.81,1306.8 1860.37,1305.83 1860.94,1304.85 
  1861.51,1303.87 1862.08,1302.89 1862.65,1301.9 1863.22,1300.9 1863.79,1299.9 1864.35,1298.89 1864.92,1297.88 1865.49,1296.86 1866.06,1295.84 1866.63,1294.81 
  1867.2,1293.77 1867.77,1292.73 1868.34,1291.69 1868.9,1290.63 1869.47,1289.58 1870.04,1288.51 1870.61,1287.45 1871.18,1286.37 1871.75,1285.29 1872.32,1284.21 
  1872.89,1283.12 1873.45,1282.03 1874.02,1280.92 1874.59,1279.82 1875.16,1278.71 1875.73,1277.59 1876.3,1276.47 1876.87,1275.34 1877.43,1274.21 1878,1273.07 
  1878.57,1271.93 1879.14,1270.78 1879.71,1269.62 1880.28,1268.47 1880.85,1267.3 1881.42,1266.13 1881.98,1264.96 1882.55,1263.78 1883.12,1262.59 1883.69,1261.4 
  1884.26,1260.2 1884.83,1259 1885.4,1257.8 1885.97,1256.59 1886.53,1255.37 1887.1,1254.15 1887.67,1252.92 1888.24,1251.69 1888.81,1250.45 1889.38,1249.21 
  1889.95,1247.96 1890.51,1246.71 1891.08,1245.45 1891.65,1244.19 1892.22,1242.92 1892.79,1241.65 1893.36,1240.37 1893.93,1239.09 1894.5,1237.81 1895.06,1236.51 
  1895.63,1235.22 1896.2,1233.91 1896.77,1232.61 1897.34,1231.29 1897.91,1229.98 1898.48,1228.66 1899.05,1227.33 1899.61,1226 1900.18,1224.66 1900.75,1223.32 
  1901.32,1221.98 1901.89,1220.62 1902.46,1219.27 1903.03,1217.91 1903.59,1216.54 1904.16,1215.17 1904.73,1213.8 1905.3,1212.42 1905.87,1211.04 1906.44,1209.65 
  1907.01,1208.25 1907.58,1206.86 1908.14,1205.45 1908.71,1204.05 1909.28,1202.63 1909.85,1201.22 1910.42,1199.8 1910.99,1198.37 1911.56,1196.94 1912.13,1195.51 
  1912.69,1194.07 1913.26,1192.62 1913.83,1191.17 1914.4,1189.72 1914.97,1188.26 1915.54,1186.8 1916.11,1185.34 1916.67,1183.86 1917.24,1182.39 1917.81,1180.91 
  1918.38,1179.43 1918.95,1177.94 1919.52,1176.44 1920.09,1174.95 1920.66,1173.45 1921.22,1171.94 1921.79,1170.43 1922.36,1168.92 1922.93,1167.4 1923.5,1165.87 
  1924.07,1164.35 1924.64,1162.81 1925.21,1161.28 1925.77,1159.74 1926.34,1158.19 1926.91,1156.65 1927.48,1155.09 1928.05,1153.54 1928.62,1151.98 1929.19,1150.41 
  1929.75,1148.84 1930.32,1147.27 1930.89,1145.69 1931.46,1144.11 1932.03,1142.53 1932.6,1140.94 1933.17,1139.34 1933.74,1137.75 1934.3,1136.15 1934.87,1134.54 
  1935.44,1132.93 1936.01,1131.32 1936.58,1129.7 1937.15,1128.08 1937.72,1126.46 1938.29,1124.83 1938.85,1123.2 1939.42,1121.56 1939.99,1119.92 1940.56,1118.28 
  1941.13,1116.63 1941.7,1114.98 1942.27,1113.32 1942.83,1111.66 1943.4,1110 1943.97,1108.33 1944.54,1106.66 1945.11,1104.99 1945.68,1103.31 1946.25,1101.63 
  1946.82,1099.95 1947.38,1098.26 1947.95,1096.57 1948.52,1094.87 1949.09,1093.17 1949.66,1091.47 1950.23,1089.77 1950.8,1088.06 1951.37,1086.34 1951.93,1084.63 
  1952.5,1082.91 1953.07,1081.19 1953.64,1079.46 1954.21,1077.73 1954.78,1076 1955.35,1074.26 1955.91,1072.52 1956.48,1070.78 1957.05,1069.03 1957.62,1067.28 
  1958.19,1065.53 1958.76,1063.77 1959.33,1062.01 1959.9,1060.25 1960.46,1058.48 1961.03,1056.71 1961.6,1054.94 1962.17,1053.16 1962.74,1051.38 1963.31,1049.6 
  1963.88,1047.82 1964.45,1046.03 1965.01,1044.24 1965.58,1042.44 1966.15,1040.64 1966.72,1038.84 1967.29,1037.04 1967.86,1035.23 1968.43,1033.43 1968.99,1031.61 
  1969.56,1029.8 1970.13,1027.98 1970.7,1026.16 1971.27,1024.34 1971.84,1022.51 1972.41,1020.68 1972.98,1018.85 1973.54,1017.01 1974.11,1015.17 1974.68,1013.33 
  1975.25,1011.49 1975.82,1009.64 1976.39,1007.79 1976.96,1005.94 1977.53,1004.09 1978.09,1002.23 1978.66,1000.37 1979.23,998.51 1979.8,996.645 1980.37,994.778 
  1980.94,992.908 1981.51,991.036 1982.08,989.161 1982.64,987.283 1983.21,985.403 1983.78,983.521 1984.35,981.636 1984.92,979.749 1985.49,977.859 1986.06,975.967 
  1986.62,974.073 1987.19,972.176 1987.76,970.277 1988.33,968.375 1988.9,966.471 1989.47,964.565 1990.04,962.657 1990.61,960.746 1991.17,958.833 1991.74,956.918 
  1992.31,955.001 1992.88,953.082 1993.45,951.16 1994.02,949.237 1994.59,947.311 1995.16,945.383 1995.72,943.453 1996.29,941.521 1996.86,939.587 1997.43,937.651 
  1998,935.713 1998.57,933.773 1999.14,931.831 1999.7,929.887 2000.27,927.941 2000.84,925.993 2001.41,924.043 2001.98,922.092 2002.55,920.139 2003.12,918.183 
  2003.69,916.226 2004.25,914.268 2004.82,912.307 2005.39,910.345 2005.96,908.381 2006.53,906.415 2007.1,904.448 2007.67,902.479 2008.24,900.508 2008.8,898.535 
  2009.37,896.561 2009.94,894.586 2010.51,892.609 2011.08,890.63 2011.65,888.65 2012.22,886.668 2012.78,884.685 2013.35,882.7 2013.92,880.714 2014.49,878.726 
  2015.06,876.737 2015.63,874.747 2016.2,872.755 2016.77,870.762 2017.33,868.767 2017.9,866.771 2018.47,864.774 2019.04,862.776 2019.61,860.776 2020.18,858.775 
  2020.75,856.773 2021.32,854.77 2021.88,852.765 2022.45,850.76 2023.02,848.753 2023.59,846.745 2024.16,844.736 2024.73,842.726 2025.3,840.715 2025.86,838.703 
  2026.43,836.689 2027,834.675 2027.57,832.66 2028.14,830.644 2028.71,828.627 2029.28,826.608 2029.85,824.59 2030.41,822.57 2030.98,820.549 2031.55,818.527 
  2032.12,816.505 2032.69,814.482 2033.26,812.458 2033.83,810.433 2034.4,808.408 2034.96,806.382 2035.53,804.355 2036.1,802.327 2036.67,800.299 2037.24,798.27 
  2037.81,796.241 2038.38,794.211 2038.94,792.18 2039.51,790.149 2040.08,788.117 2040.65,786.085 2041.22,784.052 2041.79,782.019 2042.36,779.985 2042.93,777.951 
  2043.49,775.916 2044.06,773.881 2044.63,771.846 2045.2,769.81 2045.77,767.774 2046.34,765.737 2046.91,763.701 2047.48,761.664 2048.04,759.626 2048.61,757.589 
  2049.18,755.551 2049.75,753.513 2050.32,751.475 2050.89,749.437 2051.46,747.398 2052.02,745.36 2052.59,743.321 2053.16,741.282 2053.73,739.244 2054.3,737.205 
  2054.87,735.166 2055.44,733.127 2056.01,731.088 2056.57,729.05 2057.14,727.011 2057.71,724.972 2058.28,722.934 2058.85,720.895 2059.42,718.857 2059.99,716.819 
  2060.56,714.781 2061.12,712.743 2061.69,710.706 2062.26,708.668 2062.83,706.631 2063.4,704.595 2063.97,702.558 2064.54,700.522 2065.1,698.486 2065.67,696.451 
  2066.24,694.416 2066.81,692.381 2067.38,690.347 2067.95,688.313 2068.52,686.28 2069.09,684.247 2069.65,682.215 2070.22,680.183 2070.79,678.152 2071.36,676.121 
  2071.93,674.091 2072.5,672.062 2073.07,670.033 2073.64,668.005 2074.2,665.977 2074.77,663.95 2075.34,661.924 2075.91,659.899 2076.48,657.874 2077.05,655.85 
  2077.62,653.827 2078.18,651.804 2078.75,649.783 2079.32,647.762 2079.89,645.742 2080.46,643.723 2081.03,641.705 2081.6,639.688 2082.17,637.672 2082.73,635.657 
  2083.3,633.643 2083.87,631.629 2084.44,629.617 2085.01,627.606 2085.58,625.596 2086.15,623.587 2086.72,621.579 2087.28,619.572 2087.85,617.567 2088.42,615.562 
  2088.99,613.559 2089.56,611.557 2090.13,609.556 2090.7,607.556 2091.26,605.558 2091.83,603.56 2092.4,601.565 2092.97,599.57 2093.54,597.577 2094.11,595.585 
  2094.68,593.595 2095.25,591.606 2095.81,589.618 2096.38,587.632 2096.95,585.647 2097.52,583.664 2098.09,581.682 2098.66,579.702 2099.23,577.723 2099.8,575.746 
  2100.36,573.77 2100.93,571.797 2101.5,569.824 2102.07,567.853 2102.64,565.884 2103.21,563.917 2103.78,561.951 2104.34,559.987 2104.91,558.025 2105.48,556.064 
  2106.05,554.106 2106.62,552.149 2107.19,550.193 2107.76,548.24 2108.33,546.288 2108.89,544.339 2109.46,542.391 2110.03,540.445 2110.6,538.501 2111.17,536.559 
  2111.74,534.619 2112.31,532.681 2112.88,530.745 2113.44,528.811 2114.01,526.879 2114.58,524.949 2115.15,523.021 2115.72,521.095 2116.29,519.172 2116.86,517.25 
  2117.43,515.331 2117.99,513.414 2118.56,511.499 2119.13,509.586 2119.7,507.675 2120.27,505.767 2120.84,503.861 2121.41,501.957 2121.97,500.055 2122.54,498.156 
  2123.11,496.259 2123.68,494.365 2124.25,492.473 2124.82,490.583 2125.39,488.696 2125.96,486.811 2126.52,484.929 2127.09,483.049 2127.66,481.171 2128.23,479.296 
  2128.8,477.424 2129.37,475.554 2129.94,473.687 2130.51,471.822 2131.07,469.96 2131.64,468.1 2132.21,466.243 2132.78,464.389 2133.35,462.538 2133.92,460.689 
  2134.49,458.842 2135.05,456.999 2135.62,455.158 2136.19,453.32 2136.76,451.485 2137.33,449.653 2137.9,447.823 2138.47,445.997 2139.04,444.173 2139.6,442.352 
  2140.17,440.534 2140.74,438.719 2141.31,436.907 2141.88,435.097 2142.45,433.291 2143.02,431.488 2143.59,429.687 2144.15,427.89 2144.72,426.096 2145.29,424.304 
  2145.86,422.516 2146.43,420.731 2147,418.949 2147.57,417.17 2148.13,415.394 2148.7,413.622 2149.27,411.852 2149.84,410.086 2150.41,408.323 2150.98,406.563 
  2151.55,404.807 2152.12,403.054 2152.68,401.304 2153.25,399.557 2153.82,397.813 2154.39,396.073 2154.96,394.337 2155.53,392.603 2156.1,390.873 2156.67,389.147 
  2157.23,387.424 2157.8,385.704 2158.37,383.988 2158.94,382.275 2159.51,380.565 2160.08,378.86 2160.65,377.157 2161.21,375.458 2161.78,373.763 2162.35,372.072 
  2162.92,370.383 2163.49,368.699 2164.06,367.018 2164.63,365.341 2165.2,363.667 2165.76,361.997 2166.33,360.331 2166.9,358.669 2167.47,357.01 2168.04,355.355 
  2168.61,353.703 2169.18,352.056 2169.75,350.412 2170.31,348.772 2170.88,347.136 2171.45,345.504 2172.02,343.875 2172.59,342.25 2173.16,340.63 2173.73,339.013 
  2174.29,337.4 2174.86,335.791 2175.43,334.186 2176,332.585 2176.57,330.987 2177.14,329.394 2177.71,327.805 2178.28,326.22 2178.84,324.639 2179.41,323.062 
  2179.98,321.489 2180.55,319.92 2181.12,318.355 2181.69,316.794 2182.26,315.238 2182.83,313.685 2183.39,312.137 2183.96,310.593 2184.53,309.053 2185.1,307.517 
  2185.67,305.986 2186.24,304.459 2186.81,302.936 2187.37,301.417 2187.94,299.903 2188.51,298.392 2189.08,296.887 2189.65,295.385 2190.22,293.888 2190.79,292.395 
  2191.36,290.907 2191.92,289.423 2192.49,287.943 2193.06,286.468 2193.63,284.997 2194.2,283.53 2194.77,282.069 2195.34,280.611 2195.91,279.158 2196.47,277.71 
  2197.04,276.266 
  "/>
<path clip-path="url(#clip052)" d="
M348.776 1384.15 L917.473 1384.15 L917.473 735.166 L348.776 735.166 L348.776 1384.15  Z
  " fill="#cb3c33" fill-rule="evenodd" fill-opacity="0.5"/>
<polyline clip-path="url(#clip052)" style="stroke:#000000; stroke-width:4; stroke-opacity:0.5; fill:none" points="
  348.776,1384.15 917.473,1384.15 917.473,735.166 348.776,735.166 348.776,1384.15 
  "/>
<path clip-path="url(#clip052)" d="
M917.473 735.166 L1486.17 735.166 L1486.17 86.1831 L917.473 86.1831 L917.473 735.166  Z
  " fill="#389826" fill-rule="evenodd" fill-opacity="0.5"/>
<polyline clip-path="url(#clip052)" style="stroke:#000000; stroke-width:4; stroke-opacity:0.5; fill:none" points="
  917.473,735.166 1486.17,735.166 1486.17,86.1831 917.473,86.1831 917.473,735.166 
  "/>
<path clip-path="url(#clip052)" d="
M1486.17 1384.15 L2054.87 1384.15 L2054.87 735.166 L1486.17 735.166 L1486.17 1384.15  Z
  " fill="#9558b2" fill-rule="evenodd" fill-opacity="0.5"/>
<polyline clip-path="url(#clip052)" style="stroke:#000000; stroke-width:4; stroke-opacity:0.5; fill:none" points="
  1486.17,1384.15 2054.87,1384.15 2054.87,735.166 1486.17,735.166 1486.17,1384.15 
  "/>
</svg>
