<?xml version="1.0" encoding="utf-8"?>
<svg xmlns="http://www.w3.org/2000/svg" xmlns:xlink="http://www.w3.org/1999/xlink" width="600" height="400" viewBox="0 0 2400 1600">
<defs>
  <clipPath id="clip010">
    <rect x="0" y="0" width="2400" height="1600"/>
  </clipPath>
</defs>
<path clip-path="url(#clip010)" d="
M0 1600 L2400 1600 L2400 0 L0 0  Z
  " fill="#ffffff" fill-rule="evenodd" fill-opacity="1"/>
<defs>
  <clipPath id="clip011">
    <rect x="480" y="0" width="1681" height="1600"/>
  </clipPath>
</defs>
<defs>
  <clipPath id="clip012">
    <rect x="86" y="47" width="2267" height="1475"/>
  </clipPath>
</defs>
<path clip-path="url(#clip010)" d="
M86.9921 1521.01 L2352.76 1521.01 L2352.76 47.2441 L86.9921 47.2441  Z
  " fill="#ffffff" fill-rule="evenodd" fill-opacity="1"/>
<polyline clip-path="url(#clip012)" style="stroke:#000000; stroke-width:2; stroke-opacity:0.1; fill:none" points="
  151.118,1521.01 151.118,47.2441 
  "/>
<polyline clip-path="url(#clip012)" style="stroke:#000000; stroke-width:2; stroke-opacity:0.1; fill:none" points="
  685.496,1521.01 685.496,47.2441 
  "/>
<polyline clip-path="url(#clip012)" style="stroke:#000000; stroke-width:2; stroke-opacity:0.1; fill:none" points="
  1219.87,1521.01 1219.87,47.2441 
  "/>
<polyline clip-path="url(#clip012)" style="stroke:#000000; stroke-width:2; stroke-opacity:0.1; fill:none" points="
  1754.25,1521.01 1754.25,47.2441 
  "/>
<polyline clip-path="url(#clip012)" style="stroke:#000000; stroke-width:2; stroke-opacity:0.1; fill:none" points="
  2288.63,1521.01 2288.63,47.2441 
  "/>
<polyline clip-path="url(#clip010)" style="stroke:#000000; stroke-width:4; stroke-opacity:1; fill:none" points="
  86.9921,1521.01 2352.76,1521.01 
  "/>
<polyline clip-path="url(#clip010)" style="stroke:#000000; stroke-width:4; stroke-opacity:1; fill:none" points="
  151.118,1521.01 151.118,1503.32 
  "/>
<polyline clip-path="url(#clip010)" style="stroke:#000000; stroke-width:4; stroke-opacity:1; fill:none" points="
  685.496,1521.01 685.496,1503.32 
  "/>
<polyline clip-path="url(#clip010)" style="stroke:#000000; stroke-width:4; stroke-opacity:1; fill:none" points="
  1219.87,1521.01 1219.87,1503.32 
  "/>
<polyline clip-path="url(#clip010)" style="stroke:#000000; stroke-width:4; stroke-opacity:1; fill:none" points="
  1754.25,1521.01 1754.25,1503.32 
  "/>
<polyline clip-path="url(#clip010)" style="stroke:#000000; stroke-width:4; stroke-opacity:1; fill:none" points="
  2288.63,1521.01 2288.63,1503.32 
  "/>
<path clip-path="url(#clip010)" d="M 0 0 M109.879 1564.85 L139.555 1564.85 L139.555 1568.79 L109.879 1568.79 L109.879 1564.85 Z" fill="#000000" fill-rule="evenodd" fill-opacity="1" /><path clip-path="url(#clip010)" d="M 0 0 M145.435 1577.74 L153.074 1577.74 L153.074 1551.38 L144.763 1553.05 L144.763 1548.79 L153.027 1547.12 L157.703 1547.12 L157.703 1577.74 L165.342 1577.74 L165.342 1581.68 L145.435 1581.68 L145.435 1577.74 Z" fill="#000000" fill-rule="evenodd" fill-opacity="1" /><path clip-path="url(#clip010)" d="M 0 0 M180.411 1550.2 Q176.8 1550.2 174.972 1553.76 Q173.166 1557.31 173.166 1564.43 Q173.166 1571.54 174.972 1575.11 Q176.8 1578.65 180.411 1578.65 Q184.046 1578.65 185.851 1575.11 Q187.68 1571.54 187.68 1564.43 Q187.68 1557.31 185.851 1553.76 Q184.046 1550.2 180.411 1550.2 M180.411 1546.49 Q186.221 1546.49 189.277 1551.1 Q192.356 1555.68 192.356 1564.43 Q192.356 1573.16 189.277 1577.77 Q186.221 1582.35 180.411 1582.35 Q174.601 1582.35 171.522 1577.77 Q168.467 1573.16 168.467 1564.43 Q168.467 1555.68 171.522 1551.1 Q174.601 1546.49 180.411 1546.49 Z" fill="#000000" fill-rule="evenodd" fill-opacity="1" /><path clip-path="url(#clip010)" d="M 0 0 M657.649 1564.85 L687.324 1564.85 L687.324 1568.79 L657.649 1568.79 L657.649 1564.85 Z" fill="#000000" fill-rule="evenodd" fill-opacity="1" /><path clip-path="url(#clip010)" d="M 0 0 M692.44 1547.12 L710.797 1547.12 L710.797 1551.06 L696.723 1551.06 L696.723 1559.53 Q697.741 1559.18 698.76 1559.02 Q699.778 1558.83 700.797 1558.83 Q706.584 1558.83 709.963 1562 Q713.343 1565.18 713.343 1570.59 Q713.343 1576.17 709.871 1579.27 Q706.398 1582.35 700.079 1582.35 Q697.903 1582.35 695.635 1581.98 Q693.389 1581.61 690.982 1580.87 L690.982 1576.17 Q693.065 1577.3 695.287 1577.86 Q697.51 1578.42 699.986 1578.42 Q703.991 1578.42 706.329 1576.31 Q708.667 1574.2 708.667 1570.59 Q708.667 1566.98 706.329 1564.87 Q703.991 1562.77 699.986 1562.77 Q698.111 1562.77 696.236 1563.18 Q694.385 1563.6 692.44 1564.48 L692.44 1547.12 Z" fill="#000000" fill-rule="evenodd" fill-opacity="1" /><path clip-path="url(#clip010)" d="M 0 0 M1219.87 1550.2 Q1216.26 1550.2 1214.43 1553.76 Q1212.63 1557.31 1212.63 1564.43 Q1212.63 1571.54 1214.43 1575.11 Q1216.26 1578.65 1219.87 1578.65 Q1223.51 1578.65 1225.31 1575.11 Q1227.14 1571.54 1227.14 1564.43 Q1227.14 1557.31 1225.31 1553.76 Q1223.51 1550.2 1219.87 1550.2 M1219.87 1546.49 Q1225.68 1546.49 1228.74 1551.1 Q1231.82 1555.68 1231.82 1564.43 Q1231.82 1573.16 1228.74 1577.77 Q1225.68 1582.35 1219.87 1582.35 Q1214.06 1582.35 1210.99 1577.77 Q1207.93 1573.16 1207.93 1564.43 Q1207.93 1555.68 1210.99 1551.1 Q1214.06 1546.49 1219.87 1546.49 Z" fill="#000000" fill-rule="evenodd" fill-opacity="1" /><path clip-path="url(#clip010)" d="M 0 0 M1744.53 1547.12 L1762.89 1547.12 L1762.89 1551.06 L1748.81 1551.06 L1748.81 1559.53 Q1749.83 1559.18 1750.85 1559.02 Q1751.87 1558.83 1752.89 1558.83 Q1758.67 1558.83 1762.05 1562 Q1765.43 1565.18 1765.43 1570.59 Q1765.43 1576.17 1761.96 1579.27 Q1758.49 1582.35 1752.17 1582.35 Q1749.99 1582.35 1747.72 1581.98 Q1745.48 1581.61 1743.07 1580.87 L1743.07 1576.17 Q1745.16 1577.3 1747.38 1577.86 Q1749.6 1578.42 1752.08 1578.42 Q1756.08 1578.42 1758.42 1576.31 Q1760.76 1574.2 1760.76 1570.59 Q1760.76 1566.98 1758.42 1564.87 Q1756.08 1562.77 1752.08 1562.77 Q1750.2 1562.77 1748.33 1563.18 Q1746.47 1563.6 1744.53 1564.48 L1744.53 1547.12 Z" fill="#000000" fill-rule="evenodd" fill-opacity="1" /><path clip-path="url(#clip010)" d="M 0 0 M2265.51 1577.74 L2273.14 1577.74 L2273.14 1551.38 L2264.83 1553.05 L2264.83 1548.79 L2273.1 1547.12 L2277.77 1547.12 L2277.77 1577.74 L2285.41 1577.74 L2285.41 1581.68 L2265.51 1581.68 L2265.51 1577.74 Z" fill="#000000" fill-rule="evenodd" fill-opacity="1" /><path clip-path="url(#clip010)" d="M 0 0 M2300.48 1550.2 Q2296.87 1550.2 2295.04 1553.76 Q2293.24 1557.31 2293.24 1564.43 Q2293.24 1571.54 2295.04 1575.11 Q2296.87 1578.65 2300.48 1578.65 Q2304.12 1578.65 2305.92 1575.11 Q2307.75 1571.54 2307.75 1564.43 Q2307.75 1557.31 2305.92 1553.76 Q2304.12 1550.2 2300.48 1550.2 M2300.48 1546.49 Q2306.29 1546.49 2309.35 1551.1 Q2312.43 1555.68 2312.43 1564.43 Q2312.43 1573.16 2309.35 1577.77 Q2306.29 1582.35 2300.48 1582.35 Q2294.67 1582.35 2291.59 1577.77 Q2288.54 1573.16 2288.54 1564.43 Q2288.54 1555.68 2291.59 1551.1 Q2294.67 1546.49 2300.48 1546.49 Z" fill="#000000" fill-rule="evenodd" fill-opacity="1" /><polyline clip-path="url(#clip012)" style="stroke:#000000; stroke-width:2; stroke-opacity:0.1; fill:none" points="
  86.9921,1290.29 2352.76,1290.29 
  "/>
<polyline clip-path="url(#clip012)" style="stroke:#000000; stroke-width:2; stroke-opacity:0.1; fill:none" points="
  86.9921,1037.21 2352.76,1037.21 
  "/>
<polyline clip-path="url(#clip012)" style="stroke:#000000; stroke-width:2; stroke-opacity:0.1; fill:none" points="
  86.9921,784.126 2352.76,784.126 
  "/>
<polyline clip-path="url(#clip012)" style="stroke:#000000; stroke-width:2; stroke-opacity:0.1; fill:none" points="
  86.9921,531.042 2352.76,531.042 
  "/>
<polyline clip-path="url(#clip012)" style="stroke:#000000; stroke-width:2; stroke-opacity:0.1; fill:none" points="
  86.9921,277.958 2352.76,277.958 
  "/>
<polyline clip-path="url(#clip010)" style="stroke:#000000; stroke-width:4; stroke-opacity:1; fill:none" points="
  86.9921,1521.01 86.9921,47.2441 
  "/>
<polyline clip-path="url(#clip010)" style="stroke:#000000; stroke-width:4; stroke-opacity:1; fill:none" points="
  86.9921,1290.29 114.181,1290.29 
  "/>
<polyline clip-path="url(#clip010)" style="stroke:#000000; stroke-width:4; stroke-opacity:1; fill:none" points="
  86.9921,1037.21 114.181,1037.21 
  "/>
<polyline clip-path="url(#clip010)" style="stroke:#000000; stroke-width:4; stroke-opacity:1; fill:none" points="
  86.9921,784.126 114.181,784.126 
  "/>
<polyline clip-path="url(#clip010)" style="stroke:#000000; stroke-width:4; stroke-opacity:1; fill:none" points="
  86.9921,531.042 114.181,531.042 
  "/>
<polyline clip-path="url(#clip010)" style="stroke:#000000; stroke-width:4; stroke-opacity:1; fill:none" points="
  86.9921,277.958 114.181,277.958 
  "/>
<path clip-path="url(#clip010)" d="M 0 0 M-41.4379 1290.75 L-11.7622 1290.75 L-11.7622 1294.68 L-41.4379 1294.68 L-41.4379 1290.75 Z" fill="#000000" fill-rule="evenodd" fill-opacity="1" /><path clip-path="url(#clip010)" d="M 0 0 M-5.88257 1303.64 L1.75628 1303.64 L1.75628 1277.27 L-6.55386 1278.94 L-6.55386 1274.68 L1.70998 1273.01 L6.38588 1273.01 L6.38588 1303.64 L14.0247 1303.64 L14.0247 1307.57 L-5.88257 1307.57 L-5.88257 1303.64 Z" fill="#000000" fill-rule="evenodd" fill-opacity="1" /><path clip-path="url(#clip010)" d="M 0 0 M19.0941 1301.69 L23.9784 1301.69 L23.9784 1307.57 L19.0941 1307.57 L19.0941 1301.69 Z" fill="#000000" fill-rule="evenodd" fill-opacity="1" /><path clip-path="url(#clip010)" d="M 0 0 M39.0477 1276.09 Q35.4367 1276.09 33.608 1279.66 Q31.8024 1283.2 31.8024 1290.33 Q31.8024 1297.44 33.608 1301 Q35.4367 1304.54 39.0477 1304.54 Q42.682 1304.54 44.4875 1301 Q46.3162 1297.44 46.3162 1290.33 Q46.3162 1283.2 44.4875 1279.66 Q42.682 1276.09 39.0477 1276.09 M39.0477 1272.39 Q44.8579 1272.39 47.9134 1277 Q50.9921 1281.58 50.9921 1290.33 Q50.9921 1299.06 47.9134 1303.66 Q44.8579 1308.25 39.0477 1308.25 Q33.2376 1308.25 30.1589 1303.66 Q27.1034 1299.06 27.1034 1290.33 Q27.1034 1281.58 30.1589 1277 Q33.2376 1272.39 39.0477 1272.39 Z" fill="#000000" fill-rule="evenodd" fill-opacity="1" /><path clip-path="url(#clip010)" d="M 0 0 M-41.6694 1037.66 L-11.9936 1037.66 L-11.9936 1041.6 L-41.6694 1041.6 L-41.6694 1037.66 Z" fill="#000000" fill-rule="evenodd" fill-opacity="1" /><path clip-path="url(#clip010)" d="M 0 0 M3.07572 1023.01 Q-0.535376 1023.01 -2.36407 1026.57 Q-4.16962 1030.12 -4.16962 1037.24 Q-4.16962 1044.35 -2.36407 1047.92 Q-0.535376 1051.46 3.07572 1051.46 Q6.70996 1051.46 8.5155 1047.92 Q10.3442 1044.35 10.3442 1037.24 Q10.3442 1030.12 8.5155 1026.57 Q6.70996 1023.01 3.07572 1023.01 M3.07572 1019.31 Q8.88587 1019.31 11.9414 1023.91 Q15.0201 1028.49 15.0201 1037.24 Q15.0201 1045.97 11.9414 1050.58 Q8.88587 1055.16 3.07572 1055.16 Q-2.73444 1055.16 -5.81313 1050.58 Q-8.86866 1045.97 -8.86866 1037.24 Q-8.86866 1028.49 -5.81313 1023.91 Q-2.73444 1019.31 3.07572 1019.31 Z" fill="#000000" fill-rule="evenodd" fill-opacity="1" /><path clip-path="url(#clip010)" d="M 0 0 M20.0895 1048.61 L24.9737 1048.61 L24.9737 1054.49 L20.0895 1054.49 L20.0895 1048.61 Z" fill="#000000" fill-rule="evenodd" fill-opacity="1" /><path clip-path="url(#clip010)" d="M 0 0 M30.0895 1019.93 L48.4458 1019.93 L48.4458 1023.87 L34.3718 1023.87 L34.3718 1032.34 Q35.3904 1031.99 36.4089 1031.83 Q37.4274 1031.64 38.4459 1031.64 Q44.2329 1031.64 47.6125 1034.81 Q50.9921 1037.99 50.9921 1043.4 Q50.9921 1048.98 47.5199 1052.08 Q44.0477 1055.16 37.7283 1055.16 Q35.5524 1055.16 33.2839 1054.79 Q31.0385 1054.42 28.6311 1053.68 L28.6311 1048.98 Q30.7145 1050.12 32.9367 1050.67 Q35.1589 1051.23 37.6357 1051.23 Q41.6403 1051.23 43.9783 1049.12 Q46.3162 1047.01 46.3162 1043.4 Q46.3162 1039.79 43.9783 1037.68 Q41.6403 1035.58 37.6357 1035.58 Q35.7607 1035.58 33.8857 1035.99 Q32.0339 1036.41 30.0895 1037.29 L30.0895 1019.93 Z" fill="#000000" fill-rule="evenodd" fill-opacity="1" /><path clip-path="url(#clip010)" d="M 0 0 M2.08035 769.925 Q-1.53074 769.925 -3.35943 773.489 Q-5.16498 777.031 -5.16498 784.161 Q-5.16498 791.267 -3.35943 794.832 Q-1.53074 798.374 2.08035 798.374 Q5.71459 798.374 7.52014 794.832 Q9.34883 791.267 9.34883 784.161 Q9.34883 777.031 7.52014 773.489 Q5.71459 769.925 2.08035 769.925 M2.08035 766.221 Q7.89051 766.221 10.946 770.827 Q14.0247 775.411 14.0247 784.161 Q14.0247 792.888 10.946 797.494 Q7.89051 802.077 2.08035 802.077 Q-3.7298 802.077 -6.80849 797.494 Q-9.86403 792.888 -9.86403 784.161 Q-9.86403 775.411 -6.80849 770.827 Q-3.7298 766.221 2.08035 766.221 Z" fill="#000000" fill-rule="evenodd" fill-opacity="1" /><path clip-path="url(#clip010)" d="M 0 0 M19.0941 795.526 L23.9784 795.526 L23.9784 801.406 L19.0941 801.406 L19.0941 795.526 Z" fill="#000000" fill-rule="evenodd" fill-opacity="1" /><path clip-path="url(#clip010)" d="M 0 0 M39.0477 769.925 Q35.4367 769.925 33.608 773.489 Q31.8024 777.031 31.8024 784.161 Q31.8024 791.267 33.608 794.832 Q35.4367 798.374 39.0477 798.374 Q42.682 798.374 44.4875 794.832 Q46.3162 791.267 46.3162 784.161 Q46.3162 777.031 44.4875 773.489 Q42.682 769.925 39.0477 769.925 M39.0477 766.221 Q44.8579 766.221 47.9134 770.827 Q50.9921 775.411 50.9921 784.161 Q50.9921 792.888 47.9134 797.494 Q44.8579 802.077 39.0477 802.077 Q33.2376 802.077 30.1589 797.494 Q27.1034 792.888 27.1034 784.161 Q27.1034 775.411 30.1589 770.827 Q33.2376 766.221 39.0477 766.221 Z" fill="#000000" fill-rule="evenodd" fill-opacity="1" /><path clip-path="url(#clip010)" d="M 0 0 M3.07572 516.841 Q-0.535376 516.841 -2.36407 520.405 Q-4.16962 523.947 -4.16962 531.077 Q-4.16962 538.183 -2.36407 541.748 Q-0.535376 545.29 3.07572 545.29 Q6.70996 545.29 8.5155 541.748 Q10.3442 538.183 10.3442 531.077 Q10.3442 523.947 8.5155 520.405 Q6.70996 516.841 3.07572 516.841 M3.07572 513.137 Q8.88587 513.137 11.9414 517.743 Q15.0201 522.327 15.0201 531.077 Q15.0201 539.803 11.9414 544.41 Q8.88587 548.993 3.07572 548.993 Q-2.73444 548.993 -5.81313 544.41 Q-8.86866 539.803 -8.86866 531.077 Q-8.86866 522.327 -5.81313 517.743 Q-2.73444 513.137 3.07572 513.137 Z" fill="#000000" fill-rule="evenodd" fill-opacity="1" /><path clip-path="url(#clip010)" d="M 0 0 M20.0895 542.442 L24.9737 542.442 L24.9737 548.322 L20.0895 548.322 L20.0895 542.442 Z" fill="#000000" fill-rule="evenodd" fill-opacity="1" /><path clip-path="url(#clip010)" d="M 0 0 M30.0895 513.762 L48.4458 513.762 L48.4458 517.697 L34.3718 517.697 L34.3718 526.169 Q35.3904 525.822 36.4089 525.66 Q37.4274 525.475 38.4459 525.475 Q44.2329 525.475 47.6125 528.646 Q50.9921 531.817 50.9921 537.234 Q50.9921 542.813 47.5199 545.915 Q44.0477 548.993 37.7283 548.993 Q35.5524 548.993 33.2839 548.623 Q31.0385 548.253 28.6311 547.512 L28.6311 542.813 Q30.7145 543.947 32.9367 544.503 Q35.1589 545.058 37.6357 545.058 Q41.6403 545.058 43.9783 542.952 Q46.3162 540.845 46.3162 537.234 Q46.3162 533.623 43.9783 531.516 Q41.6403 529.41 37.6357 529.41 Q35.7607 529.41 33.8857 529.827 Q32.0339 530.243 30.0895 531.123 L30.0895 513.762 Z" fill="#000000" fill-rule="evenodd" fill-opacity="1" /><path clip-path="url(#clip010)" d="M 0 0 M-5.88257 291.303 L1.75628 291.303 L1.75628 264.937 L-6.55386 266.604 L-6.55386 262.345 L1.70998 260.678 L6.38588 260.678 L6.38588 291.303 L14.0247 291.303 L14.0247 295.238 L-5.88257 295.238 L-5.88257 291.303 Z" fill="#000000" fill-rule="evenodd" fill-opacity="1" /><path clip-path="url(#clip010)" d="M 0 0 M19.0941 289.358 L23.9784 289.358 L23.9784 295.238 L19.0941 295.238 L19.0941 289.358 Z" fill="#000000" fill-rule="evenodd" fill-opacity="1" /><path clip-path="url(#clip010)" d="M 0 0 M39.0477 263.757 Q35.4367 263.757 33.608 267.321 Q31.8024 270.863 31.8024 277.993 Q31.8024 285.099 33.608 288.664 Q35.4367 292.206 39.0477 292.206 Q42.682 292.206 44.4875 288.664 Q46.3162 285.099 46.3162 277.993 Q46.3162 270.863 44.4875 267.321 Q42.682 263.757 39.0477 263.757 M39.0477 260.053 Q44.8579 260.053 47.9134 264.659 Q50.9921 269.243 50.9921 277.993 Q50.9921 286.719 47.9134 291.326 Q44.8579 295.909 39.0477 295.909 Q33.2376 295.909 30.1589 291.326 Q27.1034 286.719 27.1034 277.993 Q27.1034 269.243 30.1589 264.659 Q33.2376 260.053 39.0477 260.053 Z" fill="#000000" fill-rule="evenodd" fill-opacity="1" /><polyline clip-path="url(#clip012)" style="stroke:#008000; stroke-width:8; stroke-opacity:1; fill:none" points="
  1113,809.434 1754.25,809.434 
  "/>
<circle clip-path="url(#clip012)" cx="1433.63" cy="809.434" r="18" fill="#000000" fill-rule="evenodd" fill-opacity="1" stroke="none"/>
<polyline clip-path="url(#clip012)" style="stroke:#000000; stroke-width:4; stroke-opacity:1; fill:none" stroke-dasharray="16, 10" points="
  1433.63,809.434 1433.63,386.583 
  "/>
<polyline clip-path="url(#clip012)" style="stroke:#808080; stroke-width:4; stroke-opacity:0.5; fill:none" points="
  216.496,758.818 1433.63,386.583 
  "/>
<polyline clip-path="url(#clip012)" style="stroke:#808080; stroke-width:4; stroke-opacity:0.5; fill:none" points="
  288.772,758.818 1433.63,386.583 
  "/>
<polyline clip-path="url(#clip012)" style="stroke:#808080; stroke-width:4; stroke-opacity:0.5; fill:none" points="
  352.946,758.818 1433.63,386.583 
  "/>
<polyline clip-path="url(#clip012)" style="stroke:#808080; stroke-width:4; stroke-opacity:0.5; fill:none" points="
  410.307,758.818 1433.63,386.583 
  "/>
<polyline clip-path="url(#clip012)" style="stroke:#808080; stroke-width:4; stroke-opacity:0.5; fill:none" points="
  461.885,758.818 1433.63,386.583 
  "/>
<polyline clip-path="url(#clip012)" style="stroke:#808080; stroke-width:4; stroke-opacity:0.5; fill:none" points="
  508.514,758.818 1433.63,386.583 
  "/>
<polyline clip-path="url(#clip012)" style="stroke:#808080; stroke-width:4; stroke-opacity:0.5; fill:none" points="
  550.872,758.818 1433.63,386.583 
  "/>
<polyline clip-path="url(#clip012)" style="stroke:#808080; stroke-width:4; stroke-opacity:0.5; fill:none" points="
  589.522,758.818 1433.63,386.583 
  "/>
<polyline clip-path="url(#clip012)" style="stroke:#808080; stroke-width:4; stroke-opacity:0.5; fill:none" points="
  624.929,758.818 1433.63,386.583 
  "/>
<polyline clip-path="url(#clip012)" style="stroke:#808080; stroke-width:4; stroke-opacity:0.5; fill:none" points="
  657.485,758.818 1433.63,386.583 
  "/>
<polyline clip-path="url(#clip012)" style="stroke:#808080; stroke-width:4; stroke-opacity:0.5; fill:none" points="
  687.521,758.818 1433.63,386.583 
  "/>
<polyline clip-path="url(#clip012)" style="stroke:#808080; stroke-width:4; stroke-opacity:0.5; fill:none" points="
  715.32,758.818 1433.63,386.583 
  "/>
<polyline clip-path="url(#clip012)" style="stroke:#808080; stroke-width:4; stroke-opacity:0.5; fill:none" points="
  741.121,758.818 1433.63,386.583 
  "/>
<polyline clip-path="url(#clip012)" style="stroke:#808080; stroke-width:4; stroke-opacity:0.5; fill:none" points="
  765.133,758.818 1433.63,386.583 
  "/>
<polyline clip-path="url(#clip012)" style="stroke:#808080; stroke-width:4; stroke-opacity:0.5; fill:none" points="
  787.535,758.818 1433.63,386.583 
  "/>
<polyline clip-path="url(#clip012)" style="stroke:#808080; stroke-width:4; stroke-opacity:0.5; fill:none" points="
  808.485,758.818 1433.63,386.583 
  "/>
<polyline clip-path="url(#clip012)" style="stroke:#808080; stroke-width:4; stroke-opacity:0.5; fill:none" points="
  828.119,758.818 1433.63,386.583 
  "/>
<polyline clip-path="url(#clip012)" style="stroke:#808080; stroke-width:4; stroke-opacity:0.5; fill:none" points="
  846.557,758.818 1433.63,386.583 
  "/>
<polyline clip-path="url(#clip012)" style="stroke:#808080; stroke-width:4; stroke-opacity:0.5; fill:none" points="
  863.905,758.818 1433.63,386.583 
  "/>
<polyline clip-path="url(#clip012)" style="stroke:#808080; stroke-width:4; stroke-opacity:0.5; fill:none" points="
  880.258,758.818 1433.63,386.583 
  "/>
<polyline clip-path="url(#clip012)" style="stroke:#808080; stroke-width:4; stroke-opacity:0.5; fill:none" points="
  895.698,758.818 1433.63,386.583 
  "/>
<polyline clip-path="url(#clip012)" style="stroke:#808080; stroke-width:4; stroke-opacity:0.5; fill:none" points="
  910.299,758.818 1433.63,386.583 
  "/>
<polyline clip-path="url(#clip012)" style="stroke:#808080; stroke-width:4; stroke-opacity:0.5; fill:none" points="
  924.129,758.818 1433.63,386.583 
  "/>
<polyline clip-path="url(#clip012)" style="stroke:#808080; stroke-width:4; stroke-opacity:0.5; fill:none" points="
  937.247,758.818 1433.63,386.583 
  "/>
<polyline clip-path="url(#clip012)" style="stroke:#808080; stroke-width:4; stroke-opacity:0.5; fill:none" points="
  949.707,758.818 1433.63,386.583 
  "/>
<polyline clip-path="url(#clip012)" style="stroke:#808080; stroke-width:4; stroke-opacity:0.5; fill:none" points="
  961.556,758.818 1433.63,386.583 
  "/>
<polyline clip-path="url(#clip012)" style="stroke:#808080; stroke-width:4; stroke-opacity:0.5; fill:none" points="
  972.838,758.818 1433.63,386.583 
  "/>
<polyline clip-path="url(#clip012)" style="stroke:#808080; stroke-width:4; stroke-opacity:0.5; fill:none" points="
  983.594,758.818 1433.63,386.583 
  "/>
<polyline clip-path="url(#clip012)" style="stroke:#808080; stroke-width:4; stroke-opacity:0.5; fill:none" points="
  993.86,758.818 1433.63,386.583 
  "/>
<polyline clip-path="url(#clip012)" style="stroke:#808080; stroke-width:4; stroke-opacity:0.5; fill:none" points="
  1003.67,758.818 1433.63,386.583 
  "/>
<polyline clip-path="url(#clip012)" style="stroke:#808080; stroke-width:4; stroke-opacity:0.5; fill:none" points="
  1013.05,758.818 1433.63,386.583 
  "/>
<polyline clip-path="url(#clip012)" style="stroke:#808080; stroke-width:4; stroke-opacity:0.5; fill:none" points="
  1022.03,758.818 1433.63,386.583 
  "/>
<polyline clip-path="url(#clip012)" style="stroke:#808080; stroke-width:4; stroke-opacity:0.5; fill:none" points="
  1030.63,758.818 1433.63,386.583 
  "/>
<polyline clip-path="url(#clip012)" style="stroke:#808080; stroke-width:4; stroke-opacity:0.5; fill:none" points="
  1038.88,758.818 1433.63,386.583 
  "/>
<polyline clip-path="url(#clip012)" style="stroke:#808080; stroke-width:4; stroke-opacity:0.5; fill:none" points="
  1046.8,758.818 1433.63,386.583 
  "/>
<polyline clip-path="url(#clip012)" style="stroke:#808080; stroke-width:4; stroke-opacity:0.5; fill:none" points="
  1054.41,758.818 1433.63,386.583 
  "/>
<polyline clip-path="url(#clip012)" style="stroke:#808080; stroke-width:4; stroke-opacity:0.5; fill:none" points="
  1061.72,758.818 1433.63,386.583 
  "/>
<polyline clip-path="url(#clip012)" style="stroke:#808080; stroke-width:4; stroke-opacity:0.5; fill:none" points="
  1068.76,758.818 1433.63,386.583 
  "/>
<polyline clip-path="url(#clip012)" style="stroke:#808080; stroke-width:4; stroke-opacity:0.5; fill:none" points="
  1075.54,758.818 1433.63,386.583 
  "/>
<polyline clip-path="url(#clip012)" style="stroke:#808080; stroke-width:4; stroke-opacity:0.5; fill:none" points="
  1082.07,758.818 1433.63,386.583 
  "/>
<polyline clip-path="url(#clip012)" style="stroke:#808080; stroke-width:4; stroke-opacity:0.5; fill:none" points="
  1088.37,758.818 1433.63,386.583 
  "/>
<polyline clip-path="url(#clip012)" style="stroke:#808080; stroke-width:4; stroke-opacity:0.5; fill:none" points="
  1094.44,758.818 1433.63,386.583 
  "/>
<polyline clip-path="url(#clip012)" style="stroke:#808080; stroke-width:4; stroke-opacity:0.5; fill:none" points="
  1100.3,758.818 1433.63,386.583 
  "/>
<polyline clip-path="url(#clip012)" style="stroke:#808080; stroke-width:4; stroke-opacity:0.5; fill:none" points="
  1105.97,758.818 1433.63,386.583 
  "/>
<polyline clip-path="url(#clip012)" style="stroke:#808080; stroke-width:4; stroke-opacity:0.5; fill:none" points="
  1111.44,758.818 1433.63,386.583 
  "/>
<polyline clip-path="url(#clip012)" style="stroke:#808080; stroke-width:4; stroke-opacity:0.5; fill:none" points="
  1116.74,758.818 1433.63,386.583 
  "/>
<polyline clip-path="url(#clip012)" style="stroke:#808080; stroke-width:4; stroke-opacity:0.5; fill:none" points="
  1121.86,758.818 1433.63,386.583 
  "/>
<polyline clip-path="url(#clip012)" style="stroke:#808080; stroke-width:4; stroke-opacity:0.5; fill:none" points="
  1126.83,758.818 1433.63,386.583 
  "/>
<polyline clip-path="url(#clip012)" style="stroke:#808080; stroke-width:4; stroke-opacity:0.5; fill:none" points="
  1131.63,758.818 1433.63,386.583 
  "/>
<polyline clip-path="url(#clip012)" style="stroke:#808080; stroke-width:4; stroke-opacity:0.5; fill:none" points="
  1136.29,758.818 1433.63,386.583 
  "/>
<polyline clip-path="url(#clip012)" style="stroke:#808080; stroke-width:4; stroke-opacity:0.5; fill:none" points="
  1140.8,758.818 1433.63,386.583 
  "/>
<polyline clip-path="url(#clip012)" style="stroke:#808080; stroke-width:4; stroke-opacity:0.5; fill:none" points="
  1145.19,758.818 1433.63,386.583 
  "/>
<polyline clip-path="url(#clip012)" style="stroke:#808080; stroke-width:4; stroke-opacity:0.5; fill:none" points="
  1149.44,758.818 1433.63,386.583 
  "/>
<polyline clip-path="url(#clip012)" style="stroke:#808080; stroke-width:4; stroke-opacity:0.5; fill:none" points="
  1153.57,758.818 1433.63,386.583 
  "/>
<polyline clip-path="url(#clip012)" style="stroke:#808080; stroke-width:4; stroke-opacity:0.5; fill:none" points="
  1157.58,758.818 1433.63,386.583 
  "/>
<polyline clip-path="url(#clip012)" style="stroke:#808080; stroke-width:4; stroke-opacity:0.5; fill:none" points="
  1161.47,758.818 1433.63,386.583 
  "/>
<polyline clip-path="url(#clip012)" style="stroke:#808080; stroke-width:4; stroke-opacity:0.5; fill:none" points="
  1165.26,758.818 1433.63,386.583 
  "/>
<polyline clip-path="url(#clip012)" style="stroke:#808080; stroke-width:4; stroke-opacity:0.5; fill:none" points="
  1168.94,758.818 1433.63,386.583 
  "/>
<polyline clip-path="url(#clip012)" style="stroke:#808080; stroke-width:4; stroke-opacity:0.5; fill:none" points="
  1172.53,758.818 1433.63,386.583 
  "/>
<polyline clip-path="url(#clip012)" style="stroke:#808080; stroke-width:4; stroke-opacity:0.5; fill:none" points="
  1176.02,758.818 1433.63,386.583 
  "/>
<polyline clip-path="url(#clip012)" style="stroke:#808080; stroke-width:4; stroke-opacity:0.5; fill:none" points="
  1179.41,758.818 1433.63,386.583 
  "/>
<polyline clip-path="url(#clip012)" style="stroke:#808080; stroke-width:4; stroke-opacity:0.5; fill:none" points="
  1182.72,758.818 1433.63,386.583 
  "/>
<polyline clip-path="url(#clip012)" style="stroke:#808080; stroke-width:4; stroke-opacity:0.5; fill:none" points="
  1185.95,758.818 1433.63,386.583 
  "/>
<polyline clip-path="url(#clip012)" style="stroke:#808080; stroke-width:4; stroke-opacity:0.5; fill:none" points="
  1189.09,758.818 1433.63,386.583 
  "/>
<polyline clip-path="url(#clip012)" style="stroke:#808080; stroke-width:4; stroke-opacity:0.5; fill:none" points="
  1192.15,758.818 1433.63,386.583 
  "/>
<polyline clip-path="url(#clip012)" style="stroke:#808080; stroke-width:4; stroke-opacity:0.5; fill:none" points="
  1195.14,758.818 1433.63,386.583 
  "/>
<polyline clip-path="url(#clip012)" style="stroke:#808080; stroke-width:4; stroke-opacity:0.5; fill:none" points="
  1198.05,758.818 1433.63,386.583 
  "/>
<polyline clip-path="url(#clip012)" style="stroke:#808080; stroke-width:4; stroke-opacity:0.5; fill:none" points="
  1200.9,758.818 1433.63,386.583 
  "/>
<polyline clip-path="url(#clip012)" style="stroke:#808080; stroke-width:4; stroke-opacity:0.5; fill:none" points="
  1203.67,758.818 1433.63,386.583 
  "/>
<polyline clip-path="url(#clip012)" style="stroke:#808080; stroke-width:4; stroke-opacity:0.5; fill:none" points="
  1206.38,758.818 1433.63,386.583 
  "/>
<polyline clip-path="url(#clip012)" style="stroke:#808080; stroke-width:4; stroke-opacity:0.5; fill:none" points="
  1209.03,758.818 1433.63,386.583 
  "/>
<polyline clip-path="url(#clip012)" style="stroke:#808080; stroke-width:4; stroke-opacity:0.5; fill:none" points="
  1211.62,758.818 1433.63,386.583 
  "/>
<polyline clip-path="url(#clip012)" style="stroke:#808080; stroke-width:4; stroke-opacity:0.5; fill:none" points="
  1214.14,758.818 1433.63,386.583 
  "/>
<polyline clip-path="url(#clip012)" style="stroke:#808080; stroke-width:4; stroke-opacity:0.5; fill:none" points="
  1216.61,758.818 1433.63,386.583 
  "/>
<polyline clip-path="url(#clip012)" style="stroke:#808080; stroke-width:4; stroke-opacity:0.5; fill:none" points="
  1219.03,758.818 1433.63,386.583 
  "/>
<polyline clip-path="url(#clip012)" style="stroke:#808080; stroke-width:4; stroke-opacity:0.5; fill:none" points="
  1221.39,758.818 1433.63,386.583 
  "/>
<polyline clip-path="url(#clip012)" style="stroke:#808080; stroke-width:4; stroke-opacity:0.5; fill:none" points="
  1223.7,758.818 1433.63,386.583 
  "/>
<polyline clip-path="url(#clip012)" style="stroke:#808080; stroke-width:4; stroke-opacity:0.5; fill:none" points="
  1225.96,758.818 1433.63,386.583 
  "/>
<polyline clip-path="url(#clip012)" style="stroke:#808080; stroke-width:4; stroke-opacity:0.5; fill:none" points="
  1228.18,758.818 1433.63,386.583 
  "/>
<polyline clip-path="url(#clip012)" style="stroke:#808080; stroke-width:4; stroke-opacity:0.5; fill:none" points="
  1230.34,758.818 1433.63,386.583 
  "/>
<polyline clip-path="url(#clip012)" style="stroke:#808080; stroke-width:4; stroke-opacity:0.5; fill:none" points="
  1232.46,758.818 1433.63,386.583 
  "/>
<polyline clip-path="url(#clip012)" style="stroke:#808080; stroke-width:4; stroke-opacity:0.5; fill:none" points="
  1234.54,758.818 1433.63,386.583 
  "/>
<polyline clip-path="url(#clip012)" style="stroke:#808080; stroke-width:4; stroke-opacity:0.5; fill:none" points="
  1236.58,758.818 1433.63,386.583 
  "/>
<polyline clip-path="url(#clip012)" style="stroke:#808080; stroke-width:4; stroke-opacity:0.5; fill:none" points="
  1238.57,758.818 1433.63,386.583 
  "/>
<polyline clip-path="url(#clip012)" style="stroke:#808080; stroke-width:4; stroke-opacity:0.5; fill:none" points="
  1240.52,758.818 1433.63,386.583 
  "/>
<polyline clip-path="url(#clip012)" style="stroke:#808080; stroke-width:4; stroke-opacity:0.5; fill:none" points="
  1242.44,758.818 1433.63,386.583 
  "/>
<polyline clip-path="url(#clip012)" style="stroke:#808080; stroke-width:4; stroke-opacity:0.5; fill:none" points="
  1244.32,758.818 1433.63,386.583 
  "/>
<polyline clip-path="url(#clip012)" style="stroke:#808080; stroke-width:4; stroke-opacity:0.5; fill:none" points="
  1246.16,758.818 1433.63,386.583 
  "/>
<polyline clip-path="url(#clip012)" style="stroke:#808080; stroke-width:4; stroke-opacity:0.5; fill:none" points="
  1247.96,758.818 1433.63,386.583 
  "/>
<polyline clip-path="url(#clip012)" style="stroke:#808080; stroke-width:4; stroke-opacity:0.5; fill:none" points="
  1249.73,758.818 1433.63,386.583 
  "/>
<polyline clip-path="url(#clip012)" style="stroke:#808080; stroke-width:4; stroke-opacity:0.5; fill:none" points="
  1251.47,758.818 1433.63,386.583 
  "/>
<polyline clip-path="url(#clip012)" style="stroke:#808080; stroke-width:4; stroke-opacity:0.5; fill:none" points="
  1253.17,758.818 1433.63,386.583 
  "/>
<polyline clip-path="url(#clip012)" style="stroke:#808080; stroke-width:4; stroke-opacity:0.5; fill:none" points="
  1254.85,758.818 1433.63,386.583 
  "/>
<polyline clip-path="url(#clip012)" style="stroke:#808080; stroke-width:4; stroke-opacity:0.5; fill:none" points="
  1256.49,758.818 1433.63,386.583 
  "/>
<polyline clip-path="url(#clip012)" style="stroke:#808080; stroke-width:4; stroke-opacity:0.5; fill:none" points="
  1258.1,758.818 1433.63,386.583 
  "/>
<polyline clip-path="url(#clip012)" style="stroke:#808080; stroke-width:4; stroke-opacity:0.5; fill:none" points="
  1259.69,758.818 1433.63,386.583 
  "/>
<polyline clip-path="url(#clip012)" style="stroke:#808080; stroke-width:4; stroke-opacity:0.5; fill:none" points="
  1261.24,758.818 1433.63,386.583 
  "/>
<polyline clip-path="url(#clip012)" style="stroke:#808080; stroke-width:4; stroke-opacity:0.5; fill:none" points="
  1262.77,758.818 1433.63,386.583 
  "/>
<polyline clip-path="url(#clip012)" style="stroke:#808080; stroke-width:4; stroke-opacity:0.5; fill:none" points="
  1264.27,758.818 1433.63,386.583 
  "/>
<polyline clip-path="url(#clip012)" style="stroke:#808080; stroke-width:4; stroke-opacity:0.5; fill:none" points="
  1265.75,758.818 1433.63,386.583 
  "/>
<polyline clip-path="url(#clip012)" style="stroke:#0000ff; stroke-width:8; stroke-opacity:1; fill:none" points="
  216.496,758.818 1265.75,758.818 
  "/>
<polyline clip-path="url(#clip012)" style="stroke:#000000; stroke-width:12; stroke-opacity:1; fill:none" points="
  1113,784.126 1265.75,784.126 
  "/>
<polyline clip-path="url(#clip012)" style="stroke:#ff0000; stroke-width:4; stroke-opacity:1; fill:none" points="
  151.118,1479.3 171.992,1477.36 365.008,1455.19 481.002,1436.67 579.074,1416.25 685.607,1386.58 783.821,1348.51 836.469,1321.78 889.117,1288.81 950.115,1240.04 
  1011.11,1175.69 1038.22,1140.67 1065.32,1101 1092.42,1056.27 1119.53,1006.29 1167.06,906.726 1214.6,796.614 1266.43,675.586 1318.25,565.795 1344.32,517.262 
  1370.39,473.59 1396.45,434.641 1422.52,400.078 1480.16,337.051 1537.8,288.645 1592.65,252.569 1647.49,223.669 1761.54,179.286 1857.55,152.751 1974.76,128.708 
  2084.94,111.653 2261.46,91.4906 2288.63,88.9544 
  "/>
<path clip-path="url(#clip010)" d="
M1725.89 1471.88 L2277.23 1471.88 L2277.23 1018.28 L1725.89 1018.28  Z
  " fill="#ffffff" fill-rule="evenodd" fill-opacity="1"/>
<polyline clip-path="url(#clip010)" style="stroke:#000000; stroke-width:4; stroke-opacity:1; fill:none" points="
  1725.89,1471.88 2277.23,1471.88 2277.23,1018.28 1725.89,1018.28 1725.89,1471.88 
  "/>
<polyline clip-path="url(#clip010)" style="stroke:#008000; stroke-width:6; stroke-opacity:1; fill:none" points="
  1751.07,1109 1902.12,1109 
  "/>
<path clip-path="url(#clip010)" d="M 0 0 M1986.6 1084.91 Q1986.6 1085.54 1986.35 1085.89 Q1986.14 1086.21 1985.9 1086.28 Q1985.65 1086.31 1985.02 1086.35 Q1979.99 1086.59 1975.88 1090 Q1974.86 1090.88 1972.3 1093.62 Q1969.77 1096.36 1966.4 1100.02 Q1963.06 1103.67 1961.13 1105.64 L1970.4 1127.84 Q1970.79 1128.72 1970.93 1129.11 Q1971.1 1129.46 1971.46 1129.91 Q1971.84 1130.37 1972.12 1130.51 Q1972.44 1130.65 1973.11 1130.83 Q1973.81 1130.97 1974.51 1131 Q1975.25 1131 1976.59 1131.04 Q1977.01 1131.04 1977.18 1131.07 Q1977.39 1131.07 1977.64 1131.28 Q1977.89 1131.46 1977.89 1131.88 Q1977.89 1132.51 1977.6 1132.87 Q1977.36 1133.18 1977.11 1133.22 Q1976.9 1133.25 1976.52 1133.25 Q1975.6 1133.25 1972.51 1133.15 Q1969.42 1133.04 1968.54 1133.04 L1959.48 1133.25 Q1958.39 1133.25 1958.39 1132.37 Q1958.39 1131.92 1958.46 1131.67 Q1958.56 1131.39 1958.81 1131.28 Q1959.05 1131.14 1959.23 1131.11 Q1959.41 1131.07 1959.83 1131.04 Q1961.13 1130.9 1962.11 1130.51 Q1963.13 1130.09 1963.55 1129.67 Q1964.01 1129.25 1964.01 1128.93 L1963.66 1127.91 L1956.38 1110.73 L1949.88 1117.79 L1942.54 1125.56 Q1940.61 1127.63 1940.61 1128.79 Q1940.61 1130.72 1943.49 1131.04 Q1944.37 1131.11 1944.37 1131.81 Q1944.37 1132.48 1944.09 1132.83 Q1943.84 1133.15 1943.6 1133.22 Q1943.38 1133.25 1943.07 1133.25 Q1941.77 1133.25 1939.03 1133.15 Q1936.32 1133.04 1934.99 1133.04 Q1933.86 1133.04 1931.58 1133.15 Q1929.3 1133.25 1928.24 1133.25 Q1927.82 1133.25 1927.57 1133.04 Q1927.33 1132.83 1927.33 1132.62 L1927.29 1132.44 Q1927.29 1131.95 1927.36 1131.67 Q1927.47 1131.39 1927.75 1131.25 Q1928.07 1131.11 1928.21 1131.11 Q1928.35 1131.07 1928.87 1131.04 Q1931.86 1130.86 1934.39 1129.7 Q1936.95 1128.54 1939.45 1125.84 Q1939.66 1125.66 1939.91 1125.45 Q1940.19 1125.24 1940.4 1125.07 L1955.58 1108.73 L1947.07 1088.63 Q1946.69 1087.72 1946.34 1087.33 Q1945.98 1086.91 1944.9 1086.63 Q1943.81 1086.35 1941.7 1086.35 Q1941.1 1086.35 1940.82 1086.31 Q1940.54 1086.28 1940.29 1086.1 Q1940.05 1085.93 1940.05 1085.54 Q1940.05 1084.87 1940.29 1084.56 Q1940.57 1084.21 1940.78 1084.17 Q1941.03 1084.1 1941.35 1084.1 Q1942.22 1084.1 1945.35 1084.21 Q1948.48 1084.31 1949.39 1084.31 Q1950.9 1084.31 1953.92 1084.21 Q1956.98 1084.1 1958.46 1084.1 Q1959.55 1084.1 1959.55 1084.98 Q1959.55 1085.54 1959.3 1085.86 Q1959.05 1086.17 1958.81 1086.24 Q1958.56 1086.31 1958.11 1086.35 Q1956.74 1086.49 1955.68 1086.95 Q1954.66 1087.37 1954.24 1087.79 Q1953.85 1088.18 1953.85 1088.42 L1954.21 1089.37 L1960.25 1103.67 L1971.91 1091.16 Q1973.28 1089.62 1973.28 1088.56 Q1973.28 1086.67 1970.4 1086.35 Q1969.52 1086.21 1969.52 1085.54 Q1969.52 1084.87 1969.8 1084.56 Q1970.09 1084.21 1970.3 1084.17 Q1970.54 1084.1 1970.89 1084.1 Q1972.19 1084.1 1974.86 1084.21 Q1977.57 1084.31 1978.9 1084.31 Q1980.03 1084.31 1982.31 1084.21 Q1984.6 1084.1 1985.65 1084.1 Q1986.07 1084.1 1986.32 1084.31 Q1986.56 1084.49 1986.56 1084.7 L1986.6 1084.91 Z" fill="#000000" fill-rule="evenodd" fill-opacity="1" /><polyline clip-path="url(#clip010)" style="stroke:#0000ff; stroke-width:6; stroke-opacity:1; fill:none" points="
  1751.07,1199.72 1902.12,1199.72 
  "/>
<path clip-path="url(#clip010)" d="M 0 0 M1987.86 1169.13 Q1987.86 1170.57 1986.63 1170.57 Q1982.66 1170.71 1981.05 1172.04 Q1979.47 1173.34 1978.87 1175.87 L1968.82 1215.96 Q1968.47 1217.23 1968.26 1217.37 Q1968.05 1217.47 1967.66 1217.47 Q1967.17 1217.47 1966.89 1217.23 Q1966.64 1216.98 1966.29 1216.1 L1948.37 1173.73 Q1948.23 1173.45 1948.06 1173.06 Q1947.88 1172.68 1947.74 1172.43 L1938.22 1210.41 Q1937.94 1211.5 1937.94 1212.06 Q1937.94 1213.43 1938.89 1214.31 Q1939.87 1215.15 1942.68 1215.26 Q1944.12 1215.26 1944.12 1216.03 Q1944.12 1217.47 1942.82 1217.47 Q1941.63 1217.47 1939.13 1217.37 Q1936.64 1217.26 1935.41 1217.26 Q1934.21 1217.26 1931.79 1217.37 Q1929.37 1217.47 1928.21 1217.47 Q1927.29 1217.47 1927.29 1216.66 Q1927.29 1216.03 1927.54 1215.72 Q1927.79 1215.36 1928 1215.33 Q1928.21 1215.26 1928.52 1215.26 Q1930.63 1215.19 1932.07 1214.77 Q1933.51 1214.35 1934.32 1213.54 Q1935.16 1212.73 1935.55 1211.92 Q1935.97 1211.08 1936.29 1209.85 L1945.91 1171.2 Q1945.91 1170.57 1941.03 1170.57 Q1940.19 1170.57 1939.84 1170.53 Q1939.52 1170.5 1939.27 1170.32 Q1939.03 1170.15 1939.03 1169.76 Q1939.03 1168.78 1939.45 1168.57 Q1939.87 1168.32 1941.1 1168.32 L1950.76 1168.32 Q1951.99 1168.32 1952.31 1168.53 Q1952.62 1168.71 1953.05 1169.69 L1968.96 1207.25 L1977.01 1175.24 Q1977.22 1174.61 1977.22 1173.73 Q1977.22 1172.33 1976.16 1171.48 Q1975.15 1170.6 1972.33 1170.57 Q1971.03 1170.57 1971.03 1169.76 Q1971.03 1169.09 1971.28 1168.78 Q1971.56 1168.43 1971.77 1168.39 Q1972.02 1168.32 1972.33 1168.32 Q1973.53 1168.32 1975.99 1168.43 Q1978.45 1168.53 1979.68 1168.53 Q1980.87 1168.53 1983.3 1168.43 Q1985.76 1168.32 1986.95 1168.32 Q1987.37 1168.32 1987.58 1168.53 Q1987.83 1168.71 1987.86 1168.92 L1987.86 1169.13 Z" fill="#000000" fill-rule="evenodd" fill-opacity="1" /><path clip-path="url(#clip010)" d="M 0 0 M1984.49 1199.48 Q1984.49 1187.33 1989.02 1177.53 Q1990.95 1173.41 1993.66 1169.97 Q1996.36 1166.53 1998.16 1165.02 Q1999.95 1163.51 2000.44 1163.51 Q2001.14 1163.51 2001.18 1164.21 Q2001.18 1164.56 2000.23 1165.44 Q1988.63 1177.24 1988.67 1199.48 Q1988.67 1221.79 1999.95 1233.14 Q2001.18 1234.37 2001.18 1234.76 Q2001.18 1235.46 2000.44 1235.46 Q1999.95 1235.46 1998.23 1234.02 Q1996.5 1232.58 1993.83 1229.28 Q1991.16 1225.97 1989.23 1221.93 Q1984.49 1212.13 1984.49 1199.48 Z" fill="#000000" fill-rule="evenodd" fill-opacity="1" /><path clip-path="url(#clip010)" d="M 0 0 M2071.42 1169.13 Q2071.42 1169.76 2071.17 1170.11 Q2070.96 1170.43 2070.71 1170.5 Q2070.47 1170.53 2069.84 1170.57 Q2064.81 1170.81 2060.7 1174.22 Q2059.68 1175.1 2057.12 1177.84 Q2054.59 1180.58 2051.22 1184.24 Q2047.88 1187.89 2045.95 1189.86 L2055.22 1212.06 Q2055.61 1212.94 2055.75 1213.33 Q2055.92 1213.68 2056.27 1214.13 Q2056.66 1214.59 2056.94 1214.73 Q2057.26 1214.87 2057.93 1215.05 Q2058.63 1215.19 2059.33 1215.22 Q2060.07 1215.22 2061.4 1215.26 Q2061.83 1215.26 2062 1215.29 Q2062.21 1215.29 2062.46 1215.5 Q2062.7 1215.68 2062.7 1216.1 Q2062.7 1216.73 2062.42 1217.09 Q2062.18 1217.4 2061.93 1217.44 Q2061.72 1217.47 2061.33 1217.47 Q2060.42 1217.47 2057.33 1217.37 Q2054.24 1217.26 2053.36 1217.26 L2044.29 1217.47 Q2043.2 1217.47 2043.2 1216.59 Q2043.2 1216.14 2043.27 1215.89 Q2043.38 1215.61 2043.63 1215.5 Q2043.87 1215.36 2044.05 1215.33 Q2044.22 1215.29 2044.65 1215.26 Q2045.95 1215.12 2046.93 1214.73 Q2047.95 1214.31 2048.37 1213.89 Q2048.83 1213.47 2048.83 1213.15 L2048.47 1212.13 L2041.2 1194.95 L2034.7 1202.01 L2027.36 1209.78 Q2025.43 1211.85 2025.43 1213.01 Q2025.43 1214.94 2028.31 1215.26 Q2029.19 1215.33 2029.19 1216.03 Q2029.19 1216.7 2028.91 1217.05 Q2028.66 1217.37 2028.41 1217.44 Q2028.2 1217.47 2027.89 1217.47 Q2026.59 1217.47 2023.85 1217.37 Q2021.14 1217.26 2019.81 1217.26 Q2018.68 1217.26 2016.4 1217.37 Q2014.11 1217.47 2013.06 1217.47 Q2012.64 1217.47 2012.39 1217.26 Q2012.15 1217.05 2012.15 1216.84 L2012.11 1216.66 Q2012.11 1216.17 2012.18 1215.89 Q2012.29 1215.61 2012.57 1215.47 Q2012.88 1215.33 2013.02 1215.33 Q2013.17 1215.29 2013.69 1215.26 Q2016.68 1215.08 2019.21 1213.92 Q2021.77 1212.76 2024.27 1210.06 Q2024.48 1209.88 2024.72 1209.67 Q2025.01 1209.46 2025.22 1209.29 L2040.39 1192.95 L2031.89 1172.85 Q2031.51 1171.94 2031.15 1171.55 Q2030.8 1171.13 2029.71 1170.85 Q2028.62 1170.57 2026.52 1170.57 Q2025.92 1170.57 2025.64 1170.53 Q2025.36 1170.5 2025.11 1170.32 Q2024.86 1170.15 2024.86 1169.76 Q2024.86 1169.09 2025.11 1168.78 Q2025.39 1168.43 2025.6 1168.39 Q2025.85 1168.32 2026.16 1168.32 Q2027.04 1168.32 2030.17 1168.43 Q2033.3 1168.53 2034.21 1168.53 Q2035.72 1168.53 2038.74 1168.43 Q2041.8 1168.32 2043.27 1168.32 Q2044.36 1168.32 2044.36 1169.2 Q2044.36 1169.76 2044.12 1170.08 Q2043.87 1170.39 2043.63 1170.46 Q2043.38 1170.53 2042.92 1170.57 Q2041.55 1170.71 2040.5 1171.17 Q2039.48 1171.59 2039.06 1172.01 Q2038.67 1172.4 2038.67 1172.64 L2039.02 1173.59 L2045.07 1187.89 L2056.73 1175.38 Q2058.1 1173.84 2058.1 1172.78 Q2058.1 1170.89 2055.22 1170.57 Q2054.34 1170.43 2054.34 1169.76 Q2054.34 1169.09 2054.62 1168.78 Q2054.9 1168.43 2055.11 1168.39 Q2055.36 1168.32 2055.71 1168.32 Q2057.01 1168.32 2059.68 1168.43 Q2062.39 1168.53 2063.72 1168.53 Q2064.85 1168.53 2067.13 1168.43 Q2069.41 1168.32 2070.47 1168.32 Q2070.89 1168.32 2071.14 1168.53 Q2071.38 1168.71 2071.38 1168.92 L2071.42 1169.13 Z" fill="#000000" fill-rule="evenodd" fill-opacity="1" /><path clip-path="url(#clip010)" d="M 0 0 M2071.08 1234.76 Q2071.08 1234.41 2071.99 1233.53 Q2083.59 1221.72 2083.59 1199.48 Q2083.59 1177.17 2072.45 1165.9 Q2071.08 1164.6 2071.08 1164.21 Q2071.08 1163.51 2071.78 1163.51 Q2072.27 1163.51 2074 1164.95 Q2075.75 1166.39 2078.39 1169.69 Q2081.06 1172.99 2083.03 1177.03 Q2087.77 1186.84 2087.77 1199.48 Q2087.77 1211.64 2083.24 1221.44 Q2081.3 1225.55 2078.6 1229 Q2075.89 1232.44 2074.1 1233.95 Q2072.31 1235.46 2071.78 1235.46 Q2071.08 1235.46 2071.08 1234.76 Z" fill="#000000" fill-rule="evenodd" fill-opacity="1" /><polyline clip-path="url(#clip010)" style="stroke:#000000; stroke-width:6; stroke-opacity:1; fill:none" points="
  1751.07,1290.44 1902.12,1290.44 
  "/>
<path clip-path="url(#clip010)" d="M 0 0 M1987.86 1259.85 Q1987.86 1261.29 1986.63 1261.29 Q1982.66 1261.43 1981.05 1262.76 Q1979.47 1264.06 1978.87 1266.59 L1968.82 1306.68 Q1968.47 1307.95 1968.26 1308.09 Q1968.05 1308.19 1967.66 1308.19 Q1967.17 1308.19 1966.89 1307.95 Q1966.64 1307.7 1966.29 1306.82 L1948.37 1264.45 Q1948.23 1264.17 1948.06 1263.78 Q1947.88 1263.4 1947.74 1263.15 L1938.22 1301.13 Q1937.94 1302.22 1937.94 1302.78 Q1937.94 1304.15 1938.89 1305.03 Q1939.87 1305.87 1942.68 1305.98 Q1944.12 1305.98 1944.12 1306.75 Q1944.12 1308.19 1942.82 1308.19 Q1941.63 1308.19 1939.13 1308.09 Q1936.64 1307.98 1935.41 1307.98 Q1934.21 1307.98 1931.79 1308.09 Q1929.37 1308.19 1928.21 1308.19 Q1927.29 1308.19 1927.29 1307.38 Q1927.29 1306.75 1927.54 1306.44 Q1927.79 1306.08 1928 1306.05 Q1928.21 1305.98 1928.52 1305.98 Q1930.63 1305.91 1932.07 1305.49 Q1933.51 1305.07 1934.32 1304.26 Q1935.16 1303.45 1935.55 1302.64 Q1935.97 1301.8 1936.29 1300.57 L1945.91 1261.92 Q1945.91 1261.29 1941.03 1261.29 Q1940.19 1261.29 1939.84 1261.25 Q1939.52 1261.22 1939.27 1261.04 Q1939.03 1260.87 1939.03 1260.48 Q1939.03 1259.5 1939.45 1259.29 Q1939.87 1259.04 1941.1 1259.04 L1950.76 1259.04 Q1951.99 1259.04 1952.31 1259.25 Q1952.62 1259.43 1953.05 1260.41 L1968.96 1297.97 L1977.01 1265.96 Q1977.22 1265.33 1977.22 1264.45 Q1977.22 1263.05 1976.16 1262.2 Q1975.15 1261.32 1972.33 1261.29 Q1971.03 1261.29 1971.03 1260.48 Q1971.03 1259.81 1971.28 1259.5 Q1971.56 1259.15 1971.77 1259.11 Q1972.02 1259.04 1972.33 1259.04 Q1973.53 1259.04 1975.99 1259.15 Q1978.45 1259.25 1979.68 1259.25 Q1980.87 1259.25 1983.3 1259.15 Q1985.76 1259.04 1986.95 1259.04 Q1987.37 1259.04 1987.58 1259.25 Q1987.83 1259.43 1987.86 1259.64 L1987.86 1259.85 Z" fill="#000000" fill-rule="evenodd" fill-opacity="1" /><path clip-path="url(#clip010)" d="M 0 0 M1984.49 1290.2 Q1984.49 1278.05 1989.02 1268.25 Q1990.95 1264.13 1993.66 1260.69 Q1996.36 1257.25 1998.16 1255.74 Q1999.95 1254.23 2000.44 1254.23 Q2001.14 1254.23 2001.18 1254.93 Q2001.18 1255.28 2000.23 1256.16 Q1988.63 1267.96 1988.67 1290.2 Q1988.67 1312.51 1999.95 1323.86 Q2001.18 1325.09 2001.18 1325.48 Q2001.18 1326.18 2000.44 1326.18 Q1999.95 1326.18 1998.23 1324.74 Q1996.5 1323.3 1993.83 1320 Q1991.16 1316.69 1989.23 1312.65 Q1984.49 1302.85 1984.49 1290.2 Z" fill="#000000" fill-rule="evenodd" fill-opacity="1" /><path clip-path="url(#clip010)" d="M 0 0 M2047.95 1281.14 Q2047.95 1283.11 2046.72 1284.23 Q2045.49 1285.32 2044.08 1285.32 Q2042.75 1285.32 2042.05 1284.55 Q2041.34 1283.77 2041.34 1282.79 Q2041.34 1281.46 2042.33 1280.3 Q2043.31 1279.14 2044.79 1278.89 Q2043.35 1277.98 2041.2 1277.98 Q2039.8 1277.98 2038.57 1278.72 Q2037.37 1279.45 2036.63 1280.4 Q2035.93 1281.35 2035.3 1282.72 Q2034.7 1284.06 2034.46 1284.86 Q2034.25 1285.64 2034.07 1286.48 L2031.61 1296.32 Q2030.42 1300.99 2030.42 1302.64 Q2030.42 1304.68 2031.4 1306.05 Q2032.38 1307.38 2034.35 1307.38 Q2035.12 1307.38 2036 1307.17 Q2036.88 1306.93 2038 1306.3 Q2039.16 1305.63 2040.18 1304.64 Q2041.24 1303.63 2042.26 1301.9 Q2043.27 1300.18 2043.94 1297.97 Q2044.15 1297.2 2044.86 1297.2 Q2045.73 1297.2 2045.73 1297.9 Q2045.73 1298.5 2045.24 1299.76 Q2044.79 1300.99 2043.77 1302.61 Q2042.78 1304.19 2041.48 1305.63 Q2040.18 1307.03 2038.25 1308.02 Q2036.32 1309 2034.21 1309 Q2031.19 1309 2029.19 1307.38 Q2027.18 1305.77 2026.45 1303.52 Q2026.27 1303.84 2026.02 1304.26 Q2025.78 1304.68 2025.04 1305.63 Q2024.34 1306.54 2023.53 1307.24 Q2022.72 1307.91 2021.46 1308.44 Q2020.23 1309 2018.89 1309 Q2017.21 1309 2015.69 1308.51 Q2014.22 1308.02 2013.17 1306.89 Q2012.11 1305.77 2012.11 1304.22 Q2012.11 1302.5 2013.27 1301.31 Q2014.47 1300.08 2016.08 1300.08 Q2017.1 1300.08 2017.91 1300.67 Q2018.75 1301.27 2018.75 1302.57 Q2018.75 1304.01 2017.77 1305.1 Q2016.78 1306.19 2015.38 1306.47 Q2016.82 1307.38 2018.96 1307.38 Q2021.28 1307.38 2023.11 1305.35 Q2024.94 1303.31 2025.81 1299.9 Q2027.99 1291.71 2028.83 1288.06 Q2029.68 1284.37 2029.68 1282.79 Q2029.68 1281.32 2029.29 1280.3 Q2028.91 1279.28 2028.24 1278.82 Q2027.61 1278.33 2027.01 1278.15 Q2026.45 1277.98 2025.81 1277.98 Q2024.76 1277.98 2023.56 1278.4 Q2022.41 1278.82 2021 1279.8 Q2019.63 1280.75 2018.33 1282.72 Q2017.03 1284.69 2016.15 1287.39 Q2015.98 1288.2 2015.2 1288.2 Q2014.36 1288.17 2014.36 1287.46 Q2014.36 1286.87 2014.82 1285.64 Q2015.31 1284.37 2016.29 1282.79 Q2017.31 1281.21 2018.61 1279.8 Q2019.95 1278.36 2021.88 1277.38 Q2023.85 1276.4 2025.95 1276.4 Q2026.9 1276.4 2027.82 1276.61 Q2028.76 1276.78 2029.89 1277.31 Q2031.05 1277.84 2032.07 1279 Q2033.09 1280.16 2033.72 1281.84 Q2034.14 1281.03 2034.7 1280.26 Q2035.3 1279.49 2036.21 1278.54 Q2037.16 1277.56 2038.46 1276.99 Q2039.8 1276.4 2041.27 1276.4 Q2042.71 1276.4 2044.12 1276.78 Q2045.52 1277.13 2046.72 1278.29 Q2047.95 1279.42 2047.95 1281.14 Z" fill="#000000" fill-rule="evenodd" fill-opacity="1" /><path clip-path="url(#clip010)" d="M 0 0 M2052.85 1325.48 Q2052.85 1325.13 2053.76 1324.25 Q2065.36 1312.44 2065.36 1290.2 Q2065.36 1267.89 2054.22 1256.62 Q2052.85 1255.32 2052.85 1254.93 Q2052.85 1254.23 2053.55 1254.23 Q2054.04 1254.23 2055.77 1255.67 Q2057.52 1257.11 2060.16 1260.41 Q2062.83 1263.71 2064.8 1267.75 Q2069.54 1277.56 2069.54 1290.2 Q2069.54 1302.36 2065.01 1312.16 Q2063.07 1316.27 2060.37 1319.72 Q2057.66 1323.16 2055.87 1324.67 Q2054.08 1326.18 2053.55 1326.18 Q2052.85 1326.18 2052.85 1325.48 Z" fill="#000000" fill-rule="evenodd" fill-opacity="1" /><path clip-path="url(#clip010)" d="M 0 0 M2139.71 1308.19 Q2139.71 1308.79 2139.29 1309.21 Q2138.87 1309.63 2138.27 1309.63 Q2137.67 1309.63 2137.25 1309.21 Q2136.83 1308.79 2136.83 1308.19 L2136.83 1280.72 Q2136.83 1275.24 2131.91 1271.44 Q2126.99 1267.61 2120.07 1267.61 Q2113.15 1267.61 2108.23 1271.44 Q2103.31 1275.24 2103.31 1280.72 L2103.31 1308.19 Q2103.31 1308.79 2102.89 1309.21 Q2102.47 1309.63 2101.87 1309.63 Q2101.27 1309.63 2100.85 1309.21 Q2100.43 1308.79 2100.43 1308.19 L2100.43 1280.72 Q2100.43 1277.49 2101.98 1274.57 Q2103.52 1271.62 2106.12 1269.48 Q2108.76 1267.3 2112.41 1266.03 Q2116.07 1264.73 2120.07 1264.73 Q2124.08 1264.73 2127.73 1266.03 Q2131.38 1267.3 2133.98 1269.48 Q2136.62 1271.62 2138.16 1274.57 Q2139.71 1277.49 2139.71 1280.72 L2139.71 1308.19 Z" fill="#000000" fill-rule="evenodd" fill-opacity="1" /><path clip-path="url(#clip010)" d="M 0 0 M2227.22 1259.85 Q2227.22 1260.48 2226.97 1260.83 Q2226.76 1261.15 2226.51 1261.22 Q2226.27 1261.25 2225.64 1261.29 Q2220.61 1261.53 2216.5 1264.94 Q2215.48 1265.82 2212.92 1268.56 Q2210.39 1271.3 2207.01 1274.96 Q2203.68 1278.61 2201.74 1280.58 L2211.02 1302.78 Q2211.41 1303.66 2211.55 1304.05 Q2211.72 1304.4 2212.07 1304.85 Q2212.46 1305.31 2212.74 1305.45 Q2213.06 1305.59 2213.73 1305.77 Q2214.43 1305.91 2215.13 1305.94 Q2215.87 1305.94 2217.2 1305.98 Q2217.63 1305.98 2217.8 1306.01 Q2218.01 1306.01 2218.26 1306.22 Q2218.5 1306.4 2218.5 1306.82 Q2218.5 1307.45 2218.22 1307.81 Q2217.98 1308.12 2217.73 1308.16 Q2217.52 1308.19 2217.13 1308.19 Q2216.22 1308.19 2213.13 1308.09 Q2210.04 1307.98 2209.16 1307.98 L2200.09 1308.19 Q2199 1308.19 2199 1307.31 Q2199 1306.86 2199.07 1306.61 Q2199.18 1306.33 2199.43 1306.22 Q2199.67 1306.08 2199.85 1306.05 Q2200.02 1306.01 2200.44 1305.98 Q2201.74 1305.84 2202.73 1305.45 Q2203.75 1305.03 2204.17 1304.61 Q2204.63 1304.19 2204.63 1303.87 L2204.27 1302.85 L2197 1285.67 L2190.5 1292.73 L2183.16 1300.5 Q2181.23 1302.57 2181.23 1303.73 Q2181.23 1305.66 2184.11 1305.98 Q2184.99 1306.05 2184.99 1306.75 Q2184.99 1307.42 2184.7 1307.77 Q2184.46 1308.09 2184.21 1308.16 Q2184 1308.19 2183.69 1308.19 Q2182.39 1308.19 2179.65 1308.09 Q2176.94 1307.98 2175.61 1307.98 Q2174.48 1307.98 2172.2 1308.09 Q2169.91 1308.19 2168.86 1308.19 Q2168.44 1308.19 2168.19 1307.98 Q2167.95 1307.77 2167.95 1307.56 L2167.91 1307.38 Q2167.91 1306.89 2167.98 1306.61 Q2168.09 1306.33 2168.37 1306.19 Q2168.68 1306.05 2168.82 1306.05 Q2168.97 1306.01 2169.49 1305.98 Q2172.48 1305.8 2175.01 1304.64 Q2177.57 1303.48 2180.07 1300.78 Q2180.28 1300.6 2180.52 1300.39 Q2180.81 1300.18 2181.02 1300.01 L2196.19 1283.67 L2187.69 1263.57 Q2187.3 1262.66 2186.95 1262.27 Q2186.6 1261.85 2185.51 1261.57 Q2184.42 1261.29 2182.32 1261.29 Q2181.72 1261.29 2181.44 1261.25 Q2181.16 1261.22 2180.91 1261.04 Q2180.66 1260.87 2180.66 1260.48 Q2180.66 1259.81 2180.91 1259.5 Q2181.19 1259.15 2181.4 1259.11 Q2181.65 1259.04 2181.96 1259.04 Q2182.84 1259.04 2185.97 1259.15 Q2189.1 1259.25 2190.01 1259.25 Q2191.52 1259.25 2194.54 1259.15 Q2197.6 1259.04 2199.07 1259.04 Q2200.16 1259.04 2200.16 1259.92 Q2200.16 1260.48 2199.92 1260.8 Q2199.67 1261.11 2199.43 1261.18 Q2199.18 1261.25 2198.72 1261.29 Q2197.35 1261.43 2196.3 1261.89 Q2195.28 1262.31 2194.86 1262.73 Q2194.47 1263.12 2194.47 1263.36 L2194.82 1264.31 L2200.87 1278.61 L2212.53 1266.1 Q2213.9 1264.56 2213.9 1263.5 Q2213.9 1261.61 2211.02 1261.29 Q2210.14 1261.15 2210.14 1260.48 Q2210.14 1259.81 2210.42 1259.5 Q2210.7 1259.15 2210.91 1259.11 Q2211.16 1259.04 2211.51 1259.04 Q2212.81 1259.04 2215.48 1259.15 Q2218.19 1259.25 2219.52 1259.25 Q2220.65 1259.25 2222.93 1259.15 Q2225.21 1259.04 2226.27 1259.04 Q2226.69 1259.04 2226.94 1259.25 Q2227.18 1259.43 2227.18 1259.64 L2227.22 1259.85 Z" fill="#000000" fill-rule="evenodd" fill-opacity="1" /><polyline clip-path="url(#clip010)" style="stroke:#ff0000; stroke-width:6; stroke-opacity:1; fill:none" points="
  1751.07,1381.16 1902.12,1381.16 
  "/>
<path clip-path="url(#clip010)" d="M 0 0 M1963.16 1353.13 Q1963.16 1355.07 1961.93 1356.26 Q1960.74 1357.45 1959.23 1357.45 Q1958.14 1357.45 1957.33 1356.79 Q1956.56 1356.12 1956.56 1354.96 Q1956.56 1353.77 1957.47 1352.5 Q1958.39 1351.24 1960.46 1351.06 Q1959.09 1349.76 1956.91 1349.76 Q1955.82 1349.76 1954.91 1350.46 Q1954.03 1351.13 1953.54 1352.22 Q1953.01 1353.34 1951.82 1359.7 Q1951.43 1361.78 1951.08 1363.78 Q1950.73 1365.78 1950.31 1367.89 L1956.28 1367.89 Q1957.05 1367.89 1957.37 1367.92 Q1957.68 1367.96 1957.93 1368.14 Q1958.21 1368.31 1958.21 1368.7 Q1958.21 1369.68 1957.75 1369.93 Q1957.33 1370.14 1956.07 1370.14 L1949.88 1370.14 L1945.56 1392.94 Q1945.46 1393.61 1945 1395.72 Q1944.58 1397.79 1943.56 1401.2 Q1942.54 1404.64 1941.52 1406.68 Q1940.96 1407.84 1940.22 1408.93 Q1939.52 1410.05 1938.5 1411.17 Q1937.48 1412.3 1936.15 1412.97 Q1934.81 1413.67 1933.41 1413.67 Q1931.02 1413.67 1929.16 1412.33 Q1927.29 1411 1927.29 1408.71 Q1927.29 1406.78 1928.49 1405.59 Q1929.72 1404.39 1931.23 1404.39 Q1932.32 1404.39 1933.09 1405.06 Q1933.9 1405.73 1933.9 1406.89 Q1933.9 1407.38 1933.72 1407.94 Q1933.55 1408.5 1933.16 1409.14 Q1932.77 1409.8 1931.93 1410.26 Q1931.09 1410.72 1929.93 1410.79 Q1931.3 1412.09 1933.41 1412.09 Q1934.07 1412.09 1934.67 1411.81 Q1935.27 1411.56 1935.76 1410.93 Q1936.29 1410.3 1936.67 1409.66 Q1937.06 1409.07 1937.45 1407.91 Q1937.83 1406.78 1938.08 1405.94 Q1938.33 1405.1 1938.64 1403.59 Q1938.99 1402.07 1939.17 1401.16 Q1939.34 1400.28 1939.66 1398.56 L1945.04 1370.14 L1940.29 1370.14 Q1939.45 1370.14 1939.1 1370.1 Q1938.78 1370.07 1938.54 1369.89 Q1938.29 1369.68 1938.29 1369.26 Q1938.29 1368.59 1938.57 1368.31 Q1938.89 1367.99 1939.24 1367.96 Q1939.59 1367.89 1940.43 1367.89 L1945.42 1367.89 Q1947.11 1359 1947.78 1356.61 Q1948.55 1354.08 1949.74 1352.33 Q1950.94 1350.53 1952.27 1349.69 Q1953.61 1348.85 1954.7 1348.53 Q1955.82 1348.18 1956.91 1348.18 Q1959.37 1348.18 1961.27 1349.51 Q1963.16 1350.81 1963.16 1353.13 Z" fill="#000000" fill-rule="evenodd" fill-opacity="1" /><path clip-path="url(#clip010)" d="M 0 0 M1962.19 1380.92 Q1962.19 1368.77 1966.72 1358.97 Q1968.65 1354.85 1971.36 1351.41 Q1974.06 1347.97 1975.85 1346.46 Q1977.65 1344.95 1978.14 1344.95 Q1978.84 1344.95 1978.88 1345.65 Q1978.88 1346 1977.93 1346.88 Q1966.33 1358.68 1966.37 1380.92 Q1966.37 1403.23 1977.65 1414.58 Q1978.88 1415.81 1978.88 1416.2 Q1978.88 1416.9 1978.14 1416.9 Q1977.65 1416.9 1975.92 1415.46 Q1974.2 1414.02 1971.53 1410.72 Q1968.86 1407.41 1966.93 1403.37 Q1962.19 1393.57 1962.19 1380.92 Z" fill="#000000" fill-rule="evenodd" fill-opacity="1" /><path clip-path="url(#clip010)" d="M 0 0 M2025.65 1371.86 Q2025.65 1373.83 2024.42 1374.95 Q2023.19 1376.04 2021.78 1376.04 Q2020.45 1376.04 2019.74 1375.27 Q2019.04 1374.49 2019.04 1373.51 Q2019.04 1372.18 2020.03 1371.02 Q2021.01 1369.86 2022.49 1369.61 Q2021.04 1368.7 2018.9 1368.7 Q2017.5 1368.7 2016.27 1369.44 Q2015.07 1370.17 2014.33 1371.12 Q2013.63 1372.07 2013 1373.44 Q2012.4 1374.78 2012.16 1375.58 Q2011.95 1376.36 2011.77 1377.2 L2009.31 1387.04 Q2008.12 1391.71 2008.12 1393.36 Q2008.12 1395.4 2009.1 1396.77 Q2010.08 1398.1 2012.05 1398.1 Q2012.82 1398.1 2013.7 1397.89 Q2014.58 1397.65 2015.7 1397.02 Q2016.86 1396.35 2017.88 1395.36 Q2018.94 1394.35 2019.96 1392.62 Q2020.97 1390.9 2021.64 1388.69 Q2021.85 1387.92 2022.56 1387.92 Q2023.43 1387.92 2023.43 1388.62 Q2023.43 1389.22 2022.94 1390.48 Q2022.49 1391.71 2021.47 1393.33 Q2020.48 1394.91 2019.18 1396.35 Q2017.88 1397.75 2015.95 1398.74 Q2014.02 1399.72 2011.91 1399.72 Q2008.89 1399.72 2006.89 1398.1 Q2004.88 1396.49 2004.15 1394.24 Q2003.97 1394.56 2003.72 1394.98 Q2003.48 1395.4 2002.74 1396.35 Q2002.04 1397.26 2001.23 1397.96 Q2000.42 1398.63 1999.16 1399.16 Q1997.93 1399.72 1996.59 1399.72 Q1994.91 1399.72 1993.39 1399.23 Q1991.92 1398.74 1990.86 1397.61 Q1989.81 1396.49 1989.81 1394.94 Q1989.81 1393.22 1990.97 1392.03 Q1992.16 1390.8 1993.78 1390.8 Q1994.8 1390.8 1995.61 1391.39 Q1996.45 1391.99 1996.45 1393.29 Q1996.45 1394.73 1995.47 1395.82 Q1994.48 1396.91 1993.08 1397.19 Q1994.52 1398.1 1996.66 1398.1 Q1998.98 1398.1 2000.81 1396.07 Q2002.63 1394.03 2003.51 1390.62 Q2005.69 1382.43 2006.53 1378.78 Q2007.38 1375.09 2007.38 1373.51 Q2007.38 1372.04 2006.99 1371.02 Q2006.6 1370 2005.94 1369.54 Q2005.3 1369.05 2004.71 1368.87 Q2004.15 1368.7 2003.51 1368.7 Q2002.46 1368.7 2001.26 1369.12 Q2000.11 1369.54 1998.7 1370.52 Q1997.33 1371.47 1996.03 1373.44 Q1994.73 1375.41 1993.85 1378.11 Q1993.68 1378.92 1992.9 1378.92 Q1992.06 1378.89 1992.06 1378.18 Q1992.06 1377.59 1992.52 1376.36 Q1993.01 1375.09 1993.99 1373.51 Q1995.01 1371.93 1996.31 1370.52 Q1997.65 1369.08 1999.58 1368.1 Q2001.55 1367.12 2003.65 1367.12 Q2004.6 1367.12 2005.52 1367.33 Q2006.46 1367.5 2007.59 1368.03 Q2008.75 1368.56 2009.77 1369.72 Q2010.79 1370.88 2011.42 1372.56 Q2011.84 1371.75 2012.4 1370.98 Q2013 1370.21 2013.91 1369.26 Q2014.86 1368.28 2016.16 1367.71 Q2017.5 1367.12 2018.97 1367.12 Q2020.41 1367.12 2021.82 1367.5 Q2023.22 1367.85 2024.42 1369.01 Q2025.65 1370.14 2025.65 1371.86 Z" fill="#000000" fill-rule="evenodd" fill-opacity="1" /><path clip-path="url(#clip010)" d="M 0 0 M2030.55 1416.2 Q2030.55 1415.85 2031.46 1414.97 Q2043.06 1403.16 2043.06 1380.92 Q2043.06 1358.61 2031.92 1347.34 Q2030.55 1346.04 2030.55 1345.65 Q2030.55 1344.95 2031.25 1344.95 Q2031.74 1344.95 2033.47 1346.39 Q2035.22 1347.83 2037.86 1351.13 Q2040.53 1354.43 2042.5 1358.47 Q2047.24 1368.28 2047.24 1380.92 Q2047.24 1393.08 2042.71 1402.88 Q2040.77 1406.99 2038.07 1410.44 Q2035.36 1413.88 2033.57 1415.39 Q2031.78 1416.9 2031.25 1416.9 Q2030.55 1416.9 2030.55 1416.2 Z" fill="#000000" fill-rule="evenodd" fill-opacity="1" /></svg>
