<?xml version="1.0" encoding="utf-8"?>
<svg xmlns="http://www.w3.org/2000/svg" xmlns:xlink="http://www.w3.org/1999/xlink" width="600" height="400" viewBox="0 0 2400 1600">
<defs>
  <clipPath id="clip070">
    <rect x="0" y="0" width="2400" height="1600"/>
  </clipPath>
</defs>
<path clip-path="url(#clip070)" d="
M0 1600 L2400 1600 L2400 0 L0 0  Z
  " fill="#ffffff" fill-rule="evenodd" fill-opacity="1"/>
<defs>
  <clipPath id="clip071">
    <rect x="480" y="0" width="1681" height="1600"/>
  </clipPath>
</defs>
<path clip-path="url(#clip070)" d="
M86.9921 1521.01 L2352.76 1521.01 L2352.76 47.2441 L86.9921 47.2441  Z
  " fill="#ffffff" fill-rule="evenodd" fill-opacity="1"/>
<defs>
  <clipPath id="clip072">
    <rect x="86" y="47" width="2267" height="1475"/>
  </clipPath>
</defs>
<polyline clip-path="url(#clip072)" style="stroke:#000000; stroke-width:2; stroke-opacity:0.1; fill:none" points="
  364.869,1521.01 364.869,47.2441 
  "/>
<polyline clip-path="url(#clip072)" style="stroke:#000000; stroke-width:2; stroke-opacity:0.1; fill:none" points="
  792.371,1521.01 792.371,47.2441 
  "/>
<polyline clip-path="url(#clip072)" style="stroke:#000000; stroke-width:2; stroke-opacity:0.1; fill:none" points="
  1219.87,1521.01 1219.87,47.2441 
  "/>
<polyline clip-path="url(#clip072)" style="stroke:#000000; stroke-width:2; stroke-opacity:0.1; fill:none" points="
  1647.38,1521.01 1647.38,47.2441 
  "/>
<polyline clip-path="url(#clip072)" style="stroke:#000000; stroke-width:2; stroke-opacity:0.1; fill:none" points="
  2074.88,1521.01 2074.88,47.2441 
  "/>
<polyline clip-path="url(#clip070)" style="stroke:#000000; stroke-width:4; stroke-opacity:1; fill:none" points="
  86.9921,1521.01 2352.76,1521.01 
  "/>
<polyline clip-path="url(#clip070)" style="stroke:#000000; stroke-width:4; stroke-opacity:1; fill:none" points="
  364.869,1521.01 364.869,1503.32 
  "/>
<polyline clip-path="url(#clip070)" style="stroke:#000000; stroke-width:4; stroke-opacity:1; fill:none" points="
  792.371,1521.01 792.371,1503.32 
  "/>
<polyline clip-path="url(#clip070)" style="stroke:#000000; stroke-width:4; stroke-opacity:1; fill:none" points="
  1219.87,1521.01 1219.87,1503.32 
  "/>
<polyline clip-path="url(#clip070)" style="stroke:#000000; stroke-width:4; stroke-opacity:1; fill:none" points="
  1647.38,1521.01 1647.38,1503.32 
  "/>
<polyline clip-path="url(#clip070)" style="stroke:#000000; stroke-width:4; stroke-opacity:1; fill:none" points="
  2074.88,1521.01 2074.88,1503.32 
  "/>
<path clip-path="url(#clip070)" d="M 0 0 M336.281 1564.85 L365.957 1564.85 L365.957 1568.79 L336.281 1568.79 L336.281 1564.85 Z" fill="#000000" fill-rule="evenodd" fill-opacity="1" /><path clip-path="url(#clip070)" d="M 0 0 M383.873 1551.19 L372.068 1569.64 L383.873 1569.64 L383.873 1551.19 M382.646 1547.12 L388.526 1547.12 L388.526 1569.64 L393.457 1569.64 L393.457 1573.53 L388.526 1573.53 L388.526 1581.68 L383.873 1581.68 L383.873 1573.53 L368.272 1573.53 L368.272 1569.02 L382.646 1547.12 Z" fill="#000000" fill-rule="evenodd" fill-opacity="1" /><path clip-path="url(#clip070)" d="M 0 0 M764.825 1564.85 L794.501 1564.85 L794.501 1568.79 L764.825 1568.79 L764.825 1564.85 Z" fill="#000000" fill-rule="evenodd" fill-opacity="1" /><path clip-path="url(#clip070)" d="M 0 0 M803.598 1577.74 L819.918 1577.74 L819.918 1581.68 L797.973 1581.68 L797.973 1577.74 Q800.635 1574.99 805.219 1570.36 Q809.825 1565.71 811.006 1564.37 Q813.251 1561.84 814.131 1560.11 Q815.033 1558.35 815.033 1556.66 Q815.033 1553.9 813.089 1552.17 Q811.168 1550.43 808.066 1550.43 Q805.867 1550.43 803.413 1551.19 Q800.982 1551.96 798.205 1553.51 L798.205 1548.79 Q801.029 1547.65 803.482 1547.07 Q805.936 1546.49 807.973 1546.49 Q813.344 1546.49 816.538 1549.18 Q819.732 1551.87 819.732 1556.36 Q819.732 1558.49 818.922 1560.41 Q818.135 1562.3 816.029 1564.9 Q815.45 1565.57 812.348 1568.79 Q809.246 1571.98 803.598 1577.74 Z" fill="#000000" fill-rule="evenodd" fill-opacity="1" /><path clip-path="url(#clip070)" d="M 0 0 M1219.87 1550.2 Q1216.26 1550.2 1214.43 1553.76 Q1212.63 1557.31 1212.63 1564.43 Q1212.63 1571.54 1214.43 1575.11 Q1216.26 1578.65 1219.87 1578.65 Q1223.51 1578.65 1225.31 1575.11 Q1227.14 1571.54 1227.14 1564.43 Q1227.14 1557.31 1225.31 1553.76 Q1223.51 1550.2 1219.87 1550.2 M1219.87 1546.49 Q1225.68 1546.49 1228.74 1551.1 Q1231.82 1555.68 1231.82 1564.43 Q1231.82 1573.16 1228.74 1577.77 Q1225.68 1582.35 1219.87 1582.35 Q1214.06 1582.35 1210.99 1577.77 Q1207.93 1573.16 1207.93 1564.43 Q1207.93 1555.68 1210.99 1551.1 Q1214.06 1546.49 1219.87 1546.49 Z" fill="#000000" fill-rule="evenodd" fill-opacity="1" /><path clip-path="url(#clip070)" d="M 0 0 M1642.03 1577.74 L1658.35 1577.74 L1658.35 1581.68 L1636.4 1581.68 L1636.4 1577.74 Q1639.07 1574.99 1643.65 1570.36 Q1648.26 1565.71 1649.44 1564.37 Q1651.68 1561.84 1652.56 1560.11 Q1653.46 1558.35 1653.46 1556.66 Q1653.46 1553.9 1651.52 1552.17 Q1649.6 1550.43 1646.5 1550.43 Q1644.3 1550.43 1641.84 1551.19 Q1639.41 1551.96 1636.64 1553.51 L1636.64 1548.79 Q1639.46 1547.65 1641.91 1547.07 Q1644.37 1546.49 1646.4 1546.49 Q1651.77 1546.49 1654.97 1549.18 Q1658.16 1551.87 1658.16 1556.36 Q1658.16 1558.49 1657.35 1560.41 Q1656.57 1562.3 1654.46 1564.9 Q1653.88 1565.57 1650.78 1568.79 Q1647.68 1571.98 1642.03 1577.74 Z" fill="#000000" fill-rule="evenodd" fill-opacity="1" /><path clip-path="url(#clip070)" d="M 0 0 M2077.89 1551.19 L2066.08 1569.64 L2077.89 1569.64 L2077.89 1551.19 M2076.66 1547.12 L2082.54 1547.12 L2082.54 1569.64 L2087.47 1569.64 L2087.47 1573.53 L2082.54 1573.53 L2082.54 1581.68 L2077.89 1581.68 L2077.89 1573.53 L2062.29 1573.53 L2062.29 1569.02 L2076.66 1547.12 Z" fill="#000000" fill-rule="evenodd" fill-opacity="1" /><polyline clip-path="url(#clip072)" style="stroke:#000000; stroke-width:2; stroke-opacity:0.1; fill:none" points="
  86.9921,1479.3 2352.76,1479.3 
  "/>
<polyline clip-path="url(#clip072)" style="stroke:#000000; stroke-width:2; stroke-opacity:0.1; fill:none" points="
  86.9921,1170.33 2352.76,1170.33 
  "/>
<polyline clip-path="url(#clip072)" style="stroke:#000000; stroke-width:2; stroke-opacity:0.1; fill:none" points="
  86.9921,861.367 2352.76,861.367 
  "/>
<polyline clip-path="url(#clip072)" style="stroke:#000000; stroke-width:2; stroke-opacity:0.1; fill:none" points="
  86.9921,552.402 2352.76,552.402 
  "/>
<polyline clip-path="url(#clip072)" style="stroke:#000000; stroke-width:2; stroke-opacity:0.1; fill:none" points="
  86.9921,243.437 2352.76,243.437 
  "/>
<polyline clip-path="url(#clip070)" style="stroke:#000000; stroke-width:4; stroke-opacity:1; fill:none" points="
  86.9921,1521.01 86.9921,47.2441 
  "/>
<polyline clip-path="url(#clip070)" style="stroke:#000000; stroke-width:4; stroke-opacity:1; fill:none" points="
  86.9921,1479.3 114.181,1479.3 
  "/>
<polyline clip-path="url(#clip070)" style="stroke:#000000; stroke-width:4; stroke-opacity:1; fill:none" points="
  86.9921,1170.33 114.181,1170.33 
  "/>
<polyline clip-path="url(#clip070)" style="stroke:#000000; stroke-width:4; stroke-opacity:1; fill:none" points="
  86.9921,861.367 114.181,861.367 
  "/>
<polyline clip-path="url(#clip070)" style="stroke:#000000; stroke-width:4; stroke-opacity:1; fill:none" points="
  86.9921,552.402 114.181,552.402 
  "/>
<polyline clip-path="url(#clip070)" style="stroke:#000000; stroke-width:4; stroke-opacity:1; fill:none" points="
  86.9921,243.437 114.181,243.437 
  "/>
<path clip-path="url(#clip070)" d="M 0 0 M-31.4843 1479.75 L-1.80852 1479.75 L-1.80852 1483.68 L-31.4843 1483.68 L-31.4843 1479.75 Z" fill="#000000" fill-rule="evenodd" fill-opacity="1" /><path clip-path="url(#clip070)" d="M 0 0 M4.07108 1492.64 L11.7099 1492.64 L11.7099 1466.28 L3.39979 1467.94 L3.39979 1463.68 L11.6636 1462.02 L16.3395 1462.02 L16.3395 1492.64 L23.9784 1492.64 L23.9784 1496.58 L4.07108 1496.58 L4.07108 1492.64 Z" fill="#000000" fill-rule="evenodd" fill-opacity="1" /><path clip-path="url(#clip070)" d="M 0 0 M39.0477 1465.1 Q35.4367 1465.1 33.608 1468.66 Q31.8024 1472.2 31.8024 1479.33 Q31.8024 1486.44 33.608 1490 Q35.4367 1493.55 39.0477 1493.55 Q42.682 1493.55 44.4875 1490 Q46.3162 1486.44 46.3162 1479.33 Q46.3162 1472.2 44.4875 1468.66 Q42.682 1465.1 39.0477 1465.1 M39.0477 1461.39 Q44.8579 1461.39 47.9134 1466 Q50.9921 1470.58 50.9921 1479.33 Q50.9921 1488.06 47.9134 1492.67 Q44.8579 1497.25 39.0477 1497.25 Q33.2376 1497.25 30.1589 1492.67 Q27.1034 1488.06 27.1034 1479.33 Q27.1034 1470.58 30.1589 1466 Q33.2376 1461.39 39.0477 1461.39 Z" fill="#000000" fill-rule="evenodd" fill-opacity="1" /><path clip-path="url(#clip070)" d="M 0 0 M39.0477 1156.13 Q35.4367 1156.13 33.608 1159.7 Q31.8024 1163.24 31.8024 1170.37 Q31.8024 1177.47 33.608 1181.04 Q35.4367 1184.58 39.0477 1184.58 Q42.682 1184.58 44.4875 1181.04 Q46.3162 1177.47 46.3162 1170.37 Q46.3162 1163.24 44.4875 1159.7 Q42.682 1156.13 39.0477 1156.13 M39.0477 1152.43 Q44.8579 1152.43 47.9134 1157.03 Q50.9921 1161.62 50.9921 1170.37 Q50.9921 1179.09 47.9134 1183.7 Q44.8579 1188.28 39.0477 1188.28 Q33.2376 1188.28 30.1589 1183.7 Q27.1034 1179.09 27.1034 1170.37 Q27.1034 1161.62 30.1589 1157.03 Q33.2376 1152.43 39.0477 1152.43 Z" fill="#000000" fill-rule="evenodd" fill-opacity="1" /><path clip-path="url(#clip070)" d="M 0 0 M4.07108 874.712 L11.7099 874.712 L11.7099 848.347 L3.39979 850.013 L3.39979 845.754 L11.6636 844.087 L16.3395 844.087 L16.3395 874.712 L23.9784 874.712 L23.9784 878.647 L4.07108 878.647 L4.07108 874.712 Z" fill="#000000" fill-rule="evenodd" fill-opacity="1" /><path clip-path="url(#clip070)" d="M 0 0 M39.0477 847.166 Q35.4367 847.166 33.608 850.731 Q31.8024 854.272 31.8024 861.402 Q31.8024 868.508 33.608 872.073 Q35.4367 875.615 39.0477 875.615 Q42.682 875.615 44.4875 872.073 Q46.3162 868.508 46.3162 861.402 Q46.3162 854.272 44.4875 850.731 Q42.682 847.166 39.0477 847.166 M39.0477 843.462 Q44.8579 843.462 47.9134 848.069 Q50.9921 852.652 50.9921 861.402 Q50.9921 870.129 47.9134 874.735 Q44.8579 879.319 39.0477 879.319 Q33.2376 879.319 30.1589 874.735 Q27.1034 870.129 27.1034 861.402 Q27.1034 852.652 30.1589 848.069 Q33.2376 843.462 39.0477 843.462 Z" fill="#000000" fill-rule="evenodd" fill-opacity="1" /><path clip-path="url(#clip070)" d="M 0 0 M7.65902 565.747 L23.9784 565.747 L23.9784 569.682 L2.03405 569.682 L2.03405 565.747 Q4.69608 562.992 9.27939 558.363 Q13.8858 553.71 15.0664 552.367 Q17.3118 549.844 18.1914 548.108 Q19.0941 546.349 19.0941 544.659 Q19.0941 541.904 17.1497 540.168 Q15.2284 538.432 12.1266 538.432 Q9.92753 538.432 7.47384 539.196 Q5.0433 539.96 2.26554 541.511 L2.26554 536.789 Q5.08959 535.655 7.54328 535.076 Q9.99698 534.497 12.034 534.497 Q17.4043 534.497 20.5988 537.182 Q23.7932 539.867 23.7932 544.358 Q23.7932 546.488 22.983 548.409 Q22.196 550.307 20.0895 552.9 Q19.5108 553.571 16.409 556.789 Q13.3071 559.983 7.65902 565.747 Z" fill="#000000" fill-rule="evenodd" fill-opacity="1" /><path clip-path="url(#clip070)" d="M 0 0 M39.0477 538.201 Q35.4367 538.201 33.608 541.766 Q31.8024 545.307 31.8024 552.437 Q31.8024 559.543 33.608 563.108 Q35.4367 566.65 39.0477 566.65 Q42.682 566.65 44.4875 563.108 Q46.3162 559.543 46.3162 552.437 Q46.3162 545.307 44.4875 541.766 Q42.682 538.201 39.0477 538.201 M39.0477 534.497 Q44.8579 534.497 47.9134 539.104 Q50.9921 543.687 50.9921 552.437 Q50.9921 561.164 47.9134 565.77 Q44.8579 570.353 39.0477 570.353 Q33.2376 570.353 30.1589 565.77 Q27.1034 561.164 27.1034 552.437 Q27.1034 543.687 30.1589 539.104 Q33.2376 534.497 39.0477 534.497 Z" fill="#000000" fill-rule="evenodd" fill-opacity="1" /><path clip-path="url(#clip070)" d="M 0 0 M16.8488 242.083 Q20.2053 242.8 22.0802 245.069 Q23.9784 247.337 23.9784 250.671 Q23.9784 255.786 20.4599 258.587 Q16.9414 261.388 10.4599 261.388 Q8.28402 261.388 5.96922 260.948 Q3.67756 260.532 1.22387 259.675 L1.22387 255.161 Q3.16831 256.296 5.48311 256.874 Q7.79791 257.453 10.321 257.453 Q14.7192 257.453 17.0108 255.717 Q19.3256 253.981 19.3256 250.671 Q19.3256 247.615 17.1729 245.902 Q15.0432 244.166 11.2238 244.166 L7.19606 244.166 L7.19606 240.324 L11.409 240.324 Q14.8581 240.324 16.6868 238.958 Q18.5154 237.569 18.5154 234.976 Q18.5154 232.314 16.6173 230.902 Q14.7423 229.467 11.2238 229.467 Q9.30253 229.467 7.10347 229.884 Q4.90441 230.3 2.26554 231.18 L2.26554 227.013 Q4.92756 226.273 7.24236 225.902 Q9.58031 225.532 11.6405 225.532 Q16.9645 225.532 20.0664 227.963 Q23.1682 230.37 23.1682 234.49 Q23.1682 237.361 21.5247 239.351 Q19.8812 241.319 16.8488 242.083 Z" fill="#000000" fill-rule="evenodd" fill-opacity="1" /><path clip-path="url(#clip070)" d="M 0 0 M39.0477 229.236 Q35.4367 229.236 33.608 232.8 Q31.8024 236.342 31.8024 243.472 Q31.8024 250.578 33.608 254.143 Q35.4367 257.685 39.0477 257.685 Q42.682 257.685 44.4875 254.143 Q46.3162 250.578 46.3162 243.472 Q46.3162 236.342 44.4875 232.8 Q42.682 229.236 39.0477 229.236 M39.0477 225.532 Q44.8579 225.532 47.9134 230.138 Q50.9921 234.722 50.9921 243.472 Q50.9921 252.198 47.9134 256.805 Q44.8579 261.388 39.0477 261.388 Q33.2376 261.388 30.1589 256.805 Q27.1034 252.198 27.1034 243.472 Q27.1034 234.722 30.1589 230.138 Q33.2376 225.532 39.0477 225.532 Z" fill="#000000" fill-rule="evenodd" fill-opacity="1" /><polyline clip-path="url(#clip072)" style="stroke:#009af9; stroke-width:4; stroke-opacity:1; fill:none" points="
  151.118,706.885 161.555,718.88 171.992,730.728 268.5,833.303 365.008,923.281 423.005,971.294 481.002,1014.76 530.038,1047.96 579.074,1077.9 685.607,1131.76 
  783.821,1167.81 836.469,1181.77 889.117,1191.97 950.115,1199.11 1011.11,1201.21 1065.32,1198.86 1119.53,1192.53 1167.06,1183.71 1214.6,1171.84 1318.25,1135.35 
  1422.52,1083.98 1480.16,1049.27 1537.8,1010.07 1592.65,968.6 1647.49,923.061 1761.54,815.336 1857.55,711.017 1916.15,641.208 1974.76,566.755 2029.85,492.531 
  2084.94,414.201 2173.2,280.156 2261.46,135.576 2275.05,112.39 2288.63,88.9544 
  "/>
<path clip-path="url(#clip072)" d="
M151.118 1479.3 L2288.63 1479.3 L2288.63 88.9544 L151.118 88.9544 L151.118 1479.3  Z
  " fill="#e26f46" fill-rule="evenodd" fill-opacity="0.5"/>
<polyline clip-path="url(#clip072)" style="stroke:#000000; stroke-width:4; stroke-opacity:0.5; fill:none" points="
  151.118,1479.3 2288.63,1479.3 2288.63,88.9544 151.118,88.9544 151.118,1479.3 
  "/>
</svg>
