<?xml version="1.0" encoding="utf-8"?>
<svg xmlns="http://www.w3.org/2000/svg" xmlns:xlink="http://www.w3.org/1999/xlink" width="600" height="400" viewBox="0 0 2400 1600">
<defs>
  <clipPath id="clip830">
    <rect x="0" y="0" width="2400" height="1600"/>
  </clipPath>
</defs>
<path clip-path="url(#clip830)" d="
M0 1600 L2400 1600 L2400 0 L0 0  Z
  " fill="#ffffff" fill-rule="evenodd" fill-opacity="1"/>
<defs>
  <clipPath id="clip831">
    <rect x="480" y="0" width="1681" height="1600"/>
  </clipPath>
</defs>
<path clip-path="url(#clip830)" d="
M86.9921 1521.01 L2352.76 1521.01 L2352.76 47.2441 L86.9921 47.2441  Z
  " fill="#ffffff" fill-rule="evenodd" fill-opacity="1"/>
<defs>
  <clipPath id="clip832">
    <rect x="86" y="47" width="2267" height="1475"/>
  </clipPath>
</defs>
<polyline clip-path="url(#clip832)" style="stroke:#000000; stroke-width:2; stroke-opacity:0.1; fill:none" points="
  151.118,1521.01 151.118,47.2441 
  "/>
<polyline clip-path="url(#clip832)" style="stroke:#000000; stroke-width:2; stroke-opacity:0.1; fill:none" points="
  685.496,1521.01 685.496,47.2441 
  "/>
<polyline clip-path="url(#clip832)" style="stroke:#000000; stroke-width:2; stroke-opacity:0.1; fill:none" points="
  1219.87,1521.01 1219.87,47.2441 
  "/>
<polyline clip-path="url(#clip832)" style="stroke:#000000; stroke-width:2; stroke-opacity:0.1; fill:none" points="
  1754.25,1521.01 1754.25,47.2441 
  "/>
<polyline clip-path="url(#clip832)" style="stroke:#000000; stroke-width:2; stroke-opacity:0.1; fill:none" points="
  2288.63,1521.01 2288.63,47.2441 
  "/>
<polyline clip-path="url(#clip830)" style="stroke:#000000; stroke-width:4; stroke-opacity:1; fill:none" points="
  86.9921,1521.01 2352.76,1521.01 
  "/>
<polyline clip-path="url(#clip830)" style="stroke:#000000; stroke-width:4; stroke-opacity:1; fill:none" points="
  151.118,1521.01 151.118,1503.32 
  "/>
<polyline clip-path="url(#clip830)" style="stroke:#000000; stroke-width:4; stroke-opacity:1; fill:none" points="
  685.496,1521.01 685.496,1503.32 
  "/>
<polyline clip-path="url(#clip830)" style="stroke:#000000; stroke-width:4; stroke-opacity:1; fill:none" points="
  1219.87,1521.01 1219.87,1503.32 
  "/>
<polyline clip-path="url(#clip830)" style="stroke:#000000; stroke-width:4; stroke-opacity:1; fill:none" points="
  1754.25,1521.01 1754.25,1503.32 
  "/>
<polyline clip-path="url(#clip830)" style="stroke:#000000; stroke-width:4; stroke-opacity:1; fill:none" points="
  2288.63,1521.01 2288.63,1503.32 
  "/>
<path clip-path="url(#clip830)" d="M 0 0 M109.879 1564.85 L139.555 1564.85 L139.555 1568.79 L109.879 1568.79 L109.879 1564.85 Z" fill="#000000" fill-rule="evenodd" fill-opacity="1" /><path clip-path="url(#clip830)" d="M 0 0 M145.435 1577.74 L153.074 1577.74 L153.074 1551.38 L144.763 1553.05 L144.763 1548.79 L153.027 1547.12 L157.703 1547.12 L157.703 1577.74 L165.342 1577.74 L165.342 1581.68 L145.435 1581.68 L145.435 1577.74 Z" fill="#000000" fill-rule="evenodd" fill-opacity="1" /><path clip-path="url(#clip830)" d="M 0 0 M180.411 1550.2 Q176.8 1550.2 174.972 1553.76 Q173.166 1557.31 173.166 1564.43 Q173.166 1571.54 174.972 1575.11 Q176.8 1578.65 180.411 1578.65 Q184.046 1578.65 185.851 1575.11 Q187.68 1571.54 187.68 1564.43 Q187.68 1557.31 185.851 1553.76 Q184.046 1550.2 180.411 1550.2 M180.411 1546.49 Q186.221 1546.49 189.277 1551.1 Q192.356 1555.68 192.356 1564.43 Q192.356 1573.16 189.277 1577.77 Q186.221 1582.35 180.411 1582.35 Q174.601 1582.35 171.522 1577.77 Q168.467 1573.16 168.467 1564.43 Q168.467 1555.68 171.522 1551.1 Q174.601 1546.49 180.411 1546.49 Z" fill="#000000" fill-rule="evenodd" fill-opacity="1" /><path clip-path="url(#clip830)" d="M 0 0 M657.649 1564.85 L687.324 1564.85 L687.324 1568.79 L657.649 1568.79 L657.649 1564.85 Z" fill="#000000" fill-rule="evenodd" fill-opacity="1" /><path clip-path="url(#clip830)" d="M 0 0 M692.44 1547.12 L710.797 1547.12 L710.797 1551.06 L696.723 1551.06 L696.723 1559.53 Q697.741 1559.18 698.76 1559.02 Q699.778 1558.83 700.797 1558.83 Q706.584 1558.83 709.963 1562 Q713.343 1565.18 713.343 1570.59 Q713.343 1576.17 709.871 1579.27 Q706.398 1582.35 700.079 1582.35 Q697.903 1582.35 695.635 1581.98 Q693.389 1581.61 690.982 1580.87 L690.982 1576.17 Q693.065 1577.3 695.287 1577.86 Q697.51 1578.42 699.986 1578.42 Q703.991 1578.42 706.329 1576.31 Q708.667 1574.2 708.667 1570.59 Q708.667 1566.98 706.329 1564.87 Q703.991 1562.77 699.986 1562.77 Q698.111 1562.77 696.236 1563.18 Q694.385 1563.6 692.44 1564.48 L692.44 1547.12 Z" fill="#000000" fill-rule="evenodd" fill-opacity="1" /><path clip-path="url(#clip830)" d="M 0 0 M1219.87 1550.2 Q1216.26 1550.2 1214.43 1553.76 Q1212.63 1557.31 1212.63 1564.43 Q1212.63 1571.54 1214.43 1575.11 Q1216.26 1578.65 1219.87 1578.65 Q1223.51 1578.65 1225.31 1575.11 Q1227.14 1571.54 1227.14 1564.43 Q1227.14 1557.31 1225.31 1553.76 Q1223.51 1550.2 1219.87 1550.2 M1219.87 1546.49 Q1225.68 1546.49 1228.74 1551.1 Q1231.82 1555.68 1231.82 1564.43 Q1231.82 1573.16 1228.74 1577.77 Q1225.68 1582.35 1219.87 1582.35 Q1214.06 1582.35 1210.99 1577.77 Q1207.93 1573.16 1207.93 1564.43 Q1207.93 1555.68 1210.99 1551.1 Q1214.06 1546.49 1219.87 1546.49 Z" fill="#000000" fill-rule="evenodd" fill-opacity="1" /><path clip-path="url(#clip830)" d="M 0 0 M1744.53 1547.12 L1762.89 1547.12 L1762.89 1551.06 L1748.81 1551.06 L1748.81 1559.53 Q1749.83 1559.18 1750.85 1559.02 Q1751.87 1558.83 1752.89 1558.83 Q1758.67 1558.83 1762.05 1562 Q1765.43 1565.18 1765.43 1570.59 Q1765.43 1576.17 1761.96 1579.27 Q1758.49 1582.35 1752.17 1582.35 Q1749.99 1582.35 1747.72 1581.98 Q1745.48 1581.61 1743.07 1580.87 L1743.07 1576.17 Q1745.16 1577.3 1747.38 1577.86 Q1749.6 1578.42 1752.08 1578.42 Q1756.08 1578.42 1758.42 1576.31 Q1760.76 1574.2 1760.76 1570.59 Q1760.76 1566.98 1758.42 1564.87 Q1756.08 1562.77 1752.08 1562.77 Q1750.2 1562.77 1748.33 1563.18 Q1746.47 1563.6 1744.53 1564.48 L1744.53 1547.12 Z" fill="#000000" fill-rule="evenodd" fill-opacity="1" /><path clip-path="url(#clip830)" d="M 0 0 M2265.51 1577.74 L2273.14 1577.74 L2273.14 1551.38 L2264.83 1553.05 L2264.83 1548.79 L2273.1 1547.12 L2277.77 1547.12 L2277.77 1577.74 L2285.41 1577.74 L2285.41 1581.68 L2265.51 1581.68 L2265.51 1577.74 Z" fill="#000000" fill-rule="evenodd" fill-opacity="1" /><path clip-path="url(#clip830)" d="M 0 0 M2300.48 1550.2 Q2296.87 1550.2 2295.04 1553.76 Q2293.24 1557.31 2293.24 1564.43 Q2293.24 1571.54 2295.04 1575.11 Q2296.87 1578.65 2300.48 1578.65 Q2304.12 1578.65 2305.92 1575.11 Q2307.75 1571.54 2307.75 1564.43 Q2307.75 1557.31 2305.92 1553.76 Q2304.12 1550.2 2300.48 1550.2 M2300.48 1546.49 Q2306.29 1546.49 2309.35 1551.1 Q2312.43 1555.68 2312.43 1564.43 Q2312.43 1573.16 2309.35 1577.77 Q2306.29 1582.35 2300.48 1582.35 Q2294.67 1582.35 2291.59 1577.77 Q2288.54 1573.16 2288.54 1564.43 Q2288.54 1555.68 2291.59 1551.1 Q2294.67 1546.49 2300.48 1546.49 Z" fill="#000000" fill-rule="evenodd" fill-opacity="1" /><polyline clip-path="url(#clip832)" style="stroke:#000000; stroke-width:2; stroke-opacity:0.1; fill:none" points="
  86.9921,1233.58 2352.76,1233.58 
  "/>
<polyline clip-path="url(#clip832)" style="stroke:#000000; stroke-width:2; stroke-opacity:0.1; fill:none" points="
  86.9921,923.916 2352.76,923.916 
  "/>
<polyline clip-path="url(#clip832)" style="stroke:#000000; stroke-width:2; stroke-opacity:0.1; fill:none" points="
  86.9921,614.249 2352.76,614.249 
  "/>
<polyline clip-path="url(#clip832)" style="stroke:#000000; stroke-width:2; stroke-opacity:0.1; fill:none" points="
  86.9921,304.582 2352.76,304.582 
  "/>
<polyline clip-path="url(#clip830)" style="stroke:#000000; stroke-width:4; stroke-opacity:1; fill:none" points="
  86.9921,1521.01 86.9921,47.2441 
  "/>
<polyline clip-path="url(#clip830)" style="stroke:#000000; stroke-width:4; stroke-opacity:1; fill:none" points="
  86.9921,1233.58 114.181,1233.58 
  "/>
<polyline clip-path="url(#clip830)" style="stroke:#000000; stroke-width:4; stroke-opacity:1; fill:none" points="
  86.9921,923.916 114.181,923.916 
  "/>
<polyline clip-path="url(#clip830)" style="stroke:#000000; stroke-width:4; stroke-opacity:1; fill:none" points="
  86.9921,614.249 114.181,614.249 
  "/>
<polyline clip-path="url(#clip830)" style="stroke:#000000; stroke-width:4; stroke-opacity:1; fill:none" points="
  86.9921,304.582 114.181,304.582 
  "/>
<path clip-path="url(#clip830)" d="M 0 0 M-33.1972 1234.03 L-3.52147 1234.03 L-3.52147 1237.97 L-33.1972 1237.97 L-33.1972 1234.03 Z" fill="#000000" fill-rule="evenodd" fill-opacity="1" /><path clip-path="url(#clip830)" d="M 0 0 M14.3951 1220.38 L2.58961 1238.83 L14.3951 1238.83 L14.3951 1220.38 M13.1683 1216.3 L19.0479 1216.3 L19.0479 1238.83 L23.9784 1238.83 L23.9784 1242.71 L19.0479 1242.71 L19.0479 1250.86 L14.3951 1250.86 L14.3951 1242.71 L-1.20667 1242.71 L-1.20667 1238.2 L13.1683 1216.3 Z" fill="#000000" fill-rule="evenodd" fill-opacity="1" /><path clip-path="url(#clip830)" d="M 0 0 M39.0477 1219.38 Q35.4367 1219.38 33.608 1222.95 Q31.8024 1226.49 31.8024 1233.62 Q31.8024 1240.72 33.608 1244.29 Q35.4367 1247.83 39.0477 1247.83 Q42.682 1247.83 44.4875 1244.29 Q46.3162 1240.72 46.3162 1233.62 Q46.3162 1226.49 44.4875 1222.95 Q42.682 1219.38 39.0477 1219.38 M39.0477 1215.68 Q44.8579 1215.68 47.9134 1220.28 Q50.9921 1224.87 50.9921 1233.62 Q50.9921 1242.34 47.9134 1246.95 Q44.8579 1251.53 39.0477 1251.53 Q33.2376 1251.53 30.1589 1246.95 Q27.1034 1242.34 27.1034 1233.62 Q27.1034 1224.87 30.1589 1220.28 Q33.2376 1215.68 39.0477 1215.68 Z" fill="#000000" fill-rule="evenodd" fill-opacity="1" /><path clip-path="url(#clip830)" d="M 0 0 M-31.1139 924.367 L-1.43815 924.367 L-1.43815 928.302 L-31.1139 928.302 L-31.1139 924.367 Z" fill="#000000" fill-rule="evenodd" fill-opacity="1" /><path clip-path="url(#clip830)" d="M 0 0 M7.65902 937.26 L23.9784 937.26 L23.9784 941.196 L2.03405 941.196 L2.03405 937.26 Q4.69608 934.506 9.27939 929.876 Q13.8858 925.224 15.0664 923.881 Q17.3118 921.358 18.1914 919.622 Q19.0941 917.862 19.0941 916.173 Q19.0941 913.418 17.1497 911.682 Q15.2284 909.946 12.1266 909.946 Q9.92753 909.946 7.47384 910.71 Q5.0433 911.474 2.26554 913.024 L2.26554 908.302 Q5.08959 907.168 7.54328 906.589 Q9.99698 906.011 12.034 906.011 Q17.4043 906.011 20.5988 908.696 Q23.7932 911.381 23.7932 915.872 Q23.7932 918.001 22.983 919.923 Q22.196 921.821 20.0895 924.413 Q19.5108 925.085 16.409 928.302 Q13.3071 931.497 7.65902 937.26 Z" fill="#000000" fill-rule="evenodd" fill-opacity="1" /><path clip-path="url(#clip830)" d="M 0 0 M39.0477 909.714 Q35.4367 909.714 33.608 913.279 Q31.8024 916.821 31.8024 923.95 Q31.8024 931.057 33.608 934.622 Q35.4367 938.163 39.0477 938.163 Q42.682 938.163 44.4875 934.622 Q46.3162 931.057 46.3162 923.95 Q46.3162 916.821 44.4875 913.279 Q42.682 909.714 39.0477 909.714 M39.0477 906.011 Q44.8579 906.011 47.9134 910.617 Q50.9921 915.2 50.9921 923.95 Q50.9921 932.677 47.9134 937.284 Q44.8579 941.867 39.0477 941.867 Q33.2376 941.867 30.1589 937.284 Q27.1034 932.677 27.1034 923.95 Q27.1034 915.2 30.1589 910.617 Q33.2376 906.011 39.0477 906.011 Z" fill="#000000" fill-rule="evenodd" fill-opacity="1" /><path clip-path="url(#clip830)" d="M 0 0 M39.0477 600.047 Q35.4367 600.047 33.608 603.612 Q31.8024 607.154 31.8024 614.283 Q31.8024 621.39 33.608 624.955 Q35.4367 628.496 39.0477 628.496 Q42.682 628.496 44.4875 624.955 Q46.3162 621.39 46.3162 614.283 Q46.3162 607.154 44.4875 603.612 Q42.682 600.047 39.0477 600.047 M39.0477 596.344 Q44.8579 596.344 47.9134 600.95 Q50.9921 605.533 50.9921 614.283 Q50.9921 623.01 47.9134 627.617 Q44.8579 632.2 39.0477 632.2 Q33.2376 632.2 30.1589 627.617 Q27.1034 623.01 27.1034 614.283 Q27.1034 605.533 30.1589 600.95 Q33.2376 596.344 39.0477 596.344 Z" fill="#000000" fill-rule="evenodd" fill-opacity="1" /><path clip-path="url(#clip830)" d="M 0 0 M7.65902 317.926 L23.9784 317.926 L23.9784 321.862 L2.03405 321.862 L2.03405 317.926 Q4.69608 315.172 9.27939 310.542 Q13.8858 305.889 15.0664 304.547 Q17.3118 302.024 18.1914 300.288 Q19.0941 298.528 19.0941 296.839 Q19.0941 294.084 17.1497 292.348 Q15.2284 290.612 12.1266 290.612 Q9.92753 290.612 7.47384 291.376 Q5.0433 292.14 2.26554 293.69 L2.26554 288.968 Q5.08959 287.834 7.54328 287.255 Q9.99698 286.677 12.034 286.677 Q17.4043 286.677 20.5988 289.362 Q23.7932 292.047 23.7932 296.538 Q23.7932 298.667 22.983 300.589 Q22.196 302.487 20.0895 305.079 Q19.5108 305.751 16.409 308.968 Q13.3071 312.163 7.65902 317.926 Z" fill="#000000" fill-rule="evenodd" fill-opacity="1" /><path clip-path="url(#clip830)" d="M 0 0 M39.0477 290.38 Q35.4367 290.38 33.608 293.945 Q31.8024 297.487 31.8024 304.616 Q31.8024 311.723 33.608 315.288 Q35.4367 318.829 39.0477 318.829 Q42.682 318.829 44.4875 315.288 Q46.3162 311.723 46.3162 304.616 Q46.3162 297.487 44.4875 293.945 Q42.682 290.38 39.0477 290.38 M39.0477 286.677 Q44.8579 286.677 47.9134 291.283 Q50.9921 295.866 50.9921 304.616 Q50.9921 313.343 47.9134 317.95 Q44.8579 322.533 39.0477 322.533 Q33.2376 322.533 30.1589 317.95 Q27.1034 313.343 27.1034 304.616 Q27.1034 295.866 30.1589 291.283 Q33.2376 286.677 39.0477 286.677 Z" fill="#000000" fill-rule="evenodd" fill-opacity="1" /><polyline clip-path="url(#clip832)" style="stroke:#009af9; stroke-width:4; stroke-opacity:1; fill:none" points="
  151.118,506.892 156.336,552.491 161.555,597.638 166.773,641.996 171.992,685.245 184.056,779.301 196.119,862.363 208.182,931.571 220.246,984.738 226.278,1004.82 
  232.309,1020.41 238.341,1031.43 244.373,1037.88 256.436,1037.2 268.5,1019.17 280.563,985.207 292.627,937.353 304.69,878.105 316.754,810.328 340.881,661.675 
  365.008,516.605 379.507,440.863 394.006,378.791 401.256,353.879 408.505,333.446 415.755,317.699 423.005,306.772 430.254,300.724 437.504,299.539 444.754,303.13 
  452.003,311.34 466.503,340.667 481.002,385.044 505.52,484.915 530.038,599.369 542.297,655.763 554.556,708.403 566.815,755.169 579.074,794.261 592.39,826.399 
  605.707,846.607 619.024,854.312 632.34,849.597 645.657,833.167 658.974,806.301 672.29,770.758 685.607,728.675 710.16,642.065 734.714,557.033 746.991,519.685 
  759.268,487.835 771.544,462.669 783.821,445.033 796.983,435.033 810.145,434.356 823.307,442.637 836.469,459.066 862.793,511.259 889.117,578.166 919.616,654.805 
  950.115,711.252 965.365,727.573 980.614,734.945 995.864,733.489 1011.11,723.997 1038.22,691.841 1065.32,649.627 1092.42,609.492 1119.53,581.751 1143.3,572.309 
  1167.06,576.929 1190.83,591.9 1214.6,610.476 1240.51,624.887 1266.43,622.689 1279.38,612.692 1292.34,595.926 1305.3,572.242 1318.25,541.925 1344.32,464.247 
  1370.39,374.266 1396.45,288.731 1422.52,227.259 1429.73,217.117 1436.93,210.634 1444.14,208.131 1451.34,209.888 1465.75,227.075 1480.16,263.46 1487.37,288.998 
  1494.57,319.39 1501.78,354.524 1508.98,394.222 1523.39,486.289 1537.8,592.934 1565.22,822.718 1592.65,1060.45 1606.36,1171.03 1620.07,1270.03 1633.78,1353.23 
  1647.49,1416.92 1654.62,1441.3 1661.75,1459.25 1668.88,1470.51 1676,1474.87 1683.13,1472.23 1690.26,1462.53 1697.39,1445.82 1704.52,1422.22 1711.64,1391.93 
  1718.77,1355.22 1725.9,1312.45 1733.03,1264.04 1747.28,1152.33 1761.54,1024.73 1785.54,789.358 1809.54,553.262 1821.54,444.106 1833.55,345.447 1845.55,260.305 
  1857.55,191.234 1864.87,157.852 1872.2,131.561 1879.52,112.61 1886.85,101.157 1894.18,97.2575 1901.5,100.87 1908.83,111.856 1916.15,129.978 1923.48,154.905 
  1930.8,186.22 1938.13,223.417 1945.46,265.918 1960.11,364.173 1974.76,475.126 1988.53,585.199 2002.31,695.115 2016.08,799.287 2029.85,892.456 2036.74,933.422 
  2043.62,969.942 2050.51,1001.56 2057.4,1027.88 2064.28,1048.59 2071.17,1063.42 2078.06,1072.2 2084.94,1074.84 2095.98,1066.24 2107.01,1042.17 2118.04,1003.49 
  2129.07,951.536 2140.11,888.075 2151.14,815.266 2162.17,735.579 2173.2,651.715 2195.27,482.901 2217.33,331.64 2228.37,269.2 2239.4,218.55 2250.43,181.473 
  2261.46,159.301 2268.26,153.448 2275.05,153.665 2281.84,159.971 2288.63,172.306 
  "/>
<path clip-path="url(#clip832)" d="
M151.118 1479.3 L2288.63 1479.3 L2288.63 88.9544 L151.118 88.9544 L151.118 1479.3  Z
  " fill="#e26f46" fill-rule="evenodd" fill-opacity="0.5"/>
<polyline clip-path="url(#clip832)" style="stroke:#000000; stroke-width:4; stroke-opacity:0.5; fill:none" points="
  151.118,1479.3 2288.63,1479.3 2288.63,88.9544 151.118,88.9544 151.118,1479.3 
  "/>
</svg>
