<?xml version="1.0" encoding="utf-8"?>
<svg xmlns="http://www.w3.org/2000/svg" xmlns:xlink="http://www.w3.org/1999/xlink" width="600" height="400" viewBox="0 0 2400 1600">
<defs>
  <clipPath id="clip120">
    <rect x="0" y="0" width="2400" height="1600"/>
  </clipPath>
</defs>
<path clip-path="url(#clip120)" d="
M0 1600 L2400 1600 L2400 0 L0 0  Z
  " fill="#ffffff" fill-rule="evenodd" fill-opacity="1"/>
<defs>
  <clipPath id="clip121">
    <rect x="480" y="0" width="1681" height="1600"/>
  </clipPath>
</defs>
<path clip-path="url(#clip120)" d="
M86.9921 1521.01 L2352.76 1521.01 L2352.76 47.2441 L86.9921 47.2441  Z
  " fill="#ffffff" fill-rule="evenodd" fill-opacity="1"/>
<defs>
  <clipPath id="clip122">
    <rect x="86" y="47" width="2267" height="1475"/>
  </clipPath>
</defs>
<polyline clip-path="url(#clip122)" style="stroke:#000000; stroke-width:2; stroke-opacity:0.1; fill:none" points="
  364.869,1521.01 364.869,47.2441 
  "/>
<polyline clip-path="url(#clip122)" style="stroke:#000000; stroke-width:2; stroke-opacity:0.1; fill:none" points="
  792.371,1521.01 792.371,47.2441 
  "/>
<polyline clip-path="url(#clip122)" style="stroke:#000000; stroke-width:2; stroke-opacity:0.1; fill:none" points="
  1219.87,1521.01 1219.87,47.2441 
  "/>
<polyline clip-path="url(#clip122)" style="stroke:#000000; stroke-width:2; stroke-opacity:0.1; fill:none" points="
  1647.38,1521.01 1647.38,47.2441 
  "/>
<polyline clip-path="url(#clip122)" style="stroke:#000000; stroke-width:2; stroke-opacity:0.1; fill:none" points="
  2074.88,1521.01 2074.88,47.2441 
  "/>
<polyline clip-path="url(#clip120)" style="stroke:#000000; stroke-width:4; stroke-opacity:1; fill:none" points="
  86.9921,1521.01 2352.76,1521.01 
  "/>
<polyline clip-path="url(#clip120)" style="stroke:#000000; stroke-width:4; stroke-opacity:1; fill:none" points="
  364.869,1521.01 364.869,1503.32 
  "/>
<polyline clip-path="url(#clip120)" style="stroke:#000000; stroke-width:4; stroke-opacity:1; fill:none" points="
  792.371,1521.01 792.371,1503.32 
  "/>
<polyline clip-path="url(#clip120)" style="stroke:#000000; stroke-width:4; stroke-opacity:1; fill:none" points="
  1219.87,1521.01 1219.87,1503.32 
  "/>
<polyline clip-path="url(#clip120)" style="stroke:#000000; stroke-width:4; stroke-opacity:1; fill:none" points="
  1647.38,1521.01 1647.38,1503.32 
  "/>
<polyline clip-path="url(#clip120)" style="stroke:#000000; stroke-width:4; stroke-opacity:1; fill:none" points="
  2074.88,1521.01 2074.88,1503.32 
  "/>
<path clip-path="url(#clip120)" d="M 0 0 M336.281 1564.85 L365.957 1564.85 L365.957 1568.79 L336.281 1568.79 L336.281 1564.85 Z" fill="#000000" fill-rule="evenodd" fill-opacity="1" /><path clip-path="url(#clip120)" d="M 0 0 M383.873 1551.19 L372.068 1569.64 L383.873 1569.64 L383.873 1551.19 M382.646 1547.12 L388.526 1547.12 L388.526 1569.64 L393.457 1569.64 L393.457 1573.53 L388.526 1573.53 L388.526 1581.68 L383.873 1581.68 L383.873 1573.53 L368.272 1573.53 L368.272 1569.02 L382.646 1547.12 Z" fill="#000000" fill-rule="evenodd" fill-opacity="1" /><path clip-path="url(#clip120)" d="M 0 0 M764.825 1564.85 L794.501 1564.85 L794.501 1568.79 L764.825 1568.79 L764.825 1564.85 Z" fill="#000000" fill-rule="evenodd" fill-opacity="1" /><path clip-path="url(#clip120)" d="M 0 0 M803.598 1577.74 L819.918 1577.74 L819.918 1581.68 L797.973 1581.68 L797.973 1577.74 Q800.635 1574.99 805.219 1570.36 Q809.825 1565.71 811.006 1564.37 Q813.251 1561.84 814.131 1560.11 Q815.033 1558.35 815.033 1556.66 Q815.033 1553.9 813.089 1552.17 Q811.168 1550.43 808.066 1550.43 Q805.867 1550.43 803.413 1551.19 Q800.982 1551.96 798.205 1553.51 L798.205 1548.79 Q801.029 1547.65 803.482 1547.07 Q805.936 1546.49 807.973 1546.49 Q813.344 1546.49 816.538 1549.18 Q819.732 1551.87 819.732 1556.36 Q819.732 1558.49 818.922 1560.41 Q818.135 1562.3 816.029 1564.9 Q815.45 1565.57 812.348 1568.79 Q809.246 1571.98 803.598 1577.74 Z" fill="#000000" fill-rule="evenodd" fill-opacity="1" /><path clip-path="url(#clip120)" d="M 0 0 M1219.87 1550.2 Q1216.26 1550.2 1214.43 1553.76 Q1212.63 1557.31 1212.63 1564.43 Q1212.63 1571.54 1214.43 1575.11 Q1216.26 1578.65 1219.87 1578.65 Q1223.51 1578.65 1225.31 1575.11 Q1227.14 1571.54 1227.14 1564.43 Q1227.14 1557.31 1225.31 1553.76 Q1223.51 1550.2 1219.87 1550.2 M1219.87 1546.49 Q1225.68 1546.49 1228.74 1551.1 Q1231.82 1555.68 1231.82 1564.43 Q1231.82 1573.16 1228.74 1577.77 Q1225.68 1582.35 1219.87 1582.35 Q1214.06 1582.35 1210.99 1577.77 Q1207.93 1573.16 1207.93 1564.43 Q1207.93 1555.68 1210.99 1551.1 Q1214.06 1546.49 1219.87 1546.49 Z" fill="#000000" fill-rule="evenodd" fill-opacity="1" /><path clip-path="url(#clip120)" d="M 0 0 M1642.03 1577.74 L1658.35 1577.74 L1658.35 1581.68 L1636.4 1581.68 L1636.4 1577.74 Q1639.07 1574.99 1643.65 1570.36 Q1648.26 1565.71 1649.44 1564.37 Q1651.68 1561.84 1652.56 1560.11 Q1653.46 1558.35 1653.46 1556.66 Q1653.46 1553.9 1651.52 1552.17 Q1649.6 1550.43 1646.5 1550.43 Q1644.3 1550.43 1641.84 1551.19 Q1639.41 1551.96 1636.64 1553.51 L1636.64 1548.79 Q1639.46 1547.65 1641.91 1547.07 Q1644.37 1546.49 1646.4 1546.49 Q1651.77 1546.49 1654.97 1549.18 Q1658.16 1551.87 1658.16 1556.36 Q1658.16 1558.49 1657.35 1560.41 Q1656.57 1562.3 1654.46 1564.9 Q1653.88 1565.57 1650.78 1568.79 Q1647.68 1571.98 1642.03 1577.74 Z" fill="#000000" fill-rule="evenodd" fill-opacity="1" /><path clip-path="url(#clip120)" d="M 0 0 M2077.89 1551.19 L2066.08 1569.64 L2077.89 1569.64 L2077.89 1551.19 M2076.66 1547.12 L2082.54 1547.12 L2082.54 1569.64 L2087.47 1569.64 L2087.47 1573.53 L2082.54 1573.53 L2082.54 1581.68 L2077.89 1581.68 L2077.89 1573.53 L2062.29 1573.53 L2062.29 1569.02 L2076.66 1547.12 Z" fill="#000000" fill-rule="evenodd" fill-opacity="1" /><polyline clip-path="url(#clip122)" style="stroke:#000000; stroke-width:2; stroke-opacity:0.1; fill:none" points="
  86.9921,1432.96 2352.76,1432.96 
  "/>
<polyline clip-path="url(#clip122)" style="stroke:#000000; stroke-width:2; stroke-opacity:0.1; fill:none" points="
  86.9921,1048.96 2352.76,1048.96 
  "/>
<polyline clip-path="url(#clip122)" style="stroke:#000000; stroke-width:2; stroke-opacity:0.1; fill:none" points="
  86.9921,664.958 2352.76,664.958 
  "/>
<polyline clip-path="url(#clip122)" style="stroke:#000000; stroke-width:2; stroke-opacity:0.1; fill:none" points="
  86.9921,280.956 2352.76,280.956 
  "/>
<polyline clip-path="url(#clip120)" style="stroke:#000000; stroke-width:4; stroke-opacity:1; fill:none" points="
  86.9921,1521.01 86.9921,47.2441 
  "/>
<polyline clip-path="url(#clip120)" style="stroke:#000000; stroke-width:4; stroke-opacity:1; fill:none" points="
  86.9921,1432.96 114.181,1432.96 
  "/>
<polyline clip-path="url(#clip120)" style="stroke:#000000; stroke-width:4; stroke-opacity:1; fill:none" points="
  86.9921,1048.96 114.181,1048.96 
  "/>
<polyline clip-path="url(#clip120)" style="stroke:#000000; stroke-width:4; stroke-opacity:1; fill:none" points="
  86.9921,664.958 114.181,664.958 
  "/>
<polyline clip-path="url(#clip120)" style="stroke:#000000; stroke-width:4; stroke-opacity:1; fill:none" points="
  86.9921,280.956 114.181,280.956 
  "/>
<path clip-path="url(#clip120)" d="M 0 0 M39.0477 1418.76 Q35.4367 1418.76 33.608 1422.33 Q31.8024 1425.87 31.8024 1433 Q31.8024 1440.11 33.608 1443.67 Q35.4367 1447.21 39.0477 1447.21 Q42.682 1447.21 44.4875 1443.67 Q46.3162 1440.11 46.3162 1433 Q46.3162 1425.87 44.4875 1422.33 Q42.682 1418.76 39.0477 1418.76 M39.0477 1415.06 Q44.8579 1415.06 47.9134 1419.67 Q50.9921 1424.25 50.9921 1433 Q50.9921 1441.73 47.9134 1446.33 Q44.8579 1450.92 39.0477 1450.92 Q33.2376 1450.92 30.1589 1446.33 Q27.1034 1441.73 27.1034 1433 Q27.1034 1424.25 30.1589 1419.67 Q33.2376 1415.06 39.0477 1415.06 Z" fill="#000000" fill-rule="evenodd" fill-opacity="1" /><path clip-path="url(#clip120)" d="M 0 0 M4.07108 1062.31 L11.7099 1062.31 L11.7099 1035.94 L3.39979 1037.61 L3.39979 1033.35 L11.6636 1031.68 L16.3395 1031.68 L16.3395 1062.31 L23.9784 1062.31 L23.9784 1066.24 L4.07108 1066.24 L4.07108 1062.31 Z" fill="#000000" fill-rule="evenodd" fill-opacity="1" /><path clip-path="url(#clip120)" d="M 0 0 M39.0477 1034.76 Q35.4367 1034.76 33.608 1038.32 Q31.8024 1041.87 31.8024 1049 Q31.8024 1056.1 33.608 1059.67 Q35.4367 1063.21 39.0477 1063.21 Q42.682 1063.21 44.4875 1059.67 Q46.3162 1056.1 46.3162 1049 Q46.3162 1041.87 44.4875 1038.32 Q42.682 1034.76 39.0477 1034.76 M39.0477 1031.06 Q44.8579 1031.06 47.9134 1035.66 Q50.9921 1040.25 50.9921 1049 Q50.9921 1057.72 47.9134 1062.33 Q44.8579 1066.91 39.0477 1066.91 Q33.2376 1066.91 30.1589 1062.33 Q27.1034 1057.72 27.1034 1049 Q27.1034 1040.25 30.1589 1035.66 Q33.2376 1031.06 39.0477 1031.06 Z" fill="#000000" fill-rule="evenodd" fill-opacity="1" /><path clip-path="url(#clip120)" d="M 0 0 M7.65902 678.303 L23.9784 678.303 L23.9784 682.238 L2.03405 682.238 L2.03405 678.303 Q4.69608 675.549 9.27939 670.919 Q13.8858 666.266 15.0664 664.924 Q17.3118 662.401 18.1914 660.665 Q19.0941 658.905 19.0941 657.215 Q19.0941 654.461 17.1497 652.725 Q15.2284 650.989 12.1266 650.989 Q9.92753 650.989 7.47384 651.753 Q5.0433 652.516 2.26554 654.067 L2.26554 649.345 Q5.08959 648.211 7.54328 647.632 Q9.99698 647.053 12.034 647.053 Q17.4043 647.053 20.5988 649.739 Q23.7932 652.424 23.7932 656.915 Q23.7932 659.044 22.983 660.965 Q22.196 662.864 20.0895 665.456 Q19.5108 666.127 16.409 669.345 Q13.3071 672.539 7.65902 678.303 Z" fill="#000000" fill-rule="evenodd" fill-opacity="1" /><path clip-path="url(#clip120)" d="M 0 0 M39.0477 650.757 Q35.4367 650.757 33.608 654.322 Q31.8024 657.864 31.8024 664.993 Q31.8024 672.1 33.608 675.664 Q35.4367 679.206 39.0477 679.206 Q42.682 679.206 44.4875 675.664 Q46.3162 672.1 46.3162 664.993 Q46.3162 657.864 44.4875 654.322 Q42.682 650.757 39.0477 650.757 M39.0477 647.053 Q44.8579 647.053 47.9134 651.66 Q50.9921 656.243 50.9921 664.993 Q50.9921 673.72 47.9134 678.326 Q44.8579 682.91 39.0477 682.91 Q33.2376 682.91 30.1589 678.326 Q27.1034 673.72 27.1034 664.993 Q27.1034 656.243 30.1589 651.66 Q33.2376 647.053 39.0477 647.053 Z" fill="#000000" fill-rule="evenodd" fill-opacity="1" /><path clip-path="url(#clip120)" d="M 0 0 M16.8488 279.602 Q20.2053 280.319 22.0802 282.588 Q23.9784 284.856 23.9784 288.19 Q23.9784 293.305 20.4599 296.106 Q16.9414 298.907 10.4599 298.907 Q8.28402 298.907 5.96922 298.467 Q3.67756 298.051 1.22387 297.194 L1.22387 292.68 Q3.16831 293.814 5.48311 294.393 Q7.79791 294.972 10.321 294.972 Q14.7192 294.972 17.0108 293.236 Q19.3256 291.5 19.3256 288.19 Q19.3256 285.134 17.1729 283.421 Q15.0432 281.685 11.2238 281.685 L7.19606 281.685 L7.19606 277.842 L11.409 277.842 Q14.8581 277.842 16.6868 276.477 Q18.5154 275.088 18.5154 272.495 Q18.5154 269.833 16.6173 268.421 Q14.7423 266.986 11.2238 266.986 Q9.30253 266.986 7.10347 267.403 Q4.90441 267.819 2.26554 268.699 L2.26554 264.532 Q4.92756 263.791 7.24236 263.421 Q9.58031 263.051 11.6405 263.051 Q16.9645 263.051 20.0664 265.481 Q23.1682 267.889 23.1682 272.009 Q23.1682 274.879 21.5247 276.87 Q19.8812 278.838 16.8488 279.602 Z" fill="#000000" fill-rule="evenodd" fill-opacity="1" /><path clip-path="url(#clip120)" d="M 0 0 M39.0477 266.754 Q35.4367 266.754 33.608 270.319 Q31.8024 273.861 31.8024 280.99 Q31.8024 288.097 33.608 291.662 Q35.4367 295.203 39.0477 295.203 Q42.682 295.203 44.4875 291.662 Q46.3162 288.097 46.3162 280.99 Q46.3162 273.861 44.4875 270.319 Q42.682 266.754 39.0477 266.754 M39.0477 263.051 Q44.8579 263.051 47.9134 267.657 Q50.9921 272.241 50.9921 280.99 Q50.9921 289.717 47.9134 294.324 Q44.8579 298.907 39.0477 298.907 Q33.2376 298.907 30.1589 294.324 Q27.1034 289.717 27.1034 280.99 Q27.1034 272.241 30.1589 267.657 Q33.2376 263.051 39.0477 263.051 Z" fill="#000000" fill-rule="evenodd" fill-opacity="1" /><polyline clip-path="url(#clip122)" style="stroke:#009af9; stroke-width:4; stroke-opacity:1; fill:none" points="
  151.118,856.96 161.555,871.869 171.992,886.594 268.5,1014.08 365.008,1125.91 423.005,1185.59 481.002,1239.61 530.038,1280.87 579.074,1318.09 685.607,1385.02 
  783.821,1429.83 836.469,1447.17 889.117,1459.86 950.115,1468.73 1011.11,1471.34 1065.32,1468.42 1119.53,1460.56 1167.06,1449.59 1214.6,1434.84 1318.25,1389.48 
  1422.52,1325.64 1480.16,1282.5 1537.8,1233.78 1592.65,1182.24 1647.49,1125.64 1761.54,991.75 1857.55,862.095 1916.15,775.333 1974.76,682.797 2029.85,590.546 
  2084.94,493.193 2173.2,326.593 2261.46,146.898 2275.05,118.081 2288.63,88.9544 
  "/>
<path clip-path="url(#clip122)" d="
M151.118 1479.3 L2288.63 1479.3 L2288.63 88.9544 L151.118 88.9544 L151.118 1479.3  Z
  " fill="#e26f46" fill-rule="evenodd" fill-opacity="0.5"/>
<polyline clip-path="url(#clip122)" style="stroke:#000000; stroke-width:4; stroke-opacity:0.5; fill:none" points="
  151.118,1479.3 2288.63,1479.3 2288.63,88.9544 151.118,88.9544 151.118,1479.3 
  "/>
</svg>
