<?xml version="1.0" encoding="utf-8"?>
<svg xmlns="http://www.w3.org/2000/svg" xmlns:xlink="http://www.w3.org/1999/xlink" width="600" height="400" viewBox="0 0 2400 1600">
<defs>
  <clipPath id="clip740">
    <rect x="0" y="0" width="2400" height="1600"/>
  </clipPath>
</defs>
<path clip-path="url(#clip740)" d="
M0 1600 L2400 1600 L2400 0 L0 0  Z
  " fill="#ffffff" fill-rule="evenodd" fill-opacity="1"/>
<defs>
  <clipPath id="clip741">
    <rect x="480" y="0" width="1681" height="1600"/>
  </clipPath>
</defs>
<path clip-path="url(#clip740)" d="
M86.9921 1521.01 L2352.76 1521.01 L2352.76 47.2441 L86.9921 47.2441  Z
  " fill="#ffffff" fill-rule="evenodd" fill-opacity="1"/>
<defs>
  <clipPath id="clip742">
    <rect x="86" y="47" width="2267" height="1475"/>
  </clipPath>
</defs>
<polyline clip-path="url(#clip742)" style="stroke:#000000; stroke-width:2; stroke-opacity:0.1; fill:none" points="
  364.869,1521.01 364.869,47.2441 
  "/>
<polyline clip-path="url(#clip742)" style="stroke:#000000; stroke-width:2; stroke-opacity:0.1; fill:none" points="
  792.371,1521.01 792.371,47.2441 
  "/>
<polyline clip-path="url(#clip742)" style="stroke:#000000; stroke-width:2; stroke-opacity:0.1; fill:none" points="
  1219.87,1521.01 1219.87,47.2441 
  "/>
<polyline clip-path="url(#clip742)" style="stroke:#000000; stroke-width:2; stroke-opacity:0.1; fill:none" points="
  1647.38,1521.01 1647.38,47.2441 
  "/>
<polyline clip-path="url(#clip742)" style="stroke:#000000; stroke-width:2; stroke-opacity:0.1; fill:none" points="
  2074.88,1521.01 2074.88,47.2441 
  "/>
<polyline clip-path="url(#clip740)" style="stroke:#000000; stroke-width:4; stroke-opacity:1; fill:none" points="
  86.9921,1521.01 2352.76,1521.01 
  "/>
<polyline clip-path="url(#clip740)" style="stroke:#000000; stroke-width:4; stroke-opacity:1; fill:none" points="
  364.869,1521.01 364.869,1503.32 
  "/>
<polyline clip-path="url(#clip740)" style="stroke:#000000; stroke-width:4; stroke-opacity:1; fill:none" points="
  792.371,1521.01 792.371,1503.32 
  "/>
<polyline clip-path="url(#clip740)" style="stroke:#000000; stroke-width:4; stroke-opacity:1; fill:none" points="
  1219.87,1521.01 1219.87,1503.32 
  "/>
<polyline clip-path="url(#clip740)" style="stroke:#000000; stroke-width:4; stroke-opacity:1; fill:none" points="
  1647.38,1521.01 1647.38,1503.32 
  "/>
<polyline clip-path="url(#clip740)" style="stroke:#000000; stroke-width:4; stroke-opacity:1; fill:none" points="
  2074.88,1521.01 2074.88,1503.32 
  "/>
<path clip-path="url(#clip740)" d="M 0 0 M336.281 1564.85 L365.957 1564.85 L365.957 1568.79 L336.281 1568.79 L336.281 1564.85 Z" fill="#000000" fill-rule="evenodd" fill-opacity="1" /><path clip-path="url(#clip740)" d="M 0 0 M383.873 1551.19 L372.068 1569.64 L383.873 1569.64 L383.873 1551.19 M382.646 1547.12 L388.526 1547.12 L388.526 1569.64 L393.457 1569.64 L393.457 1573.53 L388.526 1573.53 L388.526 1581.68 L383.873 1581.68 L383.873 1573.53 L368.272 1573.53 L368.272 1569.02 L382.646 1547.12 Z" fill="#000000" fill-rule="evenodd" fill-opacity="1" /><path clip-path="url(#clip740)" d="M 0 0 M764.825 1564.85 L794.501 1564.85 L794.501 1568.79 L764.825 1568.79 L764.825 1564.85 Z" fill="#000000" fill-rule="evenodd" fill-opacity="1" /><path clip-path="url(#clip740)" d="M 0 0 M803.598 1577.74 L819.918 1577.74 L819.918 1581.68 L797.973 1581.68 L797.973 1577.74 Q800.635 1574.99 805.219 1570.36 Q809.825 1565.71 811.006 1564.37 Q813.251 1561.84 814.131 1560.11 Q815.033 1558.35 815.033 1556.66 Q815.033 1553.9 813.089 1552.17 Q811.168 1550.43 808.066 1550.43 Q805.867 1550.43 803.413 1551.19 Q800.982 1551.96 798.205 1553.51 L798.205 1548.79 Q801.029 1547.65 803.482 1547.07 Q805.936 1546.49 807.973 1546.49 Q813.344 1546.49 816.538 1549.18 Q819.732 1551.87 819.732 1556.36 Q819.732 1558.49 818.922 1560.41 Q818.135 1562.3 816.029 1564.9 Q815.45 1565.57 812.348 1568.79 Q809.246 1571.98 803.598 1577.74 Z" fill="#000000" fill-rule="evenodd" fill-opacity="1" /><path clip-path="url(#clip740)" d="M 0 0 M1219.87 1550.2 Q1216.26 1550.2 1214.43 1553.76 Q1212.63 1557.31 1212.63 1564.43 Q1212.63 1571.54 1214.43 1575.11 Q1216.26 1578.65 1219.87 1578.65 Q1223.51 1578.65 1225.31 1575.11 Q1227.14 1571.54 1227.14 1564.43 Q1227.14 1557.31 1225.31 1553.76 Q1223.51 1550.2 1219.87 1550.2 M1219.87 1546.49 Q1225.68 1546.49 1228.74 1551.1 Q1231.82 1555.68 1231.82 1564.43 Q1231.82 1573.16 1228.74 1577.77 Q1225.68 1582.35 1219.87 1582.35 Q1214.06 1582.35 1210.99 1577.77 Q1207.93 1573.16 1207.93 1564.43 Q1207.93 1555.68 1210.99 1551.1 Q1214.06 1546.49 1219.87 1546.49 Z" fill="#000000" fill-rule="evenodd" fill-opacity="1" /><path clip-path="url(#clip740)" d="M 0 0 M1642.03 1577.74 L1658.35 1577.74 L1658.35 1581.68 L1636.4 1581.68 L1636.4 1577.74 Q1639.07 1574.99 1643.65 1570.36 Q1648.26 1565.71 1649.44 1564.37 Q1651.68 1561.84 1652.56 1560.11 Q1653.46 1558.35 1653.46 1556.66 Q1653.46 1553.9 1651.52 1552.17 Q1649.6 1550.43 1646.5 1550.43 Q1644.3 1550.43 1641.84 1551.19 Q1639.41 1551.96 1636.64 1553.51 L1636.64 1548.79 Q1639.46 1547.65 1641.91 1547.07 Q1644.37 1546.49 1646.4 1546.49 Q1651.77 1546.49 1654.97 1549.18 Q1658.16 1551.87 1658.16 1556.36 Q1658.16 1558.49 1657.35 1560.41 Q1656.57 1562.3 1654.46 1564.9 Q1653.88 1565.57 1650.78 1568.79 Q1647.68 1571.98 1642.03 1577.74 Z" fill="#000000" fill-rule="evenodd" fill-opacity="1" /><path clip-path="url(#clip740)" d="M 0 0 M2077.89 1551.19 L2066.08 1569.64 L2077.89 1569.64 L2077.89 1551.19 M2076.66 1547.12 L2082.54 1547.12 L2082.54 1569.64 L2087.47 1569.64 L2087.47 1573.53 L2082.54 1573.53 L2082.54 1581.68 L2077.89 1581.68 L2077.89 1573.53 L2062.29 1573.53 L2062.29 1569.02 L2076.66 1547.12 Z" fill="#000000" fill-rule="evenodd" fill-opacity="1" /><polyline clip-path="url(#clip742)" style="stroke:#000000; stroke-width:2; stroke-opacity:0.1; fill:none" points="
  86.9921,1440.68 2352.76,1440.68 
  "/>
<polyline clip-path="url(#clip742)" style="stroke:#000000; stroke-width:2; stroke-opacity:0.1; fill:none" points="
  86.9921,1054.47 2352.76,1054.47 
  "/>
<polyline clip-path="url(#clip742)" style="stroke:#000000; stroke-width:2; stroke-opacity:0.1; fill:none" points="
  86.9921,668.264 2352.76,668.264 
  "/>
<polyline clip-path="url(#clip742)" style="stroke:#000000; stroke-width:2; stroke-opacity:0.1; fill:none" points="
  86.9921,282.058 2352.76,282.058 
  "/>
<polyline clip-path="url(#clip740)" style="stroke:#000000; stroke-width:4; stroke-opacity:1; fill:none" points="
  86.9921,1521.01 86.9921,47.2441 
  "/>
<polyline clip-path="url(#clip740)" style="stroke:#000000; stroke-width:4; stroke-opacity:1; fill:none" points="
  86.9921,1440.68 114.181,1440.68 
  "/>
<polyline clip-path="url(#clip740)" style="stroke:#000000; stroke-width:4; stroke-opacity:1; fill:none" points="
  86.9921,1054.47 114.181,1054.47 
  "/>
<polyline clip-path="url(#clip740)" style="stroke:#000000; stroke-width:4; stroke-opacity:1; fill:none" points="
  86.9921,668.264 114.181,668.264 
  "/>
<polyline clip-path="url(#clip740)" style="stroke:#000000; stroke-width:4; stroke-opacity:1; fill:none" points="
  86.9921,282.058 114.181,282.058 
  "/>
<path clip-path="url(#clip740)" d="M 0 0 M39.0477 1426.48 Q35.4367 1426.48 33.608 1430.04 Q31.8024 1433.58 31.8024 1440.71 Q31.8024 1447.82 33.608 1451.38 Q35.4367 1454.92 39.0477 1454.92 Q42.682 1454.92 44.4875 1451.38 Q46.3162 1447.82 46.3162 1440.71 Q46.3162 1433.58 44.4875 1430.04 Q42.682 1426.48 39.0477 1426.48 M39.0477 1422.77 Q44.8579 1422.77 47.9134 1427.38 Q50.9921 1431.96 50.9921 1440.71 Q50.9921 1449.44 47.9134 1454.04 Q44.8579 1458.63 39.0477 1458.63 Q33.2376 1458.63 30.1589 1454.04 Q27.1034 1449.44 27.1034 1440.71 Q27.1034 1431.96 30.1589 1427.38 Q33.2376 1422.77 39.0477 1422.77 Z" fill="#000000" fill-rule="evenodd" fill-opacity="1" /><path clip-path="url(#clip740)" d="M 0 0 M4.07108 1067.82 L11.7099 1067.82 L11.7099 1041.45 L3.39979 1043.12 L3.39979 1038.86 L11.6636 1037.19 L16.3395 1037.19 L16.3395 1067.82 L23.9784 1067.82 L23.9784 1071.75 L4.07108 1071.75 L4.07108 1067.82 Z" fill="#000000" fill-rule="evenodd" fill-opacity="1" /><path clip-path="url(#clip740)" d="M 0 0 M39.0477 1040.27 Q35.4367 1040.27 33.608 1043.83 Q31.8024 1047.38 31.8024 1054.51 Q31.8024 1061.61 33.608 1065.18 Q35.4367 1068.72 39.0477 1068.72 Q42.682 1068.72 44.4875 1065.18 Q46.3162 1061.61 46.3162 1054.51 Q46.3162 1047.38 44.4875 1043.83 Q42.682 1040.27 39.0477 1040.27 M39.0477 1036.57 Q44.8579 1036.57 47.9134 1041.17 Q50.9921 1045.76 50.9921 1054.51 Q50.9921 1063.23 47.9134 1067.84 Q44.8579 1072.42 39.0477 1072.42 Q33.2376 1072.42 30.1589 1067.84 Q27.1034 1063.23 27.1034 1054.51 Q27.1034 1045.76 30.1589 1041.17 Q33.2376 1036.57 39.0477 1036.57 Z" fill="#000000" fill-rule="evenodd" fill-opacity="1" /><path clip-path="url(#clip740)" d="M 0 0 M7.65902 681.609 L23.9784 681.609 L23.9784 685.544 L2.03405 685.544 L2.03405 681.609 Q4.69608 678.854 9.27939 674.225 Q13.8858 669.572 15.0664 668.229 Q17.3118 665.706 18.1914 663.97 Q19.0941 662.211 19.0941 660.521 Q19.0941 657.766 17.1497 656.03 Q15.2284 654.294 12.1266 654.294 Q9.92753 654.294 7.47384 655.058 Q5.0433 655.822 2.26554 657.373 L2.26554 652.651 Q5.08959 651.516 7.54328 650.938 Q9.99698 650.359 12.034 650.359 Q17.4043 650.359 20.5988 653.044 Q23.7932 655.729 23.7932 660.22 Q23.7932 662.35 22.983 664.271 Q22.196 666.169 20.0895 668.762 Q19.5108 669.433 16.409 672.651 Q13.3071 675.845 7.65902 681.609 Z" fill="#000000" fill-rule="evenodd" fill-opacity="1" /><path clip-path="url(#clip740)" d="M 0 0 M39.0477 654.063 Q35.4367 654.063 33.608 657.628 Q31.8024 661.169 31.8024 668.299 Q31.8024 675.405 33.608 678.97 Q35.4367 682.512 39.0477 682.512 Q42.682 682.512 44.4875 678.97 Q46.3162 675.405 46.3162 668.299 Q46.3162 661.169 44.4875 657.628 Q42.682 654.063 39.0477 654.063 M39.0477 650.359 Q44.8579 650.359 47.9134 654.966 Q50.9921 659.549 50.9921 668.299 Q50.9921 677.026 47.9134 681.632 Q44.8579 686.215 39.0477 686.215 Q33.2376 686.215 30.1589 681.632 Q27.1034 677.026 27.1034 668.299 Q27.1034 659.549 30.1589 654.966 Q33.2376 650.359 39.0477 650.359 Z" fill="#000000" fill-rule="evenodd" fill-opacity="1" /><path clip-path="url(#clip740)" d="M 0 0 M16.8488 280.703 Q20.2053 281.421 22.0802 283.69 Q23.9784 285.958 23.9784 289.291 Q23.9784 294.407 20.4599 297.208 Q16.9414 300.009 10.4599 300.009 Q8.28402 300.009 5.96922 299.569 Q3.67756 299.152 1.22387 298.296 L1.22387 293.782 Q3.16831 294.916 5.48311 295.495 Q7.79791 296.074 10.321 296.074 Q14.7192 296.074 17.0108 294.338 Q19.3256 292.602 19.3256 289.291 Q19.3256 286.236 17.1729 284.523 Q15.0432 282.787 11.2238 282.787 L7.19606 282.787 L7.19606 278.944 L11.409 278.944 Q14.8581 278.944 16.6868 277.578 Q18.5154 276.19 18.5154 273.597 Q18.5154 270.935 16.6173 269.523 Q14.7423 268.088 11.2238 268.088 Q9.30253 268.088 7.10347 268.504 Q4.90441 268.921 2.26554 269.801 L2.26554 265.634 Q4.92756 264.893 7.24236 264.523 Q9.58031 264.153 11.6405 264.153 Q16.9645 264.153 20.0664 266.583 Q23.1682 268.991 23.1682 273.111 Q23.1682 275.981 21.5247 277.972 Q19.8812 279.94 16.8488 280.703 Z" fill="#000000" fill-rule="evenodd" fill-opacity="1" /><path clip-path="url(#clip740)" d="M 0 0 M39.0477 267.856 Q35.4367 267.856 33.608 271.421 Q31.8024 274.963 31.8024 282.092 Q31.8024 289.199 33.608 292.764 Q35.4367 296.305 39.0477 296.305 Q42.682 296.305 44.4875 292.764 Q46.3162 289.199 46.3162 282.092 Q46.3162 274.963 44.4875 271.421 Q42.682 267.856 39.0477 267.856 M39.0477 264.153 Q44.8579 264.153 47.9134 268.759 Q50.9921 273.342 50.9921 282.092 Q50.9921 290.819 47.9134 295.426 Q44.8579 300.009 39.0477 300.009 Q33.2376 300.009 30.1589 295.426 Q27.1034 290.819 27.1034 282.092 Q27.1034 273.342 30.1589 268.759 Q33.2376 264.153 39.0477 264.153 Z" fill="#000000" fill-rule="evenodd" fill-opacity="1" /><polyline clip-path="url(#clip742)" style="stroke:#009af9; stroke-width:4; stroke-opacity:1; fill:none" points="
  151.118,861.367 161.555,876.362 171.992,891.172 268.5,1019.39 365.008,1131.86 423.005,1191.88 481.002,1246.21 530.038,1287.71 579.074,1325.14 685.607,1392.46 
  783.821,1437.53 836.469,1454.97 889.117,1467.73 950.115,1476.65 1011.11,1479.28 1065.32,1476.34 1119.53,1468.43 1167.06,1457.4 1214.6,1442.56 1318.25,1396.95 
  1422.52,1332.74 1480.16,1289.35 1537.8,1240.35 1592.65,1188.51 1647.49,1131.59 1761.54,996.931 1857.55,866.532 1916.15,779.272 1974.76,686.205 2029.85,593.425 
  2084.94,495.513 2173.2,327.957 2261.46,147.231 2275.05,118.249 2288.63,88.9544 
  "/>
<path clip-path="url(#clip742)" d="
M151.118 1479.3 L2288.63 1479.3 L2288.63 88.9544 L151.118 88.9544 L151.118 1479.3  Z
  " fill="#e26f46" fill-rule="evenodd" fill-opacity="0.5"/>
<polyline clip-path="url(#clip742)" style="stroke:#000000; stroke-width:4; stroke-opacity:0.5; fill:none" points="
  151.118,1479.3 2288.63,1479.3 2288.63,88.9544 151.118,88.9544 151.118,1479.3 
  "/>
</svg>
