<?xml version="1.0" encoding="utf-8"?>
<svg xmlns="http://www.w3.org/2000/svg" xmlns:xlink="http://www.w3.org/1999/xlink" width="600" height="400" viewBox="0 0 2400 1600">
<defs>
  <clipPath id="clip220">
    <rect x="0" y="0" width="2400" height="1600"/>
  </clipPath>
</defs>
<path clip-path="url(#clip220)" d="
M0 1600 L2400 1600 L2400 0 L0 0  Z
  " fill="#ffffff" fill-rule="evenodd" fill-opacity="1"/>
<defs>
  <clipPath id="clip221">
    <rect x="480" y="0" width="1681" height="1600"/>
  </clipPath>
</defs>
<path clip-path="url(#clip220)" d="
M102.74 1505.26 L2352.76 1505.26 L2352.76 47.2441 L102.74 47.2441  Z
  " fill="#ffffff" fill-rule="evenodd" fill-opacity="1"/>
<defs>
  <clipPath id="clip222">
    <rect x="102" y="47" width="2251" height="1459"/>
  </clipPath>
</defs>
<polyline clip-path="url(#clip222)" style="stroke:#000000; stroke-width:2; stroke-opacity:0.1; fill:none" points="
  449.441,1505.26 449.441,47.2441 
  "/>
<polyline clip-path="url(#clip222)" style="stroke:#000000; stroke-width:2; stroke-opacity:0.1; fill:none" points="
  873.972,1505.26 873.972,47.2441 
  "/>
<polyline clip-path="url(#clip222)" style="stroke:#000000; stroke-width:2; stroke-opacity:0.1; fill:none" points="
  1298.5,1505.26 1298.5,47.2441 
  "/>
<polyline clip-path="url(#clip222)" style="stroke:#000000; stroke-width:2; stroke-opacity:0.1; fill:none" points="
  1723.03,1505.26 1723.03,47.2441 
  "/>
<polyline clip-path="url(#clip222)" style="stroke:#000000; stroke-width:2; stroke-opacity:0.1; fill:none" points="
  2147.57,1505.26 2147.57,47.2441 
  "/>
<polyline clip-path="url(#clip220)" style="stroke:#000000; stroke-width:4; stroke-opacity:1; fill:none" points="
  102.74,1505.26 2352.76,1505.26 
  "/>
<polyline clip-path="url(#clip220)" style="stroke:#000000; stroke-width:4; stroke-opacity:1; fill:none" points="
  449.441,1505.26 449.441,1487.76 
  "/>
<polyline clip-path="url(#clip220)" style="stroke:#000000; stroke-width:4; stroke-opacity:1; fill:none" points="
  873.972,1505.26 873.972,1487.76 
  "/>
<polyline clip-path="url(#clip220)" style="stroke:#000000; stroke-width:4; stroke-opacity:1; fill:none" points="
  1298.5,1505.26 1298.5,1487.76 
  "/>
<polyline clip-path="url(#clip220)" style="stroke:#000000; stroke-width:4; stroke-opacity:1; fill:none" points="
  1723.03,1505.26 1723.03,1487.76 
  "/>
<polyline clip-path="url(#clip220)" style="stroke:#000000; stroke-width:4; stroke-opacity:1; fill:none" points="
  2147.57,1505.26 2147.57,1487.76 
  "/>
<path clip-path="url(#clip220)" d="M 0 0 M402.936 1549.1 L432.612 1549.1 L432.612 1553.04 L402.936 1553.04 L402.936 1549.1 Z" fill="#000000" fill-rule="evenodd" fill-opacity="1" /><path clip-path="url(#clip220)" d="M 0 0 M447.681 1534.45 Q444.07 1534.45 442.242 1538.02 Q440.436 1541.56 440.436 1548.69 Q440.436 1555.79 442.242 1559.36 Q444.07 1562.9 447.681 1562.9 Q451.316 1562.9 453.121 1559.36 Q454.95 1555.79 454.95 1548.69 Q454.95 1541.56 453.121 1538.02 Q451.316 1534.45 447.681 1534.45 M447.681 1530.75 Q453.492 1530.75 456.547 1535.35 Q459.626 1539.94 459.626 1548.69 Q459.626 1557.41 456.547 1562.02 Q453.492 1566.6 447.681 1566.6 Q441.871 1566.6 438.793 1562.02 Q435.737 1557.41 435.737 1548.69 Q435.737 1539.94 438.793 1535.35 Q441.871 1530.75 447.681 1530.75 Z" fill="#000000" fill-rule="evenodd" fill-opacity="1" /><path clip-path="url(#clip220)" d="M 0 0 M464.695 1560.05 L469.579 1560.05 L469.579 1565.93 L464.695 1565.93 L464.695 1560.05 Z" fill="#000000" fill-rule="evenodd" fill-opacity="1" /><path clip-path="url(#clip220)" d="M 0 0 M488.815 1547.3 Q492.172 1548.02 494.047 1550.28 Q495.945 1552.55 495.945 1555.89 Q495.945 1561 492.427 1563.8 Q488.908 1566.6 482.427 1566.6 Q480.251 1566.6 477.936 1566.16 Q475.644 1565.75 473.191 1564.89 L473.191 1560.38 Q475.135 1561.51 477.45 1562.09 Q479.765 1562.67 482.288 1562.67 Q486.686 1562.67 488.978 1560.93 Q491.292 1559.2 491.292 1555.89 Q491.292 1552.83 489.14 1551.12 Q487.01 1549.38 483.191 1549.38 L479.163 1549.38 L479.163 1545.54 L483.376 1545.54 Q486.825 1545.54 488.653 1544.17 Q490.482 1542.78 490.482 1540.19 Q490.482 1537.53 488.584 1536.12 Q486.709 1534.68 483.191 1534.68 Q481.269 1534.68 479.07 1535.1 Q476.871 1535.52 474.232 1536.39 L474.232 1532.23 Q476.894 1531.49 479.209 1531.12 Q481.547 1530.75 483.607 1530.75 Q488.931 1530.75 492.033 1533.18 Q495.135 1535.58 495.135 1539.71 Q495.135 1542.58 493.491 1544.57 Q491.848 1546.53 488.815 1547.3 Z" fill="#000000" fill-rule="evenodd" fill-opacity="1" /><path clip-path="url(#clip220)" d="M 0 0 M855.488 1534.45 Q851.877 1534.45 850.048 1538.02 Q848.243 1541.56 848.243 1548.69 Q848.243 1555.79 850.048 1559.36 Q851.877 1562.9 855.488 1562.9 Q859.123 1562.9 860.928 1559.36 Q862.757 1555.79 862.757 1548.69 Q862.757 1541.56 860.928 1538.02 Q859.123 1534.45 855.488 1534.45 M855.488 1530.75 Q861.298 1530.75 864.354 1535.35 Q867.433 1539.94 867.433 1548.69 Q867.433 1557.41 864.354 1562.02 Q861.298 1566.6 855.488 1566.6 Q849.678 1566.6 846.599 1562.02 Q843.544 1557.41 843.544 1548.69 Q843.544 1539.94 846.599 1535.35 Q849.678 1530.75 855.488 1530.75 Z" fill="#000000" fill-rule="evenodd" fill-opacity="1" /><path clip-path="url(#clip220)" d="M 0 0 M872.502 1560.05 L877.386 1560.05 L877.386 1565.93 L872.502 1565.93 L872.502 1560.05 Z" fill="#000000" fill-rule="evenodd" fill-opacity="1" /><path clip-path="url(#clip220)" d="M 0 0 M892.456 1534.45 Q888.845 1534.45 887.016 1538.02 Q885.21 1541.56 885.21 1548.69 Q885.21 1555.79 887.016 1559.36 Q888.845 1562.9 892.456 1562.9 Q896.09 1562.9 897.895 1559.36 Q899.724 1555.79 899.724 1548.69 Q899.724 1541.56 897.895 1538.02 Q896.09 1534.45 892.456 1534.45 M892.456 1530.75 Q898.266 1530.75 901.321 1535.35 Q904.4 1539.94 904.4 1548.69 Q904.4 1557.41 901.321 1562.02 Q898.266 1566.6 892.456 1566.6 Q886.646 1566.6 883.567 1562.02 Q880.511 1557.41 880.511 1548.69 Q880.511 1539.94 883.567 1535.35 Q886.646 1530.75 892.456 1530.75 Z" fill="#000000" fill-rule="evenodd" fill-opacity="1" /><path clip-path="url(#clip220)" d="M 0 0 M1280.34 1534.45 Q1276.73 1534.45 1274.9 1538.02 Q1273.1 1541.56 1273.1 1548.69 Q1273.1 1555.79 1274.9 1559.36 Q1276.73 1562.9 1280.34 1562.9 Q1283.98 1562.9 1285.78 1559.36 Q1287.61 1555.79 1287.61 1548.69 Q1287.61 1541.56 1285.78 1538.02 Q1283.98 1534.45 1280.34 1534.45 M1280.34 1530.75 Q1286.15 1530.75 1289.21 1535.35 Q1292.29 1539.94 1292.29 1548.69 Q1292.29 1557.41 1289.21 1562.02 Q1286.15 1566.6 1280.34 1566.6 Q1274.53 1566.6 1271.45 1562.02 Q1268.4 1557.41 1268.4 1548.69 Q1268.4 1539.94 1271.45 1535.35 Q1274.53 1530.75 1280.34 1530.75 Z" fill="#000000" fill-rule="evenodd" fill-opacity="1" /><path clip-path="url(#clip220)" d="M 0 0 M1297.36 1560.05 L1302.24 1560.05 L1302.24 1565.93 L1297.36 1565.93 L1297.36 1560.05 Z" fill="#000000" fill-rule="evenodd" fill-opacity="1" /><path clip-path="url(#clip220)" d="M 0 0 M1321.48 1547.3 Q1324.83 1548.02 1326.71 1550.28 Q1328.61 1552.55 1328.61 1555.89 Q1328.61 1561 1325.09 1563.8 Q1321.57 1566.6 1315.09 1566.6 Q1312.91 1566.6 1310.6 1566.16 Q1308.31 1565.75 1305.85 1564.89 L1305.85 1560.38 Q1307.8 1561.51 1310.11 1562.09 Q1312.43 1562.67 1314.95 1562.67 Q1319.35 1562.67 1321.64 1560.93 Q1323.95 1559.2 1323.95 1555.89 Q1323.95 1552.83 1321.8 1551.12 Q1319.67 1549.38 1315.85 1549.38 L1311.82 1549.38 L1311.82 1545.54 L1316.04 1545.54 Q1319.49 1545.54 1321.32 1544.17 Q1323.14 1542.78 1323.14 1540.19 Q1323.14 1537.53 1321.25 1536.12 Q1319.37 1534.68 1315.85 1534.68 Q1313.93 1534.68 1311.73 1535.1 Q1309.53 1535.52 1306.89 1536.39 L1306.89 1532.23 Q1309.56 1531.49 1311.87 1531.12 Q1314.21 1530.75 1316.27 1530.75 Q1321.59 1530.75 1324.7 1533.18 Q1327.8 1535.58 1327.8 1539.71 Q1327.8 1542.58 1326.15 1544.57 Q1324.51 1546.53 1321.48 1547.3 Z" fill="#000000" fill-rule="evenodd" fill-opacity="1" /><path clip-path="url(#clip220)" d="M 0 0 M1704.47 1534.45 Q1700.86 1534.45 1699.03 1538.02 Q1697.22 1541.56 1697.22 1548.69 Q1697.22 1555.79 1699.03 1559.36 Q1700.86 1562.9 1704.47 1562.9 Q1708.1 1562.9 1709.91 1559.36 Q1711.74 1555.79 1711.74 1548.69 Q1711.74 1541.56 1709.91 1538.02 Q1708.1 1534.45 1704.47 1534.45 M1704.47 1530.75 Q1710.28 1530.75 1713.34 1535.35 Q1716.41 1539.94 1716.41 1548.69 Q1716.41 1557.41 1713.34 1562.02 Q1710.28 1566.6 1704.47 1566.6 Q1698.66 1566.6 1695.58 1562.02 Q1692.53 1557.41 1692.53 1548.69 Q1692.53 1539.94 1695.58 1535.35 Q1698.66 1530.75 1704.47 1530.75 Z" fill="#000000" fill-rule="evenodd" fill-opacity="1" /><path clip-path="url(#clip220)" d="M 0 0 M1721.48 1560.05 L1726.37 1560.05 L1726.37 1565.93 L1721.48 1565.93 L1721.48 1560.05 Z" fill="#000000" fill-rule="evenodd" fill-opacity="1" /><path clip-path="url(#clip220)" d="M 0 0 M1742.02 1546.79 Q1738.87 1546.79 1737.02 1548.94 Q1735.19 1551.09 1735.19 1554.84 Q1735.19 1558.57 1737.02 1560.75 Q1738.87 1562.9 1742.02 1562.9 Q1745.16 1562.9 1746.99 1560.75 Q1748.84 1558.57 1748.84 1554.84 Q1748.84 1551.09 1746.99 1548.94 Q1745.16 1546.79 1742.02 1546.79 M1751.3 1532.14 L1751.3 1536.39 Q1749.54 1535.56 1747.73 1535.12 Q1745.95 1534.68 1744.19 1534.68 Q1739.56 1534.68 1737.11 1537.81 Q1734.68 1540.93 1734.33 1547.25 Q1735.7 1545.24 1737.76 1544.17 Q1739.82 1543.08 1742.29 1543.08 Q1747.5 1543.08 1750.51 1546.26 Q1753.54 1549.4 1753.54 1554.84 Q1753.54 1560.17 1750.4 1563.39 Q1747.25 1566.6 1742.02 1566.6 Q1736.02 1566.6 1732.85 1562.02 Q1729.68 1557.41 1729.68 1548.69 Q1729.68 1540.49 1733.57 1535.63 Q1737.46 1530.75 1744.01 1530.75 Q1745.77 1530.75 1747.55 1531.09 Q1749.35 1531.44 1751.3 1532.14 Z" fill="#000000" fill-rule="evenodd" fill-opacity="1" /><path clip-path="url(#clip220)" d="M 0 0 M2129.17 1534.45 Q2125.56 1534.45 2123.73 1538.02 Q2121.93 1541.56 2121.93 1548.69 Q2121.93 1555.79 2123.73 1559.36 Q2125.56 1562.9 2129.17 1562.9 Q2132.81 1562.9 2134.61 1559.36 Q2136.44 1555.79 2136.44 1548.69 Q2136.44 1541.56 2134.61 1538.02 Q2132.81 1534.45 2129.17 1534.45 M2129.17 1530.75 Q2134.98 1530.75 2138.04 1535.35 Q2141.12 1539.94 2141.12 1548.69 Q2141.12 1557.41 2138.04 1562.02 Q2134.98 1566.6 2129.17 1566.6 Q2123.36 1566.6 2120.29 1562.02 Q2117.23 1557.41 2117.23 1548.69 Q2117.23 1539.94 2120.29 1535.35 Q2123.36 1530.75 2129.17 1530.75 Z" fill="#000000" fill-rule="evenodd" fill-opacity="1" /><path clip-path="url(#clip220)" d="M 0 0 M2146.19 1560.05 L2151.07 1560.05 L2151.07 1565.93 L2146.19 1565.93 L2146.19 1560.05 Z" fill="#000000" fill-rule="evenodd" fill-opacity="1" /><path clip-path="url(#clip220)" d="M 0 0 M2156.28 1565.21 L2156.28 1560.96 Q2158.04 1561.79 2159.85 1562.23 Q2161.65 1562.67 2163.39 1562.67 Q2168.02 1562.67 2170.45 1559.57 Q2172.9 1556.44 2173.25 1550.1 Q2171.91 1552.09 2169.85 1553.15 Q2167.79 1554.22 2165.29 1554.22 Q2160.1 1554.22 2157.07 1551.09 Q2154.06 1547.95 2154.06 1542.51 Q2154.06 1537.18 2157.21 1533.96 Q2160.36 1530.75 2165.59 1530.75 Q2171.58 1530.75 2174.73 1535.35 Q2177.9 1539.94 2177.9 1548.69 Q2177.9 1556.86 2174.01 1561.74 Q2170.15 1566.6 2163.6 1566.6 Q2161.84 1566.6 2160.03 1566.26 Q2158.23 1565.91 2156.28 1565.21 M2165.59 1550.56 Q2168.73 1550.56 2170.56 1548.41 Q2172.42 1546.26 2172.42 1542.51 Q2172.42 1538.78 2170.56 1536.63 Q2168.73 1534.45 2165.59 1534.45 Q2162.44 1534.45 2160.59 1536.63 Q2158.76 1538.78 2158.76 1542.51 Q2158.76 1546.26 2160.59 1548.41 Q2162.44 1550.56 2165.59 1550.56 Z" fill="#000000" fill-rule="evenodd" fill-opacity="1" /><path clip-path="url(#clip220)" d="M 0 0 M1244.36 1614.48 L1231.47 1631.82 L1245.03 1650.12 L1238.12 1650.12 L1227.75 1636.12 L1217.37 1650.12 L1210.47 1650.12 L1224.31 1631.47 L1211.64 1614.48 L1218.55 1614.48 L1228 1627.18 L1237.46 1614.48 L1244.36 1614.48 Z" fill="#000000" fill-rule="evenodd" fill-opacity="1" /><polyline clip-path="url(#clip222)" style="stroke:#000000; stroke-width:2; stroke-opacity:0.1; fill:none" points="
  102.74,1346.07 2352.76,1346.07 
  "/>
<polyline clip-path="url(#clip222)" style="stroke:#000000; stroke-width:2; stroke-opacity:0.1; fill:none" points="
  102.74,1128.14 2352.76,1128.14 
  "/>
<polyline clip-path="url(#clip222)" style="stroke:#000000; stroke-width:2; stroke-opacity:0.1; fill:none" points="
  102.74,910.214 2352.76,910.214 
  "/>
<polyline clip-path="url(#clip222)" style="stroke:#000000; stroke-width:2; stroke-opacity:0.1; fill:none" points="
  102.74,692.288 2352.76,692.288 
  "/>
<polyline clip-path="url(#clip222)" style="stroke:#000000; stroke-width:2; stroke-opacity:0.1; fill:none" points="
  102.74,474.362 2352.76,474.362 
  "/>
<polyline clip-path="url(#clip222)" style="stroke:#000000; stroke-width:2; stroke-opacity:0.1; fill:none" points="
  102.74,256.436 2352.76,256.436 
  "/>
<polyline clip-path="url(#clip220)" style="stroke:#000000; stroke-width:4; stroke-opacity:1; fill:none" points="
  102.74,1505.26 102.74,47.2441 
  "/>
<polyline clip-path="url(#clip220)" style="stroke:#000000; stroke-width:4; stroke-opacity:1; fill:none" points="
  102.74,1346.07 129.74,1346.07 
  "/>
<polyline clip-path="url(#clip220)" style="stroke:#000000; stroke-width:4; stroke-opacity:1; fill:none" points="
  102.74,1128.14 129.74,1128.14 
  "/>
<polyline clip-path="url(#clip220)" style="stroke:#000000; stroke-width:4; stroke-opacity:1; fill:none" points="
  102.74,910.214 129.74,910.214 
  "/>
<polyline clip-path="url(#clip220)" style="stroke:#000000; stroke-width:4; stroke-opacity:1; fill:none" points="
  102.74,692.288 129.74,692.288 
  "/>
<polyline clip-path="url(#clip220)" style="stroke:#000000; stroke-width:4; stroke-opacity:1; fill:none" points="
  102.74,474.362 129.74,474.362 
  "/>
<polyline clip-path="url(#clip220)" style="stroke:#000000; stroke-width:4; stroke-opacity:1; fill:none" points="
  102.74,256.436 129.74,256.436 
  "/>
<path clip-path="url(#clip220)" d="M 0 0 M-14.3705 1346.52 L15.3052 1346.52 L15.3052 1350.45 L-14.3705 1350.45 L-14.3705 1346.52 Z" fill="#000000" fill-rule="evenodd" fill-opacity="1" /><path clip-path="url(#clip220)" d="M 0 0 M24.4024 1359.41 L40.7218 1359.41 L40.7218 1363.35 L18.7775 1363.35 L18.7775 1359.41 Q21.4395 1356.66 26.0228 1352.03 Q30.6292 1347.37 31.8098 1346.03 Q34.0551 1343.51 34.9348 1341.77 Q35.8375 1340.01 35.8375 1338.32 Q35.8375 1335.57 33.8931 1333.83 Q31.9718 1332.1 28.87 1332.1 Q26.6709 1332.1 24.2172 1332.86 Q21.7867 1333.62 19.0089 1335.18 L19.0089 1330.45 Q21.833 1329.32 24.2867 1328.74 Q26.7404 1328.16 28.7774 1328.16 Q34.1477 1328.16 37.3422 1330.85 Q40.5366 1333.53 40.5366 1338.02 Q40.5366 1340.15 39.7264 1342.07 Q38.9394 1343.97 36.8329 1346.56 Q36.2542 1347.24 33.1524 1350.45 Q30.0505 1353.65 24.4024 1359.41 Z" fill="#000000" fill-rule="evenodd" fill-opacity="1" /><path clip-path="url(#clip220)" d="M 0 0 M45.8375 1328.79 L64.1939 1328.79 L64.1939 1332.72 L50.1199 1332.72 L50.1199 1341.19 Q51.1384 1340.85 52.1569 1340.68 Q53.1754 1340.5 54.1939 1340.5 Q59.9809 1340.5 63.3605 1343.67 Q66.7402 1346.84 66.7402 1352.26 Q66.7402 1357.84 63.268 1360.94 Q59.7958 1364.02 53.4763 1364.02 Q51.3004 1364.02 49.0319 1363.65 Q46.7866 1363.28 44.3792 1362.54 L44.3792 1357.84 Q46.4625 1358.97 48.6847 1359.53 Q50.9069 1360.08 53.3837 1360.08 Q57.3884 1360.08 59.7263 1357.98 Q62.0643 1355.87 62.0643 1352.26 Q62.0643 1348.65 59.7263 1346.54 Q57.3884 1344.43 53.3837 1344.43 Q51.5088 1344.43 49.6338 1344.85 Q47.7819 1345.27 45.8375 1346.15 L45.8375 1328.79 Z" fill="#000000" fill-rule="evenodd" fill-opacity="1" /><path clip-path="url(#clip220)" d="M 0 0 M-15.3659 1128.59 L14.3099 1128.59 L14.3099 1132.53 L-15.3659 1132.53 L-15.3659 1128.59 Z" fill="#000000" fill-rule="evenodd" fill-opacity="1" /><path clip-path="url(#clip220)" d="M 0 0 M23.4071 1141.48 L39.7264 1141.48 L39.7264 1145.42 L17.7821 1145.42 L17.7821 1141.48 Q20.4441 1138.73 25.0274 1134.1 Q29.6339 1129.45 30.8144 1128.11 Q33.0598 1125.58 33.9394 1123.85 Q34.8422 1122.09 34.8422 1120.4 Q34.8422 1117.64 32.8977 1115.91 Q30.9765 1114.17 27.8746 1114.17 Q25.6756 1114.17 23.2219 1114.93 Q20.7913 1115.7 18.0136 1117.25 L18.0136 1112.53 Q20.8376 1111.39 23.2913 1110.81 Q25.745 1110.24 27.782 1110.24 Q33.1524 1110.24 36.3468 1112.92 Q39.5412 1115.61 39.5412 1120.1 Q39.5412 1122.23 38.731 1124.15 Q37.944 1126.05 35.8375 1128.64 Q35.2588 1129.31 32.157 1132.53 Q29.0552 1135.72 23.4071 1141.48 Z" fill="#000000" fill-rule="evenodd" fill-opacity="1" /><path clip-path="url(#clip220)" d="M 0 0 M54.7958 1113.94 Q51.1847 1113.94 49.356 1117.5 Q47.5504 1121.05 47.5504 1128.17 Q47.5504 1135.28 49.356 1138.85 Q51.1847 1142.39 54.7958 1142.39 Q58.43 1142.39 60.2356 1138.85 Q62.0643 1135.28 62.0643 1128.17 Q62.0643 1121.05 60.2356 1117.5 Q58.43 1113.94 54.7958 1113.94 M54.7958 1110.24 Q60.6059 1110.24 63.6615 1114.84 Q66.7402 1119.42 66.7402 1128.17 Q66.7402 1136.9 63.6615 1141.51 Q60.6059 1146.09 54.7958 1146.09 Q48.9856 1146.09 45.9069 1141.51 Q42.8514 1136.9 42.8514 1128.17 Q42.8514 1119.42 45.9069 1114.84 Q48.9856 1110.24 54.7958 1110.24 Z" fill="#000000" fill-rule="evenodd" fill-opacity="1" /><path clip-path="url(#clip220)" d="M 0 0 M-14.7409 910.665 L14.9349 910.665 L14.9349 914.6 L-14.7409 914.6 L-14.7409 910.665 Z" fill="#000000" fill-rule="evenodd" fill-opacity="1" /><path clip-path="url(#clip220)" d="M 0 0 M20.8145 923.559 L28.4533 923.559 L28.4533 897.193 L20.1432 898.86 L20.1432 894.601 L28.407 892.934 L33.0829 892.934 L33.0829 923.559 L40.7218 923.559 L40.7218 927.494 L20.8145 927.494 L20.8145 923.559 Z" fill="#000000" fill-rule="evenodd" fill-opacity="1" /><path clip-path="url(#clip220)" d="M 0 0 M45.8375 892.934 L64.1939 892.934 L64.1939 896.869 L50.1199 896.869 L50.1199 905.341 Q51.1384 904.994 52.1569 904.832 Q53.1754 904.647 54.1939 904.647 Q59.9809 904.647 63.3605 907.818 Q66.7402 910.989 66.7402 916.406 Q66.7402 921.985 63.268 925.087 Q59.7958 928.165 53.4763 928.165 Q51.3004 928.165 49.0319 927.795 Q46.7866 927.424 44.3792 926.684 L44.3792 921.985 Q46.4625 923.119 48.6847 923.675 Q50.9069 924.23 53.3837 924.23 Q57.3884 924.23 59.7263 922.124 Q62.0643 920.017 62.0643 916.406 Q62.0643 912.795 59.7263 910.688 Q57.3884 908.582 53.3837 908.582 Q51.5088 908.582 49.6338 908.999 Q47.7819 909.415 45.8375 910.295 L45.8375 892.934 Z" fill="#000000" fill-rule="evenodd" fill-opacity="1" /><path clip-path="url(#clip220)" d="M 0 0 M-15.7363 692.739 L13.9395 692.739 L13.9395 696.674 L-15.7363 696.674 L-15.7363 692.739 Z" fill="#000000" fill-rule="evenodd" fill-opacity="1" /><path clip-path="url(#clip220)" d="M 0 0 M19.8191 705.633 L27.458 705.633 L27.458 679.267 L19.1478 680.934 L19.1478 676.674 L27.4117 675.008 L32.0876 675.008 L32.0876 705.633 L39.7264 705.633 L39.7264 709.568 L19.8191 709.568 L19.8191 705.633 Z" fill="#000000" fill-rule="evenodd" fill-opacity="1" /><path clip-path="url(#clip220)" d="M 0 0 M54.7958 678.086 Q51.1847 678.086 49.356 681.651 Q47.5504 685.193 47.5504 692.323 Q47.5504 699.429 49.356 702.994 Q51.1847 706.535 54.7958 706.535 Q58.43 706.535 60.2356 702.994 Q62.0643 699.429 62.0643 692.323 Q62.0643 685.193 60.2356 681.651 Q58.43 678.086 54.7958 678.086 M54.7958 674.383 Q60.6059 674.383 63.6615 678.989 Q66.7402 683.573 66.7402 692.323 Q66.7402 701.049 63.6615 705.656 Q60.6059 710.239 54.7958 710.239 Q48.9856 710.239 45.9069 705.656 Q42.8514 701.049 42.8514 692.323 Q42.8514 683.573 45.9069 678.989 Q48.9856 674.383 54.7958 674.383 Z" fill="#000000" fill-rule="evenodd" fill-opacity="1" /><path clip-path="url(#clip220)" d="M 0 0 M11.046 474.813 L40.7218 474.813 L40.7218 478.748 L11.046 478.748 L11.046 474.813 Z" fill="#000000" fill-rule="evenodd" fill-opacity="1" /><path clip-path="url(#clip220)" d="M 0 0 M45.8375 457.082 L64.1939 457.082 L64.1939 461.017 L50.1199 461.017 L50.1199 469.489 Q51.1384 469.142 52.1569 468.98 Q53.1754 468.795 54.1939 468.795 Q59.9809 468.795 63.3605 471.966 Q66.7402 475.137 66.7402 480.554 Q66.7402 486.132 63.268 489.234 Q59.7958 492.313 53.4763 492.313 Q51.3004 492.313 49.0319 491.943 Q46.7866 491.572 44.3792 490.831 L44.3792 486.132 Q46.4625 487.267 48.6847 487.822 Q50.9069 488.378 53.3837 488.378 Q57.3884 488.378 59.7263 486.271 Q62.0643 484.165 62.0643 480.554 Q62.0643 476.943 59.7263 474.836 Q57.3884 472.73 53.3837 472.73 Q51.5088 472.73 49.6338 473.146 Q47.7819 473.563 45.8375 474.443 L45.8375 457.082 Z" fill="#000000" fill-rule="evenodd" fill-opacity="1" /><path clip-path="url(#clip220)" d="M 0 0 M54.7958 242.234 Q51.1847 242.234 49.356 245.799 Q47.5504 249.341 47.5504 256.47 Q47.5504 263.577 49.356 267.141 Q51.1847 270.683 54.7958 270.683 Q58.43 270.683 60.2356 267.141 Q62.0643 263.577 62.0643 256.47 Q62.0643 249.341 60.2356 245.799 Q58.43 242.234 54.7958 242.234 M54.7958 238.531 Q60.6059 238.531 63.6615 243.137 Q66.7402 247.72 66.7402 256.47 Q66.7402 265.197 63.6615 269.804 Q60.6059 274.387 54.7958 274.387 Q48.9856 274.387 45.9069 269.804 Q42.8514 265.197 42.8514 256.47 Q42.8514 247.72 45.9069 243.137 Q48.9856 238.531 54.7958 238.531 Z" fill="#000000" fill-rule="evenodd" fill-opacity="1" /><path clip-path="url(#clip220)" d="M 0 0 M-115.517 803.147 L-110.648 803.147 L-110.648 808.749 Q-110.648 811.9 -109.375 813.141 Q-108.101 814.351 -104.791 814.351 L-101.64 814.351 L-101.64 804.707 L-97.0887 804.707 L-97.0887 814.351 L-65.9923 814.351 L-65.9923 820.239 L-97.0887 820.239 L-97.0887 825.841 L-101.64 825.841 L-101.64 820.239 L-104.123 820.239 Q-110.075 820.239 -112.78 817.47 Q-115.517 814.701 -115.517 808.685 L-115.517 803.147 Z" fill="#000000" fill-rule="evenodd" fill-opacity="1" /><path clip-path="url(#clip220)" d="M 0 0 M-115.454 782.936 Q-108.133 787.201 -100.972 789.27 Q-93.8104 791.339 -86.458 791.339 Q-79.1056 791.339 -71.8805 789.27 Q-64.6873 787.169 -57.3985 782.936 L-57.3985 788.029 Q-64.8783 792.803 -72.1033 795.19 Q-79.3284 797.545 -86.458 797.545 Q-93.5558 797.545 -100.749 795.19 Q-107.942 792.835 -115.454 788.029 L-115.454 782.936 Z" fill="#000000" fill-rule="evenodd" fill-opacity="1" /><path clip-path="url(#clip220)" d="M 0 0 M-101.64 747.161 L-84.2937 760.051 L-65.9923 746.492 L-65.9923 753.399 L-79.9968 763.775 L-65.9923 774.151 L-65.9923 781.058 L-84.6438 767.213 L-101.64 779.88 L-101.64 772.974 L-88.9406 763.521 L-101.64 754.067 L-101.64 747.161 Z" fill="#000000" fill-rule="evenodd" fill-opacity="1" /><path clip-path="url(#clip220)" d="M 0 0 M-115.454 741.272 L-115.454 736.18 Q-107.942 731.406 -100.749 729.05 Q-93.5558 726.663 -86.458 726.663 Q-79.3284 726.663 -72.1033 729.05 Q-64.8783 731.406 -57.3985 736.18 L-57.3985 741.272 Q-64.6873 737.039 -71.8805 734.97 Q-79.1056 732.87 -86.458 732.87 Q-93.8104 732.87 -100.972 734.97 Q-108.133 737.039 -115.454 741.272 Z" fill="#000000" fill-rule="evenodd" fill-opacity="1" /><polyline clip-path="url(#clip222)" style="stroke:#009af9; stroke-width:8; stroke-opacity:1; fill:none" points="
  166.42,408.877 168.545,407.703 170.669,406.528 172.794,405.351 174.919,404.173 177.044,402.994 179.169,401.813 181.293,400.632 183.418,399.45 185.543,398.266 
  187.668,397.082 189.792,395.897 191.917,394.711 194.042,393.524 196.167,392.337 198.292,391.149 200.416,389.96 202.541,388.77 204.666,387.58 206.791,386.39 
  208.915,385.199 211.04,384.007 213.165,382.815 215.29,381.623 217.415,380.431 219.539,379.238 221.664,378.045 223.789,376.852 225.914,375.659 228.039,374.466 
  230.163,373.273 232.288,372.08 234.413,370.887 236.538,369.694 238.662,368.502 240.787,367.31 242.912,366.118 245.037,364.926 247.162,363.735 249.286,362.544 
  251.411,361.354 253.536,360.164 255.661,358.975 257.785,357.786 259.91,356.599 262.035,355.412 264.16,354.226 266.285,353.04 268.409,351.856 270.534,350.672 
  272.659,349.49 274.784,348.309 276.908,347.128 279.033,345.949 281.158,344.771 283.283,343.595 285.408,342.42 287.532,341.246 289.657,340.073 291.782,338.902 
  293.907,337.733 296.031,336.565 298.156,335.399 300.281,334.234 302.406,333.071 304.531,331.91 306.655,330.751 308.78,329.594 310.905,328.438 313.03,327.285 
  315.155,326.134 317.279,324.985 319.404,323.838 321.529,322.693 323.654,321.55 325.778,320.41 327.903,319.272 330.028,318.137 332.153,317.004 334.278,315.874 
  336.402,314.746 338.527,313.621 340.652,312.499 342.777,311.379 344.901,310.262 347.026,309.148 349.151,308.037 351.276,306.929 353.401,305.824 355.525,304.722 
  357.65,303.623 359.775,302.528 361.9,301.435 364.024,300.346 366.149,299.261 368.274,298.178 370.399,297.1 372.524,296.024 374.648,294.953 376.773,293.885 
  378.898,292.82 381.023,291.76 383.148,290.703 385.272,289.65 387.397,288.601 389.522,287.556 391.647,286.515 393.771,285.478 395.896,284.445 398.021,283.416 
  400.146,282.392 402.271,281.372 404.395,280.356 406.52,279.345 408.645,278.338 410.77,277.335 412.894,276.337 415.019,275.344 417.144,274.356 419.269,273.372 
  421.394,272.393 423.518,271.419 425.643,270.45 427.768,269.486 429.893,268.527 432.017,267.573 434.142,266.624 436.267,265.68 438.392,264.741 440.517,263.808 
  442.641,262.88 444.766,261.958 446.891,261.041 449.016,260.129 451.141,259.223 453.265,258.323 455.39,257.429 457.515,256.54 459.64,255.657 461.764,254.78 
  463.889,253.908 466.014,253.043 468.139,252.184 470.264,251.33 472.388,250.483 474.513,249.642 476.638,248.808 478.763,247.979 480.887,247.157 483.012,246.342 
  485.137,245.533 487.262,244.73 489.387,243.934 491.511,243.144 493.636,242.362 495.761,241.586 497.886,240.816 500.01,240.054 502.135,239.298 504.26,238.55 
  506.385,237.808 508.51,237.074 510.634,236.346 512.759,235.626 514.884,234.913 517.009,234.207 519.134,233.509 521.258,232.818 523.383,232.134 525.508,231.458 
  527.633,230.789 529.757,230.128 531.882,229.475 534.007,228.829 536.132,228.191 538.257,227.561 540.381,226.939 542.506,226.325 544.631,225.718 546.756,225.12 
  548.88,224.53 551.005,223.947 553.13,223.373 555.255,222.808 557.38,222.25 559.504,221.701 561.629,221.16 563.754,220.628 565.879,220.104 568.003,219.588 
  570.128,219.081 572.253,218.583 574.378,218.094 576.503,217.613 578.627,217.141 580.752,216.678 582.877,216.223 585.002,215.778 587.127,215.341 589.251,214.914 
  591.376,214.496 593.501,214.087 595.626,213.687 597.75,213.296 599.875,212.914 602,212.542 604.125,212.179 606.25,211.826 608.374,211.482 610.499,211.147 
  612.624,210.823 614.749,210.507 616.873,210.202 618.998,209.906 621.123,209.62 623.248,209.343 625.373,209.077 627.497,208.82 629.622,208.573 631.747,208.337 
  633.872,208.11 635.996,207.893 638.121,207.687 640.246,207.49 642.371,207.304 644.496,207.128 646.62,206.963 648.745,206.807 650.87,206.662 652.995,206.528 
  655.12,206.404 657.244,206.29 659.369,206.187 661.494,206.095 663.619,206.013 665.743,205.942 667.868,205.882 669.993,205.832 672.118,205.794 674.243,205.766 
  676.367,205.749 678.492,205.743 680.617,205.747 682.742,205.763 684.866,205.79 686.991,205.828 689.116,205.877 691.241,205.938 693.366,206.009 695.49,206.092 
  697.615,206.186 699.74,206.291 701.865,206.408 703.989,206.536 706.114,206.676 708.239,206.827 710.364,206.989 712.489,207.163 714.613,207.349 716.738,207.546 
  718.863,207.755 720.988,207.975 723.113,208.208 725.237,208.452 727.362,208.707 729.487,208.975 731.612,209.255 733.736,209.546 735.861,209.849 737.986,210.165 
  740.111,210.492 742.236,210.831 744.36,211.182 746.485,211.546 748.61,211.921 750.735,212.309 752.859,212.709 754.984,213.121 757.109,213.545 759.234,213.981 
  761.359,214.43 763.483,214.891 765.608,215.365 767.733,215.851 769.858,216.349 771.982,216.859 774.107,217.383 776.232,217.918 778.357,218.466 780.482,219.027 
  782.606,219.6 784.731,220.186 786.856,220.784 788.981,221.396 791.106,222.019 793.23,222.656 795.355,223.305 797.48,223.967 799.605,224.641 801.729,225.329 
  803.854,226.029 805.979,226.742 808.104,227.468 810.229,228.206 812.353,228.958 814.478,229.722 816.603,230.5 818.728,231.29 820.852,232.094 822.977,232.91 
  825.102,233.739 827.227,234.581 829.352,235.437 831.476,236.305 833.601,237.187 835.726,238.081 837.851,238.989 839.975,239.91 842.1,240.843 844.225,241.79 
  846.35,242.751 848.475,243.724 850.599,244.71 852.724,245.71 854.849,246.723 856.974,247.749 859.099,248.789 861.223,249.841 863.348,250.907 865.473,251.986 
  867.598,253.079 869.722,254.184 871.847,255.303 873.972,256.436 876.097,257.581 878.222,258.74 880.346,259.912 882.471,261.098 884.596,262.297 886.721,263.509 
  888.845,264.734 890.97,265.973 893.095,267.226 895.22,268.491 897.345,269.77 899.469,271.062 901.594,272.368 903.719,273.687 905.844,275.02 907.968,276.366 
  910.093,277.725 912.218,279.097 914.343,280.483 916.468,281.883 918.592,283.295 920.717,284.721 922.842,286.161 924.967,287.614 927.091,289.08 929.216,290.559 
  931.341,292.052 933.466,293.558 935.591,295.078 937.715,296.611 939.84,298.157 941.965,299.717 944.09,301.29 946.215,302.876 948.339,304.475 950.464,306.088 
  952.589,307.714 954.714,309.353 956.838,311.006 958.963,312.672 961.088,314.351 963.213,316.044 965.338,317.749 967.462,319.468 969.587,321.2 971.712,322.945 
  973.837,324.704 975.961,326.475 978.086,328.26 980.211,330.058 982.336,331.868 984.461,333.692 986.585,335.53 988.71,337.38 990.835,339.243 992.96,341.119 
  995.084,343.008 997.209,344.91 999.334,346.826 1001.46,348.754 1003.58,350.695 1005.71,352.649 1007.83,354.615 1009.96,356.595 1012.08,358.588 1014.21,360.593 
  1016.33,362.611 1018.46,364.642 1020.58,366.685 1022.71,368.742 1024.83,370.811 1026.96,372.892 1029.08,374.987 1031.21,377.093 1033.33,379.213 1035.46,381.345 
  1037.58,383.489 1039.7,385.646 1041.83,387.816 1043.95,389.997 1046.08,392.192 1048.2,394.398 1050.33,396.617 1052.45,398.848 1054.58,401.092 1056.7,403.347 
  1058.83,405.615 1060.95,407.895 1063.08,410.187 1065.2,412.491 1067.33,414.808 1069.45,417.136 1071.58,419.476 1073.7,421.828 1075.83,424.192 1077.95,426.568 
  1080.08,428.956 1082.2,431.355 1084.33,433.766 1086.45,436.189 1088.57,438.624 1090.7,441.07 1092.82,443.527 1094.95,445.996 1097.07,448.477 1099.2,450.969 
  1101.32,453.472 1103.45,455.987 1105.57,458.513 1107.7,461.05 1109.82,463.598 1111.95,466.158 1114.07,468.728 1116.2,471.31 1118.32,473.902 1120.45,476.506 
  1122.57,479.12 1124.7,481.745 1126.82,484.381 1128.95,487.028 1131.07,489.685 1133.2,492.353 1135.32,495.032 1137.44,497.721 1139.57,500.42 1141.69,503.13 
  1143.82,505.85 1145.94,508.581 1148.07,511.321 1150.19,514.072 1152.32,516.833 1154.44,519.604 1156.57,522.385 1158.69,525.175 1160.82,527.976 1162.94,530.786 
  1165.07,533.607 1167.19,536.436 1169.32,539.276 1171.44,542.125 1173.57,544.983 1175.69,547.851 1177.82,550.728 1179.94,553.614 1182.07,556.51 1184.19,559.415 
  1186.31,562.329 1188.44,565.251 1190.56,568.183 1192.69,571.124 1194.81,574.073 1196.94,577.031 1199.06,579.998 1201.19,582.973 1203.31,585.957 1205.44,588.949 
  1207.56,591.95 1209.69,594.958 1211.81,597.975 1213.94,601.001 1216.06,604.034 1218.19,607.075 1220.31,610.124 1222.44,613.181 1224.56,616.245 1226.69,619.318 
  1228.81,622.397 1230.94,625.485 1233.06,628.58 1235.18,631.682 1237.31,634.791 1239.43,637.907 1241.56,641.031 1243.68,644.162 1245.81,647.299 1247.93,650.444 
  1250.06,653.595 1252.18,656.752 1254.31,659.917 1256.43,663.088 1258.56,666.265 1260.68,669.449 1262.81,672.638 1264.93,675.834 1267.06,679.036 1269.18,682.244 
  1271.31,685.458 1273.43,688.678 1275.56,691.903 1277.68,695.134 1279.81,698.371 1281.93,701.612 1284.05,704.86 1286.18,708.112 1288.3,711.369 1290.43,714.632 
  1292.55,717.9 1294.68,721.172 1296.8,724.449 1298.93,727.731 1301.05,731.017 1303.18,734.308 1305.3,737.603 1307.43,740.903 1309.55,744.206 1311.68,747.514 
  1313.8,750.825 1315.93,754.141 1318.05,757.46 1320.18,760.783 1322.3,764.109 1324.43,767.439 1326.55,770.772 1328.68,774.109 1330.8,777.449 1332.92,780.791 
  1335.05,784.137 1337.17,787.485 1339.3,790.836 1341.42,794.19 1343.55,797.546 1345.67,800.905 1347.8,804.266 1349.92,807.629 1352.05,810.994 1354.17,814.361 
  1356.3,817.73 1358.42,821.101 1360.55,824.474 1362.67,827.847 1364.8,831.223 1366.92,834.599 1369.05,837.977 1371.17,841.356 1373.3,844.736 1375.42,848.116 
  1377.55,851.498 1379.67,854.88 1381.79,858.262 1383.92,861.645 1386.04,865.028 1388.17,868.412 1390.29,871.795 1392.42,875.178 1394.54,878.561 1396.67,881.944 
  1398.79,885.326 1400.92,888.708 1403.04,892.089 1405.17,895.469 1407.29,898.849 1409.42,902.227 1411.54,905.604 1413.67,908.98 1415.79,912.354 1417.92,915.727 
  1420.04,919.099 1422.17,922.468 1424.29,925.836 1426.42,929.201 1428.54,932.565 1430.66,935.926 1432.79,939.285 1434.91,942.641 1437.04,945.995 1439.16,949.345 
  1441.29,952.693 1443.41,956.038 1445.54,959.38 1447.66,962.719 1449.79,966.054 1451.91,969.385 1454.04,972.713 1456.16,976.038 1458.29,979.358 1460.41,982.674 
  1462.54,985.986 1464.66,989.294 1466.79,992.597 1468.91,995.896 1471.04,999.19 1473.16,1002.48 1475.29,1005.76 1477.41,1009.04 1479.53,1012.32 1481.66,1015.58 
  1483.78,1018.85 1485.91,1022.11 1488.03,1025.36 1490.16,1028.6 1492.28,1031.84 1494.41,1035.08 1496.53,1038.3 1498.66,1041.52 1500.78,1044.74 1502.91,1047.95 
  1505.03,1051.15 1507.16,1054.34 1509.28,1057.53 1511.41,1060.71 1513.53,1063.88 1515.66,1067.04 1517.78,1070.2 1519.91,1073.35 1522.03,1076.49 1524.16,1079.62 
  1526.28,1082.75 1528.4,1085.87 1530.53,1088.97 1532.65,1092.07 1534.78,1095.17 1536.9,1098.25 1539.03,1101.32 1541.15,1104.38 1543.28,1107.44 1545.4,1110.48 
  1547.53,1113.52 1549.65,1116.54 1551.78,1119.56 1553.9,1122.57 1556.03,1125.56 1558.15,1128.55 1560.28,1131.52 1562.4,1134.49 1564.53,1137.44 1566.65,1140.38 
  1568.78,1143.32 1570.9,1146.24 1573.02,1149.15 1575.15,1152.04 1577.27,1154.93 1579.4,1157.81 1581.52,1160.67 1583.65,1163.52 1585.77,1166.36 1587.9,1169.19 
  1590.02,1172 1592.15,1174.8 1594.27,1177.59 1596.4,1180.37 1598.52,1183.13 1600.65,1185.88 1602.77,1188.62 1604.9,1191.34 1607.02,1194.05 1609.15,1196.75 
  1611.27,1199.43 1613.4,1202.1 1615.52,1204.75 1617.65,1207.39 1619.77,1210.02 1621.89,1212.63 1624.02,1215.22 1626.14,1217.81 1628.27,1220.37 1630.39,1222.92 
  1632.52,1225.46 1634.64,1227.98 1636.77,1230.49 1638.89,1232.98 1641.02,1235.45 1643.14,1237.91 1645.27,1240.35 1647.39,1242.78 1649.52,1245.19 1651.64,1247.58 
  1653.77,1249.95 1655.89,1252.31 1658.02,1254.66 1660.14,1256.98 1662.27,1259.29 1664.39,1261.58 1666.52,1263.85 1668.64,1266.11 1670.76,1268.34 1672.89,1270.56 
  1675.01,1272.77 1677.14,1274.95 1679.26,1277.11 1681.39,1279.26 1683.51,1281.39 1685.64,1283.5 1687.76,1285.59 1689.89,1287.66 1692.01,1289.71 1694.14,1291.74 
  1696.26,1293.75 1698.39,1295.75 1700.51,1297.72 1702.64,1299.67 1704.76,1301.61 1706.89,1303.52 1709.01,1305.41 1711.14,1307.29 1713.26,1309.14 1715.39,1310.97 
  1717.51,1312.78 1719.63,1314.57 1721.76,1316.34 1723.88,1318.08 1726.01,1319.81 1728.13,1321.51 1730.26,1323.19 1732.38,1324.86 1734.51,1326.49 1736.63,1328.11 
  1738.76,1329.7 1740.88,1331.28 1743.01,1332.82 1745.13,1334.35 1747.26,1335.85 1749.38,1337.34 1751.51,1338.79 1753.63,1340.23 1755.76,1341.64 1757.88,1343.03 
  1760.01,1344.39 1762.13,1345.73 1764.26,1347.05 1766.38,1348.34 1768.5,1349.61 1770.63,1350.86 1772.75,1352.08 1774.88,1353.27 1777,1354.44 1779.13,1355.59 
  1781.25,1356.71 1783.38,1357.81 1785.5,1358.88 1787.63,1359.93 1789.75,1360.95 1791.88,1361.94 1794,1362.91 1796.13,1363.86 1798.25,1364.78 1800.38,1365.67 
  1802.5,1366.54 1804.63,1367.38 1806.75,1368.19 1808.88,1368.98 1811,1369.74 1813.13,1370.47 1815.25,1371.18 1817.37,1371.86 1819.5,1372.51 1821.62,1373.14 
  1823.75,1373.74 1825.87,1374.31 1828,1374.85 1830.12,1375.37 1832.25,1375.86 1834.37,1376.32 1836.5,1376.75 1838.62,1377.16 1840.75,1377.53 1842.87,1377.88 
  1845,1378.2 1847.12,1378.49 1849.25,1378.76 1851.37,1378.99 1853.5,1379.2 1855.62,1379.37 1857.75,1379.52 1859.87,1379.64 1862,1379.73 1864.12,1379.78 
  1866.24,1379.81 1868.37,1379.81 1870.49,1379.79 1872.62,1379.73 1874.74,1379.64 1876.87,1379.52 1878.99,1379.37 1881.12,1379.19 1883.24,1378.98 1885.37,1378.74 
  1887.49,1378.47 1889.62,1378.17 1891.74,1377.84 1893.87,1377.47 1895.99,1377.08 1898.12,1376.66 1900.24,1376.2 1902.37,1375.71 1904.49,1375.2 1906.62,1374.65 
  1908.74,1374.07 1910.87,1373.45 1912.99,1372.81 1915.11,1372.14 1917.24,1371.43 1919.36,1370.69 1921.49,1369.92 1923.61,1369.12 1925.74,1368.28 1927.86,1367.42 
  1929.99,1366.52 1932.11,1365.59 1934.24,1364.62 1936.36,1363.63 1938.49,1362.6 1940.61,1361.54 1942.74,1360.44 1944.86,1359.32 1946.99,1358.16 1949.11,1356.96 
  1951.24,1355.74 1953.36,1354.48 1955.49,1353.19 1957.61,1351.87 1959.74,1350.51 1961.86,1349.12 1963.98,1347.69 1966.11,1346.23 1968.23,1344.74 1970.36,1343.22 
  1972.48,1341.66 1974.61,1340.07 1976.73,1338.44 1978.86,1336.78 1980.98,1335.09 1983.11,1333.36 1985.23,1331.6 1987.36,1329.81 1989.48,1327.98 1991.61,1326.11 
  1993.73,1324.22 1995.86,1322.29 1997.98,1320.32 2000.11,1318.32 2002.23,1316.29 2004.36,1314.22 2006.48,1312.12 2008.61,1309.98 2010.73,1307.81 2012.85,1305.6 
  2014.98,1303.36 2017.1,1301.09 2019.23,1298.78 2021.35,1296.43 2023.48,1294.05 2025.6,1291.64 2027.73,1289.19 2029.85,1286.71 2031.98,1284.19 2034.1,1281.64 
  2036.23,1279.05 2038.35,1276.43 2040.48,1273.77 2042.6,1271.08 2044.73,1268.35 2046.85,1265.59 2048.98,1262.8 2051.1,1259.97 2053.23,1257.1 2055.35,1254.2 
  2057.48,1251.26 2059.6,1248.29 2061.72,1245.29 2063.85,1242.25 2065.97,1239.17 2068.1,1236.06 2070.22,1232.91 2072.35,1229.73 2074.47,1226.52 2076.6,1223.27 
  2078.72,1219.98 2080.85,1216.66 2082.97,1213.31 2085.1,1209.92 2087.22,1206.49 2089.35,1203.03 2091.47,1199.54 2093.6,1196.01 2095.72,1192.45 2097.85,1188.85 
  2099.97,1185.21 2102.1,1181.54 2104.22,1177.84 2106.35,1174.1 2108.47,1170.33 2110.59,1166.52 2112.72,1162.68 2114.84,1158.81 2116.97,1154.89 2119.09,1150.95 
  2121.22,1146.97 2123.34,1142.96 2125.47,1138.91 2127.59,1134.82 2129.72,1130.71 2131.84,1126.55 2133.97,1122.37 2136.09,1118.15 2138.22,1113.9 2140.34,1109.61 
  2142.47,1105.29 2144.59,1100.93 2146.72,1096.54 2148.84,1092.12 2150.97,1087.66 2153.09,1083.17 2155.22,1078.64 2157.34,1074.09 2159.46,1069.49 2161.59,1064.87 
  2163.71,1060.21 2165.84,1055.52 2167.96,1050.79 2170.09,1046.04 2172.21,1041.24 2174.34,1036.42 2176.46,1031.56 2178.59,1026.67 2180.71,1021.75 2182.84,1016.8 
  2184.96,1011.81 2187.09,1006.79 2189.21,1001.74 2191.34,996.654 2193.46,991.537 2195.59,986.389 2197.71,981.208 2199.84,975.996 2201.96,970.752 2204.08,965.477 
  2206.21,960.17 2208.33,954.831 2210.46,949.462 2212.58,944.061 2214.71,938.629 2216.83,933.166 2218.96,927.673 2221.08,922.149 2223.21,916.594 2225.33,911.009 
  2227.46,905.394 2229.58,899.748 2231.71,894.073 2233.83,888.367 2235.96,882.632 2238.08,876.867 2240.21,871.073 2242.33,865.25 2244.46,859.397 2246.58,853.516 
  2248.71,847.605 2250.83,841.666 2252.95,835.698 2255.08,829.702 2257.2,823.678 2259.33,817.625 2261.45,811.545 2263.58,805.437 2265.7,799.302 2267.83,793.139 
  2269.95,786.948 2272.08,780.731 2274.2,774.487 2276.33,768.216 2278.45,761.919 2280.58,755.595 2282.7,749.245 2284.83,742.87 2286.95,736.468 2289.08,730.041 
  
  "/>
<path clip-path="url(#clip222)" d="
M166.42 599.592 L187.861 573.558 L209.302 549.101 L230.743 526.101 L252.184 504.454 L273.625 484.072 L295.066 464.878 L316.507 446.808 L337.948 429.809 L359.389 413.839 
  L380.83 398.866 L402.271 384.868 L423.712 371.829 L445.153 359.741 L466.593 348.603 L488.034 338.421 L509.475 329.204 L530.916 320.966 L552.357 313.728 L573.798 307.509 
  L595.239 302.334 L616.68 298.23 L638.121 295.224 L659.562 293.345 L681.003 292.621 L702.444 293.081 L723.885 294.754 L745.326 297.666 L766.767 301.842 L788.208 307.305 
  L809.649 314.078 L831.09 322.177 L852.531 331.618 L873.972 342.413 L895.413 354.569 L916.854 368.09 L938.295 382.976 L959.736 399.222 L981.177 416.817 L1002.62 435.747 
  L1024.06 455.992 L1045.5 477.527 L1066.94 500.321 L1088.38 524.337 L1109.82 549.533 L1131.26 575.862 L1152.7 603.271 L1174.15 631.699 L1195.59 661.082 L1217.03 691.35 
  L1238.47 722.425 L1259.91 754.225 L1281.35 786.663 L1302.79 819.644 L1324.23 853.071 L1345.67 886.84 L1367.11 920.841 L1388.56 954.961 L1410 989.083 L1431.44 1023.08 
  L1452.88 1056.83 L1474.32 1090.2 L1495.76 1123.06 L1517.2 1155.27 L1538.64 1186.68 L1560.08 1217.17 L1581.52 1246.57 L1602.97 1274.75 L1624.41 1301.56 L1645.85 1326.85 
  L1667.29 1350.47 L1688.73 1372.27 L1710.17 1392.11 L1731.61 1409.83 L1753.05 1425.31 L1774.49 1438.38 L1795.93 1448.92 L1817.37 1456.79 L1838.82 1461.86 L1860.26 1464 
  L1881.7 1463.09 L1903.14 1459.02 L1924.58 1451.68 L1946.02 1440.99 L1967.46 1426.83 L1988.9 1409.14 L2010.34 1387.85 L2031.78 1362.9 L2053.23 1334.24 L2074.67 1301.85 
  L2096.11 1265.69 L2117.55 1225.77 L2138.99 1182.1 L2160.43 1134.71 L2181.87 1083.65 L2203.31 1028.98 L2224.75 970.782 L2246.19 909.172 L2267.64 844.276 L2289.08 776.247 
  L2289.08 572.135 L2267.64 640.164 L2246.19 705.06 L2224.75 766.669 L2203.31 824.863 L2181.87 879.535 L2160.43 930.599 L2138.99 977.989 L2117.55 1021.66 L2096.11 1061.58 
  L2074.67 1097.73 L2053.23 1130.13 L2031.78 1158.79 L2010.34 1183.74 L1988.9 1205.03 L1967.46 1222.72 L1946.02 1236.87 L1924.58 1247.57 L1903.14 1254.91 L1881.7 1258.98 
  L1860.26 1259.88 L1838.82 1257.74 L1817.37 1252.68 L1795.93 1244.81 L1774.49 1234.27 L1753.05 1221.19 L1731.61 1205.72 L1710.17 1188 L1688.73 1168.16 L1667.29 1146.35 
  L1645.85 1122.74 L1624.41 1097.45 L1602.97 1070.64 L1581.52 1042.46 L1560.08 1013.05 L1538.64 982.571 L1517.2 951.155 L1495.76 918.948 L1474.32 886.091 L1452.88 852.72 
  L1431.44 818.969 L1410 784.97 L1388.56 750.849 L1367.11 716.729 L1345.67 682.727 L1324.23 648.959 L1302.79 615.532 L1281.35 582.55 L1259.91 550.113 L1238.47 518.312 
  L1217.03 487.237 L1195.59 456.97 L1174.15 427.587 L1152.7 399.158 L1131.26 371.75 L1109.82 345.421 L1088.38 320.224 L1066.94 296.208 L1045.5 273.415 L1024.06 251.88 
  L1002.62 231.635 L981.177 212.705 L959.736 195.109 L938.295 178.864 L916.854 163.978 L895.413 150.457 L873.972 138.3 L852.531 127.506 L831.09 118.065 L809.649 109.965 
  L788.208 103.193 L766.767 97.7292 L745.326 93.5532 L723.885 90.6416 L702.444 88.969 L681.003 88.5087 L659.562 89.2325 L638.121 91.1118 L616.68 94.1178 L595.239 98.2219 
  L573.798 103.396 L552.357 109.615 L530.916 116.854 L509.475 125.091 L488.034 134.308 L466.593 144.491 L445.153 155.628 L423.712 167.716 L402.271 180.756 L380.83 194.754 
  L359.389 209.726 L337.948 225.696 L316.507 242.695 L295.066 260.766 L273.625 279.96 L252.184 300.342 L230.743 321.988 L209.302 344.988 L187.861 369.446 L166.42 395.48 
  L166.42 599.592 L166.42 599.592  Z
  " fill="#e26f46" fill-rule="evenodd" fill-opacity="0.3"/>
<polyline clip-path="url(#clip222)" style="stroke:#000000; stroke-width:4; stroke-opacity:0.3; fill:none" points="
  166.42,599.592 187.861,573.558 209.302,549.101 230.743,526.101 252.184,504.454 273.625,484.072 295.066,464.878 316.507,446.808 337.948,429.809 359.389,413.839 
  380.83,398.866 402.271,384.868 423.712,371.829 445.153,359.741 466.593,348.603 488.034,338.421 509.475,329.204 530.916,320.966 552.357,313.728 573.798,307.509 
  595.239,302.334 616.68,298.23 638.121,295.224 659.562,293.345 681.003,292.621 702.444,293.081 723.885,294.754 745.326,297.666 766.767,301.842 788.208,307.305 
  809.649,314.078 831.09,322.177 852.531,331.618 873.972,342.413 895.413,354.569 916.854,368.09 938.295,382.976 959.736,399.222 981.177,416.817 1002.62,435.747 
  1024.06,455.992 1045.5,477.527 1066.94,500.321 1088.38,524.337 1109.82,549.533 1131.26,575.862 1152.7,603.271 1174.15,631.699 1195.59,661.082 1217.03,691.35 
  1238.47,722.425 1259.91,754.225 1281.35,786.663 1302.79,819.644 1324.23,853.071 1345.67,886.84 1367.11,920.841 1388.56,954.961 1410,989.083 1431.44,1023.08 
  1452.88,1056.83 1474.32,1090.2 1495.76,1123.06 1517.2,1155.27 1538.64,1186.68 1560.08,1217.17 1581.52,1246.57 1602.97,1274.75 1624.41,1301.56 1645.85,1326.85 
  1667.29,1350.47 1688.73,1372.27 1710.17,1392.11 1731.61,1409.83 1753.05,1425.31 1774.49,1438.38 1795.93,1448.92 1817.37,1456.79 1838.82,1461.86 1860.26,1464 
  1881.7,1463.09 1903.14,1459.02 1924.58,1451.68 1946.02,1440.99 1967.46,1426.83 1988.9,1409.14 2010.34,1387.85 2031.78,1362.9 2053.23,1334.24 2074.67,1301.85 
  2096.11,1265.69 2117.55,1225.77 2138.99,1182.1 2160.43,1134.71 2181.87,1083.65 2203.31,1028.98 2224.75,970.782 2246.19,909.172 2267.64,844.276 2289.08,776.247 
  2289.08,572.135 2267.64,640.164 2246.19,705.06 2224.75,766.669 2203.31,824.863 2181.87,879.535 2160.43,930.599 2138.99,977.989 2117.55,1021.66 2096.11,1061.58 
  2074.67,1097.73 2053.23,1130.13 2031.78,1158.79 2010.34,1183.74 1988.9,1205.03 1967.46,1222.72 1946.02,1236.87 1924.58,1247.57 1903.14,1254.91 1881.7,1258.98 
  1860.26,1259.88 1838.82,1257.74 1817.37,1252.68 1795.93,1244.81 1774.49,1234.27 1753.05,1221.19 1731.61,1205.72 1710.17,1188 1688.73,1168.16 1667.29,1146.35 
  1645.85,1122.74 1624.41,1097.45 1602.97,1070.64 1581.52,1042.46 1560.08,1013.05 1538.64,982.571 1517.2,951.155 1495.76,918.948 1474.32,886.091 1452.88,852.72 
  1431.44,818.969 1410,784.97 1388.56,750.849 1367.11,716.729 1345.67,682.727 1324.23,648.959 1302.79,615.532 1281.35,582.55 1259.91,550.113 1238.47,518.312 
  1217.03,487.237 1195.59,456.97 1174.15,427.587 1152.7,399.158 1131.26,371.75 1109.82,345.421 1088.38,320.224 1066.94,296.208 1045.5,273.415 1024.06,251.88 
  1002.62,231.635 981.177,212.705 959.736,195.109 938.295,178.864 916.854,163.978 895.413,150.457 873.972,138.3 852.531,127.506 831.09,118.065 809.649,109.965 
  788.208,103.193 766.767,97.7292 745.326,93.5532 723.885,90.6416 702.444,88.969 681.003,88.5087 659.562,89.2325 638.121,91.1118 616.68,94.1178 595.239,98.2219 
  573.798,103.396 552.357,109.615 530.916,116.854 509.475,125.091 488.034,134.308 466.593,144.491 445.153,155.628 423.712,167.716 402.271,180.756 380.83,194.754 
  359.389,209.726 337.948,225.696 316.507,242.695 295.066,260.766 273.625,279.96 252.184,300.342 230.743,321.988 209.302,344.988 187.861,369.446 166.42,395.48 
  166.42,599.592 
  "/>
<path clip-path="url(#clip222)" d="
M166.42 442.528 L187.861 427.596 L209.302 412.949 L230.743 398.595 L252.184 384.549 L273.625 370.828 L295.066 357.454 L316.507 344.455 L337.948 331.859 L359.389 319.701 
  L380.83 308.014 L402.271 296.839 L423.712 286.216 L445.153 276.186 L466.593 266.796 L488.034 258.088 L509.475 250.111 L530.916 242.91 L552.357 236.533 L573.798 231.027 
  L595.239 226.438 L616.68 222.811 L638.121 220.192 L659.562 218.624 L681.003 218.148 L702.444 218.805 L723.885 220.631 L745.326 223.661 L766.767 227.929 L788.208 233.461 
  L809.649 240.285 L831.09 248.422 L852.531 257.891 L873.972 268.705 L895.413 280.875 L916.854 294.405 L938.295 309.297 L959.736 325.547 L981.177 343.144 L1002.62 362.076 
  L1024.06 382.322 L1045.5 403.857 L1066.94 426.651 L1088.38 450.667 L1109.82 475.863 L1131.26 502.192 L1152.7 529.601 L1174.15 558.029 L1195.59 587.413 L1217.03 617.68 
  L1238.47 648.755 L1259.91 680.555 L1281.35 712.993 L1302.79 745.974 L1324.23 779.401 L1345.67 813.17 L1367.11 847.171 L1388.56 881.292 L1410 915.413 L1431.44 949.413 
  L1452.88 983.164 L1474.32 1016.54 L1495.76 1049.4 L1517.2 1081.61 L1538.64 1113.03 L1560.08 1143.52 L1581.52 1172.94 L1602.97 1201.14 L1624.41 1227.97 L1645.85 1253.3 
  L1667.29 1276.97 L1688.73 1298.84 L1710.17 1318.77 L1731.61 1336.62 L1753.05 1352.24 L1774.49 1365.51 L1795.93 1376.3 L1817.37 1384.48 L1838.82 1389.93 L1860.26 1392.55 
  L1881.7 1392.23 L1903.14 1388.87 L1924.58 1382.4 L1946.02 1372.74 L1967.46 1359.82 L1988.9 1343.61 L2010.34 1324.07 L2031.78 1301.18 L2053.23 1274.93 L2074.67 1245.36 
  L2096.11 1212.49 L2117.55 1176.38 L2138.99 1137.11 L2160.43 1094.8 L2181.87 1049.55 L2203.31 1001.54 L2224.75 950.948 L2246.19 897.984 L2267.64 842.899 L2289.08 785.972 
  L2289.08 728.418 L2267.64 785.346 L2246.19 840.431 L2224.75 893.394 L2203.31 943.989 L2181.87 992 L2160.43 1037.24 L2138.99 1079.56 L2117.55 1118.83 L2096.11 1154.93 
  L2074.67 1187.8 L2053.23 1217.38 L2031.78 1243.62 L2010.34 1266.52 L1988.9 1286.06 L1967.46 1302.27 L1946.02 1315.18 L1924.58 1324.85 L1903.14 1331.32 L1881.7 1334.68 
  L1860.26 1335 L1838.82 1332.38 L1817.37 1326.93 L1795.93 1318.75 L1774.49 1307.96 L1753.05 1294.69 L1731.61 1279.06 L1710.17 1261.22 L1688.73 1241.29 L1667.29 1219.42 
  L1645.85 1195.75 L1624.41 1170.42 L1602.97 1143.59 L1581.52 1115.39 L1560.08 1085.97 L1538.64 1055.48 L1517.2 1024.05 L1495.76 991.843 L1474.32 958.983 L1452.88 925.61 
  L1431.44 891.859 L1410 857.86 L1388.56 823.738 L1367.11 789.618 L1345.67 755.617 L1324.23 721.848 L1302.79 688.421 L1281.35 655.439 L1259.91 623.002 L1238.47 591.202 
  L1217.03 560.127 L1195.59 529.859 L1174.15 500.476 L1152.7 472.047 L1131.26 444.639 L1109.82 418.31 L1088.38 393.113 L1066.94 369.097 L1045.5 346.304 L1024.06 324.768 
  L1002.62 304.523 L981.177 285.591 L959.736 267.993 L938.295 251.744 L916.854 236.852 L895.413 223.321 L873.972 211.152 L852.531 200.337 L831.09 190.869 L809.649 182.732 
  L788.208 175.908 L766.767 170.375 L745.326 166.108 L723.885 163.077 L702.444 161.251 L681.003 160.595 L659.562 161.071 L638.121 162.639 L616.68 165.258 L595.239 168.884 
  L573.798 173.474 L552.357 178.98 L530.916 185.357 L509.475 192.558 L488.034 200.535 L466.593 209.242 L445.153 218.633 L423.712 228.662 L402.271 239.286 L380.83 250.461 
  L359.389 262.147 L337.948 274.306 L316.507 286.902 L295.066 299.901 L273.625 313.274 L252.184 326.995 L230.743 341.042 L209.302 355.395 L187.861 370.043 L166.42 384.975 
  L166.42 442.528 L166.42 442.528  Z
  " fill="#3da44d" fill-rule="evenodd" fill-opacity="0.3"/>
<polyline clip-path="url(#clip222)" style="stroke:#000000; stroke-width:4; stroke-opacity:0.3; fill:none" points="
  166.42,442.528 187.861,427.596 209.302,412.949 230.743,398.595 252.184,384.549 273.625,370.828 295.066,357.454 316.507,344.455 337.948,331.859 359.389,319.701 
  380.83,308.014 402.271,296.839 423.712,286.216 445.153,276.186 466.593,266.796 488.034,258.088 509.475,250.111 530.916,242.91 552.357,236.533 573.798,231.027 
  595.239,226.438 616.68,222.811 638.121,220.192 659.562,218.624 681.003,218.148 702.444,218.805 723.885,220.631 745.326,223.661 766.767,227.929 788.208,233.461 
  809.649,240.285 831.09,248.422 852.531,257.891 873.972,268.705 895.413,280.875 916.854,294.405 938.295,309.297 959.736,325.547 981.177,343.144 1002.62,362.076 
  1024.06,382.322 1045.5,403.857 1066.94,426.651 1088.38,450.667 1109.82,475.863 1131.26,502.192 1152.7,529.601 1174.15,558.029 1195.59,587.413 1217.03,617.68 
  1238.47,648.755 1259.91,680.555 1281.35,712.993 1302.79,745.974 1324.23,779.401 1345.67,813.17 1367.11,847.171 1388.56,881.292 1410,915.413 1431.44,949.413 
  1452.88,983.164 1474.32,1016.54 1495.76,1049.4 1517.2,1081.61 1538.64,1113.03 1560.08,1143.52 1581.52,1172.94 1602.97,1201.14 1624.41,1227.97 1645.85,1253.3 
  1667.29,1276.97 1688.73,1298.84 1710.17,1318.77 1731.61,1336.62 1753.05,1352.24 1774.49,1365.51 1795.93,1376.3 1817.37,1384.48 1838.82,1389.93 1860.26,1392.55 
  1881.7,1392.23 1903.14,1388.87 1924.58,1382.4 1946.02,1372.74 1967.46,1359.82 1988.9,1343.61 2010.34,1324.07 2031.78,1301.18 2053.23,1274.93 2074.67,1245.36 
  2096.11,1212.49 2117.55,1176.38 2138.99,1137.11 2160.43,1094.8 2181.87,1049.55 2203.31,1001.54 2224.75,950.948 2246.19,897.984 2267.64,842.899 2289.08,785.972 
  2289.08,728.418 2267.64,785.346 2246.19,840.431 2224.75,893.394 2203.31,943.989 2181.87,992 2160.43,1037.24 2138.99,1079.56 2117.55,1118.83 2096.11,1154.93 
  2074.67,1187.8 2053.23,1217.38 2031.78,1243.62 2010.34,1266.52 1988.9,1286.06 1967.46,1302.27 1946.02,1315.18 1924.58,1324.85 1903.14,1331.32 1881.7,1334.68 
  1860.26,1335 1838.82,1332.38 1817.37,1326.93 1795.93,1318.75 1774.49,1307.96 1753.05,1294.69 1731.61,1279.06 1710.17,1261.22 1688.73,1241.29 1667.29,1219.42 
  1645.85,1195.75 1624.41,1170.42 1602.97,1143.59 1581.52,1115.39 1560.08,1085.97 1538.64,1055.48 1517.2,1024.05 1495.76,991.843 1474.32,958.983 1452.88,925.61 
  1431.44,891.859 1410,857.86 1388.56,823.738 1367.11,789.618 1345.67,755.617 1324.23,721.848 1302.79,688.421 1281.35,655.439 1259.91,623.002 1238.47,591.202 
  1217.03,560.127 1195.59,529.859 1174.15,500.476 1152.7,472.047 1131.26,444.639 1109.82,418.31 1088.38,393.113 1066.94,369.097 1045.5,346.304 1024.06,324.768 
  1002.62,304.523 981.177,285.591 959.736,267.993 938.295,251.744 916.854,236.852 895.413,223.321 873.972,211.152 852.531,200.337 831.09,190.869 809.649,182.732 
  788.208,175.908 766.767,170.375 745.326,166.108 723.885,163.077 702.444,161.251 681.003,160.595 659.562,161.071 638.121,162.639 616.68,165.258 595.239,168.884 
  573.798,173.474 552.357,178.98 530.916,185.357 509.475,192.558 488.034,200.535 466.593,209.242 445.153,218.633 423.712,228.662 402.271,239.286 380.83,250.461 
  359.389,262.147 337.948,274.306 316.507,286.902 295.066,299.901 273.625,313.274 252.184,326.995 230.743,341.042 209.302,355.395 187.861,370.043 166.42,384.975 
  166.42,442.528 
  "/>
<path clip-path="url(#clip220)" d="
M1828.36 337.765 L2277.76 337.765 L2277.76 95.8446 L1828.36 95.8446  Z
  " fill="#ffffff" fill-rule="evenodd" fill-opacity="1"/>
<polyline clip-path="url(#clip220)" style="stroke:#000000; stroke-width:4; stroke-opacity:1; fill:none" points="
  1828.36,337.765 2277.76,337.765 2277.76,95.8446 1828.36,95.8446 1828.36,337.765 
  "/>
<polyline clip-path="url(#clip220)" style="stroke:#009af9; stroke-width:4; stroke-opacity:1; fill:none" points="
  1853.36,156.325 2003.36,156.325 
  "/>
<path clip-path="url(#clip220)" d="M 0 0 M2044.86 137.586 L2044.86 141.128 L2040.79 141.128 Q2038.5 141.128 2037.59 142.054 Q2036.71 142.98 2036.71 145.387 L2036.71 147.679 L2043.73 147.679 L2043.73 150.989 L2036.71 150.989 L2036.71 173.605 L2032.43 173.605 L2032.43 150.989 L2028.36 150.989 L2028.36 147.679 L2032.43 147.679 L2032.43 145.873 Q2032.43 141.545 2034.45 139.577 Q2036.46 137.586 2040.83 137.586 L2044.86 137.586 Z" fill="#000000" fill-rule="evenodd" fill-opacity="1" /><path clip-path="url(#clip220)" d="M 0 0 M2059.56 137.633 Q2056.46 142.957 2054.96 148.165 Q2053.45 153.373 2053.45 158.72 Q2053.45 164.068 2054.96 169.322 Q2056.48 174.554 2059.56 179.855 L2055.86 179.855 Q2052.39 174.415 2050.65 169.16 Q2048.94 163.906 2048.94 158.72 Q2048.94 153.558 2050.65 148.327 Q2052.36 143.096 2055.86 137.633 L2059.56 137.633 Z" fill="#000000" fill-rule="evenodd" fill-opacity="1" /><path clip-path="url(#clip220)" d="M 0 0 M2085.58 147.679 L2076.2 160.295 L2086.07 173.605 L2081.04 173.605 L2073.5 163.419 L2065.95 173.605 L2060.93 173.605 L2071 160.04 L2061.78 147.679 L2066.81 147.679 L2073.68 156.915 L2080.56 147.679 L2085.58 147.679 Z" fill="#000000" fill-rule="evenodd" fill-opacity="1" /><path clip-path="url(#clip220)" d="M 0 0 M2089.86 137.633 L2093.57 137.633 Q2097.04 143.096 2098.75 148.327 Q2100.49 153.558 2100.49 158.72 Q2100.49 163.906 2098.75 169.16 Q2097.04 174.415 2093.57 179.855 L2089.86 179.855 Q2092.94 174.554 2094.45 169.322 Q2095.97 164.068 2095.97 158.72 Q2095.97 153.373 2094.45 148.165 Q2092.94 142.957 2089.86 137.633 Z" fill="#000000" fill-rule="evenodd" fill-opacity="1" /><path clip-path="url(#clip220)" d="
M1853.36 240.997 L2003.36 240.997 L2003.36 192.613 L1853.36 192.613 L1853.36 240.997  Z
  " fill="#e26f46" fill-rule="evenodd" fill-opacity="0.3"/>
<polyline clip-path="url(#clip220)" style="stroke:#000000; stroke-width:4; stroke-opacity:1; fill:none" points="
  1853.36,240.997 2003.36,240.997 2003.36,192.613 1853.36,192.613 1853.36,240.997 
  "/>
<path clip-path="url(#clip220)" d="M 0 0 M2040.7 214.941 Q2037.55 214.941 2035.7 217.094 Q2033.87 219.247 2033.87 222.997 Q2033.87 226.724 2035.7 228.899 Q2037.55 231.052 2040.7 231.052 Q2043.84 231.052 2045.67 228.899 Q2047.52 226.724 2047.52 222.997 Q2047.52 219.247 2045.67 217.094 Q2043.84 214.941 2040.7 214.941 M2049.98 200.289 L2049.98 204.548 Q2048.22 203.714 2046.41 203.275 Q2044.63 202.835 2042.87 202.835 Q2038.24 202.835 2035.79 205.96 Q2033.36 209.085 2033.01 215.404 Q2034.38 213.39 2036.44 212.325 Q2038.5 211.238 2040.97 211.238 Q2046.18 211.238 2049.19 214.409 Q2052.22 217.557 2052.22 222.997 Q2052.22 228.321 2049.08 231.538 Q2045.93 234.756 2040.7 234.756 Q2034.7 234.756 2031.53 230.173 Q2028.36 225.566 2028.36 216.839 Q2028.36 208.645 2032.25 203.784 Q2036.14 198.9 2042.69 198.9 Q2044.45 198.9 2046.23 199.247 Q2048.03 199.594 2049.98 200.289 Z" fill="#000000" fill-rule="evenodd" fill-opacity="1" /><path clip-path="url(#clip220)" d="M 0 0 M2060.9 200.798 L2060.9 208.159 L2069.68 208.159 L2069.68 211.469 L2060.9 211.469 L2060.9 225.543 Q2060.9 228.714 2061.76 229.617 Q2062.64 230.52 2065.3 230.52 L2069.68 230.52 L2069.68 234.085 L2065.3 234.085 Q2060.37 234.085 2058.5 232.256 Q2056.62 230.404 2056.62 225.543 L2056.62 211.469 L2053.5 211.469 L2053.5 208.159 L2056.62 208.159 L2056.62 200.798 L2060.9 200.798 Z" fill="#000000" fill-rule="evenodd" fill-opacity="1" /><path clip-path="url(#clip220)" d="M 0 0 M2095.7 218.437 L2095.7 234.085 L2091.44 234.085 L2091.44 218.575 Q2091.44 214.895 2090 213.066 Q2088.57 211.238 2085.7 211.238 Q2082.25 211.238 2080.26 213.437 Q2078.27 215.636 2078.27 219.432 L2078.27 234.085 L2073.98 234.085 L2073.98 198.066 L2078.27 198.066 L2078.27 212.187 Q2079.79 209.849 2081.85 208.691 Q2083.94 207.534 2086.64 207.534 Q2091.11 207.534 2093.4 210.312 Q2095.7 213.066 2095.7 218.437 Z" fill="#000000" fill-rule="evenodd" fill-opacity="1" /><path clip-path="url(#clip220)" d="M 0 0 M2125.28 211.145 Q2121.85 211.145 2119.86 213.83 Q2117.87 216.492 2117.87 221.145 Q2117.87 225.798 2119.84 228.483 Q2121.83 231.145 2125.28 231.145 Q2128.68 231.145 2130.67 228.46 Q2132.66 225.774 2132.66 221.145 Q2132.66 216.538 2130.67 213.853 Q2128.68 211.145 2125.28 211.145 M2125.28 207.534 Q2130.83 207.534 2134.01 211.145 Q2137.18 214.756 2137.18 221.145 Q2137.18 227.511 2134.01 231.145 Q2130.83 234.756 2125.28 234.756 Q2119.7 234.756 2116.53 231.145 Q2113.38 227.511 2113.38 221.145 Q2113.38 214.756 2116.53 211.145 Q2119.7 207.534 2125.28 207.534 Z" fill="#000000" fill-rule="evenodd" fill-opacity="1" /><path clip-path="url(#clip220)" d="M 0 0 M2156.67 212.14 Q2155.95 211.724 2155.09 211.538 Q2154.26 211.33 2153.24 211.33 Q2149.63 211.33 2147.69 213.691 Q2145.76 216.029 2145.76 220.427 L2145.76 234.085 L2141.48 234.085 L2141.48 208.159 L2145.76 208.159 L2145.76 212.187 Q2147.11 209.825 2149.26 208.691 Q2151.41 207.534 2154.49 207.534 Q2154.93 207.534 2155.46 207.603 Q2156 207.65 2156.64 207.765 L2156.67 212.14 Z" fill="#000000" fill-rule="evenodd" fill-opacity="1" /><path clip-path="url(#clip220)" d="M 0 0 M2177.36 212.094 L2177.36 198.066 L2181.62 198.066 L2181.62 234.085 L2177.36 234.085 L2177.36 230.196 Q2176.02 232.511 2173.96 233.645 Q2171.92 234.756 2169.05 234.756 Q2164.35 234.756 2161.39 231.006 Q2158.45 227.256 2158.45 221.145 Q2158.45 215.034 2161.39 211.284 Q2164.35 207.534 2169.05 207.534 Q2171.92 207.534 2173.96 208.668 Q2176.02 209.779 2177.36 212.094 M2162.85 221.145 Q2162.85 225.844 2164.77 228.529 Q2166.71 231.191 2170.09 231.191 Q2173.47 231.191 2175.42 228.529 Q2177.36 225.844 2177.36 221.145 Q2177.36 216.446 2175.42 213.784 Q2173.47 211.099 2170.09 211.099 Q2166.71 211.099 2164.77 213.784 Q2162.85 216.446 2162.85 221.145 Z" fill="#000000" fill-rule="evenodd" fill-opacity="1" /><path clip-path="url(#clip220)" d="M 0 0 M2208.26 220.057 L2208.26 222.14 L2188.68 222.14 Q2188.96 226.538 2191.32 228.853 Q2193.7 231.145 2197.94 231.145 Q2200.39 231.145 2202.69 230.543 Q2205 229.941 2207.27 228.737 L2207.27 232.765 Q2204.98 233.737 2202.57 234.247 Q2200.16 234.756 2197.69 234.756 Q2191.48 234.756 2187.85 231.145 Q2184.24 227.534 2184.24 221.376 Q2184.24 215.011 2187.66 211.284 Q2191.11 207.534 2196.95 207.534 Q2202.18 207.534 2205.21 210.913 Q2208.26 214.27 2208.26 220.057 M2204.01 218.807 Q2203.96 215.312 2202.04 213.228 Q2200.14 211.145 2196.99 211.145 Q2193.43 211.145 2191.27 213.159 Q2189.14 215.173 2188.82 218.83 L2204.01 218.807 Z" fill="#000000" fill-rule="evenodd" fill-opacity="1" /><path clip-path="url(#clip220)" d="M 0 0 M2227.76 212.14 Q2227.04 211.724 2226.18 211.538 Q2225.35 211.33 2224.33 211.33 Q2220.72 211.33 2218.77 213.691 Q2216.85 216.029 2216.85 220.427 L2216.85 234.085 L2212.57 234.085 L2212.57 208.159 L2216.85 208.159 L2216.85 212.187 Q2218.19 209.825 2220.35 208.691 Q2222.5 207.534 2225.58 207.534 Q2226.02 207.534 2226.55 207.603 Q2227.08 207.65 2227.73 207.765 L2227.76 212.14 Z" fill="#000000" fill-rule="evenodd" fill-opacity="1" /><path clip-path="url(#clip220)" d="
M1853.36 301.477 L2003.36 301.477 L2003.36 253.093 L1853.36 253.093 L1853.36 301.477  Z
  " fill="#3da44d" fill-rule="evenodd" fill-opacity="0.3"/>
<polyline clip-path="url(#clip220)" style="stroke:#000000; stroke-width:4; stroke-opacity:1; fill:none" points="
  1853.36,301.477 2003.36,301.477 2003.36,253.093 1853.36,253.093 1853.36,301.477 
  "/>
<path clip-path="url(#clip220)" d="M 0 0 M2028.36 260.005 L2050.58 260.005 L2050.58 261.995 L2038.03 294.565 L2033.15 294.565 L2044.96 263.94 L2028.36 263.94 L2028.36 260.005 Z" fill="#000000" fill-rule="evenodd" fill-opacity="1" /><path clip-path="url(#clip220)" d="M 0 0 M2059.26 261.278 L2059.26 268.639 L2068.03 268.639 L2068.03 271.949 L2059.26 271.949 L2059.26 286.023 Q2059.26 289.194 2060.12 290.097 Q2061 291 2063.66 291 L2068.03 291 L2068.03 294.565 L2063.66 294.565 Q2058.73 294.565 2056.85 292.736 Q2054.98 290.884 2054.98 286.023 L2054.98 271.949 L2051.85 271.949 L2051.85 268.639 L2054.98 268.639 L2054.98 261.278 L2059.26 261.278 Z" fill="#000000" fill-rule="evenodd" fill-opacity="1" /><path clip-path="url(#clip220)" d="M 0 0 M2094.05 278.917 L2094.05 294.565 L2089.79 294.565 L2089.79 279.055 Q2089.79 275.375 2088.36 273.546 Q2086.92 271.718 2084.05 271.718 Q2080.6 271.718 2078.61 273.917 Q2076.62 276.116 2076.62 279.912 L2076.62 294.565 L2072.34 294.565 L2072.34 258.546 L2076.62 258.546 L2076.62 272.667 Q2078.15 270.329 2080.21 269.171 Q2082.29 268.014 2085 268.014 Q2089.47 268.014 2091.76 270.792 Q2094.05 273.546 2094.05 278.917 Z" fill="#000000" fill-rule="evenodd" fill-opacity="1" /><path clip-path="url(#clip220)" d="M 0 0 M2123.64 271.625 Q2120.21 271.625 2118.22 274.31 Q2116.23 276.972 2116.23 281.625 Q2116.23 286.278 2118.2 288.963 Q2120.19 291.625 2123.64 291.625 Q2127.04 291.625 2129.03 288.94 Q2131.02 286.254 2131.02 281.625 Q2131.02 277.018 2129.03 274.333 Q2127.04 271.625 2123.64 271.625 M2123.64 268.014 Q2129.19 268.014 2132.36 271.625 Q2135.53 275.236 2135.53 281.625 Q2135.53 287.991 2132.36 291.625 Q2129.19 295.236 2123.64 295.236 Q2118.06 295.236 2114.89 291.625 Q2111.74 287.991 2111.74 281.625 Q2111.74 275.236 2114.89 271.625 Q2118.06 268.014 2123.64 268.014 Z" fill="#000000" fill-rule="evenodd" fill-opacity="1" /><path clip-path="url(#clip220)" d="M 0 0 M2155.02 272.62 Q2154.31 272.204 2153.45 272.018 Q2152.62 271.81 2151.6 271.81 Q2147.99 271.81 2146.04 274.171 Q2144.12 276.509 2144.12 280.907 L2144.12 294.565 L2139.84 294.565 L2139.84 268.639 L2144.12 268.639 L2144.12 272.667 Q2145.46 270.305 2147.62 269.171 Q2149.77 268.014 2152.85 268.014 Q2153.29 268.014 2153.82 268.083 Q2154.35 268.13 2155 268.245 L2155.02 272.62 Z" fill="#000000" fill-rule="evenodd" fill-opacity="1" /><path clip-path="url(#clip220)" d="M 0 0 M2175.72 272.574 L2175.72 258.546 L2179.98 258.546 L2179.98 294.565 L2175.72 294.565 L2175.72 290.676 Q2174.38 292.991 2172.32 294.125 Q2170.28 295.236 2167.41 295.236 Q2162.71 295.236 2159.75 291.486 Q2156.81 287.736 2156.81 281.625 Q2156.81 275.514 2159.75 271.764 Q2162.71 268.014 2167.41 268.014 Q2170.28 268.014 2172.32 269.148 Q2174.38 270.259 2175.72 272.574 M2161.2 281.625 Q2161.2 286.324 2163.13 289.009 Q2165.07 291.671 2168.45 291.671 Q2171.83 291.671 2173.77 289.009 Q2175.72 286.324 2175.72 281.625 Q2175.72 276.926 2173.77 274.264 Q2171.83 271.579 2168.45 271.579 Q2165.07 271.579 2163.13 274.264 Q2161.2 276.926 2161.2 281.625 Z" fill="#000000" fill-rule="evenodd" fill-opacity="1" /><path clip-path="url(#clip220)" d="M 0 0 M2206.62 280.537 L2206.62 282.62 L2187.04 282.62 Q2187.32 287.018 2189.68 289.333 Q2192.06 291.625 2196.3 291.625 Q2198.75 291.625 2201.04 291.023 Q2203.36 290.421 2205.63 289.217 L2205.63 293.245 Q2203.33 294.217 2200.93 294.727 Q2198.52 295.236 2196.04 295.236 Q2189.84 295.236 2186.2 291.625 Q2182.59 288.014 2182.59 281.856 Q2182.59 275.491 2186.02 271.764 Q2189.47 268.014 2195.3 268.014 Q2200.53 268.014 2203.57 271.393 Q2206.62 274.75 2206.62 280.537 M2202.36 279.287 Q2202.32 275.792 2200.39 273.708 Q2198.5 271.625 2195.35 271.625 Q2191.78 271.625 2189.63 273.639 Q2187.5 275.653 2187.18 279.31 L2202.36 279.287 Z" fill="#000000" fill-rule="evenodd" fill-opacity="1" /><path clip-path="url(#clip220)" d="M 0 0 M2226.11 272.62 Q2225.39 272.204 2224.54 272.018 Q2223.7 271.81 2222.69 271.81 Q2219.07 271.81 2217.13 274.171 Q2215.21 276.509 2215.21 280.907 L2215.21 294.565 L2210.93 294.565 L2210.93 268.639 L2215.21 268.639 L2215.21 272.667 Q2216.55 270.305 2218.7 269.171 Q2220.86 268.014 2223.94 268.014 Q2224.38 268.014 2224.91 268.083 Q2225.44 268.13 2226.09 268.245 L2226.11 272.62 Z" fill="#000000" fill-rule="evenodd" fill-opacity="1" /></svg>
