<?xml version="1.0" encoding="utf-8"?>
<svg xmlns="http://www.w3.org/2000/svg" xmlns:xlink="http://www.w3.org/1999/xlink" width="600" height="400" viewBox="0 0 2400 1600">
<defs>
  <clipPath id="clip650">
    <rect x="0" y="0" width="2400" height="1600"/>
  </clipPath>
</defs>
<path clip-path="url(#clip650)" d="
M0 1600 L2400 1600 L2400 0 L0 0  Z
  " fill="#ffffff" fill-rule="evenodd" fill-opacity="1"/>
<defs>
  <clipPath id="clip651">
    <rect x="480" y="0" width="1681" height="1600"/>
  </clipPath>
</defs>
<path clip-path="url(#clip650)" d="
M86.9921 1521.01 L1152.76 1521.01 L1152.76 47.2441 L86.9921 47.2441  Z
  " fill="#ffffff" fill-rule="evenodd" fill-opacity="1"/>
<defs>
  <clipPath id="clip652">
    <rect x="86" y="47" width="1067" height="1475"/>
  </clipPath>
</defs>
<polyline clip-path="url(#clip652)" style="stroke:#000000; stroke-width:2; stroke-opacity:0.1; fill:none" points="
  184.184,1521.01 184.184,47.2441 
  "/>
<polyline clip-path="url(#clip652)" style="stroke:#000000; stroke-width:2; stroke-opacity:0.1; fill:none" points="
  385.272,1521.01 385.272,47.2441 
  "/>
<polyline clip-path="url(#clip652)" style="stroke:#000000; stroke-width:2; stroke-opacity:0.1; fill:none" points="
  586.359,1521.01 586.359,47.2441 
  "/>
<polyline clip-path="url(#clip652)" style="stroke:#000000; stroke-width:2; stroke-opacity:0.1; fill:none" points="
  787.447,1521.01 787.447,47.2441 
  "/>
<polyline clip-path="url(#clip652)" style="stroke:#000000; stroke-width:2; stroke-opacity:0.1; fill:none" points="
  988.534,1521.01 988.534,47.2441 
  "/>
<polyline clip-path="url(#clip650)" style="stroke:#000000; stroke-width:4; stroke-opacity:1; fill:none" points="
  86.9921,1521.01 1152.76,1521.01 
  "/>
<polyline clip-path="url(#clip650)" style="stroke:#000000; stroke-width:4; stroke-opacity:1; fill:none" points="
  184.184,1521.01 184.184,1503.32 
  "/>
<polyline clip-path="url(#clip650)" style="stroke:#000000; stroke-width:4; stroke-opacity:1; fill:none" points="
  385.272,1521.01 385.272,1503.32 
  "/>
<polyline clip-path="url(#clip650)" style="stroke:#000000; stroke-width:4; stroke-opacity:1; fill:none" points="
  586.359,1521.01 586.359,1503.32 
  "/>
<polyline clip-path="url(#clip650)" style="stroke:#000000; stroke-width:4; stroke-opacity:1; fill:none" points="
  787.447,1521.01 787.447,1503.32 
  "/>
<polyline clip-path="url(#clip650)" style="stroke:#000000; stroke-width:4; stroke-opacity:1; fill:none" points="
  988.534,1521.01 988.534,1503.32 
  "/>
<path clip-path="url(#clip650)" d="M 0 0 M165.62 1550.2 Q162.009 1550.2 160.18 1553.76 Q158.374 1557.31 158.374 1564.43 Q158.374 1571.54 160.18 1575.11 Q162.009 1578.65 165.62 1578.65 Q169.254 1578.65 171.059 1575.11 Q172.888 1571.54 172.888 1564.43 Q172.888 1557.31 171.059 1553.76 Q169.254 1550.2 165.62 1550.2 M165.62 1546.49 Q171.43 1546.49 174.485 1551.1 Q177.564 1555.68 177.564 1564.43 Q177.564 1573.16 174.485 1577.77 Q171.43 1582.35 165.62 1582.35 Q159.81 1582.35 156.731 1577.77 Q153.675 1573.16 153.675 1564.43 Q153.675 1555.68 156.731 1551.1 Q159.81 1546.49 165.62 1546.49 Z" fill="#000000" fill-rule="evenodd" fill-opacity="1" /><path clip-path="url(#clip650)" d="M 0 0 M182.634 1575.8 L187.518 1575.8 L187.518 1581.68 L182.634 1581.68 L182.634 1575.8 Z" fill="#000000" fill-rule="evenodd" fill-opacity="1" /><path clip-path="url(#clip650)" d="M 0 0 M203.166 1562.54 Q200.018 1562.54 198.166 1564.69 Q196.337 1566.84 196.337 1570.59 Q196.337 1574.32 198.166 1576.49 Q200.018 1578.65 203.166 1578.65 Q206.314 1578.65 208.143 1576.49 Q209.994 1574.32 209.994 1570.59 Q209.994 1566.84 208.143 1564.69 Q206.314 1562.54 203.166 1562.54 M212.448 1547.88 L212.448 1552.14 Q210.689 1551.31 208.883 1550.87 Q207.101 1550.43 205.342 1550.43 Q200.712 1550.43 198.258 1553.56 Q195.828 1556.68 195.481 1563 Q196.846 1560.99 198.907 1559.92 Q200.967 1558.83 203.444 1558.83 Q208.652 1558.83 211.661 1562 Q214.694 1565.15 214.694 1570.59 Q214.694 1575.92 211.545 1579.13 Q208.397 1582.35 203.166 1582.35 Q197.17 1582.35 193.999 1577.77 Q190.828 1573.16 190.828 1564.43 Q190.828 1556.24 194.717 1551.38 Q198.606 1546.49 205.157 1546.49 Q206.916 1546.49 208.698 1546.84 Q210.504 1547.19 212.448 1547.88 Z" fill="#000000" fill-rule="evenodd" fill-opacity="1" /><path clip-path="url(#clip650)" d="M 0 0 M366.881 1550.2 Q363.27 1550.2 361.441 1553.76 Q359.635 1557.31 359.635 1564.43 Q359.635 1571.54 361.441 1575.11 Q363.27 1578.65 366.881 1578.65 Q370.515 1578.65 372.321 1575.11 Q374.149 1571.54 374.149 1564.43 Q374.149 1557.31 372.321 1553.76 Q370.515 1550.2 366.881 1550.2 M366.881 1546.49 Q372.691 1546.49 375.747 1551.1 Q378.825 1555.68 378.825 1564.43 Q378.825 1573.16 375.747 1577.77 Q372.691 1582.35 366.881 1582.35 Q361.071 1582.35 357.992 1577.77 Q354.936 1573.16 354.936 1564.43 Q354.936 1555.68 357.992 1551.1 Q361.071 1546.49 366.881 1546.49 Z" fill="#000000" fill-rule="evenodd" fill-opacity="1" /><path clip-path="url(#clip650)" d="M 0 0 M383.895 1575.8 L388.779 1575.8 L388.779 1581.68 L383.895 1581.68 L383.895 1575.8 Z" fill="#000000" fill-rule="evenodd" fill-opacity="1" /><path clip-path="url(#clip650)" d="M 0 0 M393.987 1580.96 L393.987 1576.7 Q395.746 1577.54 397.552 1577.98 Q399.357 1578.42 401.094 1578.42 Q405.723 1578.42 408.154 1575.31 Q410.607 1572.19 410.955 1565.85 Q409.612 1567.84 407.552 1568.9 Q405.492 1569.97 402.992 1569.97 Q397.807 1569.97 394.774 1566.84 Q391.765 1563.69 391.765 1558.25 Q391.765 1552.93 394.913 1549.71 Q398.061 1546.49 403.293 1546.49 Q409.288 1546.49 412.436 1551.1 Q415.607 1555.68 415.607 1564.43 Q415.607 1572.61 411.719 1577.49 Q407.853 1582.35 401.302 1582.35 Q399.543 1582.35 397.737 1582 Q395.932 1581.66 393.987 1580.96 M403.293 1566.31 Q406.441 1566.31 408.269 1564.16 Q410.121 1562 410.121 1558.25 Q410.121 1554.53 408.269 1552.37 Q406.441 1550.2 403.293 1550.2 Q400.145 1550.2 398.293 1552.37 Q396.464 1554.53 396.464 1558.25 Q396.464 1562 398.293 1564.16 Q400.145 1566.31 403.293 1566.31 Z" fill="#000000" fill-rule="evenodd" fill-opacity="1" /><path clip-path="url(#clip650)" d="M 0 0 M559.056 1577.74 L566.695 1577.74 L566.695 1551.38 L558.385 1553.05 L558.385 1548.79 L566.649 1547.12 L571.325 1547.12 L571.325 1577.74 L578.964 1577.74 L578.964 1581.68 L559.056 1581.68 L559.056 1577.74 Z" fill="#000000" fill-rule="evenodd" fill-opacity="1" /><path clip-path="url(#clip650)" d="M 0 0 M584.033 1575.8 L588.917 1575.8 L588.917 1581.68 L584.033 1581.68 L584.033 1575.8 Z" fill="#000000" fill-rule="evenodd" fill-opacity="1" /><path clip-path="url(#clip650)" d="M 0 0 M598.014 1577.74 L614.334 1577.74 L614.334 1581.68 L592.389 1581.68 L592.389 1577.74 Q595.052 1574.99 599.635 1570.36 Q604.241 1565.71 605.422 1564.37 Q607.667 1561.84 608.547 1560.11 Q609.45 1558.35 609.45 1556.66 Q609.45 1553.9 607.505 1552.17 Q605.584 1550.43 602.482 1550.43 Q600.283 1550.43 597.829 1551.19 Q595.399 1551.96 592.621 1553.51 L592.621 1548.79 Q595.445 1547.65 597.899 1547.07 Q600.352 1546.49 602.389 1546.49 Q607.76 1546.49 610.954 1549.18 Q614.149 1551.87 614.149 1556.36 Q614.149 1558.49 613.338 1560.41 Q612.551 1562.3 610.445 1564.9 Q609.866 1565.57 606.764 1568.79 Q603.663 1571.98 598.014 1577.74 Z" fill="#000000" fill-rule="evenodd" fill-opacity="1" /><path clip-path="url(#clip650)" d="M 0 0 M759.843 1577.74 L767.482 1577.74 L767.482 1551.38 L759.172 1553.05 L759.172 1548.79 L767.435 1547.12 L772.111 1547.12 L772.111 1577.74 L779.75 1577.74 L779.75 1581.68 L759.843 1581.68 L759.843 1577.74 Z" fill="#000000" fill-rule="evenodd" fill-opacity="1" /><path clip-path="url(#clip650)" d="M 0 0 M784.82 1575.8 L789.704 1575.8 L789.704 1581.68 L784.82 1581.68 L784.82 1575.8 Z" fill="#000000" fill-rule="evenodd" fill-opacity="1" /><path clip-path="url(#clip650)" d="M 0 0 M794.82 1547.12 L813.176 1547.12 L813.176 1551.06 L799.102 1551.06 L799.102 1559.53 Q800.12 1559.18 801.139 1559.02 Q802.158 1558.83 803.176 1558.83 Q808.963 1558.83 812.343 1562 Q815.722 1565.18 815.722 1570.59 Q815.722 1576.17 812.25 1579.27 Q808.778 1582.35 802.458 1582.35 Q800.283 1582.35 798.014 1581.98 Q795.769 1581.61 793.361 1580.87 L793.361 1576.17 Q795.445 1577.3 797.667 1577.86 Q799.889 1578.42 802.366 1578.42 Q806.37 1578.42 808.708 1576.31 Q811.046 1574.2 811.046 1570.59 Q811.046 1566.98 808.708 1564.87 Q806.37 1562.77 802.366 1562.77 Q800.491 1562.77 798.616 1563.18 Q796.764 1563.6 794.82 1564.48 L794.82 1547.12 Z" fill="#000000" fill-rule="evenodd" fill-opacity="1" /><path clip-path="url(#clip650)" d="M 0 0 M960.479 1577.74 L968.118 1577.74 L968.118 1551.38 L959.808 1553.05 L959.808 1548.79 L968.072 1547.12 L972.747 1547.12 L972.747 1577.74 L980.386 1577.74 L980.386 1581.68 L960.479 1581.68 L960.479 1577.74 Z" fill="#000000" fill-rule="evenodd" fill-opacity="1" /><path clip-path="url(#clip650)" d="M 0 0 M985.456 1575.8 L990.34 1575.8 L990.34 1581.68 L985.456 1581.68 L985.456 1575.8 Z" fill="#000000" fill-rule="evenodd" fill-opacity="1" /><path clip-path="url(#clip650)" d="M 0 0 M1005.41 1565.27 Q1002.08 1565.27 1000.15 1567.05 Q998.257 1568.83 998.257 1571.96 Q998.257 1575.08 1000.15 1576.87 Q1002.08 1578.65 1005.41 1578.65 Q1008.74 1578.65 1010.66 1576.87 Q1012.59 1575.06 1012.59 1571.96 Q1012.59 1568.83 1010.66 1567.05 Q1008.77 1565.27 1005.41 1565.27 M1000.73 1563.28 Q997.724 1562.54 996.034 1560.48 Q994.368 1558.42 994.368 1555.45 Q994.368 1551.31 997.308 1548.9 Q1000.27 1546.49 1005.41 1546.49 Q1010.57 1546.49 1013.51 1548.9 Q1016.45 1551.31 1016.45 1555.45 Q1016.45 1558.42 1014.76 1560.48 Q1013.09 1562.54 1010.11 1563.28 Q1013.49 1564.06 1015.36 1566.36 Q1017.26 1568.65 1017.26 1571.96 Q1017.26 1576.98 1014.18 1579.67 Q1011.13 1582.35 1005.41 1582.35 Q999.692 1582.35 996.613 1579.67 Q993.558 1576.98 993.558 1571.96 Q993.558 1568.65 995.456 1566.36 Q997.354 1564.06 1000.73 1563.28 M999.02 1555.89 Q999.02 1558.58 1000.69 1560.08 Q1002.38 1561.59 1005.41 1561.59 Q1008.42 1561.59 1010.11 1560.08 Q1011.82 1558.58 1011.82 1555.89 Q1011.82 1553.21 1010.11 1551.7 Q1008.42 1550.2 1005.41 1550.2 Q1002.38 1550.2 1000.69 1551.7 Q999.02 1553.21 999.02 1555.89 Z" fill="#000000" fill-rule="evenodd" fill-opacity="1" /><polyline clip-path="url(#clip652)" style="stroke:#000000; stroke-width:2; stroke-opacity:0.1; fill:none" points="
  86.9921,1205.27 1152.76,1205.27 
  "/>
<polyline clip-path="url(#clip652)" style="stroke:#000000; stroke-width:2; stroke-opacity:0.1; fill:none" points="
  86.9921,834.237 1152.76,834.237 
  "/>
<polyline clip-path="url(#clip652)" style="stroke:#000000; stroke-width:2; stroke-opacity:0.1; fill:none" points="
  86.9921,463.203 1152.76,463.203 
  "/>
<polyline clip-path="url(#clip652)" style="stroke:#000000; stroke-width:2; stroke-opacity:0.1; fill:none" points="
  86.9921,92.1692 1152.76,92.1692 
  "/>
<polyline clip-path="url(#clip650)" style="stroke:#000000; stroke-width:4; stroke-opacity:1; fill:none" points="
  86.9921,1521.01 86.9921,47.2441 
  "/>
<polyline clip-path="url(#clip650)" style="stroke:#000000; stroke-width:4; stroke-opacity:1; fill:none" points="
  86.9921,1205.27 99.7813,1205.27 
  "/>
<polyline clip-path="url(#clip650)" style="stroke:#000000; stroke-width:4; stroke-opacity:1; fill:none" points="
  86.9921,834.237 99.7813,834.237 
  "/>
<polyline clip-path="url(#clip650)" style="stroke:#000000; stroke-width:4; stroke-opacity:1; fill:none" points="
  86.9921,463.203 99.7813,463.203 
  "/>
<polyline clip-path="url(#clip650)" style="stroke:#000000; stroke-width:4; stroke-opacity:1; fill:none" points="
  86.9921,92.1692 99.7813,92.1692 
  "/>
<path clip-path="url(#clip650)" d="M 0 0 M34.6728 1218.62 L50.9921 1218.62 L50.9921 1222.55 L29.0478 1222.55 L29.0478 1218.62 Q31.7098 1215.86 36.2931 1211.23 Q40.8996 1206.58 42.0801 1205.24 Q44.3255 1202.71 45.2051 1200.98 Q46.1079 1199.22 46.1079 1197.53 Q46.1079 1194.77 44.1635 1193.04 Q42.2422 1191.3 39.1403 1191.3 Q36.9413 1191.3 34.4876 1192.07 Q32.057 1192.83 29.2793 1194.38 L29.2793 1189.66 Q32.1033 1188.52 34.557 1187.95 Q37.0107 1187.37 39.0477 1187.37 Q44.4181 1187.37 47.6125 1190.05 Q50.8069 1192.74 50.8069 1197.23 Q50.8069 1199.36 49.9968 1201.28 Q49.2097 1203.18 47.1033 1205.77 Q46.5246 1206.44 43.4227 1209.66 Q40.3209 1212.85 34.6728 1218.62 Z" fill="#000000" fill-rule="evenodd" fill-opacity="1" /><path clip-path="url(#clip650)" d="M 0 0 M43.8625 832.883 Q47.219 833.601 49.094 835.869 Q50.9921 838.138 50.9921 841.471 Q50.9921 846.587 47.4736 849.388 Q43.9551 852.189 37.4737 852.189 Q35.2978 852.189 32.983 851.749 Q30.6913 851.332 28.2376 850.476 L28.2376 845.962 Q30.1821 847.096 32.4969 847.675 Q34.8117 848.254 37.3348 848.254 Q41.7329 848.254 44.0246 846.518 Q46.3394 844.781 46.3394 841.471 Q46.3394 838.416 44.1866 836.703 Q42.057 834.967 38.2376 834.967 L34.2098 834.967 L34.2098 831.124 L38.4227 831.124 Q41.8718 831.124 43.7005 829.758 Q45.5292 828.369 45.5292 825.777 Q45.5292 823.115 43.6311 821.703 Q41.7561 820.268 38.2376 820.268 Q36.3163 820.268 34.1172 820.684 Q31.9182 821.101 29.2793 821.981 L29.2793 817.814 Q31.9413 817.073 34.2561 816.703 Q36.5941 816.332 38.6542 816.332 Q43.9783 816.332 47.0801 818.763 Q50.1819 821.17 50.1819 825.291 Q50.1819 828.161 48.5384 830.152 Q46.8949 832.119 43.8625 832.883 Z" fill="#000000" fill-rule="evenodd" fill-opacity="1" /><path clip-path="url(#clip650)" d="M 0 0 M41.4088 449.997 L29.6034 468.446 L41.4088 468.446 L41.4088 449.997 M40.182 445.923 L46.0616 445.923 L46.0616 468.446 L50.9921 468.446 L50.9921 472.335 L46.0616 472.335 L46.0616 480.483 L41.4088 480.483 L41.4088 472.335 L25.8071 472.335 L25.8071 467.821 L40.182 445.923 Z" fill="#000000" fill-rule="evenodd" fill-opacity="1" /><path clip-path="url(#clip650)" d="M 0 0 M30.0895 74.8892 L48.4458 74.8892 L48.4458 78.8243 L34.3718 78.8243 L34.3718 87.2965 Q35.3904 86.9493 36.4089 86.7872 Q37.4274 86.6021 38.4459 86.6021 Q44.2329 86.6021 47.6125 89.7733 Q50.9921 92.9446 50.9921 98.3613 Q50.9921 103.94 47.5199 107.042 Q44.0477 110.12 37.7283 110.12 Q35.5524 110.12 33.2839 109.75 Q31.0385 109.38 28.6311 108.639 L28.6311 103.94 Q30.7145 105.074 32.9367 105.63 Q35.1589 106.185 37.6357 106.185 Q41.6403 106.185 43.9783 104.079 Q46.3162 101.972 46.3162 98.3613 Q46.3162 94.7502 43.9783 92.6437 Q41.6403 90.5372 37.6357 90.5372 Q35.7607 90.5372 33.8857 90.9539 Q32.0339 91.3705 30.0895 92.2502 L30.0895 74.8892 Z" fill="#000000" fill-rule="evenodd" fill-opacity="1" /><polyline clip-path="url(#clip652)" style="stroke:#009af9; stroke-width:4; stroke-opacity:1; fill:none" points="
  117.155,1479.3 123.858,1475.61 130.561,1471.84 137.264,1468 143.967,1464.09 150.67,1460.11 157.373,1456.05 164.076,1451.91 170.779,1447.71 177.482,1443.43 
  184.184,1439.08 190.887,1434.65 197.59,1430.15 204.293,1425.58 210.996,1420.93 217.699,1416.21 224.402,1411.42 231.105,1406.56 237.808,1401.62 244.511,1396.61 
  251.214,1391.52 257.917,1386.36 264.619,1381.13 271.322,1375.83 278.025,1370.45 284.728,1365 291.431,1359.48 298.134,1353.89 304.837,1348.22 311.54,1342.48 
  318.243,1336.66 324.946,1330.78 331.649,1324.82 338.352,1318.79 345.054,1312.69 351.757,1306.51 358.46,1300.26 365.163,1293.94 371.866,1287.55 378.569,1281.09 
  385.272,1274.55 391.975,1267.94 398.678,1261.26 405.381,1254.51 412.084,1247.69 418.787,1240.8 425.489,1233.84 432.192,1226.8 438.895,1219.69 445.598,1212.52 
  452.301,1205.27 459.004,1197.96 465.707,1190.57 472.41,1183.11 479.113,1175.59 485.816,1167.99 492.519,1160.33 499.222,1152.6 505.924,1144.8 512.627,1136.94 
  519.33,1129.01 526.033,1121.01 532.736,1112.95 539.439,1104.82 546.142,1096.64 552.845,1088.39 559.548,1080.08 566.251,1071.71 572.954,1063.28 579.657,1054.8 
  586.359,1046.27 593.062,1037.69 599.765,1029.06 606.468,1020.4 613.171,1011.71 619.874,1002.99 626.577,994.274 633.28,985.567 639.983,976.903 646.686,968.33 
  653.389,959.937 660.092,951.908 666.794,944.745 673.497,941.342 680.2,928.221 686.903,913.99 693.606,901.755 700.309,890.149 707.012,878.827 713.715,867.649 
  720.418,856.543 727.121,845.469 733.824,834.4 740.527,823.319 747.229,812.214 753.932,801.075 760.635,789.897 767.338,778.673 774.041,767.4 780.744,756.075 
  787.447,744.694 794.15,733.255 800.853,721.758 807.556,710.199 814.259,698.578 820.962,686.894 827.664,675.146 834.367,663.332 841.07,651.453 847.773,639.507 
  854.476,627.493 861.179,615.412 867.882,603.263 874.585,591.046 881.288,578.759 887.991,566.403 894.694,553.978 901.397,541.482 908.099,528.917 914.802,516.281 
  921.505,503.575 928.208,490.798 934.911,477.95 941.614,465.031 948.317,452.041 955.02,438.979 961.723,425.845 968.426,412.641 975.129,399.364 981.832,386.015 
  988.534,372.595 995.237,359.102 1001.94,345.537 1008.64,331.9 1015.35,318.191 1022.05,304.409 1028.75,290.555 1035.45,276.628 1042.16,262.628 1048.86,248.556 
  1055.56,234.411 1062.27,220.194 1068.97,205.904 1075.67,191.54 1082.38,177.104 1089.08,162.595 1095.78,148.013 1102.48,133.358 1109.19,118.63 1115.89,103.829 
  1122.59,88.9544 
  "/>
<path clip-path="url(#clip650)" d="
M1286.99 1521.01 L2352.76 1521.01 L2352.76 47.2441 L1286.99 47.2441  Z
  " fill="#ffffff" fill-rule="evenodd" fill-opacity="1"/>
<defs>
  <clipPath id="clip653">
    <rect x="1286" y="47" width="1067" height="1475"/>
  </clipPath>
</defs>
<polyline clip-path="url(#clip653)" style="stroke:#000000; stroke-width:2; stroke-opacity:0.1; fill:none" points="
  1317.16,1521.01 1317.16,47.2441 
  "/>
<polyline clip-path="url(#clip653)" style="stroke:#000000; stroke-width:2; stroke-opacity:0.1; fill:none" points="
  1652.3,1521.01 1652.3,47.2441 
  "/>
<polyline clip-path="url(#clip653)" style="stroke:#000000; stroke-width:2; stroke-opacity:0.1; fill:none" points="
  1987.45,1521.01 1987.45,47.2441 
  "/>
<polyline clip-path="url(#clip653)" style="stroke:#000000; stroke-width:2; stroke-opacity:0.1; fill:none" points="
  2322.59,1521.01 2322.59,47.2441 
  "/>
<polyline clip-path="url(#clip650)" style="stroke:#000000; stroke-width:4; stroke-opacity:1; fill:none" points="
  1286.99,1521.01 2352.76,1521.01 
  "/>
<polyline clip-path="url(#clip650)" style="stroke:#000000; stroke-width:4; stroke-opacity:1; fill:none" points="
  1317.16,1521.01 1317.16,1503.32 
  "/>
<polyline clip-path="url(#clip650)" style="stroke:#000000; stroke-width:4; stroke-opacity:1; fill:none" points="
  1652.3,1521.01 1652.3,1503.32 
  "/>
<polyline clip-path="url(#clip650)" style="stroke:#000000; stroke-width:4; stroke-opacity:1; fill:none" points="
  1987.45,1521.01 1987.45,1503.32 
  "/>
<polyline clip-path="url(#clip650)" style="stroke:#000000; stroke-width:4; stroke-opacity:1; fill:none" points="
  2322.59,1521.01 2322.59,1503.32 
  "/>
<path clip-path="url(#clip650)" d="M 0 0 M1289.85 1577.74 L1297.49 1577.74 L1297.49 1551.38 L1289.18 1553.05 L1289.18 1548.79 L1297.44 1547.12 L1302.12 1547.12 L1302.12 1577.74 L1309.76 1577.74 L1309.76 1581.68 L1289.85 1581.68 L1289.85 1577.74 Z" fill="#000000" fill-rule="evenodd" fill-opacity="1" /><path clip-path="url(#clip650)" d="M 0 0 M1314.83 1575.8 L1319.71 1575.8 L1319.71 1581.68 L1314.83 1581.68 L1314.83 1575.8 Z" fill="#000000" fill-rule="evenodd" fill-opacity="1" /><path clip-path="url(#clip650)" d="M 0 0 M1328.81 1577.74 L1345.13 1577.74 L1345.13 1581.68 L1323.19 1581.68 L1323.19 1577.74 Q1325.85 1574.99 1330.43 1570.36 Q1335.04 1565.71 1336.22 1564.37 Q1338.46 1561.84 1339.34 1560.11 Q1340.25 1558.35 1340.25 1556.66 Q1340.25 1553.9 1338.3 1552.17 Q1336.38 1550.43 1333.28 1550.43 Q1331.08 1550.43 1328.63 1551.19 Q1326.19 1551.96 1323.42 1553.51 L1323.42 1548.79 Q1326.24 1547.65 1328.69 1547.07 Q1331.15 1546.49 1333.19 1546.49 Q1338.56 1546.49 1341.75 1549.18 Q1344.94 1551.87 1344.94 1556.36 Q1344.94 1558.49 1344.13 1560.41 Q1343.35 1562.3 1341.24 1564.9 Q1340.66 1565.57 1337.56 1568.79 Q1334.46 1571.98 1328.81 1577.74 Z" fill="#000000" fill-rule="evenodd" fill-opacity="1" /><path clip-path="url(#clip650)" d="M 0 0 M1624.52 1577.74 L1632.16 1577.74 L1632.16 1551.38 L1623.85 1553.05 L1623.85 1548.79 L1632.12 1547.12 L1636.79 1547.12 L1636.79 1577.74 L1644.43 1577.74 L1644.43 1581.68 L1624.52 1581.68 L1624.52 1577.74 Z" fill="#000000" fill-rule="evenodd" fill-opacity="1" /><path clip-path="url(#clip650)" d="M 0 0 M1649.5 1575.8 L1654.38 1575.8 L1654.38 1581.68 L1649.5 1581.68 L1649.5 1575.8 Z" fill="#000000" fill-rule="evenodd" fill-opacity="1" /><path clip-path="url(#clip650)" d="M 0 0 M1673.62 1563.05 Q1676.98 1563.76 1678.85 1566.03 Q1680.75 1568.3 1680.75 1571.63 Q1680.75 1576.75 1677.23 1579.55 Q1673.71 1582.35 1667.23 1582.35 Q1665.06 1582.35 1662.74 1581.91 Q1660.45 1581.49 1658 1580.64 L1658 1576.12 Q1659.94 1577.26 1662.25 1577.84 Q1664.57 1578.42 1667.09 1578.42 Q1671.49 1578.42 1673.78 1576.68 Q1676.1 1574.94 1676.1 1571.63 Q1676.1 1568.58 1673.94 1566.87 Q1671.81 1565.13 1668 1565.13 L1663.97 1565.13 L1663.97 1561.29 L1668.18 1561.29 Q1671.63 1561.29 1673.46 1559.92 Q1675.29 1558.53 1675.29 1555.94 Q1675.29 1553.28 1673.39 1551.87 Q1671.51 1550.43 1668 1550.43 Q1666.07 1550.43 1663.88 1550.85 Q1661.68 1551.26 1659.04 1552.14 L1659.04 1547.98 Q1661.7 1547.24 1664.01 1546.87 Q1666.35 1546.49 1668.41 1546.49 Q1673.74 1546.49 1676.84 1548.93 Q1679.94 1551.33 1679.94 1555.45 Q1679.94 1558.32 1678.3 1560.31 Q1676.65 1562.28 1673.62 1563.05 Z" fill="#000000" fill-rule="evenodd" fill-opacity="1" /><path clip-path="url(#clip650)" d="M 0 0 M1959.1 1577.74 L1966.74 1577.74 L1966.74 1551.38 L1958.43 1553.05 L1958.43 1548.79 L1966.69 1547.12 L1971.37 1547.12 L1971.37 1577.74 L1979.01 1577.74 L1979.01 1581.68 L1959.1 1581.68 L1959.1 1577.74 Z" fill="#000000" fill-rule="evenodd" fill-opacity="1" /><path clip-path="url(#clip650)" d="M 0 0 M1984.08 1575.8 L1988.96 1575.8 L1988.96 1581.68 L1984.08 1581.68 L1984.08 1575.8 Z" fill="#000000" fill-rule="evenodd" fill-opacity="1" /><path clip-path="url(#clip650)" d="M 0 0 M2006.88 1551.19 L1995.07 1569.64 L2006.88 1569.64 L2006.88 1551.19 M2005.65 1547.12 L2011.53 1547.12 L2011.53 1569.64 L2016.46 1569.64 L2016.46 1573.53 L2011.53 1573.53 L2011.53 1581.68 L2006.88 1581.68 L2006.88 1573.53 L1991.28 1573.53 L1991.28 1569.02 L2005.65 1547.12 Z" fill="#000000" fill-rule="evenodd" fill-opacity="1" /><path clip-path="url(#clip650)" d="M 0 0 M2294.99 1577.74 L2302.63 1577.74 L2302.63 1551.38 L2294.32 1553.05 L2294.32 1548.79 L2302.58 1547.12 L2307.26 1547.12 L2307.26 1577.74 L2314.9 1577.74 L2314.9 1581.68 L2294.99 1581.68 L2294.99 1577.74 Z" fill="#000000" fill-rule="evenodd" fill-opacity="1" /><path clip-path="url(#clip650)" d="M 0 0 M2319.97 1575.8 L2324.85 1575.8 L2324.85 1581.68 L2319.97 1581.68 L2319.97 1575.8 Z" fill="#000000" fill-rule="evenodd" fill-opacity="1" /><path clip-path="url(#clip650)" d="M 0 0 M2329.97 1547.12 L2348.32 1547.12 L2348.32 1551.06 L2334.25 1551.06 L2334.25 1559.53 Q2335.27 1559.18 2336.28 1559.02 Q2337.3 1558.83 2338.32 1558.83 Q2344.11 1558.83 2347.49 1562 Q2350.87 1565.18 2350.87 1570.59 Q2350.87 1576.17 2347.4 1579.27 Q2343.92 1582.35 2337.6 1582.35 Q2335.43 1582.35 2333.16 1581.98 Q2330.91 1581.61 2328.51 1580.87 L2328.51 1576.17 Q2330.59 1577.3 2332.81 1577.86 Q2335.03 1578.42 2337.51 1578.42 Q2341.52 1578.42 2343.85 1576.31 Q2346.19 1574.2 2346.19 1570.59 Q2346.19 1566.98 2343.85 1564.87 Q2341.52 1562.77 2337.51 1562.77 Q2335.64 1562.77 2333.76 1563.18 Q2331.91 1563.6 2329.97 1564.48 L2329.97 1547.12 Z" fill="#000000" fill-rule="evenodd" fill-opacity="1" /><polyline clip-path="url(#clip653)" style="stroke:#000000; stroke-width:2; stroke-opacity:0.1; fill:none" points="
  1286.99,1186.01 2352.76,1186.01 
  "/>
<polyline clip-path="url(#clip653)" style="stroke:#000000; stroke-width:2; stroke-opacity:0.1; fill:none" points="
  1286.99,843.895 2352.76,843.895 
  "/>
<polyline clip-path="url(#clip653)" style="stroke:#000000; stroke-width:2; stroke-opacity:0.1; fill:none" points="
  1286.99,501.779 2352.76,501.779 
  "/>
<polyline clip-path="url(#clip653)" style="stroke:#000000; stroke-width:2; stroke-opacity:0.1; fill:none" points="
  1286.99,159.662 2352.76,159.662 
  "/>
<polyline clip-path="url(#clip650)" style="stroke:#000000; stroke-width:4; stroke-opacity:1; fill:none" points="
  1286.99,1521.01 1286.99,47.2441 
  "/>
<polyline clip-path="url(#clip650)" style="stroke:#000000; stroke-width:4; stroke-opacity:1; fill:none" points="
  1286.99,1186.01 1299.78,1186.01 
  "/>
<polyline clip-path="url(#clip650)" style="stroke:#000000; stroke-width:4; stroke-opacity:1; fill:none" points="
  1286.99,843.895 1299.78,843.895 
  "/>
<polyline clip-path="url(#clip650)" style="stroke:#000000; stroke-width:4; stroke-opacity:1; fill:none" points="
  1286.99,501.779 1299.78,501.779 
  "/>
<polyline clip-path="url(#clip650)" style="stroke:#000000; stroke-width:4; stroke-opacity:1; fill:none" points="
  1286.99,159.662 1299.78,159.662 
  "/>
<path clip-path="url(#clip650)" d="M 0 0 M1197.54 1199.36 L1213.86 1199.36 L1213.86 1203.29 L1191.92 1203.29 L1191.92 1199.36 Q1194.58 1196.6 1199.16 1191.97 Q1203.77 1187.32 1204.95 1185.98 Q1207.2 1183.45 1208.08 1181.72 Q1208.98 1179.96 1208.98 1178.27 Q1208.98 1175.51 1207.03 1173.78 Q1205.11 1172.04 1202.01 1172.04 Q1199.81 1172.04 1197.36 1172.81 Q1194.93 1173.57 1192.15 1175.12 L1192.15 1170.4 Q1194.97 1169.26 1197.43 1168.69 Q1199.88 1168.11 1201.92 1168.11 Q1207.29 1168.11 1210.48 1170.79 Q1213.68 1173.48 1213.68 1177.97 Q1213.68 1180.1 1212.87 1182.02 Q1212.08 1183.92 1209.97 1186.51 Q1209.4 1187.18 1206.29 1190.4 Q1203.19 1193.59 1197.54 1199.36 Z" fill="#000000" fill-rule="evenodd" fill-opacity="1" /><path clip-path="url(#clip650)" d="M 0 0 M1218.93 1197.41 L1223.82 1197.41 L1223.82 1203.29 L1218.93 1203.29 L1218.93 1197.41 Z" fill="#000000" fill-rule="evenodd" fill-opacity="1" /><path clip-path="url(#clip650)" d="M 0 0 M1239.46 1184.15 Q1236.32 1184.15 1234.46 1186.3 Q1232.64 1188.45 1232.64 1192.2 Q1232.64 1195.93 1234.46 1198.11 Q1236.32 1200.26 1239.46 1200.26 Q1242.61 1200.26 1244.44 1198.11 Q1246.29 1195.93 1246.29 1192.2 Q1246.29 1188.45 1244.44 1186.3 Q1242.61 1184.15 1239.46 1184.15 M1248.75 1169.5 L1248.75 1173.76 Q1246.99 1172.92 1245.18 1172.48 Q1243.4 1172.04 1241.64 1172.04 Q1237.01 1172.04 1234.56 1175.17 Q1232.13 1178.29 1231.78 1184.61 Q1233.14 1182.6 1235.21 1181.53 Q1237.27 1180.44 1239.74 1180.44 Q1244.95 1180.44 1247.96 1183.62 Q1250.99 1186.76 1250.99 1192.2 Q1250.99 1197.53 1247.84 1200.75 Q1244.7 1203.96 1239.46 1203.96 Q1233.47 1203.96 1230.3 1199.38 Q1227.13 1194.77 1227.13 1186.05 Q1227.13 1177.85 1231.02 1172.99 Q1234.9 1168.11 1241.46 1168.11 Q1243.21 1168.11 1245 1168.45 Q1246.8 1168.8 1248.75 1169.5 Z" fill="#000000" fill-rule="evenodd" fill-opacity="1" /><path clip-path="url(#clip650)" d="M 0 0 M1197.8 857.24 L1214.12 857.24 L1214.12 861.175 L1192.17 861.175 L1192.17 857.24 Q1194.84 854.486 1199.42 849.856 Q1204.02 845.203 1205.21 843.861 Q1207.45 841.338 1208.33 839.602 Q1209.23 837.842 1209.23 836.152 Q1209.23 833.398 1207.29 831.662 Q1205.37 829.926 1202.27 829.926 Q1200.07 829.926 1197.61 830.69 Q1195.18 831.453 1192.4 833.004 L1192.4 828.282 Q1195.23 827.148 1197.68 826.569 Q1200.14 825.99 1202.17 825.99 Q1207.54 825.99 1210.74 828.676 Q1213.93 831.361 1213.93 835.852 Q1213.93 837.981 1213.12 839.902 Q1212.33 841.801 1210.23 844.393 Q1209.65 845.064 1206.55 848.282 Q1203.45 851.476 1197.8 857.24 Z" fill="#000000" fill-rule="evenodd" fill-opacity="1" /><path clip-path="url(#clip650)" d="M 0 0 M1219.19 855.296 L1224.07 855.296 L1224.07 861.175 L1219.19 861.175 L1219.19 855.296 Z" fill="#000000" fill-rule="evenodd" fill-opacity="1" /><path clip-path="url(#clip650)" d="M 0 0 M1239.14 844.764 Q1235.81 844.764 1233.89 846.546 Q1231.99 848.328 1231.99 851.453 Q1231.99 854.578 1233.89 856.361 Q1235.81 858.143 1239.14 858.143 Q1242.47 858.143 1244.39 856.361 Q1246.32 854.555 1246.32 851.453 Q1246.32 848.328 1244.39 846.546 Q1242.5 844.764 1239.14 844.764 M1234.46 842.773 Q1231.46 842.032 1229.77 839.972 Q1228.1 837.912 1228.1 834.949 Q1228.1 830.805 1231.04 828.398 Q1234 825.99 1239.14 825.99 Q1244.3 825.99 1247.24 828.398 Q1250.18 830.805 1250.18 834.949 Q1250.18 837.912 1248.49 839.972 Q1246.83 842.032 1243.84 842.773 Q1247.22 843.56 1249.09 845.851 Q1250.99 848.143 1250.99 851.453 Q1250.99 856.476 1247.91 859.162 Q1244.86 861.847 1239.14 861.847 Q1233.42 861.847 1230.34 859.162 Q1227.29 856.476 1227.29 851.453 Q1227.29 848.143 1229.19 845.851 Q1231.08 843.56 1234.46 842.773 M1232.75 835.389 Q1232.75 838.074 1234.42 839.578 Q1236.11 841.083 1239.14 841.083 Q1242.15 841.083 1243.84 839.578 Q1245.55 838.074 1245.55 835.389 Q1245.55 832.703 1243.84 831.199 Q1242.15 829.694 1239.14 829.694 Q1236.11 829.694 1234.42 831.199 Q1232.75 832.703 1232.75 835.389 Z" fill="#000000" fill-rule="evenodd" fill-opacity="1" /><path clip-path="url(#clip650)" d="M 0 0 M1206.9 500.425 Q1210.25 501.142 1212.13 503.411 Q1214.02 505.679 1214.02 509.013 Q1214.02 514.128 1210.51 516.929 Q1206.99 519.73 1200.51 519.73 Q1198.33 519.73 1196.02 519.29 Q1193.72 518.874 1191.27 518.017 L1191.27 513.503 Q1193.21 514.638 1195.53 515.216 Q1197.84 515.795 1200.37 515.795 Q1204.77 515.795 1207.06 514.059 Q1209.37 512.323 1209.37 509.013 Q1209.37 505.957 1207.22 504.244 Q1205.09 502.508 1201.27 502.508 L1197.24 502.508 L1197.24 498.666 L1201.46 498.666 Q1204.9 498.666 1206.73 497.3 Q1208.56 495.911 1208.56 493.318 Q1208.56 490.656 1206.66 489.244 Q1204.79 487.809 1201.27 487.809 Q1199.35 487.809 1197.15 488.226 Q1194.95 488.642 1192.31 489.522 L1192.31 485.355 Q1194.97 484.615 1197.29 484.244 Q1199.63 483.874 1201.69 483.874 Q1207.01 483.874 1210.11 486.305 Q1213.21 488.712 1213.21 492.832 Q1213.21 495.703 1211.57 497.693 Q1209.93 499.661 1206.9 500.425 Z" fill="#000000" fill-rule="evenodd" fill-opacity="1" /><path clip-path="url(#clip650)" d="M 0 0 M1219.09 513.179 L1223.98 513.179 L1223.98 519.059 L1219.09 519.059 L1219.09 513.179 Z" fill="#000000" fill-rule="evenodd" fill-opacity="1" /><path clip-path="url(#clip650)" d="M 0 0 M1239.05 487.578 Q1235.44 487.578 1233.61 491.142 Q1231.8 494.684 1231.8 501.814 Q1231.8 508.92 1233.61 512.485 Q1235.44 516.027 1239.05 516.027 Q1242.68 516.027 1244.49 512.485 Q1246.32 508.92 1246.32 501.814 Q1246.32 494.684 1244.49 491.142 Q1242.68 487.578 1239.05 487.578 M1239.05 483.874 Q1244.86 483.874 1247.91 488.48 Q1250.99 493.064 1250.99 501.814 Q1250.99 510.54 1247.91 515.147 Q1244.86 519.73 1239.05 519.73 Q1233.24 519.73 1230.16 515.147 Q1227.1 510.54 1227.1 501.814 Q1227.1 493.064 1230.16 488.48 Q1233.24 483.874 1239.05 483.874 Z" fill="#000000" fill-rule="evenodd" fill-opacity="1" /><path clip-path="url(#clip650)" d="M 0 0 M1208.49 158.308 Q1211.85 159.026 1213.72 161.294 Q1215.62 163.563 1215.62 166.896 Q1215.62 172.012 1212.1 174.813 Q1208.58 177.614 1202.1 177.614 Q1199.93 177.614 1197.61 177.174 Q1195.32 176.757 1192.87 175.901 L1192.87 171.387 Q1194.81 172.521 1197.13 173.1 Q1199.44 173.679 1201.96 173.679 Q1206.36 173.679 1208.65 171.942 Q1210.97 170.206 1210.97 166.896 Q1210.97 163.841 1208.82 162.128 Q1206.69 160.392 1202.87 160.392 L1198.84 160.392 L1198.84 156.549 L1203.05 156.549 Q1206.5 156.549 1208.33 155.183 Q1210.16 153.794 1210.16 151.202 Q1210.16 148.54 1208.26 147.128 Q1206.39 145.693 1202.87 145.693 Q1200.95 145.693 1198.75 146.109 Q1196.55 146.526 1193.91 147.406 L1193.91 143.239 Q1196.57 142.498 1198.89 142.128 Q1201.22 141.757 1203.28 141.757 Q1208.61 141.757 1211.71 144.188 Q1214.81 146.595 1214.81 150.716 Q1214.81 153.586 1213.17 155.577 Q1211.52 157.544 1208.49 158.308 Z" fill="#000000" fill-rule="evenodd" fill-opacity="1" /><path clip-path="url(#clip650)" d="M 0 0 M1220.69 171.063 L1225.58 171.063 L1225.58 176.942 L1220.69 176.942 L1220.69 171.063 Z" fill="#000000" fill-rule="evenodd" fill-opacity="1" /><path clip-path="url(#clip650)" d="M 0 0 M1234.67 173.007 L1250.99 173.007 L1250.99 176.942 L1229.05 176.942 L1229.05 173.007 Q1231.71 170.253 1236.29 165.623 Q1240.9 160.97 1242.08 159.628 Q1244.33 157.105 1245.21 155.368 Q1246.11 153.609 1246.11 151.919 Q1246.11 149.165 1244.16 147.429 Q1242.24 145.693 1239.14 145.693 Q1236.94 145.693 1234.49 146.457 Q1232.06 147.22 1229.28 148.771 L1229.28 144.049 Q1232.1 142.915 1234.56 142.336 Q1237.01 141.757 1239.05 141.757 Q1244.42 141.757 1247.61 144.443 Q1250.81 147.128 1250.81 151.619 Q1250.81 153.748 1250 155.669 Q1249.21 157.568 1247.1 160.16 Q1246.52 160.831 1243.42 164.049 Q1240.32 167.243 1234.67 173.007 Z" fill="#000000" fill-rule="evenodd" fill-opacity="1" /><polyline clip-path="url(#clip653)" style="stroke:#009af9; stroke-width:4; stroke-opacity:1; fill:none" points="
  1317.16,1479.3 1317.49,1478.9 1317.83,1478.51 1318.16,1478.11 1318.5,1477.72 1318.83,1477.32 1319.17,1476.93 1319.5,1476.54 1319.84,1476.14 1320.17,1475.75 
  1320.51,1475.35 1320.84,1474.96 1321.18,1474.56 1321.51,1474.17 1321.85,1473.77 1322.18,1473.38 1322.52,1472.98 1322.85,1472.59 1323.19,1472.19 1323.52,1471.8 
  1323.86,1471.4 1324.19,1471.01 1324.53,1470.61 1324.86,1470.22 1325.2,1469.82 1325.53,1469.43 1325.87,1469.03 1326.2,1468.64 1326.54,1468.24 1326.87,1467.85 
  1327.21,1467.45 1327.54,1467.06 1327.88,1466.66 1328.22,1466.27 1328.55,1465.87 1328.89,1465.48 1329.22,1465.08 1329.56,1464.69 1329.89,1464.29 1330.23,1463.9 
  1330.56,1463.5 1330.9,1463.1 1331.23,1462.71 1331.57,1462.31 1331.9,1461.92 1332.24,1461.52 1332.57,1461.13 1332.91,1460.73 1333.24,1460.34 1333.58,1459.94 
  1333.91,1459.55 1334.25,1459.15 1334.58,1458.75 1334.92,1458.36 1335.25,1457.96 1335.59,1457.57 1335.92,1457.17 1336.26,1456.78 1336.59,1456.38 1336.93,1455.98 
  1337.26,1455.59 1337.6,1455.19 1337.93,1454.8 1338.27,1454.4 1338.6,1454 1338.94,1453.61 1339.27,1453.21 1339.61,1452.82 1339.95,1452.42 1340.28,1452.03 
  1340.62,1451.63 1340.95,1451.23 1341.29,1450.84 1341.62,1450.44 1341.96,1450.04 1342.29,1449.65 1342.63,1449.25 1342.96,1448.86 1343.3,1448.46 1343.63,1448.06 
  1343.97,1447.67 1344.3,1447.27 1344.64,1446.88 1344.97,1446.48 1345.31,1446.08 1345.64,1445.69 1345.98,1445.29 1346.31,1444.89 1346.65,1444.5 1346.98,1444.1 
  1347.32,1443.7 1347.65,1443.31 1347.99,1442.91 1348.32,1442.52 1348.66,1442.12 1348.99,1441.72 1349.33,1441.33 1349.66,1440.93 1350,1440.53 1350.33,1440.14 
  1350.67,1439.74 1351,1439.34 1351.34,1438.95 1351.68,1438.55 1352.01,1438.15 1352.35,1437.76 1352.68,1437.36 1353.02,1436.96 1353.35,1436.57 1353.69,1436.17 
  1354.02,1435.77 1354.36,1435.38 1354.69,1434.98 1355.03,1434.58 1355.36,1434.18 1355.7,1433.79 1356.03,1433.39 1356.37,1432.99 1356.7,1432.6 1357.04,1432.2 
  1357.37,1431.8 1357.71,1431.41 1358.04,1431.01 1358.38,1430.61 1358.71,1430.21 1359.05,1429.82 1359.38,1429.42 1359.72,1429.02 1360.05,1428.63 1360.39,1428.23 
  1360.72,1427.83 1361.06,1427.43 1361.39,1427.04 1361.73,1426.64 1362.06,1426.24 1362.4,1425.85 1362.74,1425.45 1363.07,1425.05 1363.41,1424.65 1363.74,1424.26 
  1364.08,1423.86 1364.41,1423.46 1364.75,1423.06 1365.08,1422.67 1365.42,1422.27 1365.75,1421.87 1366.09,1421.47 1366.42,1421.08 1366.76,1420.68 1367.09,1420.28 
  1367.43,1419.88 1367.76,1419.49 1368.1,1419.09 1368.43,1418.69 1368.77,1418.29 1369.1,1417.9 1369.44,1417.5 1369.77,1417.1 1370.11,1416.7 1370.44,1416.3 
  1370.78,1415.91 1371.11,1415.51 1371.45,1415.11 1371.78,1414.71 1372.12,1414.32 1372.45,1413.92 1372.79,1413.52 1373.12,1413.12 1373.46,1412.72 1373.79,1412.33 
  1374.13,1411.93 1374.47,1411.53 1374.8,1411.13 1375.14,1410.73 1375.47,1410.34 1375.81,1409.94 1376.14,1409.54 1376.48,1409.14 1376.81,1408.74 1377.15,1408.35 
  1377.48,1407.95 1377.82,1407.55 1378.15,1407.15 1378.49,1406.75 1378.82,1406.35 1379.16,1405.96 1379.49,1405.56 1379.83,1405.16 1380.16,1404.76 1380.5,1404.36 
  1380.83,1403.96 1381.17,1403.57 1381.5,1403.17 1381.84,1402.77 1382.17,1402.37 1382.51,1401.97 1382.84,1401.57 1383.18,1401.18 1383.51,1400.78 1383.85,1400.38 
  1384.18,1399.98 1384.52,1399.58 1384.85,1399.18 1385.19,1398.78 1385.53,1398.39 1385.86,1397.99 1386.2,1397.59 1386.53,1397.19 1386.87,1396.79 1387.2,1396.39 
  1387.54,1395.99 1387.87,1395.6 1388.21,1395.2 1388.54,1394.8 1388.88,1394.4 1389.21,1394 1389.55,1393.6 1389.88,1393.2 1390.22,1392.8 1390.55,1392.41 
  1390.89,1392.01 1391.22,1391.61 1391.56,1391.21 1391.89,1390.81 1392.23,1390.41 1392.56,1390.01 1392.9,1389.61 1393.23,1389.21 1393.57,1388.82 1393.9,1388.42 
  1394.24,1388.02 1394.57,1387.62 1394.91,1387.22 1395.24,1386.82 1395.58,1386.42 1395.91,1386.02 1396.25,1385.62 1396.58,1385.22 1396.92,1384.82 1397.26,1384.43 
  1397.59,1384.03 1397.93,1383.63 1398.26,1383.23 1398.6,1382.83 1398.93,1382.43 1399.27,1382.03 1399.6,1381.63 1399.94,1381.23 1400.27,1380.83 1400.61,1380.43 
  1400.94,1380.03 1401.28,1379.63 1401.61,1379.23 1401.95,1378.84 1402.28,1378.44 1402.62,1378.04 1402.95,1377.64 1403.29,1377.24 1403.62,1376.84 1403.96,1376.44 
  1404.29,1376.04 1404.63,1375.64 1404.96,1375.24 1405.3,1374.84 1405.63,1374.44 1405.97,1374.04 1406.3,1373.64 1406.64,1373.24 1406.97,1372.84 1407.31,1372.44 
  1407.64,1372.04 1407.98,1371.64 1408.31,1371.24 1408.65,1370.84 1408.99,1370.44 1409.32,1370.04 1409.66,1369.64 1409.99,1369.25 1410.33,1368.85 1410.66,1368.45 
  1411,1368.05 1411.33,1367.65 1411.67,1367.25 1412,1366.85 1412.34,1366.45 1412.67,1366.05 1413.01,1365.65 1413.34,1365.25 1413.68,1364.85 1414.01,1364.45 
  1414.35,1364.05 1414.68,1363.65 1415.02,1363.25 1415.35,1362.85 1415.69,1362.45 1416.02,1362.05 1416.36,1361.65 1416.69,1361.25 1417.03,1360.85 1417.36,1360.45 
  1417.7,1360.05 1418.03,1359.65 1418.37,1359.25 1418.7,1358.85 1419.04,1358.45 1419.37,1358.05 1419.71,1357.65 1420.05,1357.25 1420.38,1356.84 1420.72,1356.44 
  1421.05,1356.04 1421.39,1355.64 1421.72,1355.24 1422.06,1354.84 1422.39,1354.44 1422.73,1354.04 1423.06,1353.64 1423.4,1353.24 1423.73,1352.84 1424.07,1352.44 
  1424.4,1352.04 1424.74,1351.64 1425.07,1351.24 1425.41,1350.84 1425.74,1350.44 1426.08,1350.04 1426.41,1349.64 1426.75,1349.24 1427.08,1348.84 1427.42,1348.44 
  1427.75,1348.04 1428.09,1347.64 1428.42,1347.24 1428.76,1346.84 1429.09,1346.43 1429.43,1346.03 1429.76,1345.63 1430.1,1345.23 1430.43,1344.83 1430.77,1344.43 
  1431.1,1344.03 1431.44,1343.63 1431.78,1343.23 1432.11,1342.83 1432.45,1342.43 1432.78,1342.03 1433.12,1341.63 1433.45,1341.23 1433.79,1340.83 1434.12,1340.42 
  1434.46,1340.02 1434.79,1339.62 1435.13,1339.22 1435.46,1338.82 1435.8,1338.42 1436.13,1338.02 1436.47,1337.62 1436.8,1337.22 1437.14,1336.82 1437.47,1336.42 
  1437.81,1336.02 1438.14,1335.61 1438.48,1335.21 1438.81,1334.81 1439.15,1334.41 1439.48,1334.01 1439.82,1333.61 1440.15,1333.21 1440.49,1332.81 1440.82,1332.41 
  1441.16,1332.01 1441.49,1331.61 1441.83,1331.2 1442.16,1330.8 1442.5,1330.4 1442.83,1330 1443.17,1329.6 1443.51,1329.2 1443.84,1328.8 1444.18,1328.4 
  1444.51,1328 1444.85,1327.59 1445.18,1327.19 1445.52,1326.79 1445.85,1326.39 1446.19,1325.99 1446.52,1325.59 1446.86,1325.19 1447.19,1324.79 1447.53,1324.39 
  1447.86,1323.98 1448.2,1323.58 1448.53,1323.18 1448.87,1322.78 1449.2,1322.38 1449.54,1321.98 1449.87,1321.58 1450.21,1321.18 1450.54,1320.77 1450.88,1320.37 
  1451.21,1319.97 1451.55,1319.57 1451.88,1319.17 1452.22,1318.77 1452.55,1318.37 1452.89,1317.96 1453.22,1317.56 1453.56,1317.16 1453.89,1316.76 1454.23,1316.36 
  1454.57,1315.96 1454.9,1315.56 1455.24,1315.15 1455.57,1314.75 1455.91,1314.35 1456.24,1313.95 1456.58,1313.55 1456.91,1313.15 1457.25,1312.75 1457.58,1312.34 
  1457.92,1311.94 1458.25,1311.54 1458.59,1311.14 1458.92,1310.74 1459.26,1310.34 1459.59,1309.94 1459.93,1309.53 1460.26,1309.13 1460.6,1308.73 1460.93,1308.33 
  1461.27,1307.93 1461.6,1307.53 1461.94,1307.12 1462.27,1306.72 1462.61,1306.32 1462.94,1305.92 1463.28,1305.52 1463.61,1305.12 1463.95,1304.71 1464.28,1304.31 
  1464.62,1303.91 1464.95,1303.51 1465.29,1303.11 1465.62,1302.71 1465.96,1302.3 1466.3,1301.9 1466.63,1301.5 1466.97,1301.1 1467.3,1300.7 1467.64,1300.3 
  1467.97,1299.89 1468.31,1299.49 1468.64,1299.09 1468.98,1298.69 1469.31,1298.29 1469.65,1297.89 1469.98,1297.48 1470.32,1297.08 1470.65,1296.68 1470.99,1296.28 
  1471.32,1295.88 1471.66,1295.48 1471.99,1295.07 1472.33,1294.67 1472.66,1294.27 1473,1293.87 1473.33,1293.47 1473.67,1293.06 1474,1292.66 1474.34,1292.26 
  1474.67,1291.86 1475.01,1291.46 1475.34,1291.05 1475.68,1290.65 1476.01,1290.25 1476.35,1289.85 1476.68,1289.45 1477.02,1289.05 1477.35,1288.64 1477.69,1288.24 
  1478.03,1287.84 1478.36,1287.44 1478.7,1287.04 1479.03,1286.63 1479.37,1286.23 1479.7,1285.83 1480.04,1285.43 1480.37,1285.03 1480.71,1284.62 1481.04,1284.22 
  1481.38,1283.82 1481.71,1283.42 1482.05,1283.02 1482.38,1282.61 1482.72,1282.21 1483.05,1281.81 1483.39,1281.41 1483.72,1281.01 1484.06,1280.6 1484.39,1280.2 
  1484.73,1279.8 1485.06,1279.4 1485.4,1279 1485.73,1278.59 1486.07,1278.19 1486.4,1277.79 1486.74,1277.39 1487.07,1276.99 1487.41,1276.58 1487.74,1276.18 
  1488.08,1275.78 1488.41,1275.38 1488.75,1274.98 1489.09,1274.57 1489.42,1274.17 1489.76,1273.77 1490.09,1273.37 1490.43,1272.97 1490.76,1272.56 1491.1,1272.16 
  1491.43,1271.76 1491.77,1271.36 1492.1,1270.96 1492.44,1270.55 1492.77,1270.15 1493.11,1269.75 1493.44,1269.35 1493.78,1268.95 1494.11,1268.54 1494.45,1268.14 
  1494.78,1267.74 1495.12,1267.34 1495.45,1266.94 1495.79,1266.53 1496.12,1266.13 1496.46,1265.73 1496.79,1265.33 1497.13,1264.93 1497.46,1264.52 1497.8,1264.12 
  1498.13,1263.72 1498.47,1263.32 1498.8,1262.92 1499.14,1262.51 1499.47,1262.11 1499.81,1261.71 1500.14,1261.31 1500.48,1260.91 1500.82,1260.5 1501.15,1260.1 
  1501.49,1259.7 1501.82,1259.3 1502.16,1258.89 1502.49,1258.49 1502.83,1258.09 1503.16,1257.69 1503.5,1257.29 1503.83,1256.88 1504.17,1256.48 1504.5,1256.08 
  1504.84,1255.68 1505.17,1255.28 1505.51,1254.87 1505.84,1254.47 1506.18,1254.07 1506.51,1253.67 1506.85,1253.27 1507.18,1252.86 1507.52,1252.46 1507.85,1252.06 
  1508.19,1251.66 1508.52,1251.26 1508.86,1250.85 1509.19,1250.45 1509.53,1250.05 1509.86,1249.65 1510.2,1249.25 1510.53,1248.84 1510.87,1248.44 1511.2,1248.04 
  1511.54,1247.64 1511.87,1247.24 1512.21,1246.83 1512.55,1246.43 1512.88,1246.03 1513.22,1245.63 1513.55,1245.23 1513.89,1244.82 1514.22,1244.42 1514.56,1244.02 
  1514.89,1243.62 1515.23,1243.22 1515.56,1242.81 1515.9,1242.41 1516.23,1242.01 1516.57,1241.61 1516.9,1241.21 1517.24,1240.8 1517.57,1240.4 1517.91,1240 
  1518.24,1239.6 1518.58,1239.2 1518.91,1238.79 1519.25,1238.39 1519.58,1237.99 1519.92,1237.59 1520.25,1237.19 1520.59,1236.79 1520.92,1236.38 1521.26,1235.98 
  1521.59,1235.58 1521.93,1235.18 1522.26,1234.78 1522.6,1234.37 1522.93,1233.97 1523.27,1233.57 1523.61,1233.17 1523.94,1232.77 1524.28,1232.37 1524.61,1231.96 
  1524.95,1231.56 1525.28,1231.16 1525.62,1230.76 1525.95,1230.36 1526.29,1229.95 1526.62,1229.55 1526.96,1229.15 1527.29,1228.75 1527.63,1228.35 1527.96,1227.95 
  1528.3,1227.54 1528.63,1227.14 1528.97,1226.74 1529.3,1226.34 1529.64,1225.94 1529.97,1225.54 1530.31,1225.13 1530.64,1224.73 1530.98,1224.33 1531.31,1223.93 
  1531.65,1223.53 1531.98,1223.13 1532.32,1222.72 1532.65,1222.32 1532.99,1221.92 1533.32,1221.52 1533.66,1221.12 1533.99,1220.72 1534.33,1220.32 1534.66,1219.91 
  1535,1219.51 1535.34,1219.11 1535.67,1218.71 1536.01,1218.31 1536.34,1217.91 1536.68,1217.51 1537.01,1217.1 1537.35,1216.7 1537.68,1216.3 1538.02,1215.9 
  1538.35,1215.5 1538.69,1215.1 1539.02,1214.7 1539.36,1214.29 1539.69,1213.89 1540.03,1213.49 1540.36,1213.09 1540.7,1212.69 1541.03,1212.29 1541.37,1211.89 
  1541.7,1211.49 1542.04,1211.08 1542.37,1210.68 1542.71,1210.28 1543.04,1209.88 1543.38,1209.48 1543.71,1209.08 1544.05,1208.68 1544.38,1208.28 1544.72,1207.87 
  1545.05,1207.47 1545.39,1207.07 1545.72,1206.67 1546.06,1206.27 1546.4,1205.87 1546.73,1205.47 1547.07,1205.07 1547.4,1204.67 1547.74,1204.27 1548.07,1203.86 
  1548.41,1203.46 1548.74,1203.06 1549.08,1202.66 1549.41,1202.26 1549.75,1201.86 1550.08,1201.46 1550.42,1201.06 1550.75,1200.66 1551.09,1200.26 1551.42,1199.86 
  1551.76,1199.46 1552.09,1199.05 1552.43,1198.65 1552.76,1198.25 1553.1,1197.85 1553.43,1197.45 1553.77,1197.05 1554.1,1196.65 1554.44,1196.25 1554.77,1195.85 
  1555.11,1195.45 1555.44,1195.05 1555.78,1194.65 1556.11,1194.25 1556.45,1193.85 1556.78,1193.45 1557.12,1193.05 1557.45,1192.65 1557.79,1192.25 1558.13,1191.85 
  1558.46,1191.45 1558.8,1191.04 1559.13,1190.64 1559.47,1190.24 1559.8,1189.84 1560.14,1189.44 1560.47,1189.04 1560.81,1188.64 1561.14,1188.24 1561.48,1187.84 
  1561.81,1187.44 1562.15,1187.04 1562.48,1186.64 1562.82,1186.24 1563.15,1185.84 1563.49,1185.44 1563.82,1185.04 1564.16,1184.64 1564.49,1184.24 1564.83,1183.84 
  1565.16,1183.44 1565.5,1183.04 1565.83,1182.64 1566.17,1182.24 1566.5,1181.84 1566.84,1181.45 1567.17,1181.05 1567.51,1180.65 1567.84,1180.25 1568.18,1179.85 
  1568.51,1179.45 1568.85,1179.05 1569.18,1178.65 1569.52,1178.25 1569.86,1177.85 1570.19,1177.45 1570.53,1177.05 1570.86,1176.65 1571.2,1176.25 1571.53,1175.85 
  1571.87,1175.45 1572.2,1175.05 1572.54,1174.65 1572.87,1174.26 1573.21,1173.86 1573.54,1173.46 1573.88,1173.06 1574.21,1172.66 1574.55,1172.26 1574.88,1171.86 
  1575.22,1171.46 1575.55,1171.06 1575.89,1170.66 1576.22,1170.27 1576.56,1169.87 1576.89,1169.47 1577.23,1169.07 1577.56,1168.67 1577.9,1168.27 1578.23,1167.87 
  1578.57,1167.47 1578.9,1167.08 1579.24,1166.68 1579.57,1166.28 1579.91,1165.88 1580.24,1165.48 1580.58,1165.08 1580.92,1164.69 1581.25,1164.29 1581.59,1163.89 
  1581.92,1163.49 1582.26,1163.09 1582.59,1162.69 1582.93,1162.3 1583.26,1161.9 1583.6,1161.5 1583.93,1161.1 1584.27,1160.7 1584.6,1160.31 1584.94,1159.91 
  1585.27,1159.51 1585.61,1159.11 1585.94,1158.71 1586.28,1158.32 1586.61,1157.92 1586.95,1157.52 1587.28,1157.12 1587.62,1156.73 1587.95,1156.33 1588.29,1155.93 
  1588.62,1155.53 1588.96,1155.14 1589.29,1154.74 1589.63,1154.34 1589.96,1153.95 1590.3,1153.55 1590.63,1153.15 1590.97,1152.75 1591.3,1152.36 1591.64,1151.96 
  1591.97,1151.56 1592.31,1151.17 1592.65,1150.77 1592.98,1150.37 1593.32,1149.98 1593.65,1149.58 1593.99,1149.18 1594.32,1148.79 1594.66,1148.39 1594.99,1147.99 
  1595.33,1147.6 1595.66,1147.2 1596,1146.8 1596.33,1146.41 1596.67,1146.01 1597,1145.61 1597.34,1145.22 1597.67,1144.82 1598.01,1144.43 1598.34,1144.03 
  1598.68,1143.63 1599.01,1143.24 1599.35,1142.84 1599.68,1142.45 1600.02,1142.05 1600.35,1141.65 1600.69,1141.26 1601.02,1140.86 1601.36,1140.47 1601.69,1140.07 
  1602.03,1139.68 1602.36,1139.28 1602.7,1138.89 1603.03,1138.49 1603.37,1138.1 1603.7,1137.7 1604.04,1137.31 1604.38,1136.91 1604.71,1136.52 1605.05,1136.12 
  1605.38,1135.73 1605.72,1135.33 1606.05,1134.94 1606.39,1134.54 1606.72,1134.15 1607.06,1133.75 1607.39,1133.36 1607.73,1132.96 1608.06,1132.57 1608.4,1132.18 
  1608.73,1131.78 1609.07,1131.39 1609.4,1130.99 1609.74,1130.6 1610.07,1130.21 1610.41,1129.81 1610.74,1129.42 1611.08,1129.02 1611.41,1128.63 1611.75,1128.24 
  1612.08,1127.84 1612.42,1127.45 1612.75,1127.06 1613.09,1126.66 1613.42,1126.27 1613.76,1125.88 1614.09,1125.48 1614.43,1125.09 1614.76,1124.7 1615.1,1124.3 
  1615.44,1123.91 1615.77,1123.52 1616.11,1123.13 1616.44,1122.73 1616.78,1122.34 1617.11,1121.95 1617.45,1121.56 1617.78,1121.16 1618.12,1120.77 1618.45,1120.38 
  1618.79,1119.99 1619.12,1119.6 1619.46,1119.2 1619.79,1118.81 1620.13,1118.42 1620.46,1118.03 1620.8,1117.64 1621.13,1117.25 1621.47,1116.85 1621.8,1116.46 
  1622.14,1116.07 1622.47,1115.68 1622.81,1115.29 1623.14,1114.9 1623.48,1114.51 1623.81,1114.12 1624.15,1113.73 1624.48,1113.34 1624.82,1112.95 1625.15,1112.56 
  1625.49,1112.17 1625.82,1111.77 1626.16,1111.38 1626.49,1110.99 1626.83,1110.6 1627.17,1110.21 1627.5,1109.83 1627.84,1109.44 1628.17,1109.05 1628.51,1108.66 
  1628.84,1108.27 1629.18,1107.88 1629.51,1107.49 1629.85,1107.1 1630.18,1106.71 1630.52,1106.32 1630.85,1105.93 1631.19,1105.54 1631.52,1105.16 1631.86,1104.77 
  1632.19,1104.38 1632.53,1103.99 1632.86,1103.6 1633.2,1103.21 1633.53,1102.83 1633.87,1102.44 1634.2,1102.05 1634.54,1101.66 1634.87,1101.28 1635.21,1100.89 
  1635.54,1100.5 1635.88,1100.11 1636.21,1099.73 1636.55,1099.34 1636.88,1098.95 1637.22,1098.57 1637.55,1098.18 1637.89,1097.79 1638.22,1097.41 1638.56,1097.02 
  1638.9,1096.63 1639.23,1096.25 1639.57,1095.86 1639.9,1095.48 1640.24,1095.09 1640.57,1094.7 1640.91,1094.32 1641.24,1093.93 1641.58,1093.55 1641.91,1093.16 
  1642.25,1092.78 1642.58,1092.39 1642.92,1092.01 1643.25,1091.62 1643.59,1091.24 1643.92,1090.86 1644.26,1090.47 1644.59,1090.09 1644.93,1089.7 1645.26,1089.32 
  1645.6,1088.94 1645.93,1088.55 1646.27,1088.17 1646.6,1087.79 1646.94,1087.4 1647.27,1087.02 1647.61,1086.64 1647.94,1086.25 1648.28,1085.87 1648.61,1085.49 
  1648.95,1085.11 1649.28,1084.73 1649.62,1084.34 1649.96,1083.96 1650.29,1083.58 1650.63,1083.2 1650.96,1082.82 1651.3,1082.44 1651.63,1082.06 1651.97,1081.67 
  1652.3,1081.29 1652.64,1080.91 1652.97,1080.53 1653.31,1080.15 1653.64,1079.77 1653.98,1079.39 1654.31,1079.01 1654.65,1078.63 1654.98,1078.25 1655.32,1077.88 
  1655.65,1077.5 1655.99,1077.12 1656.32,1076.74 1656.66,1076.36 1656.99,1075.98 1657.33,1075.6 1657.66,1075.23 1658,1074.85 1658.33,1074.47 1658.67,1074.09 
  1659,1073.72 1659.34,1073.34 1659.67,1072.96 1660.01,1072.58 1660.34,1072.21 1660.68,1071.83 1661.01,1071.46 1661.35,1071.08 1661.69,1070.7 1662.02,1070.33 
  1662.36,1069.95 1662.69,1069.58 1663.03,1069.2 1663.36,1068.83 1663.7,1068.45 1664.03,1068.08 1664.37,1067.7 1664.7,1067.33 1665.04,1066.96 1665.37,1066.58 
  1665.71,1066.21 1666.04,1065.84 1666.38,1065.46 1666.71,1065.09 1667.05,1064.72 1667.38,1064.35 1667.72,1063.97 1668.05,1063.6 1668.39,1063.23 1668.72,1062.86 
  1669.06,1062.49 1669.39,1062.12 1669.73,1061.75 1670.06,1061.38 1670.4,1061.01 1670.73,1060.64 1671.07,1060.27 1671.4,1059.9 1671.74,1059.53 1672.07,1059.16 
  1672.41,1058.79 1672.74,1058.42 1673.08,1058.05 1673.42,1057.69 1673.75,1057.32 1674.09,1056.95 1674.42,1056.58 1674.76,1056.22 1675.09,1055.85 1675.43,1055.48 
  1675.76,1055.12 1676.1,1054.75 1676.43,1054.39 1676.77,1054.02 1677.1,1053.66 1677.44,1053.29 1677.77,1052.93 1678.11,1052.56 1678.44,1052.2 1678.78,1051.84 
  1679.11,1051.47 1679.45,1051.11 1679.78,1050.75 1680.12,1050.38 1680.45,1050.02 1680.79,1049.66 1681.12,1049.3 1681.46,1048.94 1681.79,1048.58 1682.13,1048.22 
  1682.46,1047.86 1682.8,1047.5 1683.13,1047.14 1683.47,1046.78 1683.8,1046.42 1684.14,1046.06 1684.48,1045.7 1684.81,1045.35 1685.15,1044.99 1685.48,1044.63 
  1685.82,1044.27 1686.15,1043.92 1686.49,1043.56 1686.82,1043.21 1687.16,1042.85 1687.49,1042.5 1687.83,1042.14 1688.16,1041.79 1688.5,1041.43 1688.83,1041.08 
  1689.17,1040.73 1689.5,1040.37 1689.84,1040.02 1690.17,1039.67 1690.51,1039.32 1690.84,1038.97 1691.18,1038.62 1691.51,1038.27 1691.85,1037.92 1692.18,1037.57 
  1692.52,1037.22 1692.85,1036.87 1693.19,1036.52 1693.52,1036.18 1693.86,1035.83 1694.19,1035.48 1694.53,1035.14 1694.86,1034.79 1695.2,1034.45 1695.53,1034.1 
  1695.87,1033.76 1696.21,1033.41 1696.54,1033.07 1696.88,1032.73 1697.21,1032.38 1697.55,1032.04 1697.88,1031.7 1698.22,1031.36 1698.55,1031.02 1698.89,1030.68 
  1699.22,1030.34 1699.56,1030 1699.89,1029.66 1700.23,1029.33 1700.56,1028.99 1700.9,1028.65 1701.23,1028.32 1701.57,1027.98 1701.9,1027.65 1702.24,1027.31 
  1702.57,1026.98 1702.91,1026.65 1703.24,1026.31 1703.58,1025.98 1703.91,1025.65 1704.25,1025.32 1704.58,1024.99 1704.92,1024.66 1705.25,1024.33 1705.59,1024.01 
  1705.92,1023.68 1706.26,1023.35 1706.59,1023.03 1706.93,1022.7 1707.27,1022.38 1707.6,1022.05 1707.94,1021.73 1708.27,1021.41 1708.61,1021.09 1708.94,1020.77 
  1709.28,1020.45 1709.61,1020.13 1709.95,1019.81 1710.28,1019.49 1710.62,1019.17 1710.95,1018.86 1711.29,1018.54 1711.62,1018.23 1711.96,1017.91 1712.29,1017.6 
  1712.63,1017.29 1712.96,1016.98 1713.3,1016.67 1713.63,1016.36 1713.97,1016.05 1714.3,1015.74 1714.64,1015.44 1714.97,1015.13 1715.31,1014.83 1715.64,1014.52 
  1715.98,1014.22 1716.31,1013.92 1716.65,1013.62 1716.98,1013.32 1717.32,1013.02 1717.65,1012.72 1717.99,1012.43 1718.32,1012.13 1718.66,1011.84 1719,1011.54 
  1719.33,1011.25 1719.67,1010.96 1720,1010.67 1720.34,1010.38 1720.67,1010.1 1721.01,1009.81 1721.34,1009.53 1721.68,1009.24 1722.01,1008.96 1722.35,1008.68 
  1722.68,1008.4 1723.02,1008.12 1723.35,1007.85 1723.69,1007.57 1724.02,1007.3 1724.36,1007.03 1724.69,1006.76 1725.03,1006.49 1725.36,1006.22 1725.7,1005.95 
  1726.03,1005.69 1726.37,1005.43 1726.7,1005.16 1727.04,1004.9 1727.37,1004.65 1727.71,1004.39 1728.04,1004.14 1728.38,1003.88 1728.71,1003.63 1729.05,1003.39 
  1729.38,1003.14 1729.72,1002.89 1730.05,1002.65 1730.39,1002.41 1730.73,1002.17 1731.06,1001.94 1731.4,1001.7 1731.73,1001.47 1732.07,1001.24 1732.4,1001.01 
  1732.74,1000.79 1733.07,1000.56 1733.41,1000.34 1733.74,1000.13 1734.08,999.912 1734.41,999.699 1734.75,999.49 1735.08,999.283 1735.42,999.079 1735.75,998.877 
  1736.09,998.679 1736.42,998.484 1736.76,998.292 1737.09,998.103 1737.43,997.918 1737.76,997.735 1738.1,997.557 1738.43,997.381 1738.77,997.21 1739.1,997.042 
  1739.44,996.878 1739.77,996.718 1740.11,996.562 1740.44,996.41 1740.78,996.262 1741.11,996.119 1741.45,995.981 1741.79,995.847 1742.12,995.718 1742.46,995.593 
  1742.79,995.474 1743.13,995.361 1743.46,995.252 1743.8,995.15 1744.13,995.053 1744.47,994.962 1744.8,994.878 1745.14,994.8 1745.47,994.729 1745.81,994.664 
  1746.14,994.607 1746.48,994.558 1746.81,994.516 1747.15,994.482 1747.48,994.457 1747.82,994.44 1748.15,994.433 1748.49,994.435 1748.82,994.447 1749.16,994.469 
  1749.49,994.502 1749.83,994.547 1750.16,994.603 1750.5,994.672 1750.83,994.754 1751.17,994.85 1751.5,994.96 1751.84,995.086 1752.17,995.228 1752.51,995.387 
  1752.84,995.564 1753.18,995.76 1753.52,995.977 1753.85,996.215 1754.19,996.477 1754.52,996.763 1754.86,997.076 1755.19,997.418 1755.53,997.791 1755.86,998.196 
  1756.2,998.638 1756.53,999.12 1756.87,999.644 1757.2,1000.21 1757.54,1000.84 1757.87,1001.52 1758.21,1002.26 1758.54,1003.08 1758.88,1003.97 1759.21,1004.96 
  1759.55,1006.05 1759.88,1007.26 1760.22,1008.61 1760.55,1010.13 1760.89,1011.85 1761.22,1013.82 1761.56,1016.1 1761.89,1018.78 1762.23,1021.99 1762.56,1025.98 
  1762.9,1031.13 1763.23,1038.3 1763.57,1049.81 1763.9,1079 1764.24,1063.72 1764.57,1043.67 1764.91,1033.17 1765.25,1025.9 1765.58,1020.29 1765.92,1015.68 
  1766.25,1011.75 1766.59,1008.3 1766.92,1005.23 1767.26,1002.43 1767.59,999.874 1767.93,997.501 1768.26,995.286 1768.6,993.205 1768.93,991.238 1769.27,989.371 
  1769.6,987.591 1769.94,985.889 1770.27,984.254 1770.61,982.682 1770.94,981.164 1771.28,979.697 1771.61,978.275 1771.95,976.895 1772.28,975.554 1772.62,974.247 
  1772.95,972.972 1773.29,971.728 1773.62,970.512 1773.96,969.322 1774.29,968.156 1774.63,967.012 1774.96,965.89 1775.3,964.788 1775.63,963.705 1775.97,962.639 
  1776.31,961.591 1776.64,960.558 1776.98,959.54 1777.31,958.537 1777.65,957.547 1777.98,956.57 1778.32,955.605 1778.65,954.652 1778.99,953.71 1779.32,952.779 
  1779.66,951.858 1779.99,950.947 1780.33,950.046 1780.66,949.153 1781,948.269 1781.33,947.393 1781.67,946.525 1782,945.665 1782.34,944.812 1782.67,943.966 
  1783.01,943.128 1783.34,942.296 1783.68,941.47 1784.01,940.65 1784.35,939.837 1784.68,939.029 1785.02,938.227 1785.35,937.43 1785.69,936.638 1786.02,935.852 
  1786.36,935.07 1786.69,934.293 1787.03,933.521 1787.36,932.753 1787.7,931.99 1788.04,931.231 1788.37,930.476 1788.71,929.725 1789.04,928.978 1789.38,928.235 
  1789.71,927.496 1790.05,926.76 1790.38,926.027 1790.72,925.298 1791.05,924.573 1791.39,923.85 1791.72,923.131 1792.06,922.415 1792.39,921.702 1792.73,920.992 
  1793.06,920.285 1793.4,919.58 1793.73,918.878 1794.07,918.179 1794.4,917.483 1794.74,916.789 1795.07,916.098 1795.41,915.409 1795.74,914.723 1796.08,914.038 
  1796.41,913.357 1796.75,912.677 1797.08,912 1797.42,911.325 1797.75,910.652 1798.09,909.981 1798.42,909.312 1798.76,908.645 1799.09,907.98 1799.43,907.317 
  1799.77,906.655 1800.1,905.996 1800.44,905.339 1800.77,904.683 1801.11,904.029 1801.44,903.376 1801.78,902.726 1802.11,902.077 1802.45,901.43 1802.78,900.784 
  1803.12,900.14 1803.45,899.497 1803.79,898.856 1804.12,898.216 1804.46,897.578 1804.79,896.941 1805.13,896.306 1805.46,895.672 1805.8,895.039 1806.13,894.408 
  1806.47,893.778 1806.8,893.149 1807.14,892.522 1807.47,891.896 1807.81,891.271 1808.14,890.647 1808.48,890.025 1808.81,889.404 1809.15,888.783 1809.48,888.164 
  1809.82,887.547 1810.15,886.93 1810.49,886.314 1810.83,885.7 1811.16,885.086 1811.5,884.474 1811.83,883.862 1812.17,883.252 1812.5,882.642 1812.84,882.034 
  1813.17,881.427 1813.51,880.82 1813.84,880.215 1814.18,879.61 1814.51,879.006 1814.85,878.404 1815.18,877.802 1815.52,877.201 1815.85,876.601 1816.19,876.001 
  1816.52,875.403 1816.86,874.805 1817.19,874.209 1817.53,873.613 1817.86,873.017 1818.2,872.423 1818.53,871.83 1818.87,871.237 1819.2,870.645 1819.54,870.053 
  1819.87,869.463 1820.21,868.873 1820.54,868.284 1820.88,867.696 1821.21,867.108 1821.55,866.521 1821.88,865.935 1822.22,865.349 1822.56,864.765 1822.89,864.18 
  1823.23,863.597 1823.56,863.014 1823.9,862.432 1824.23,861.85 1824.57,861.269 1824.9,860.689 1825.24,860.109 1825.57,859.53 1825.91,858.951 1826.24,858.373 
  1826.58,857.796 1826.91,857.219 1827.25,856.643 1827.58,856.067 1827.92,855.492 1828.25,854.917 1828.59,854.343 1828.92,853.77 1829.26,853.197 1829.59,852.625 
  1829.93,852.053 1830.26,851.481 1830.6,850.911 1830.93,850.34 1831.27,849.77 1831.6,849.201 1831.94,848.632 1832.27,848.064 1832.61,847.496 1832.94,846.929 
  1833.28,846.362 1833.61,845.795 1833.95,845.229 1834.29,844.664 1834.62,844.099 1834.96,843.534 1835.29,842.97 1835.63,842.406 1835.96,841.843 1836.3,841.28 
  1836.63,840.717 1836.97,840.155 1837.3,839.594 1837.64,839.032 1837.97,838.472 1838.31,837.911 1838.64,837.351 1838.98,836.792 1839.31,836.232 1839.65,835.674 
  1839.98,835.115 1840.32,834.557 1840.65,833.999 1840.99,833.442 1841.32,832.885 1841.66,832.329 1841.99,831.772 1842.33,831.217 1842.66,830.661 1843,830.106 
  1843.33,829.551 1843.67,828.997 1844,828.443 1844.34,827.889 1844.67,827.336 1845.01,826.783 1845.35,826.23 1845.68,825.677 1846.02,825.125 1846.35,824.574 
  1846.69,824.022 1847.02,823.471 1847.36,822.92 1847.69,822.37 1848.03,821.82 1848.36,821.27 1848.7,820.72 1849.03,820.171 1849.37,819.622 1849.7,819.073 
  1850.04,818.525 1850.37,817.977 1850.71,817.429 1851.04,816.881 1851.38,816.334 1851.71,815.787 1852.05,815.24 1852.38,814.694 1852.72,814.148 1853.05,813.602 
  1853.39,813.056 1853.72,812.511 1854.06,811.966 1854.39,811.421 1854.73,810.877 1855.06,810.332 1855.4,809.788 1855.73,809.245 1856.07,808.701 1856.4,808.158 
  1856.74,807.615 1857.08,807.072 1857.41,806.529 1857.75,805.987 1858.08,805.445 1858.42,804.903 1858.75,804.362 1859.09,803.82 1859.42,803.279 1859.76,802.738 
  1860.09,802.198 1860.43,801.657 1860.76,801.117 1861.1,800.577 1861.43,800.037 1861.77,799.498 1862.1,798.958 1862.44,798.419 1862.77,797.88 1863.11,797.342 
  1863.44,796.803 1863.78,796.265 1864.11,795.727 1864.45,795.189 1864.78,794.651 1865.12,794.114 1865.45,793.577 1865.79,793.039 1866.12,792.503 1866.46,791.966 
  1866.79,791.429 1867.13,790.893 1867.46,790.357 1867.8,789.821 1868.14,789.286 1868.47,788.75 1868.81,788.215 1869.14,787.68 1869.48,787.145 1869.81,786.61 
  1870.15,786.075 1870.48,785.541 1870.82,785.007 1871.15,784.472 1871.49,783.939 1871.82,783.405 1872.16,782.871 1872.49,782.338 1872.83,781.805 1873.16,781.272 
  1873.5,780.739 1873.83,780.206 1874.17,779.674 1874.5,779.141 1874.84,778.609 1875.17,778.077 1875.51,777.545 1875.84,777.013 1876.18,776.482 1876.51,775.95 
  1876.85,775.419 1877.18,774.888 1877.52,774.357 1877.85,773.826 1878.19,773.296 1878.52,772.765 1878.86,772.235 1879.19,771.704 1879.53,771.174 1879.87,770.644 
  1880.2,770.115 1880.54,769.585 1880.87,769.056 1881.21,768.526 1881.54,767.997 1881.88,767.468 1882.21,766.939 1882.55,766.41 1882.88,765.882 1883.22,765.353 
  1883.55,764.825 1883.89,764.297 1884.22,763.768 1884.56,763.24 1884.89,762.713 1885.23,762.185 1885.56,761.657 1885.9,761.13 1886.23,760.603 1886.57,760.075 
  1886.9,759.548 1887.24,759.021 1887.57,758.494 1887.91,757.968 1888.24,757.441 1888.58,756.915 1888.91,756.388 1889.25,755.862 1889.58,755.336 1889.92,754.81 
  1890.25,754.284 1890.59,753.758 1890.92,753.233 1891.26,752.707 1891.6,752.182 1891.93,751.657 1892.27,751.131 1892.6,750.606 1892.94,750.081 1893.27,749.557 
  1893.61,749.032 1893.94,748.507 1894.28,747.983 1894.61,747.458 1894.95,746.934 1895.28,746.41 1895.62,745.886 1895.95,745.362 1896.29,744.838 1896.62,744.314 
  1896.96,743.79 1897.29,743.267 1897.63,742.743 1897.96,742.22 1898.3,741.697 1898.63,741.173 1898.97,740.65 1899.3,740.127 1899.64,739.604 1899.97,739.082 
  1900.31,738.559 1900.64,738.036 1900.98,737.514 1901.31,736.991 1901.65,736.469 1901.98,735.947 1902.32,735.425 1902.66,734.903 1902.99,734.381 1903.33,733.859 
  1903.66,733.337 1904,732.815 1904.33,732.294 1904.67,731.772 1905,731.251 1905.34,730.73 1905.67,730.208 1906.01,729.687 1906.34,729.166 1906.68,728.645 
  1907.01,728.124 1907.35,727.603 1907.68,727.083 1908.02,726.562 1908.35,726.041 1908.69,725.521 1909.02,725 1909.36,724.48 1909.69,723.96 1910.03,723.44 
  1910.36,722.92 1910.7,722.4 1911.03,721.88 1911.37,721.36 1911.7,720.84 1912.04,720.32 1912.37,719.801 1912.71,719.281 1913.04,718.762 1913.38,718.242 
  1913.71,717.723 1914.05,717.204 1914.39,716.684 1914.72,716.165 1915.06,715.646 1915.39,715.127 1915.73,714.608 1916.06,714.089 1916.4,713.571 1916.73,713.052 
  1917.07,712.533 1917.4,712.015 1917.74,711.496 1918.07,710.978 1918.41,710.459 1918.74,709.941 1919.08,709.423 1919.41,708.905 1919.75,708.387 1920.08,707.869 
  1920.42,707.351 1920.75,706.833 1921.09,706.315 1921.42,705.797 1921.76,705.279 1922.09,704.762 1922.43,704.244 1922.76,703.727 1923.1,703.209 1923.43,702.692 
  1923.77,702.174 1924.1,701.657 1924.44,701.14 1924.77,700.623 1925.11,700.106 1925.44,699.588 1925.78,699.072 1926.12,698.555 1926.45,698.038 1926.79,697.521 
  1927.12,697.004 1927.46,696.487 1927.79,695.971 1928.13,695.454 1928.46,694.938 1928.8,694.421 1929.13,693.905 1929.47,693.388 1929.8,692.872 1930.14,692.356 
  1930.47,691.839 1930.81,691.323 1931.14,690.807 1931.48,690.291 1931.81,689.775 1932.15,689.259 1932.48,688.743 1932.82,688.227 1933.15,687.711 1933.49,687.196 
  1933.82,686.68 1934.16,686.164 1934.49,685.649 1934.83,685.133 1935.16,684.618 1935.5,684.102 1935.83,683.587 1936.17,683.071 1936.5,682.556 1936.84,682.041 
  1937.18,681.525 1937.51,681.01 1937.85,680.495 1938.18,679.98 1938.52,679.465 1938.85,678.95 1939.19,678.435 1939.52,677.92 1939.86,677.405 1940.19,676.89 
  1940.53,676.376 1940.86,675.861 1941.2,675.346 1941.53,674.831 1941.87,674.317 1942.2,673.802 1942.54,673.288 1942.87,672.773 1943.21,672.259 1943.54,671.744 
  1943.88,671.23 1944.21,670.716 1944.55,670.201 1944.88,669.687 1945.22,669.173 1945.55,668.659 1945.89,668.144 1946.22,667.63 1946.56,667.116 1946.89,666.602 
  1947.23,666.088 1947.56,665.574 1947.9,665.06 1948.23,664.547 1948.57,664.033 1948.91,663.519 1949.24,663.005 1949.58,662.491 1949.91,661.978 1950.25,661.464 
  1950.58,660.95 1950.92,660.437 1951.25,659.923 1951.59,659.41 1951.92,658.896 1952.26,658.383 1952.59,657.869 1952.93,657.356 1953.26,656.843 1953.6,656.329 
  1953.93,655.816 1954.27,655.303 1954.6,654.79 1954.94,654.276 1955.27,653.763 1955.61,653.25 1955.94,652.737 1956.28,652.224 1956.61,651.711 1956.95,651.198 
  1957.28,650.685 1957.62,650.172 1957.95,649.659 1958.29,649.146 1958.62,648.633 1958.96,648.12 1959.29,647.608 1959.63,647.095 1959.96,646.582 1960.3,646.069 
  1960.64,645.557 1960.97,645.044 1961.31,644.531 1961.64,644.019 1961.98,643.506 1962.31,642.994 1962.65,642.481 1962.98,641.969 1963.32,641.456 1963.65,640.944 
  1963.99,640.431 1964.32,639.919 1964.66,639.407 1964.99,638.894 1965.33,638.382 1965.66,637.87 1966,637.357 1966.33,636.845 1966.67,636.333 1967,635.821 
  1967.34,635.309 1967.67,634.796 1968.01,634.284 1968.34,633.772 1968.68,633.26 1969.01,632.748 1969.35,632.236 1969.68,631.724 1970.02,631.212 1970.35,630.7 
  1970.69,630.188 1971.02,629.676 1971.36,629.164 1971.7,628.652 1972.03,628.141 1972.37,627.629 1972.7,627.117 1973.04,626.605 1973.37,626.093 1973.71,625.582 
  1974.04,625.07 1974.38,624.558 1974.71,624.047 1975.05,623.535 1975.38,623.023 1975.72,622.512 1976.05,622 1976.39,621.488 1976.72,620.977 1977.06,620.465 
  1977.39,619.954 1977.73,619.442 1978.06,618.931 1978.4,618.419 1978.73,617.908 1979.07,617.396 1979.4,616.885 1979.74,616.374 1980.07,615.862 1980.41,615.351 
  1980.74,614.839 1981.08,614.328 1981.41,613.817 1981.75,613.305 1982.08,612.794 1982.42,612.283 1982.75,611.772 1983.09,611.26 1983.43,610.749 1983.76,610.238 
  1984.1,609.727 1984.43,609.216 1984.77,608.704 1985.1,608.193 1985.44,607.682 1985.77,607.171 1986.11,606.66 1986.44,606.149 1986.78,605.638 1987.11,605.127 
  1987.45,604.616 1987.78,604.105 1988.12,603.594 1988.45,603.083 1988.79,602.572 1989.12,602.061 1989.46,601.55 1989.79,601.039 1990.13,600.528 1990.46,600.017 
  1990.8,599.506 1991.13,598.995 1991.47,598.484 1991.8,597.973 1992.14,597.463 1992.47,596.952 1992.81,596.441 1993.14,595.93 1993.48,595.419 1993.81,594.908 
  1994.15,594.398 1994.48,593.887 1994.82,593.376 1995.16,592.865 1995.49,592.355 1995.83,591.844 1996.16,591.333 1996.5,590.822 1996.83,590.312 1997.17,589.801 
  1997.5,589.29 1997.84,588.78 1998.17,588.269 1998.51,587.758 1998.84,587.248 1999.18,586.737 1999.51,586.226 1999.85,585.716 2000.18,585.205 2000.52,584.694 
  2000.85,584.184 2001.19,583.673 2001.52,583.163 2001.86,582.652 2002.19,582.142 2002.53,581.631 2002.86,581.121 2003.2,580.61 2003.53,580.099 2003.87,579.589 
  2004.2,579.078 2004.54,578.568 2004.87,578.057 2005.21,577.547 2005.54,577.036 2005.88,576.526 2006.22,576.015 2006.55,575.505 2006.89,574.995 2007.22,574.484 
  2007.56,573.974 2007.89,573.463 2008.23,572.953 2008.56,572.442 2008.9,571.932 2009.23,571.422 2009.57,570.911 2009.9,570.401 2010.24,569.89 2010.57,569.38 
  2010.91,568.87 2011.24,568.359 2011.58,567.849 2011.91,567.338 2012.25,566.828 2012.58,566.318 2012.92,565.807 2013.25,565.297 2013.59,564.787 2013.92,564.276 
  2014.26,563.766 2014.59,563.256 2014.93,562.745 2015.26,562.235 2015.6,561.725 2015.93,561.214 2016.27,560.704 2016.6,560.194 2016.94,559.683 2017.27,559.173 
  2017.61,558.663 2017.95,558.152 2018.28,557.642 2018.62,557.132 2018.95,556.622 2019.29,556.111 2019.62,555.601 2019.96,555.091 2020.29,554.58 2020.63,554.07 
  2020.96,553.56 2021.3,553.05 2021.63,552.539 2021.97,552.029 2022.3,551.519 2022.64,551.009 2022.97,550.498 2023.31,549.988 2023.64,549.478 2023.98,548.968 
  2024.31,548.457 2024.65,547.947 2024.98,547.437 2025.32,546.927 2025.65,546.416 2025.99,545.906 2026.32,545.396 2026.66,544.885 2026.99,544.375 2027.33,543.865 
  2027.66,543.355 2028,542.844 2028.33,542.334 2028.67,541.824 2029.01,541.314 2029.34,540.803 2029.68,540.293 2030.01,539.783 2030.35,539.273 2030.68,538.763 
  2031.02,538.252 2031.35,537.742 2031.69,537.232 2032.02,536.721 2032.36,536.211 2032.69,535.701 2033.03,535.191 2033.36,534.68 2033.7,534.17 2034.03,533.66 
  2034.37,533.15 2034.7,532.639 2035.04,532.129 2035.37,531.619 2035.71,531.109 2036.04,530.598 2036.38,530.088 2036.71,529.578 2037.05,529.068 2037.38,528.557 
  2037.72,528.047 2038.05,527.537 2038.39,527.026 2038.72,526.516 2039.06,526.006 2039.39,525.496 2039.73,524.985 2040.06,524.475 2040.4,523.965 2040.74,523.454 
  2041.07,522.944 2041.41,522.434 2041.74,521.924 2042.08,521.413 2042.41,520.903 2042.75,520.393 2043.08,519.882 2043.42,519.372 2043.75,518.862 2044.09,518.351 
  2044.42,517.841 2044.76,517.331 2045.09,516.82 2045.43,516.31 2045.76,515.8 2046.1,515.289 2046.43,514.779 2046.77,514.269 2047.1,513.758 2047.44,513.248 
  2047.77,512.737 2048.11,512.227 2048.44,511.717 2048.78,511.206 2049.11,510.696 2049.45,510.185 2049.78,509.675 2050.12,509.165 2050.45,508.654 2050.79,508.144 
  2051.12,507.633 2051.46,507.123 2051.79,506.613 2052.13,506.102 2052.47,505.592 2052.8,505.081 2053.14,504.571 2053.47,504.06 2053.81,503.55 2054.14,503.039 
  2054.48,502.529 2054.81,502.018 2055.15,501.508 2055.48,500.997 2055.82,500.487 2056.15,499.976 2056.49,499.466 2056.82,498.955 2057.16,498.445 2057.49,497.934 
  2057.83,497.424 2058.16,496.913 2058.5,496.403 2058.83,495.892 2059.17,495.382 2059.5,494.871 2059.84,494.36 2060.17,493.85 2060.51,493.339 2060.84,492.829 
  2061.18,492.318 2061.51,491.808 2061.85,491.297 2062.18,490.786 2062.52,490.276 2062.85,489.765 2063.19,489.254 2063.53,488.744 2063.86,488.233 2064.2,487.722 
  2064.53,487.212 2064.87,486.701 2065.2,486.19 2065.54,485.68 2065.87,485.169 2066.21,484.658 2066.54,484.148 2066.88,483.637 2067.21,483.126 2067.55,482.615 
  2067.88,482.105 2068.22,481.594 2068.55,481.083 2068.89,480.572 2069.22,480.061 2069.56,479.551 2069.89,479.04 2070.23,478.529 2070.56,478.018 2070.9,477.507 
  2071.23,476.997 2071.57,476.486 2071.9,475.975 2072.24,475.464 2072.57,474.953 2072.91,474.442 2073.24,473.931 2073.58,473.42 2073.91,472.91 2074.25,472.399 
  2074.58,471.888 2074.92,471.377 2075.26,470.866 2075.59,470.355 2075.93,469.844 2076.26,469.333 2076.6,468.822 2076.93,468.311 2077.27,467.8 2077.6,467.289 
  2077.94,466.778 2078.27,466.267 2078.61,465.756 2078.94,465.245 2079.28,464.734 2079.61,464.223 2079.95,463.712 2080.28,463.2 2080.62,462.689 2080.95,462.178 
  2081.29,461.667 2081.62,461.156 2081.96,460.645 2082.29,460.134 2082.63,459.623 2082.96,459.111 2083.3,458.6 2083.63,458.089 2083.97,457.578 2084.3,457.067 
  2084.64,456.555 2084.97,456.044 2085.31,455.533 2085.64,455.022 2085.98,454.51 2086.31,453.999 2086.65,453.488 2086.99,452.976 2087.32,452.465 2087.66,451.954 
  2087.99,451.442 2088.33,450.931 2088.66,450.42 2089,449.908 2089.33,449.397 2089.67,448.886 2090,448.374 2090.34,447.863 2090.67,447.351 2091.01,446.84 
  2091.34,446.328 2091.68,445.817 2092.01,445.305 2092.35,444.794 2092.68,444.282 2093.02,443.771 2093.35,443.259 2093.69,442.748 2094.02,442.236 2094.36,441.725 
  2094.69,441.213 2095.03,440.702 2095.36,440.19 2095.7,439.678 2096.03,439.167 2096.37,438.655 2096.7,438.143 2097.04,437.632 2097.37,437.12 2097.71,436.608 
  2098.05,436.097 2098.38,435.585 2098.72,435.073 2099.05,434.562 2099.39,434.05 2099.72,433.538 2100.06,433.026 2100.39,432.514 2100.73,432.003 2101.06,431.491 
  2101.4,430.979 2101.73,430.467 2102.07,429.955 2102.4,429.443 2102.74,428.932 2103.07,428.42 2103.41,427.908 2103.74,427.396 2104.08,426.884 2104.41,426.372 
  2104.75,425.86 2105.08,425.348 2105.42,424.836 2105.75,424.324 2106.09,423.812 2106.42,423.3 2106.76,422.788 2107.09,422.276 2107.43,421.764 2107.76,421.252 
  2108.1,420.74 2108.43,420.227 2108.77,419.715 2109.1,419.203 2109.44,418.691 2109.78,418.179 2110.11,417.667 2110.45,417.155 2110.78,416.642 2111.12,416.13 
  2111.45,415.618 2111.79,415.106 2112.12,414.593 2112.46,414.081 2112.79,413.569 2113.13,413.056 2113.46,412.544 2113.8,412.032 2114.13,411.519 2114.47,411.007 
  2114.8,410.495 2115.14,409.982 2115.47,409.47 2115.81,408.957 2116.14,408.445 2116.48,407.932 2116.81,407.42 2117.15,406.908 2117.48,406.395 2117.82,405.882 
  2118.15,405.37 2118.49,404.857 2118.82,404.345 2119.16,403.832 2119.49,403.32 2119.83,402.807 2120.16,402.294 2120.5,401.782 2120.83,401.269 2121.17,400.756 
  2121.51,400.244 2121.84,399.731 2122.18,399.218 2122.51,398.706 2122.85,398.193 2123.18,397.68 2123.52,397.167 2123.85,396.655 2124.19,396.142 2124.52,395.629 
  2124.86,395.116 2125.19,394.603 2125.53,394.09 2125.86,393.577 2126.2,393.065 2126.53,392.552 2126.87,392.039 2127.2,391.526 2127.54,391.013 2127.87,390.5 
  2128.21,389.987 2128.54,389.474 2128.88,388.961 2129.21,388.448 2129.55,387.935 2129.88,387.422 2130.22,386.908 2130.55,386.395 2130.89,385.882 2131.22,385.369 
  2131.56,384.856 2131.89,384.343 2132.23,383.83 2132.57,383.316 2132.9,382.803 2133.24,382.29 2133.57,381.777 2133.91,381.263 2134.24,380.75 2134.58,380.237 
  2134.91,379.723 2135.25,379.21 2135.58,378.697 2135.92,378.183 2136.25,377.67 2136.59,377.156 2136.92,376.643 2137.26,376.13 2137.59,375.616 2137.93,375.103 
  2138.26,374.589 2138.6,374.076 2138.93,373.562 2139.27,373.049 2139.6,372.535 2139.94,372.021 2140.27,371.508 2140.61,370.994 2140.94,370.481 2141.28,369.967 
  2141.61,369.453 2141.95,368.94 2142.28,368.426 2142.62,367.912 2142.95,367.398 2143.29,366.885 2143.62,366.371 2143.96,365.857 2144.3,365.343 2144.63,364.829 
  2144.97,364.316 2145.3,363.802 2145.64,363.288 2145.97,362.774 2146.31,362.26 2146.64,361.746 2146.98,361.232 2147.31,360.718 2147.65,360.204 2147.98,359.69 
  2148.32,359.176 2148.65,358.662 2148.99,358.148 2149.32,357.634 2149.66,357.12 2149.99,356.606 2150.33,356.092 2150.66,355.577 2151,355.063 2151.33,354.549 
  2151.67,354.035 2152,353.521 2152.34,353.006 2152.67,352.492 2153.01,351.978 2153.34,351.464 2153.68,350.949 2154.01,350.435 2154.35,349.921 2154.68,349.406 
  2155.02,348.892 2155.36,348.377 2155.69,347.863 2156.03,347.349 2156.36,346.834 2156.7,346.32 2157.03,345.805 2157.37,345.291 2157.7,344.776 2158.04,344.262 
  2158.37,343.747 2158.71,343.232 2159.04,342.718 2159.38,342.203 2159.71,341.688 2160.05,341.174 2160.38,340.659 2160.72,340.144 2161.05,339.63 2161.39,339.115 
  2161.72,338.6 2162.06,338.085 2162.39,337.571 2162.73,337.056 2163.06,336.541 2163.4,336.026 2163.73,335.511 2164.07,334.996 2164.4,334.481 2164.74,333.966 
  2165.07,333.451 2165.41,332.937 2165.74,332.422 2166.08,331.907 2166.41,331.391 2166.75,330.876 2167.09,330.361 2167.42,329.846 2167.76,329.331 2168.09,328.816 
  2168.43,328.301 2168.76,327.786 2169.1,327.271 2169.43,326.755 2169.77,326.24 2170.1,325.725 2170.44,325.21 2170.77,324.694 2171.11,324.179 2171.44,323.664 
  2171.78,323.148 2172.11,322.633 2172.45,322.118 2172.78,321.602 2173.12,321.087 2173.45,320.571 2173.79,320.056 2174.12,319.54 2174.46,319.025 2174.79,318.509 
  2175.13,317.994 2175.46,317.478 2175.8,316.963 2176.13,316.447 2176.47,315.931 2176.8,315.416 2177.14,314.9 2177.47,314.384 2177.81,313.869 2178.14,313.353 
  2178.48,312.837 2178.82,312.322 2179.15,311.806 2179.49,311.29 2179.82,310.774 2180.16,310.258 2180.49,309.742 2180.83,309.226 2181.16,308.711 2181.5,308.195 
  2181.83,307.679 2182.17,307.163 2182.5,306.647 2182.84,306.131 2183.17,305.615 2183.51,305.099 2183.84,304.583 2184.18,304.067 2184.51,303.55 2184.85,303.034 
  2185.18,302.518 2185.52,302.002 2185.85,301.486 2186.19,300.97 2186.52,300.453 2186.86,299.937 2187.19,299.421 2187.53,298.904 2187.86,298.388 2188.2,297.872 
  2188.53,297.355 2188.87,296.839 2189.2,296.323 2189.54,295.806 2189.88,295.29 2190.21,294.773 2190.55,294.257 2190.88,293.74 2191.22,293.224 2191.55,292.707 
  2191.89,292.191 2192.22,291.674 2192.56,291.157 2192.89,290.641 2193.23,290.124 2193.56,289.608 2193.9,289.091 2194.23,288.574 2194.57,288.057 2194.9,287.541 
  2195.24,287.024 2195.57,286.507 2195.91,285.99 2196.24,285.473 2196.58,284.956 2196.91,284.44 2197.25,283.923 2197.58,283.406 2197.92,282.889 2198.25,282.372 
  2198.59,281.855 2198.92,281.338 2199.26,280.821 2199.59,280.304 2199.93,279.787 2200.26,279.27 2200.6,278.752 2200.93,278.235 2201.27,277.718 2201.61,277.201 
  2201.94,276.684 2202.28,276.166 2202.61,275.649 2202.95,275.132 2203.28,274.615 2203.62,274.097 2203.95,273.58 2204.29,273.063 2204.62,272.545 2204.96,272.028 
  2205.29,271.51 2205.63,270.993 2205.96,270.475 2206.3,269.958 2206.63,269.44 2206.97,268.923 2207.3,268.405 2207.64,267.888 2207.97,267.37 2208.31,266.853 
  2208.64,266.335 2208.98,265.817 2209.31,265.3 2209.65,264.782 2209.98,264.264 2210.32,263.746 2210.65,263.229 2210.99,262.711 2211.32,262.193 2211.66,261.675 
  2211.99,261.157 2212.33,260.639 2212.66,260.121 2213,259.603 2213.34,259.085 2213.67,258.567 2214.01,258.049 2214.34,257.531 2214.68,257.013 2215.01,256.495 
  2215.35,255.977 2215.68,255.459 2216.02,254.941 2216.35,254.423 2216.69,253.905 2217.02,253.386 2217.36,252.868 2217.69,252.35 2218.03,251.832 2218.36,251.313 
  2218.7,250.795 2219.03,250.277 2219.37,249.758 2219.7,249.24 2220.04,248.722 2220.37,248.203 2220.71,247.685 2221.04,247.166 2221.38,246.648 2221.71,246.129 
  2222.05,245.611 2222.38,245.092 2222.72,244.573 2223.05,244.055 2223.39,243.536 2223.72,243.018 2224.06,242.499 2224.4,241.98 2224.73,241.461 2225.07,240.943 
  2225.4,240.424 2225.74,239.905 2226.07,239.386 2226.41,238.867 2226.74,238.349 2227.08,237.83 2227.41,237.311 2227.75,236.792 2228.08,236.273 2228.42,235.754 
  2228.75,235.235 2229.09,234.716 2229.42,234.197 2229.76,233.678 2230.09,233.159 2230.43,232.64 2230.76,232.12 2231.1,231.601 2231.43,231.082 2231.77,230.563 
  2232.1,230.044 2232.44,229.524 2232.77,229.005 2233.11,228.486 2233.44,227.966 2233.78,227.447 2234.11,226.928 2234.45,226.408 2234.78,225.889 2235.12,225.369 
  2235.45,224.85 2235.79,224.33 2236.13,223.811 2236.46,223.291 2236.8,222.772 2237.13,222.252 2237.47,221.733 2237.8,221.213 2238.14,220.693 2238.47,220.174 
  2238.81,219.654 2239.14,219.134 2239.48,218.615 2239.81,218.095 2240.15,217.575 2240.48,217.055 2240.82,216.535 2241.15,216.015 2241.49,215.496 2241.82,214.976 
  2242.16,214.456 2242.49,213.936 2242.83,213.416 2243.16,212.896 2243.5,212.376 2243.83,211.856 2244.17,211.336 2244.5,210.815 2244.84,210.295 2245.17,209.775 
  2245.51,209.255 2245.84,208.735 2246.18,208.215 2246.51,207.694 2246.85,207.174 2247.18,206.654 2247.52,206.133 2247.86,205.613 2248.19,205.093 2248.53,204.572 
  2248.86,204.052 2249.2,203.531 2249.53,203.011 2249.87,202.49 2250.2,201.97 2250.54,201.449 2250.87,200.929 2251.21,200.408 2251.54,199.888 2251.88,199.367 
  2252.21,198.846 2252.55,198.326 2252.88,197.805 2253.22,197.284 2253.55,196.764 2253.89,196.243 2254.22,195.722 2254.56,195.201 2254.89,194.68 2255.23,194.159 
  2255.56,193.638 2255.9,193.118 2256.23,192.597 2256.57,192.076 2256.9,191.555 2257.24,191.034 2257.57,190.513 2257.91,189.992 2258.24,189.47 2258.58,188.949 
  2258.92,188.428 2259.25,187.907 2259.59,187.386 2259.92,186.865 2260.26,186.343 2260.59,185.822 2260.93,185.301 2261.26,184.779 2261.6,184.258 2261.93,183.737 
  2262.27,183.215 2262.6,182.694 2262.94,182.173 2263.27,181.651 2263.61,181.13 2263.94,180.608 2264.28,180.087 2264.61,179.565 2264.95,179.043 2265.28,178.522 
  2265.62,178 2265.95,177.479 2266.29,176.957 2266.62,176.435 2266.96,175.913 2267.29,175.392 2267.63,174.87 2267.96,174.348 2268.3,173.826 2268.63,173.304 
  2268.97,172.782 2269.3,172.261 2269.64,171.739 2269.97,171.217 2270.31,170.695 2270.65,170.173 2270.98,169.651 2271.32,169.129 2271.65,168.607 2271.99,168.084 
  2272.32,167.562 2272.66,167.04 2272.99,166.518 2273.33,165.996 2273.66,165.474 2274,164.951 2274.33,164.429 2274.67,163.907 2275,163.384 2275.34,162.862 
  2275.67,162.34 2276.01,161.817 2276.34,161.295 2276.68,160.772 2277.01,160.25 2277.35,159.727 2277.68,159.205 2278.02,158.682 2278.35,158.16 2278.69,157.637 
  2279.02,157.114 2279.36,156.592 2279.69,156.069 2280.03,155.546 2280.36,155.024 2280.7,154.501 2281.03,153.978 2281.37,153.455 2281.7,152.933 2282.04,152.41 
  2282.38,151.887 2282.71,151.364 2283.05,150.841 2283.38,150.318 2283.72,149.795 2284.05,149.272 2284.39,148.749 2284.72,148.226 2285.06,147.703 2285.39,147.18 
  2285.73,146.657 2286.06,146.133 2286.4,145.61 2286.73,145.087 2287.07,144.564 2287.4,144.041 2287.74,143.517 2288.07,142.994 2288.41,142.471 2288.74,141.947 
  2289.08,141.424 2289.41,140.9 2289.75,140.377 2290.08,139.854 2290.42,139.33 2290.75,138.807 2291.09,138.283 2291.42,137.759 2291.76,137.236 2292.09,136.712 
  2292.43,136.189 2292.76,135.665 2293.1,135.141 2293.44,134.617 2293.77,134.094 2294.11,133.57 2294.44,133.046 2294.78,132.522 2295.11,131.998 2295.45,131.475 
  2295.78,130.951 2296.12,130.427 2296.45,129.903 2296.79,129.379 2297.12,128.855 2297.46,128.331 2297.79,127.807 2298.13,127.283 2298.46,126.759 2298.8,126.234 
  2299.13,125.71 2299.47,125.186 2299.8,124.662 2300.14,124.138 2300.47,123.613 2300.81,123.089 2301.14,122.565 2301.48,122.04 2301.81,121.516 2302.15,120.992 
  2302.48,120.467 2302.82,119.943 2303.15,119.418 2303.49,118.894 2303.82,118.369 2304.16,117.845 2304.49,117.32 2304.83,116.796 2305.17,116.271 2305.5,115.746 
  2305.84,115.222 2306.17,114.697 2306.51,114.172 2306.84,113.647 2307.18,113.123 2307.51,112.598 2307.85,112.073 2308.18,111.548 2308.52,111.023 2308.85,110.498 
  2309.19,109.973 2309.52,109.448 2309.86,108.923 2310.19,108.398 2310.53,107.873 2310.86,107.348 2311.2,106.823 2311.53,106.298 2311.87,105.773 2312.2,105.248 
  2312.54,104.723 2312.87,104.197 2313.21,103.672 2313.54,103.147 2313.88,102.622 2314.21,102.096 2314.55,101.571 2314.88,101.045 2315.22,100.52 2315.55,99.9946 
  2315.89,99.4692 2316.23,98.9437 2316.56,98.4182 2316.9,97.8926 2317.23,97.3671 2317.57,96.8415 2317.9,96.3159 2318.24,95.7902 2318.57,95.2645 2318.91,94.7388 
  2319.24,94.2131 2319.58,93.6874 2319.91,93.1616 2320.25,92.6358 2320.58,92.1099 2320.92,91.5841 2321.25,91.0582 2321.59,90.5323 2321.92,90.0063 2322.26,89.4804 
  2322.59,88.9544 
  "/>
</svg>
