<?xml version="1.0" encoding="utf-8"?>
<svg xmlns="http://www.w3.org/2000/svg" xmlns:xlink="http://www.w3.org/1999/xlink" width="600" height="400" viewBox="0 0 2400 1600">
<defs>
  <clipPath id="clip700">
    <rect x="0" y="0" width="2400" height="1600"/>
  </clipPath>
</defs>
<path clip-path="url(#clip700)" d="
M0 1600 L2400 1600 L2400 0 L0 0  Z
  " fill="#ffffff" fill-rule="evenodd" fill-opacity="1"/>
<defs>
  <clipPath id="clip701">
    <rect x="480" y="0" width="1681" height="1600"/>
  </clipPath>
</defs>
<path clip-path="url(#clip700)" d="
M86.9921 1521.01 L2352.76 1521.01 L2352.76 47.2441 L86.9921 47.2441  Z
  " fill="#ffffff" fill-rule="evenodd" fill-opacity="1"/>
<defs>
  <clipPath id="clip702">
    <rect x="86" y="47" width="2267" height="1475"/>
  </clipPath>
</defs>
<polyline clip-path="url(#clip702)" style="stroke:#000000; stroke-width:2; stroke-opacity:0.1; fill:none" points="
  151.118,1521.01 151.118,47.2441 
  "/>
<polyline clip-path="url(#clip702)" style="stroke:#000000; stroke-width:2; stroke-opacity:0.1; fill:none" points="
  685.496,1521.01 685.496,47.2441 
  "/>
<polyline clip-path="url(#clip702)" style="stroke:#000000; stroke-width:2; stroke-opacity:0.1; fill:none" points="
  1219.87,1521.01 1219.87,47.2441 
  "/>
<polyline clip-path="url(#clip702)" style="stroke:#000000; stroke-width:2; stroke-opacity:0.1; fill:none" points="
  1754.25,1521.01 1754.25,47.2441 
  "/>
<polyline clip-path="url(#clip702)" style="stroke:#000000; stroke-width:2; stroke-opacity:0.1; fill:none" points="
  2288.63,1521.01 2288.63,47.2441 
  "/>
<polyline clip-path="url(#clip700)" style="stroke:#000000; stroke-width:4; stroke-opacity:1; fill:none" points="
  86.9921,1521.01 2352.76,1521.01 
  "/>
<polyline clip-path="url(#clip700)" style="stroke:#000000; stroke-width:4; stroke-opacity:1; fill:none" points="
  151.118,1521.01 151.118,1503.32 
  "/>
<polyline clip-path="url(#clip700)" style="stroke:#000000; stroke-width:4; stroke-opacity:1; fill:none" points="
  685.496,1521.01 685.496,1503.32 
  "/>
<polyline clip-path="url(#clip700)" style="stroke:#000000; stroke-width:4; stroke-opacity:1; fill:none" points="
  1219.87,1521.01 1219.87,1503.32 
  "/>
<polyline clip-path="url(#clip700)" style="stroke:#000000; stroke-width:4; stroke-opacity:1; fill:none" points="
  1754.25,1521.01 1754.25,1503.32 
  "/>
<polyline clip-path="url(#clip700)" style="stroke:#000000; stroke-width:4; stroke-opacity:1; fill:none" points="
  2288.63,1521.01 2288.63,1503.32 
  "/>
<path clip-path="url(#clip700)" d="M 0 0 M123.571 1564.85 L153.247 1564.85 L153.247 1568.79 L123.571 1568.79 L123.571 1564.85 Z" fill="#000000" fill-rule="evenodd" fill-opacity="1" /><path clip-path="url(#clip700)" d="M 0 0 M162.344 1577.74 L178.664 1577.74 L178.664 1581.68 L156.719 1581.68 L156.719 1577.74 Q159.381 1574.99 163.965 1570.36 Q168.571 1565.71 169.752 1564.37 Q171.997 1561.84 172.877 1560.11 Q173.779 1558.35 173.779 1556.66 Q173.779 1553.9 171.835 1552.17 Q169.914 1550.43 166.812 1550.43 Q164.613 1550.43 162.159 1551.19 Q159.729 1551.96 156.951 1553.51 L156.951 1548.79 Q159.775 1547.65 162.229 1547.07 Q164.682 1546.49 166.719 1546.49 Q172.09 1546.49 175.284 1549.18 Q178.478 1551.87 178.478 1556.36 Q178.478 1558.49 177.668 1560.41 Q176.881 1562.3 174.775 1564.9 Q174.196 1565.57 171.094 1568.79 Q167.992 1571.98 162.344 1577.74 Z" fill="#000000" fill-rule="evenodd" fill-opacity="1" /><path clip-path="url(#clip700)" d="M 0 0 M657.764 1564.85 L687.44 1564.85 L687.44 1568.79 L657.764 1568.79 L657.764 1564.85 Z" fill="#000000" fill-rule="evenodd" fill-opacity="1" /><path clip-path="url(#clip700)" d="M 0 0 M693.32 1577.74 L700.959 1577.74 L700.959 1551.38 L692.649 1553.05 L692.649 1548.79 L700.912 1547.12 L705.588 1547.12 L705.588 1577.74 L713.227 1577.74 L713.227 1581.68 L693.32 1581.68 L693.32 1577.74 Z" fill="#000000" fill-rule="evenodd" fill-opacity="1" /><path clip-path="url(#clip700)" d="M 0 0 M1219.87 1550.2 Q1216.26 1550.2 1214.43 1553.76 Q1212.63 1557.31 1212.63 1564.43 Q1212.63 1571.54 1214.43 1575.11 Q1216.26 1578.65 1219.87 1578.65 Q1223.51 1578.65 1225.31 1575.11 Q1227.14 1571.54 1227.14 1564.43 Q1227.14 1557.31 1225.31 1553.76 Q1223.51 1550.2 1219.87 1550.2 M1219.87 1546.49 Q1225.68 1546.49 1228.74 1551.1 Q1231.82 1555.68 1231.82 1564.43 Q1231.82 1573.16 1228.74 1577.77 Q1225.68 1582.35 1219.87 1582.35 Q1214.06 1582.35 1210.99 1577.77 Q1207.93 1573.16 1207.93 1564.43 Q1207.93 1555.68 1210.99 1551.1 Q1214.06 1546.49 1219.87 1546.49 Z" fill="#000000" fill-rule="evenodd" fill-opacity="1" /><path clip-path="url(#clip700)" d="M 0 0 M1744.63 1577.74 L1752.27 1577.74 L1752.27 1551.38 L1743.96 1553.05 L1743.96 1548.79 L1752.23 1547.12 L1756.9 1547.12 L1756.9 1577.74 L1764.54 1577.74 L1764.54 1581.68 L1744.63 1581.68 L1744.63 1577.74 Z" fill="#000000" fill-rule="evenodd" fill-opacity="1" /><path clip-path="url(#clip700)" d="M 0 0 M2283.28 1577.74 L2299.6 1577.74 L2299.6 1581.68 L2277.66 1581.68 L2277.66 1577.74 Q2280.32 1574.99 2284.9 1570.36 Q2289.51 1565.71 2290.69 1564.37 Q2292.94 1561.84 2293.82 1560.11 Q2294.72 1558.35 2294.72 1556.66 Q2294.72 1553.9 2292.77 1552.17 Q2290.85 1550.43 2287.75 1550.43 Q2285.55 1550.43 2283.1 1551.19 Q2280.67 1551.96 2277.89 1553.51 L2277.89 1548.79 Q2280.71 1547.65 2283.17 1547.07 Q2285.62 1546.49 2287.66 1546.49 Q2293.03 1546.49 2296.22 1549.18 Q2299.42 1551.87 2299.42 1556.36 Q2299.42 1558.49 2298.61 1560.41 Q2297.82 1562.3 2295.71 1564.9 Q2295.14 1565.57 2292.03 1568.79 Q2288.93 1571.98 2283.28 1577.74 Z" fill="#000000" fill-rule="evenodd" fill-opacity="1" /><polyline clip-path="url(#clip702)" style="stroke:#000000; stroke-width:2; stroke-opacity:0.1; fill:none" points="
  86.9921,1305.5 2352.76,1305.5 
  "/>
<polyline clip-path="url(#clip702)" style="stroke:#000000; stroke-width:2; stroke-opacity:0.1; fill:none" points="
  86.9921,1088.26 2352.76,1088.26 
  "/>
<polyline clip-path="url(#clip702)" style="stroke:#000000; stroke-width:2; stroke-opacity:0.1; fill:none" points="
  86.9921,871.022 2352.76,871.022 
  "/>
<polyline clip-path="url(#clip702)" style="stroke:#000000; stroke-width:2; stroke-opacity:0.1; fill:none" points="
  86.9921,653.781 2352.76,653.781 
  "/>
<polyline clip-path="url(#clip702)" style="stroke:#000000; stroke-width:2; stroke-opacity:0.1; fill:none" points="
  86.9921,436.54 2352.76,436.54 
  "/>
<polyline clip-path="url(#clip702)" style="stroke:#000000; stroke-width:2; stroke-opacity:0.1; fill:none" points="
  86.9921,219.299 2352.76,219.299 
  "/>
<polyline clip-path="url(#clip700)" style="stroke:#000000; stroke-width:4; stroke-opacity:1; fill:none" points="
  86.9921,1521.01 86.9921,47.2441 
  "/>
<polyline clip-path="url(#clip700)" style="stroke:#000000; stroke-width:4; stroke-opacity:1; fill:none" points="
  86.9921,1305.5 114.181,1305.5 
  "/>
<polyline clip-path="url(#clip700)" style="stroke:#000000; stroke-width:4; stroke-opacity:1; fill:none" points="
  86.9921,1088.26 114.181,1088.26 
  "/>
<polyline clip-path="url(#clip700)" style="stroke:#000000; stroke-width:4; stroke-opacity:1; fill:none" points="
  86.9921,871.022 114.181,871.022 
  "/>
<polyline clip-path="url(#clip700)" style="stroke:#000000; stroke-width:4; stroke-opacity:1; fill:none" points="
  86.9921,653.781 114.181,653.781 
  "/>
<polyline clip-path="url(#clip700)" style="stroke:#000000; stroke-width:4; stroke-opacity:1; fill:none" points="
  86.9921,436.54 114.181,436.54 
  "/>
<polyline clip-path="url(#clip700)" style="stroke:#000000; stroke-width:4; stroke-opacity:1; fill:none" points="
  86.9921,219.299 114.181,219.299 
  "/>
<path clip-path="url(#clip700)" d="M 0 0 M-41.6694 1305.96 L-11.9936 1305.96 L-11.9936 1309.89 L-41.6694 1309.89 L-41.6694 1305.96 Z" fill="#000000" fill-rule="evenodd" fill-opacity="1" /><path clip-path="url(#clip700)" d="M 0 0 M-6.87793 1288.22 L11.4784 1288.22 L11.4784 1292.16 L-2.59555 1292.16 L-2.59555 1300.63 Q-1.57704 1300.28 -0.558524 1300.12 Q0.459989 1299.94 1.4785 1299.94 Q7.26551 1299.94 10.6451 1303.11 Q14.0247 1306.28 14.0247 1311.7 Q14.0247 1317.28 10.5525 1320.38 Q7.08032 1323.46 0.760914 1323.46 Q-1.415 1323.46 -3.68351 1323.09 Q-5.92887 1322.72 -8.33626 1321.97 L-8.33626 1317.28 Q-6.25294 1318.41 -4.03073 1318.97 Q-1.80852 1319.52 0.668322 1319.52 Q4.67293 1319.52 7.01088 1317.41 Q9.34883 1315.31 9.34883 1311.7 Q9.34883 1308.09 7.01088 1305.98 Q4.67293 1303.87 0.668322 1303.87 Q-1.20667 1303.87 -3.08166 1304.29 Q-4.9335 1304.71 -6.87793 1305.59 L-6.87793 1288.22 Z" fill="#000000" fill-rule="evenodd" fill-opacity="1" /><path clip-path="url(#clip700)" d="M 0 0 M19.0941 1316.91 L23.9784 1316.91 L23.9784 1322.78 L19.0941 1322.78 L19.0941 1316.91 Z" fill="#000000" fill-rule="evenodd" fill-opacity="1" /><path clip-path="url(#clip700)" d="M 0 0 M39.0477 1291.3 Q35.4367 1291.3 33.608 1294.87 Q31.8024 1298.41 31.8024 1305.54 Q31.8024 1312.65 33.608 1316.21 Q35.4367 1319.75 39.0477 1319.75 Q42.682 1319.75 44.4875 1316.21 Q46.3162 1312.65 46.3162 1305.54 Q46.3162 1298.41 44.4875 1294.87 Q42.682 1291.3 39.0477 1291.3 M39.0477 1287.6 Q44.8579 1287.6 47.9134 1292.21 Q50.9921 1296.79 50.9921 1305.54 Q50.9921 1314.27 47.9134 1318.87 Q44.8579 1323.46 39.0477 1323.46 Q33.2376 1323.46 30.1589 1318.87 Q27.1034 1314.27 27.1034 1305.54 Q27.1034 1296.79 30.1589 1292.21 Q33.2376 1287.6 39.0477 1287.6 Z" fill="#000000" fill-rule="evenodd" fill-opacity="1" /><path clip-path="url(#clip700)" d="M 0 0 M-40.0722 1088.71 L-10.3964 1088.71 L-10.3964 1092.65 L-40.0722 1092.65 L-40.0722 1088.71 Z" fill="#000000" fill-rule="evenodd" fill-opacity="1" /><path clip-path="url(#clip700)" d="M 0 0 M-1.29926 1101.61 L15.0201 1101.61 L15.0201 1105.54 L-6.92423 1105.54 L-6.92423 1101.61 Q-4.26221 1098.85 0.321101 1094.22 Q4.92756 1089.57 6.10811 1088.23 Q8.35347 1085.71 9.23309 1083.97 Q10.1359 1082.21 10.1359 1080.52 Q10.1359 1077.77 8.19143 1076.03 Q6.27014 1074.29 3.16831 1074.29 Q0.969246 1074.29 -1.48444 1075.06 Q-3.91499 1075.82 -6.69275 1077.37 L-6.69275 1072.65 Q-3.86869 1071.52 -1.415 1070.94 Q1.03869 1070.36 3.07572 1070.36 Q8.44606 1070.36 11.6405 1073.04 Q14.8349 1075.73 14.8349 1080.22 Q14.8349 1082.35 14.0247 1084.27 Q13.2377 1086.17 11.1312 1088.76 Q10.5525 1089.43 7.45069 1092.65 Q4.34886 1095.84 -1.29926 1101.61 Z" fill="#000000" fill-rule="evenodd" fill-opacity="1" /><path clip-path="url(#clip700)" d="M 0 0 M20.0895 1099.66 L24.9737 1099.66 L24.9737 1105.54 L20.0895 1105.54 L20.0895 1099.66 Z" fill="#000000" fill-rule="evenodd" fill-opacity="1" /><path clip-path="url(#clip700)" d="M 0 0 M30.0895 1070.98 L48.4458 1070.98 L48.4458 1074.92 L34.3718 1074.92 L34.3718 1083.39 Q35.3904 1083.04 36.4089 1082.88 Q37.4274 1082.7 38.4459 1082.7 Q44.2329 1082.7 47.6125 1085.87 Q50.9921 1089.04 50.9921 1094.46 Q50.9921 1100.03 47.5199 1103.14 Q44.0477 1106.21 37.7283 1106.21 Q35.5524 1106.21 33.2839 1105.84 Q31.0385 1105.47 28.6311 1104.73 L28.6311 1100.03 Q30.7145 1101.17 32.9367 1101.72 Q35.1589 1102.28 37.6357 1102.28 Q41.6403 1102.28 43.9783 1100.17 Q46.3162 1098.07 46.3162 1094.46 Q46.3162 1090.84 43.9783 1088.74 Q41.6403 1086.63 37.6357 1086.63 Q35.7607 1086.63 33.8857 1087.05 Q32.0339 1087.46 30.0895 1088.34 L30.0895 1070.98 Z" fill="#000000" fill-rule="evenodd" fill-opacity="1" /><path clip-path="url(#clip700)" d="M 0 0 M2.08035 856.821 Q-1.53074 856.821 -3.35943 860.386 Q-5.16498 863.928 -5.16498 871.057 Q-5.16498 878.164 -3.35943 881.728 Q-1.53074 885.27 2.08035 885.27 Q5.71459 885.27 7.52014 881.728 Q9.34883 878.164 9.34883 871.057 Q9.34883 863.928 7.52014 860.386 Q5.71459 856.821 2.08035 856.821 M2.08035 853.117 Q7.89051 853.117 10.946 857.724 Q14.0247 862.307 14.0247 871.057 Q14.0247 879.784 10.946 884.39 Q7.89051 888.974 2.08035 888.974 Q-3.7298 888.974 -6.80849 884.39 Q-9.86403 879.784 -9.86403 871.057 Q-9.86403 862.307 -6.80849 857.724 Q-3.7298 853.117 2.08035 853.117 Z" fill="#000000" fill-rule="evenodd" fill-opacity="1" /><path clip-path="url(#clip700)" d="M 0 0 M19.0941 882.423 L23.9784 882.423 L23.9784 888.302 L19.0941 888.302 L19.0941 882.423 Z" fill="#000000" fill-rule="evenodd" fill-opacity="1" /><path clip-path="url(#clip700)" d="M 0 0 M39.0477 856.821 Q35.4367 856.821 33.608 860.386 Q31.8024 863.928 31.8024 871.057 Q31.8024 878.164 33.608 881.728 Q35.4367 885.27 39.0477 885.27 Q42.682 885.27 44.4875 881.728 Q46.3162 878.164 46.3162 871.057 Q46.3162 863.928 44.4875 860.386 Q42.682 856.821 39.0477 856.821 M39.0477 853.117 Q44.8579 853.117 47.9134 857.724 Q50.9921 862.307 50.9921 871.057 Q50.9921 879.784 47.9134 884.39 Q44.8579 888.974 39.0477 888.974 Q33.2376 888.974 30.1589 884.39 Q27.1034 879.784 27.1034 871.057 Q27.1034 862.307 30.1589 857.724 Q33.2376 853.117 39.0477 853.117 Z" fill="#000000" fill-rule="evenodd" fill-opacity="1" /><path clip-path="url(#clip700)" d="M 0 0 M-1.29926 667.126 L15.0201 667.126 L15.0201 671.061 L-6.92423 671.061 L-6.92423 667.126 Q-4.26221 664.372 0.321101 659.742 Q4.92756 655.089 6.10811 653.747 Q8.35347 651.223 9.23309 649.487 Q10.1359 647.728 10.1359 646.038 Q10.1359 643.284 8.19143 641.548 Q6.27014 639.811 3.16831 639.811 Q0.969246 639.811 -1.48444 640.575 Q-3.91499 641.339 -6.69275 642.89 L-6.69275 638.168 Q-3.86869 637.034 -1.415 636.455 Q1.03869 635.876 3.07572 635.876 Q8.44606 635.876 11.6405 638.561 Q14.8349 641.247 14.8349 645.737 Q14.8349 647.867 14.0247 649.788 Q13.2377 651.686 11.1312 654.279 Q10.5525 654.95 7.45069 658.168 Q4.34886 661.362 -1.29926 667.126 Z" fill="#000000" fill-rule="evenodd" fill-opacity="1" /><path clip-path="url(#clip700)" d="M 0 0 M20.0895 665.182 L24.9737 665.182 L24.9737 671.061 L20.0895 671.061 L20.0895 665.182 Z" fill="#000000" fill-rule="evenodd" fill-opacity="1" /><path clip-path="url(#clip700)" d="M 0 0 M30.0895 636.501 L48.4458 636.501 L48.4458 640.436 L34.3718 640.436 L34.3718 648.909 Q35.3904 648.561 36.4089 648.399 Q37.4274 648.214 38.4459 648.214 Q44.2329 648.214 47.6125 651.385 Q50.9921 654.557 50.9921 659.973 Q50.9921 665.552 47.5199 668.654 Q44.0477 671.733 37.7283 671.733 Q35.5524 671.733 33.2839 671.362 Q31.0385 670.992 28.6311 670.251 L28.6311 665.552 Q30.7145 666.686 32.9367 667.242 Q35.1589 667.797 37.6357 667.797 Q41.6403 667.797 43.9783 665.691 Q46.3162 663.584 46.3162 659.973 Q46.3162 656.362 43.9783 654.256 Q41.6403 652.149 37.6357 652.149 Q35.7607 652.149 33.8857 652.566 Q32.0339 652.983 30.0895 653.862 L30.0895 636.501 Z" fill="#000000" fill-rule="evenodd" fill-opacity="1" /><path clip-path="url(#clip700)" d="M 0 0 M-6.87793 419.26 L11.4784 419.26 L11.4784 423.195 L-2.59555 423.195 L-2.59555 431.668 Q-1.57704 431.32 -0.558524 431.158 Q0.459989 430.973 1.4785 430.973 Q7.26551 430.973 10.6451 434.144 Q14.0247 437.316 14.0247 442.732 Q14.0247 448.311 10.5525 451.413 Q7.08032 454.491 0.760914 454.491 Q-1.415 454.491 -3.68351 454.121 Q-5.92887 453.751 -8.33626 453.01 L-8.33626 448.311 Q-6.25294 449.445 -4.03073 450.001 Q-1.80852 450.556 0.668322 450.556 Q4.67293 450.556 7.01088 448.45 Q9.34883 446.343 9.34883 442.732 Q9.34883 439.121 7.01088 437.015 Q4.67293 434.908 0.668322 434.908 Q-1.20667 434.908 -3.08166 435.325 Q-4.9335 435.742 -6.87793 436.621 L-6.87793 419.26 Z" fill="#000000" fill-rule="evenodd" fill-opacity="1" /><path clip-path="url(#clip700)" d="M 0 0 M19.0941 447.941 L23.9784 447.941 L23.9784 453.82 L19.0941 453.82 L19.0941 447.941 Z" fill="#000000" fill-rule="evenodd" fill-opacity="1" /><path clip-path="url(#clip700)" d="M 0 0 M39.0477 422.339 Q35.4367 422.339 33.608 425.904 Q31.8024 429.445 31.8024 436.575 Q31.8024 443.681 33.608 447.246 Q35.4367 450.788 39.0477 450.788 Q42.682 450.788 44.4875 447.246 Q46.3162 443.681 46.3162 436.575 Q46.3162 429.445 44.4875 425.904 Q42.682 422.339 39.0477 422.339 M39.0477 418.635 Q44.8579 418.635 47.9134 423.242 Q50.9921 427.825 50.9921 436.575 Q50.9921 445.302 47.9134 449.908 Q44.8579 454.491 39.0477 454.491 Q33.2376 454.491 30.1589 449.908 Q27.1034 445.302 27.1034 436.575 Q27.1034 427.825 30.1589 423.242 Q33.2376 418.635 39.0477 418.635 Z" fill="#000000" fill-rule="evenodd" fill-opacity="1" /><path clip-path="url(#clip700)" d="M 0 0 M-7.20201 202.019 L15.0201 202.019 L15.0201 204.01 L2.47387 236.579 L-2.41037 236.579 L9.39513 205.954 L-7.20201 205.954 L-7.20201 202.019 Z" fill="#000000" fill-rule="evenodd" fill-opacity="1" /><path clip-path="url(#clip700)" d="M 0 0 M20.0895 230.699 L24.9737 230.699 L24.9737 236.579 L20.0895 236.579 L20.0895 230.699 Z" fill="#000000" fill-rule="evenodd" fill-opacity="1" /><path clip-path="url(#clip700)" d="M 0 0 M30.0895 202.019 L48.4458 202.019 L48.4458 205.954 L34.3718 205.954 L34.3718 214.426 Q35.3904 214.079 36.4089 213.917 Q37.4274 213.732 38.4459 213.732 Q44.2329 213.732 47.6125 216.903 Q50.9921 220.075 50.9921 225.491 Q50.9921 231.07 47.5199 234.172 Q44.0477 237.25 37.7283 237.25 Q35.5524 237.25 33.2839 236.88 Q31.0385 236.51 28.6311 235.769 L28.6311 231.07 Q30.7145 232.204 32.9367 232.76 Q35.1589 233.315 37.6357 233.315 Q41.6403 233.315 43.9783 231.209 Q46.3162 229.102 46.3162 225.491 Q46.3162 221.88 43.9783 219.774 Q41.6403 217.667 37.6357 217.667 Q35.7607 217.667 33.8857 218.084 Q32.0339 218.5 30.0895 219.38 L30.0895 202.019 Z" fill="#000000" fill-rule="evenodd" fill-opacity="1" /><path clip-path="url(#clip702)" d="
M151.118 1479.3 L2288.63 1479.3 L2288.63 88.9544 L151.118 88.9544 L151.118 1479.3  Z
  " fill="#009af9" fill-rule="evenodd" fill-opacity="0.5"/>
<polyline clip-path="url(#clip702)" style="stroke:#000000; stroke-width:4; stroke-opacity:0.5; fill:none" points="
  151.118,1479.3 2288.63,1479.3 2288.63,88.9544 151.118,88.9544 151.118,1479.3 
  "/>
<path clip-path="url(#clip702)" d="
M151.118 1283.78 L418.307 1283.78 L418.307 1001.37 L151.118 1001.37 L151.118 1283.78  Z
  " fill="#e26f46" fill-rule="evenodd" fill-opacity="0.5"/>
<polyline clip-path="url(#clip702)" style="stroke:#000000; stroke-width:4; stroke-opacity:0.5; fill:none" points="
  151.118,1283.78 418.307,1283.78 418.307,1001.37 151.118,1001.37 151.118,1283.78 
  "/>
<path clip-path="url(#clip702)" d="
M418.307 1348.95 L2288.63 1348.95 L2288.63 88.9544 L418.307 88.9544 L418.307 1348.95  Z
  " fill="#e26f46" fill-rule="evenodd" fill-opacity="0.5"/>
<polyline clip-path="url(#clip702)" style="stroke:#000000; stroke-width:4; stroke-opacity:0.5; fill:none" points="
  418.307,1348.95 2288.63,1348.95 2288.63,88.9544 418.307,88.9544 418.307,1348.95 
  "/>
<polyline clip-path="url(#clip702)" style="stroke:#000000; stroke-width:8; stroke-opacity:1; fill:none" points="
  151.118,1131.71 171.992,1134.97 365.008,1152.57 481.002,1152.24 579.074,1145.57 685.607,1131.69 783.821,1112.78 889.117,1085.98 1011.11,1046.5 1119.53,1003.81 
  1214.6,960.484 1318.25,906.981 1422.52,846.564 1537.8,772.063 1647.49,693.668 1761.54,604.391 1857.55,523.101 1974.76,416.251 2084.94,308.184 2261.46,119.652 
  2288.63,88.9544 
  "/>
</svg>
